%TF.GenerationSoftware,KiCad,Pcbnew,6.0.2+dfsg-1*%
%TF.CreationDate,2022-07-07T18:02:14-05:00*%
%TF.ProjectId,protopak64,70726f74-6f70-4616-9b36-342e6b696361,rev?*%
%TF.SameCoordinates,Original*%
%TF.FileFunction,Legend,Bot*%
%TF.FilePolarity,Positive*%
%FSLAX46Y46*%
G04 Gerber Fmt 4.6, Leading zero omitted, Abs format (unit mm)*
G04 Created by KiCad (PCBNEW 6.0.2+dfsg-1) date 2022-07-07 18:02:14*
%MOMM*%
%LPD*%
G01*
G04 APERTURE LIST*
G04 Aperture macros list*
%AMFreePoly0*
4,1,6,1.000000,0.000000,0.500000,-0.750000,-0.500000,-0.750000,-0.500000,0.750000,0.500000,0.750000,1.000000,0.000000,1.000000,0.000000,$1*%
%AMFreePoly1*
4,1,6,0.500000,-0.750000,-0.650000,-0.750000,-0.150000,0.000000,-0.650000,0.750000,0.500000,0.750000,0.500000,-0.750000,0.500000,-0.750000,$1*%
G04 Aperture macros list end*
%ADD10C,0.150000*%
%ADD11C,0.120000*%
%ADD12R,1.700000X1.700000*%
%ADD13O,1.700000X1.700000*%
%ADD14R,1.000000X5.400000*%
%ADD15R,2.000000X2.000000*%
%ADD16C,2.000000*%
%ADD17FreePoly0,0.000000*%
%ADD18FreePoly1,0.000000*%
G04 APERTURE END LIST*
D10*
X131881619Y-101645404D02*
X132881619Y-101645404D01*
X132881619Y-101407309D01*
X132834000Y-101264452D01*
X132738761Y-101169214D01*
X132643523Y-101121595D01*
X132453047Y-101073976D01*
X132310190Y-101073976D01*
X132119714Y-101121595D01*
X132024476Y-101169214D01*
X131929238Y-101264452D01*
X131881619Y-101407309D01*
X131881619Y-101645404D01*
X131881619Y-100121595D02*
X131881619Y-100693023D01*
X131881619Y-100407309D02*
X132881619Y-100407309D01*
X132738761Y-100502547D01*
X132643523Y-100597785D01*
X132595904Y-100693023D01*
X147121142Y-146491904D02*
X146549714Y-146491904D01*
X146835428Y-147291904D02*
X146835428Y-146491904D01*
X146216380Y-147291904D02*
X146216380Y-146491904D01*
X145787809Y-147291904D02*
X145787809Y-146872857D01*
X145835428Y-146796666D01*
X145930666Y-146758571D01*
X146073523Y-146758571D01*
X146168761Y-146796666D01*
X146216380Y-146834761D01*
X145311619Y-147291904D02*
X145311619Y-146758571D01*
X145311619Y-146491904D02*
X145359238Y-146530000D01*
X145311619Y-146568095D01*
X145264000Y-146530000D01*
X145311619Y-146491904D01*
X145311619Y-146568095D01*
X144883047Y-147253809D02*
X144787809Y-147291904D01*
X144597333Y-147291904D01*
X144502095Y-147253809D01*
X144454476Y-147177619D01*
X144454476Y-147139523D01*
X144502095Y-147063333D01*
X144597333Y-147025238D01*
X144740190Y-147025238D01*
X144835428Y-146987142D01*
X144883047Y-146910952D01*
X144883047Y-146872857D01*
X144835428Y-146796666D01*
X144740190Y-146758571D01*
X144597333Y-146758571D01*
X144502095Y-146796666D01*
X143311619Y-147253809D02*
X143168761Y-147291904D01*
X142930666Y-147291904D01*
X142835428Y-147253809D01*
X142787809Y-147215714D01*
X142740190Y-147139523D01*
X142740190Y-147063333D01*
X142787809Y-146987142D01*
X142835428Y-146949047D01*
X142930666Y-146910952D01*
X143121142Y-146872857D01*
X143216380Y-146834761D01*
X143264000Y-146796666D01*
X143311619Y-146720476D01*
X143311619Y-146644285D01*
X143264000Y-146568095D01*
X143216380Y-146530000D01*
X143121142Y-146491904D01*
X142883047Y-146491904D01*
X142740190Y-146530000D01*
X142311619Y-147291904D02*
X142311619Y-146758571D01*
X142311619Y-146491904D02*
X142359238Y-146530000D01*
X142311619Y-146568095D01*
X142264000Y-146530000D01*
X142311619Y-146491904D01*
X142311619Y-146568095D01*
X141406857Y-147291904D02*
X141406857Y-146491904D01*
X141406857Y-147253809D02*
X141502095Y-147291904D01*
X141692571Y-147291904D01*
X141787809Y-147253809D01*
X141835428Y-147215714D01*
X141883047Y-147139523D01*
X141883047Y-146910952D01*
X141835428Y-146834761D01*
X141787809Y-146796666D01*
X141692571Y-146758571D01*
X141502095Y-146758571D01*
X141406857Y-146796666D01*
X140549714Y-147253809D02*
X140644952Y-147291904D01*
X140835428Y-147291904D01*
X140930666Y-147253809D01*
X140978285Y-147177619D01*
X140978285Y-146872857D01*
X140930666Y-146796666D01*
X140835428Y-146758571D01*
X140644952Y-146758571D01*
X140549714Y-146796666D01*
X140502095Y-146872857D01*
X140502095Y-146949047D01*
X140978285Y-147025238D01*
X148954476Y-147779904D02*
X148383047Y-147779904D01*
X148668761Y-148579904D02*
X148668761Y-147779904D01*
X147906857Y-148579904D02*
X148002095Y-148541809D01*
X148049714Y-148503714D01*
X148097333Y-148427523D01*
X148097333Y-148198952D01*
X148049714Y-148122761D01*
X148002095Y-148084666D01*
X147906857Y-148046571D01*
X147764000Y-148046571D01*
X147668761Y-148084666D01*
X147621142Y-148122761D01*
X147573523Y-148198952D01*
X147573523Y-148427523D01*
X147621142Y-148503714D01*
X147668761Y-148541809D01*
X147764000Y-148579904D01*
X147906857Y-148579904D01*
X147240190Y-148046571D02*
X147049714Y-148579904D01*
X146859238Y-148198952D01*
X146668761Y-148579904D01*
X146478285Y-148046571D01*
X145668761Y-148579904D02*
X145668761Y-148160857D01*
X145716380Y-148084666D01*
X145811619Y-148046571D01*
X146002095Y-148046571D01*
X146097333Y-148084666D01*
X145668761Y-148541809D02*
X145764000Y-148579904D01*
X146002095Y-148579904D01*
X146097333Y-148541809D01*
X146144952Y-148465619D01*
X146144952Y-148389428D01*
X146097333Y-148313238D01*
X146002095Y-148275142D01*
X145764000Y-148275142D01*
X145668761Y-148237047D01*
X145192571Y-148579904D02*
X145192571Y-148046571D01*
X145192571Y-148198952D02*
X145144952Y-148122761D01*
X145097333Y-148084666D01*
X145002095Y-148046571D01*
X144906857Y-148046571D01*
X144144952Y-148579904D02*
X144144952Y-147779904D01*
X144144952Y-148541809D02*
X144240190Y-148579904D01*
X144430666Y-148579904D01*
X144525904Y-148541809D01*
X144573523Y-148503714D01*
X144621142Y-148427523D01*
X144621142Y-148198952D01*
X144573523Y-148122761D01*
X144525904Y-148084666D01*
X144430666Y-148046571D01*
X144240190Y-148046571D01*
X144144952Y-148084666D01*
X142906857Y-148579904D02*
X142906857Y-147779904D01*
X142525904Y-147779904D01*
X142430666Y-147818000D01*
X142383047Y-147856095D01*
X142335428Y-147932285D01*
X142335428Y-148046571D01*
X142383047Y-148122761D01*
X142430666Y-148160857D01*
X142525904Y-148198952D01*
X142906857Y-148198952D01*
X141764000Y-148579904D02*
X141859238Y-148541809D01*
X141906857Y-148465619D01*
X141906857Y-147779904D01*
X140954476Y-148579904D02*
X140954476Y-148160857D01*
X141002095Y-148084666D01*
X141097333Y-148046571D01*
X141287809Y-148046571D01*
X141383047Y-148084666D01*
X140954476Y-148541809D02*
X141049714Y-148579904D01*
X141287809Y-148579904D01*
X141383047Y-148541809D01*
X141430666Y-148465619D01*
X141430666Y-148389428D01*
X141383047Y-148313238D01*
X141287809Y-148275142D01*
X141049714Y-148275142D01*
X140954476Y-148237047D01*
X140573523Y-148046571D02*
X140335428Y-148579904D01*
X140097333Y-148046571D02*
X140335428Y-148579904D01*
X140430666Y-148770380D01*
X140478285Y-148808476D01*
X140573523Y-148846571D01*
X139335428Y-148541809D02*
X139430666Y-148579904D01*
X139621142Y-148579904D01*
X139716380Y-148541809D01*
X139764000Y-148465619D01*
X139764000Y-148160857D01*
X139716380Y-148084666D01*
X139621142Y-148046571D01*
X139430666Y-148046571D01*
X139335428Y-148084666D01*
X139287809Y-148160857D01*
X139287809Y-148237047D01*
X139764000Y-148313238D01*
X138859238Y-148579904D02*
X138859238Y-148046571D01*
X138859238Y-148198952D02*
X138811619Y-148122761D01*
X138764000Y-148084666D01*
X138668761Y-148046571D01*
X138573523Y-148046571D01*
X129341619Y-101645404D02*
X130341619Y-101645404D01*
X130341619Y-101407309D01*
X130294000Y-101264452D01*
X130198761Y-101169214D01*
X130103523Y-101121595D01*
X129913047Y-101073976D01*
X129770190Y-101073976D01*
X129579714Y-101121595D01*
X129484476Y-101169214D01*
X129389238Y-101264452D01*
X129341619Y-101407309D01*
X129341619Y-101645404D01*
X129865428Y-100645404D02*
X129865428Y-100312071D01*
X129341619Y-100169214D02*
X129341619Y-100645404D01*
X130341619Y-100645404D01*
X130341619Y-100169214D01*
X130341619Y-99883500D02*
X130341619Y-99312071D01*
X129341619Y-99597785D02*
X130341619Y-99597785D01*
X129865428Y-98978738D02*
X129865428Y-98645404D01*
X129341619Y-98502547D02*
X129341619Y-98978738D01*
X130341619Y-98978738D01*
X130341619Y-98502547D01*
X129436857Y-97502547D02*
X129389238Y-97550166D01*
X129341619Y-97693023D01*
X129341619Y-97788261D01*
X129389238Y-97931119D01*
X129484476Y-98026357D01*
X129579714Y-98073976D01*
X129770190Y-98121595D01*
X129913047Y-98121595D01*
X130103523Y-98073976D01*
X130198761Y-98026357D01*
X130294000Y-97931119D01*
X130341619Y-97788261D01*
X130341619Y-97693023D01*
X130294000Y-97550166D01*
X130246380Y-97502547D01*
X130341619Y-97216833D02*
X130341619Y-96645404D01*
X129341619Y-96931119D02*
X130341619Y-96931119D01*
X163314000Y-101121595D02*
X163361619Y-101216833D01*
X163361619Y-101359690D01*
X163314000Y-101502547D01*
X163218761Y-101597785D01*
X163123523Y-101645404D01*
X162933047Y-101693023D01*
X162790190Y-101693023D01*
X162599714Y-101645404D01*
X162504476Y-101597785D01*
X162409238Y-101502547D01*
X162361619Y-101359690D01*
X162361619Y-101264452D01*
X162409238Y-101121595D01*
X162456857Y-101073976D01*
X162790190Y-101073976D01*
X162790190Y-101264452D01*
X162361619Y-100645404D02*
X163361619Y-100645404D01*
X162361619Y-100073976D01*
X163361619Y-100073976D01*
X162361619Y-99597785D02*
X163361619Y-99597785D01*
X163361619Y-99359690D01*
X163314000Y-99216833D01*
X163218761Y-99121595D01*
X163123523Y-99073976D01*
X162933047Y-99026357D01*
X162790190Y-99026357D01*
X162599714Y-99073976D01*
X162504476Y-99121595D01*
X162409238Y-99216833D01*
X162361619Y-99359690D01*
X162361619Y-99597785D01*
X144202095Y-132219238D02*
X143630666Y-132219238D01*
X143516380Y-132257333D01*
X143440190Y-132333523D01*
X143402095Y-132447809D01*
X143402095Y-132524000D01*
X143402095Y-131457333D02*
X143402095Y-131838285D01*
X144202095Y-131838285D01*
X143478285Y-130733523D02*
X143440190Y-130771619D01*
X143402095Y-130885904D01*
X143402095Y-130962095D01*
X143440190Y-131076380D01*
X143516380Y-131152571D01*
X143592571Y-131190666D01*
X143744952Y-131228761D01*
X143859238Y-131228761D01*
X144011619Y-131190666D01*
X144087809Y-131152571D01*
X144164000Y-131076380D01*
X144202095Y-130962095D01*
X144202095Y-130885904D01*
X144164000Y-130771619D01*
X144125904Y-130733523D01*
X144202095Y-130162095D02*
X143630666Y-130162095D01*
X143516380Y-130200190D01*
X143440190Y-130276380D01*
X143402095Y-130390666D01*
X143402095Y-130466857D01*
X143402095Y-129400190D02*
X143402095Y-129781142D01*
X144202095Y-129781142D01*
X143478285Y-128676380D02*
X143440190Y-128714476D01*
X143402095Y-128828761D01*
X143402095Y-128904952D01*
X143440190Y-129019238D01*
X143516380Y-129095428D01*
X143592571Y-129133523D01*
X143744952Y-129171619D01*
X143859238Y-129171619D01*
X144011619Y-129133523D01*
X144087809Y-129095428D01*
X144164000Y-129019238D01*
X144202095Y-128904952D01*
X144202095Y-128828761D01*
X144164000Y-128714476D01*
X144125904Y-128676380D01*
X144202095Y-128104952D02*
X143630666Y-128104952D01*
X143516380Y-128143047D01*
X143440190Y-128219238D01*
X143402095Y-128333523D01*
X143402095Y-128409714D01*
X143402095Y-127343047D02*
X143402095Y-127724000D01*
X144202095Y-127724000D01*
X143478285Y-126619238D02*
X143440190Y-126657333D01*
X143402095Y-126771619D01*
X143402095Y-126847809D01*
X143440190Y-126962095D01*
X143516380Y-127038285D01*
X143592571Y-127076380D01*
X143744952Y-127114476D01*
X143859238Y-127114476D01*
X144011619Y-127076380D01*
X144087809Y-127038285D01*
X144164000Y-126962095D01*
X144202095Y-126847809D01*
X144202095Y-126771619D01*
X144164000Y-126657333D01*
X144125904Y-126619238D01*
X144202095Y-126047809D02*
X143630666Y-126047809D01*
X143516380Y-126085904D01*
X143440190Y-126162095D01*
X143402095Y-126276380D01*
X143402095Y-126352571D01*
X143402095Y-125285904D02*
X143402095Y-125666857D01*
X144202095Y-125666857D01*
X143478285Y-124562095D02*
X143440190Y-124600190D01*
X143402095Y-124714476D01*
X143402095Y-124790666D01*
X143440190Y-124904952D01*
X143516380Y-124981142D01*
X143592571Y-125019238D01*
X143744952Y-125057333D01*
X143859238Y-125057333D01*
X144011619Y-125019238D01*
X144087809Y-124981142D01*
X144164000Y-124904952D01*
X144202095Y-124790666D01*
X144202095Y-124714476D01*
X144164000Y-124600190D01*
X144125904Y-124562095D01*
X149947333Y-101693023D02*
X149947333Y-101216833D01*
X149661619Y-101788261D02*
X150661619Y-101454928D01*
X149661619Y-101121595D01*
X150661619Y-100312071D02*
X150661619Y-100788261D01*
X150185428Y-100835880D01*
X150233047Y-100788261D01*
X150280666Y-100693023D01*
X150280666Y-100454928D01*
X150233047Y-100359690D01*
X150185428Y-100312071D01*
X150090190Y-100264452D01*
X149852095Y-100264452D01*
X149756857Y-100312071D01*
X149709238Y-100359690D01*
X149661619Y-100454928D01*
X149661619Y-100693023D01*
X149709238Y-100788261D01*
X149756857Y-100835880D01*
X159916857Y-109269738D02*
X159869238Y-109317357D01*
X159821619Y-109460214D01*
X159821619Y-109555452D01*
X159869238Y-109698309D01*
X159964476Y-109793547D01*
X160059714Y-109841166D01*
X160250190Y-109888785D01*
X160393047Y-109888785D01*
X160583523Y-109841166D01*
X160678761Y-109793547D01*
X160774000Y-109698309D01*
X160821619Y-109555452D01*
X160821619Y-109460214D01*
X160774000Y-109317357D01*
X160726380Y-109269738D01*
X160345428Y-108841166D02*
X160345428Y-108507833D01*
X159821619Y-108364976D02*
X159821619Y-108841166D01*
X160821619Y-108841166D01*
X160821619Y-108364976D01*
X134421619Y-101645404D02*
X135421619Y-101645404D01*
X135421619Y-101407309D01*
X135374000Y-101264452D01*
X135278761Y-101169214D01*
X135183523Y-101121595D01*
X134993047Y-101073976D01*
X134850190Y-101073976D01*
X134659714Y-101121595D01*
X134564476Y-101169214D01*
X134469238Y-101264452D01*
X134421619Y-101407309D01*
X134421619Y-101645404D01*
X135421619Y-100454928D02*
X135421619Y-100359690D01*
X135374000Y-100264452D01*
X135326380Y-100216833D01*
X135231142Y-100169214D01*
X135040666Y-100121595D01*
X134802571Y-100121595D01*
X134612095Y-100169214D01*
X134516857Y-100216833D01*
X134469238Y-100264452D01*
X134421619Y-100359690D01*
X134421619Y-100454928D01*
X134469238Y-100550166D01*
X134516857Y-100597785D01*
X134612095Y-100645404D01*
X134802571Y-100693023D01*
X135040666Y-100693023D01*
X135231142Y-100645404D01*
X135326380Y-100597785D01*
X135374000Y-100550166D01*
X135421619Y-100454928D01*
X147407333Y-101693023D02*
X147407333Y-101216833D01*
X147121619Y-101788261D02*
X148121619Y-101454928D01*
X147121619Y-101121595D01*
X147788285Y-100359690D02*
X147121619Y-100359690D01*
X148169238Y-100597785D02*
X147454952Y-100835880D01*
X147454952Y-100216833D01*
X157567333Y-110745928D02*
X157567333Y-110269738D01*
X157281619Y-110841166D02*
X158281619Y-110507833D01*
X157281619Y-110174500D01*
X157281619Y-109317357D02*
X157281619Y-109888785D01*
X157281619Y-109603071D02*
X158281619Y-109603071D01*
X158138761Y-109698309D01*
X158043523Y-109793547D01*
X157995904Y-109888785D01*
X158281619Y-108412595D02*
X158281619Y-108888785D01*
X157805428Y-108936404D01*
X157853047Y-108888785D01*
X157900666Y-108793547D01*
X157900666Y-108555452D01*
X157853047Y-108460214D01*
X157805428Y-108412595D01*
X157710190Y-108364976D01*
X157472095Y-108364976D01*
X157376857Y-108412595D01*
X157329238Y-108460214D01*
X157281619Y-108555452D01*
X157281619Y-108793547D01*
X157329238Y-108888785D01*
X157376857Y-108936404D01*
X134421619Y-109888785D02*
X135421619Y-109888785D01*
X135421619Y-109650690D01*
X135374000Y-109507833D01*
X135278761Y-109412595D01*
X135183523Y-109364976D01*
X134993047Y-109317357D01*
X134850190Y-109317357D01*
X134659714Y-109364976D01*
X134564476Y-109412595D01*
X134469238Y-109507833D01*
X134421619Y-109650690D01*
X134421619Y-109888785D01*
X135421619Y-108460214D02*
X135421619Y-108650690D01*
X135374000Y-108745928D01*
X135326380Y-108793547D01*
X135183523Y-108888785D01*
X134993047Y-108936404D01*
X134612095Y-108936404D01*
X134516857Y-108888785D01*
X134469238Y-108841166D01*
X134421619Y-108745928D01*
X134421619Y-108555452D01*
X134469238Y-108460214D01*
X134516857Y-108412595D01*
X134612095Y-108364976D01*
X134850190Y-108364976D01*
X134945428Y-108412595D01*
X134993047Y-108460214D01*
X135040666Y-108555452D01*
X135040666Y-108745928D01*
X134993047Y-108841166D01*
X134945428Y-108888785D01*
X134850190Y-108936404D01*
X143324000Y-110126880D02*
X143324000Y-109079261D01*
X143041619Y-109698309D02*
X143041619Y-109507833D01*
X142994000Y-109412595D01*
X142898761Y-109317357D01*
X142708285Y-109269738D01*
X142374952Y-109269738D01*
X142184476Y-109317357D01*
X142089238Y-109412595D01*
X142041619Y-109507833D01*
X142041619Y-109698309D01*
X142089238Y-109793547D01*
X142184476Y-109888785D01*
X142374952Y-109936404D01*
X142708285Y-109936404D01*
X142898761Y-109888785D01*
X142994000Y-109793547D01*
X143041619Y-109698309D01*
X143324000Y-109079261D02*
X143324000Y-108174500D01*
X142565428Y-108841166D02*
X142565428Y-108507833D01*
X142041619Y-108364976D02*
X142041619Y-108841166D01*
X143041619Y-108841166D01*
X143041619Y-108364976D01*
X149947333Y-109793547D02*
X149947333Y-109317357D01*
X149661619Y-109888785D02*
X150661619Y-109555452D01*
X149661619Y-109222119D01*
X150233047Y-108745928D02*
X150280666Y-108841166D01*
X150328285Y-108888785D01*
X150423523Y-108936404D01*
X150471142Y-108936404D01*
X150566380Y-108888785D01*
X150614000Y-108841166D01*
X150661619Y-108745928D01*
X150661619Y-108555452D01*
X150614000Y-108460214D01*
X150566380Y-108412595D01*
X150471142Y-108364976D01*
X150423523Y-108364976D01*
X150328285Y-108412595D01*
X150280666Y-108460214D01*
X150233047Y-108555452D01*
X150233047Y-108745928D01*
X150185428Y-108841166D01*
X150137809Y-108888785D01*
X150042571Y-108936404D01*
X149852095Y-108936404D01*
X149756857Y-108888785D01*
X149709238Y-108841166D01*
X149661619Y-108745928D01*
X149661619Y-108555452D01*
X149709238Y-108460214D01*
X149756857Y-108412595D01*
X149852095Y-108364976D01*
X150042571Y-108364976D01*
X150137809Y-108412595D01*
X150185428Y-108460214D01*
X150233047Y-108555452D01*
X152487333Y-110745928D02*
X152487333Y-110269738D01*
X152201619Y-110841166D02*
X153201619Y-110507833D01*
X152201619Y-110174500D01*
X152201619Y-109317357D02*
X152201619Y-109888785D01*
X152201619Y-109603071D02*
X153201619Y-109603071D01*
X153058761Y-109698309D01*
X152963523Y-109793547D01*
X152915904Y-109888785D01*
X153201619Y-108984023D02*
X153201619Y-108364976D01*
X152820666Y-108698309D01*
X152820666Y-108555452D01*
X152773047Y-108460214D01*
X152725428Y-108412595D01*
X152630190Y-108364976D01*
X152392095Y-108364976D01*
X152296857Y-108412595D01*
X152249238Y-108460214D01*
X152201619Y-108555452D01*
X152201619Y-108841166D01*
X152249238Y-108936404D01*
X152296857Y-108984023D01*
X160107333Y-101693023D02*
X160107333Y-101216833D01*
X159821619Y-101788261D02*
X160821619Y-101454928D01*
X159821619Y-101121595D01*
X159821619Y-100264452D02*
X159821619Y-100835880D01*
X159821619Y-100550166D02*
X160821619Y-100550166D01*
X160678761Y-100645404D01*
X160583523Y-100740642D01*
X160535904Y-100835880D01*
X160488285Y-99407309D02*
X159821619Y-99407309D01*
X160869238Y-99645404D02*
X160154952Y-99883500D01*
X160154952Y-99264452D01*
X157567333Y-101693023D02*
X157567333Y-101216833D01*
X157281619Y-101788261D02*
X158281619Y-101454928D01*
X157281619Y-101121595D01*
X157281619Y-100264452D02*
X157281619Y-100835880D01*
X157281619Y-100550166D02*
X158281619Y-100550166D01*
X158138761Y-100645404D01*
X158043523Y-100740642D01*
X157995904Y-100835880D01*
X158186380Y-99883500D02*
X158234000Y-99835880D01*
X158281619Y-99740642D01*
X158281619Y-99502547D01*
X158234000Y-99407309D01*
X158186380Y-99359690D01*
X158091142Y-99312071D01*
X157995904Y-99312071D01*
X157853047Y-99359690D01*
X157281619Y-99931119D01*
X157281619Y-99312071D01*
X124261619Y-109888785D02*
X125261619Y-109888785D01*
X125261619Y-109650690D01*
X125214000Y-109507833D01*
X125118761Y-109412595D01*
X125023523Y-109364976D01*
X124833047Y-109317357D01*
X124690190Y-109317357D01*
X124499714Y-109364976D01*
X124404476Y-109412595D01*
X124309238Y-109507833D01*
X124261619Y-109650690D01*
X124261619Y-109888785D01*
X125261619Y-108984023D02*
X125261619Y-108364976D01*
X124880666Y-108698309D01*
X124880666Y-108555452D01*
X124833047Y-108460214D01*
X124785428Y-108412595D01*
X124690190Y-108364976D01*
X124452095Y-108364976D01*
X124356857Y-108412595D01*
X124309238Y-108460214D01*
X124261619Y-108555452D01*
X124261619Y-108841166D01*
X124309238Y-108936404D01*
X124356857Y-108984023D01*
X147407333Y-109793547D02*
X147407333Y-109317357D01*
X147121619Y-109888785D02*
X148121619Y-109555452D01*
X147121619Y-109222119D01*
X147121619Y-108841166D02*
X147121619Y-108650690D01*
X147169238Y-108555452D01*
X147216857Y-108507833D01*
X147359714Y-108412595D01*
X147550190Y-108364976D01*
X147931142Y-108364976D01*
X148026380Y-108412595D01*
X148074000Y-108460214D01*
X148121619Y-108555452D01*
X148121619Y-108745928D01*
X148074000Y-108841166D01*
X148026380Y-108888785D01*
X147931142Y-108936404D01*
X147693047Y-108936404D01*
X147597809Y-108888785D01*
X147550190Y-108841166D01*
X147502571Y-108745928D01*
X147502571Y-108555452D01*
X147550190Y-108460214D01*
X147597809Y-108412595D01*
X147693047Y-108364976D01*
X136961619Y-109888785D02*
X137961619Y-109888785D01*
X137961619Y-109650690D01*
X137914000Y-109507833D01*
X137818761Y-109412595D01*
X137723523Y-109364976D01*
X137533047Y-109317357D01*
X137390190Y-109317357D01*
X137199714Y-109364976D01*
X137104476Y-109412595D01*
X137009238Y-109507833D01*
X136961619Y-109650690D01*
X136961619Y-109888785D01*
X137961619Y-108984023D02*
X137961619Y-108317357D01*
X136961619Y-108745928D01*
X152487333Y-101693023D02*
X152487333Y-101216833D01*
X152201619Y-101788261D02*
X153201619Y-101454928D01*
X152201619Y-101121595D01*
X153201619Y-100359690D02*
X153201619Y-100550166D01*
X153154000Y-100645404D01*
X153106380Y-100693023D01*
X152963523Y-100788261D01*
X152773047Y-100835880D01*
X152392095Y-100835880D01*
X152296857Y-100788261D01*
X152249238Y-100740642D01*
X152201619Y-100645404D01*
X152201619Y-100454928D01*
X152249238Y-100359690D01*
X152296857Y-100312071D01*
X152392095Y-100264452D01*
X152630190Y-100264452D01*
X152725428Y-100312071D01*
X152773047Y-100359690D01*
X152820666Y-100454928D01*
X152820666Y-100645404D01*
X152773047Y-100740642D01*
X152725428Y-100788261D01*
X152630190Y-100835880D01*
X139787333Y-110745928D02*
X139787333Y-110269738D01*
X139501619Y-110841166D02*
X140501619Y-110507833D01*
X139501619Y-110174500D01*
X139501619Y-109317357D02*
X139501619Y-109888785D01*
X139501619Y-109603071D02*
X140501619Y-109603071D01*
X140358761Y-109698309D01*
X140263523Y-109793547D01*
X140215904Y-109888785D01*
X140501619Y-108698309D02*
X140501619Y-108603071D01*
X140454000Y-108507833D01*
X140406380Y-108460214D01*
X140311142Y-108412595D01*
X140120666Y-108364976D01*
X139882571Y-108364976D01*
X139692095Y-108412595D01*
X139596857Y-108460214D01*
X139549238Y-108507833D01*
X139501619Y-108603071D01*
X139501619Y-108698309D01*
X139549238Y-108793547D01*
X139596857Y-108841166D01*
X139692095Y-108888785D01*
X139882571Y-108936404D01*
X140120666Y-108936404D01*
X140311142Y-108888785D01*
X140406380Y-108841166D01*
X140454000Y-108793547D01*
X140501619Y-108698309D01*
X129341619Y-109888785D02*
X130341619Y-109888785D01*
X130341619Y-109650690D01*
X130294000Y-109507833D01*
X130198761Y-109412595D01*
X130103523Y-109364976D01*
X129913047Y-109317357D01*
X129770190Y-109317357D01*
X129579714Y-109364976D01*
X129484476Y-109412595D01*
X129389238Y-109507833D01*
X129341619Y-109650690D01*
X129341619Y-109888785D01*
X130008285Y-108460214D02*
X129341619Y-108460214D01*
X130389238Y-108698309D02*
X129674952Y-108936404D01*
X129674952Y-108317357D01*
X127801619Y-111269738D02*
X127801619Y-110650690D01*
X127420666Y-110984023D01*
X127420666Y-110841166D01*
X127373047Y-110745928D01*
X127325428Y-110698309D01*
X127230190Y-110650690D01*
X126992095Y-110650690D01*
X126896857Y-110698309D01*
X126849238Y-110745928D01*
X126801619Y-110841166D01*
X126801619Y-111126880D01*
X126849238Y-111222119D01*
X126896857Y-111269738D01*
X126896857Y-110222119D02*
X126849238Y-110174500D01*
X126801619Y-110222119D01*
X126849238Y-110269738D01*
X126896857Y-110222119D01*
X126801619Y-110222119D01*
X127801619Y-109841166D02*
X127801619Y-109222119D01*
X127420666Y-109555452D01*
X127420666Y-109412595D01*
X127373047Y-109317357D01*
X127325428Y-109269738D01*
X127230190Y-109222119D01*
X126992095Y-109222119D01*
X126896857Y-109269738D01*
X126849238Y-109317357D01*
X126801619Y-109412595D01*
X126801619Y-109698309D01*
X126849238Y-109793547D01*
X126896857Y-109841166D01*
X127801619Y-108936404D02*
X126801619Y-108603071D01*
X127801619Y-108269738D01*
X139787333Y-101693023D02*
X139787333Y-101216833D01*
X139501619Y-101788261D02*
X140501619Y-101454928D01*
X139501619Y-101121595D01*
X139501619Y-100264452D02*
X139501619Y-100835880D01*
X139501619Y-100550166D02*
X140501619Y-100550166D01*
X140358761Y-100645404D01*
X140263523Y-100740642D01*
X140215904Y-100835880D01*
X131881619Y-109888785D02*
X132881619Y-109888785D01*
X132881619Y-109650690D01*
X132834000Y-109507833D01*
X132738761Y-109412595D01*
X132643523Y-109364976D01*
X132453047Y-109317357D01*
X132310190Y-109317357D01*
X132119714Y-109364976D01*
X132024476Y-109412595D01*
X131929238Y-109507833D01*
X131881619Y-109650690D01*
X131881619Y-109888785D01*
X132881619Y-108412595D02*
X132881619Y-108888785D01*
X132405428Y-108936404D01*
X132453047Y-108888785D01*
X132500666Y-108793547D01*
X132500666Y-108555452D01*
X132453047Y-108460214D01*
X132405428Y-108412595D01*
X132310190Y-108364976D01*
X132072095Y-108364976D01*
X131976857Y-108412595D01*
X131929238Y-108460214D01*
X131881619Y-108555452D01*
X131881619Y-108793547D01*
X131929238Y-108888785D01*
X131976857Y-108936404D01*
X144867333Y-101693023D02*
X144867333Y-101216833D01*
X144581619Y-101788261D02*
X145581619Y-101454928D01*
X144581619Y-101121595D01*
X145581619Y-100883500D02*
X145581619Y-100264452D01*
X145200666Y-100597785D01*
X145200666Y-100454928D01*
X145153047Y-100359690D01*
X145105428Y-100312071D01*
X145010190Y-100264452D01*
X144772095Y-100264452D01*
X144676857Y-100312071D01*
X144629238Y-100359690D01*
X144581619Y-100454928D01*
X144581619Y-100740642D01*
X144629238Y-100835880D01*
X144676857Y-100883500D01*
X163314000Y-110460214D02*
X163361619Y-110555452D01*
X163361619Y-110698309D01*
X163314000Y-110841166D01*
X163218761Y-110936404D01*
X163123523Y-110984023D01*
X162933047Y-111031642D01*
X162790190Y-111031642D01*
X162599714Y-110984023D01*
X162504476Y-110936404D01*
X162409238Y-110841166D01*
X162361619Y-110698309D01*
X162361619Y-110603071D01*
X162409238Y-110460214D01*
X162456857Y-110412595D01*
X162790190Y-110412595D01*
X162790190Y-110603071D01*
X162361619Y-109984023D02*
X163361619Y-109984023D01*
X162361619Y-109412595D01*
X163361619Y-109412595D01*
X162361619Y-108936404D02*
X163361619Y-108936404D01*
X163361619Y-108698309D01*
X163314000Y-108555452D01*
X163218761Y-108460214D01*
X163123523Y-108412595D01*
X162933047Y-108364976D01*
X162790190Y-108364976D01*
X162599714Y-108412595D01*
X162504476Y-108460214D01*
X162409238Y-108555452D01*
X162361619Y-108698309D01*
X162361619Y-108936404D01*
X124261619Y-101645404D02*
X125261619Y-101645404D01*
X125261619Y-101407309D01*
X125214000Y-101264452D01*
X125118761Y-101169214D01*
X125023523Y-101121595D01*
X124833047Y-101073976D01*
X124690190Y-101073976D01*
X124499714Y-101121595D01*
X124404476Y-101169214D01*
X124309238Y-101264452D01*
X124261619Y-101407309D01*
X124261619Y-101645404D01*
X125166380Y-100693023D02*
X125214000Y-100645404D01*
X125261619Y-100550166D01*
X125261619Y-100312071D01*
X125214000Y-100216833D01*
X125166380Y-100169214D01*
X125071142Y-100121595D01*
X124975904Y-100121595D01*
X124833047Y-100169214D01*
X124261619Y-100740642D01*
X124261619Y-100121595D01*
X156024000Y-110222119D02*
X156024000Y-109079261D01*
X155741619Y-110079261D02*
X154741619Y-109841166D01*
X155455904Y-109650690D01*
X154741619Y-109460214D01*
X155741619Y-109222119D01*
X156024000Y-109079261D02*
X156024000Y-108174500D01*
X155265428Y-108841166D02*
X155265428Y-108507833D01*
X154741619Y-108364976D02*
X154741619Y-108841166D01*
X155741619Y-108841166D01*
X155741619Y-108364976D01*
X155027333Y-101693023D02*
X155027333Y-101216833D01*
X154741619Y-101788261D02*
X155741619Y-101454928D01*
X154741619Y-101121595D01*
X155741619Y-100883500D02*
X155741619Y-100216833D01*
X154741619Y-100645404D01*
X137247333Y-101693023D02*
X137247333Y-101216833D01*
X136961619Y-101788261D02*
X137961619Y-101454928D01*
X136961619Y-101121595D01*
X137961619Y-100597785D02*
X137961619Y-100502547D01*
X137914000Y-100407309D01*
X137866380Y-100359690D01*
X137771142Y-100312071D01*
X137580666Y-100264452D01*
X137342571Y-100264452D01*
X137152095Y-100312071D01*
X137056857Y-100359690D01*
X137009238Y-100407309D01*
X136961619Y-100502547D01*
X136961619Y-100597785D01*
X137009238Y-100693023D01*
X137056857Y-100740642D01*
X137152095Y-100788261D01*
X137342571Y-100835880D01*
X137580666Y-100835880D01*
X137771142Y-100788261D01*
X137866380Y-100740642D01*
X137914000Y-100693023D01*
X137961619Y-100597785D01*
X142327333Y-101693023D02*
X142327333Y-101216833D01*
X142041619Y-101788261D02*
X143041619Y-101454928D01*
X142041619Y-101121595D01*
X142946380Y-100835880D02*
X142994000Y-100788261D01*
X143041619Y-100693023D01*
X143041619Y-100454928D01*
X142994000Y-100359690D01*
X142946380Y-100312071D01*
X142851142Y-100264452D01*
X142755904Y-100264452D01*
X142613047Y-100312071D01*
X142041619Y-100883500D01*
X142041619Y-100264452D01*
X127801619Y-101740642D02*
X127801619Y-101121595D01*
X127420666Y-101454928D01*
X127420666Y-101312071D01*
X127373047Y-101216833D01*
X127325428Y-101169214D01*
X127230190Y-101121595D01*
X126992095Y-101121595D01*
X126896857Y-101169214D01*
X126849238Y-101216833D01*
X126801619Y-101312071D01*
X126801619Y-101597785D01*
X126849238Y-101693023D01*
X126896857Y-101740642D01*
X126896857Y-100693023D02*
X126849238Y-100645404D01*
X126801619Y-100693023D01*
X126849238Y-100740642D01*
X126896857Y-100693023D01*
X126801619Y-100693023D01*
X127801619Y-100312071D02*
X127801619Y-99693023D01*
X127420666Y-100026357D01*
X127420666Y-99883500D01*
X127373047Y-99788261D01*
X127325428Y-99740642D01*
X127230190Y-99693023D01*
X126992095Y-99693023D01*
X126896857Y-99740642D01*
X126849238Y-99788261D01*
X126801619Y-99883500D01*
X126801619Y-100169214D01*
X126849238Y-100264452D01*
X126896857Y-100312071D01*
X127801619Y-99407309D02*
X126801619Y-99073976D01*
X127801619Y-98740642D01*
X144867333Y-110745928D02*
X144867333Y-110269738D01*
X144581619Y-110841166D02*
X145581619Y-110507833D01*
X144581619Y-110174500D01*
X144581619Y-109317357D02*
X144581619Y-109888785D01*
X144581619Y-109603071D02*
X145581619Y-109603071D01*
X145438761Y-109698309D01*
X145343523Y-109793547D01*
X145295904Y-109888785D01*
X144581619Y-108364976D02*
X144581619Y-108936404D01*
X144581619Y-108650690D02*
X145581619Y-108650690D01*
X145438761Y-108745928D01*
X145343523Y-108841166D01*
X145295904Y-108936404D01*
%TO.C,REF\u002A\u002A*%
X122674000Y-97154904D02*
X122721619Y-97250142D01*
X122721619Y-97393000D01*
X122674000Y-97535857D01*
X122578761Y-97631095D01*
X122483523Y-97678714D01*
X122293047Y-97726333D01*
X122150190Y-97726333D01*
X121959714Y-97678714D01*
X121864476Y-97631095D01*
X121769238Y-97535857D01*
X121721619Y-97393000D01*
X121721619Y-97297761D01*
X121769238Y-97154904D01*
X121816857Y-97107285D01*
X122150190Y-97107285D01*
X122150190Y-97297761D01*
X121721619Y-96678714D02*
X122721619Y-96678714D01*
X121721619Y-96107285D01*
X122721619Y-96107285D01*
X121721619Y-95631095D02*
X122721619Y-95631095D01*
X122721619Y-95393000D01*
X122674000Y-95250142D01*
X122578761Y-95154904D01*
X122483523Y-95107285D01*
X122293047Y-95059666D01*
X122150190Y-95059666D01*
X121959714Y-95107285D01*
X121864476Y-95154904D01*
X121769238Y-95250142D01*
X121721619Y-95393000D01*
X121721619Y-95631095D01*
X163361619Y-97869190D02*
X163361619Y-97250142D01*
X162980666Y-97583476D01*
X162980666Y-97440619D01*
X162933047Y-97345380D01*
X162885428Y-97297761D01*
X162790190Y-97250142D01*
X162552095Y-97250142D01*
X162456857Y-97297761D01*
X162409238Y-97345380D01*
X162361619Y-97440619D01*
X162361619Y-97726333D01*
X162409238Y-97821571D01*
X162456857Y-97869190D01*
X162456857Y-96821571D02*
X162409238Y-96773952D01*
X162361619Y-96821571D01*
X162409238Y-96869190D01*
X162456857Y-96821571D01*
X162361619Y-96821571D01*
X163361619Y-96440619D02*
X163361619Y-95821571D01*
X162980666Y-96154904D01*
X162980666Y-96012047D01*
X162933047Y-95916809D01*
X162885428Y-95869190D01*
X162790190Y-95821571D01*
X162552095Y-95821571D01*
X162456857Y-95869190D01*
X162409238Y-95916809D01*
X162361619Y-96012047D01*
X162361619Y-96297761D01*
X162409238Y-96393000D01*
X162456857Y-96440619D01*
X163361619Y-95535857D02*
X162361619Y-95202523D01*
X163361619Y-94869190D01*
X125261619Y-97869190D02*
X125261619Y-97250142D01*
X124880666Y-97583476D01*
X124880666Y-97440619D01*
X124833047Y-97345380D01*
X124785428Y-97297761D01*
X124690190Y-97250142D01*
X124452095Y-97250142D01*
X124356857Y-97297761D01*
X124309238Y-97345380D01*
X124261619Y-97440619D01*
X124261619Y-97726333D01*
X124309238Y-97821571D01*
X124356857Y-97869190D01*
X124356857Y-96821571D02*
X124309238Y-96773952D01*
X124261619Y-96821571D01*
X124309238Y-96869190D01*
X124356857Y-96821571D01*
X124261619Y-96821571D01*
X125261619Y-96440619D02*
X125261619Y-95821571D01*
X124880666Y-96154904D01*
X124880666Y-96012047D01*
X124833047Y-95916809D01*
X124785428Y-95869190D01*
X124690190Y-95821571D01*
X124452095Y-95821571D01*
X124356857Y-95869190D01*
X124309238Y-95916809D01*
X124261619Y-96012047D01*
X124261619Y-96297761D01*
X124309238Y-96393000D01*
X124356857Y-96440619D01*
X125261619Y-95535857D02*
X124261619Y-95202523D01*
X125261619Y-94869190D01*
X165854000Y-97154904D02*
X165901619Y-97250142D01*
X165901619Y-97393000D01*
X165854000Y-97535857D01*
X165758761Y-97631095D01*
X165663523Y-97678714D01*
X165473047Y-97726333D01*
X165330190Y-97726333D01*
X165139714Y-97678714D01*
X165044476Y-97631095D01*
X164949238Y-97535857D01*
X164901619Y-97393000D01*
X164901619Y-97297761D01*
X164949238Y-97154904D01*
X164996857Y-97107285D01*
X165330190Y-97107285D01*
X165330190Y-97297761D01*
X164901619Y-96678714D02*
X165901619Y-96678714D01*
X164901619Y-96107285D01*
X165901619Y-96107285D01*
X164901619Y-95631095D02*
X165901619Y-95631095D01*
X165901619Y-95393000D01*
X165854000Y-95250142D01*
X165758761Y-95154904D01*
X165663523Y-95107285D01*
X165473047Y-95059666D01*
X165330190Y-95059666D01*
X165139714Y-95107285D01*
X165044476Y-95154904D01*
X164949238Y-95250142D01*
X164901619Y-95393000D01*
X164901619Y-95631095D01*
%TO.C,JP1*%
X137175571Y-144978380D02*
X137175571Y-143978380D01*
X136937476Y-143978380D01*
X136794619Y-144026000D01*
X136699380Y-144121238D01*
X136651761Y-144216476D01*
X136604142Y-144406952D01*
X136604142Y-144549809D01*
X136651761Y-144740285D01*
X136699380Y-144835523D01*
X136794619Y-144930761D01*
X136937476Y-144978380D01*
X137175571Y-144978380D01*
X136175571Y-144454571D02*
X135842238Y-144454571D01*
X135699380Y-144978380D02*
X136175571Y-144978380D01*
X136175571Y-143978380D01*
X135699380Y-143978380D01*
X135413666Y-143978380D02*
X134842238Y-143978380D01*
X135127952Y-144978380D02*
X135127952Y-143978380D01*
X134508904Y-144454571D02*
X134175571Y-144454571D01*
X134032714Y-144978380D02*
X134508904Y-144978380D01*
X134508904Y-143978380D01*
X134032714Y-143978380D01*
X133032714Y-144883142D02*
X133080333Y-144930761D01*
X133223190Y-144978380D01*
X133318428Y-144978380D01*
X133461285Y-144930761D01*
X133556523Y-144835523D01*
X133604142Y-144740285D01*
X133651761Y-144549809D01*
X133651761Y-144406952D01*
X133604142Y-144216476D01*
X133556523Y-144121238D01*
X133461285Y-144026000D01*
X133318428Y-143978380D01*
X133223190Y-143978380D01*
X133080333Y-144026000D01*
X133032714Y-144073619D01*
X132747000Y-143978380D02*
X132175571Y-143978380D01*
X132461285Y-144978380D02*
X132461285Y-143978380D01*
D11*
%TO.C,REF\u002A\u002A*%
X166624000Y-93218000D02*
X166624000Y-47498000D01*
X162814000Y-93218000D02*
X162814000Y-94488000D01*
X164084000Y-93218000D02*
X164084000Y-50038000D01*
X165354000Y-93218000D02*
X165354000Y-94488000D01*
X125984000Y-52578000D02*
X161544000Y-52578000D01*
X122174000Y-93218000D02*
X122174000Y-94488000D01*
X166624000Y-47498000D02*
X120904000Y-47498000D01*
X120904000Y-93218000D02*
X125984000Y-93218000D01*
X164084000Y-50038000D02*
X123444000Y-50038000D01*
X161544000Y-93218000D02*
X166624000Y-93218000D01*
X124714000Y-93218000D02*
X124714000Y-94488000D01*
X123444000Y-50038000D02*
X123444000Y-93218000D01*
X125984000Y-93218000D02*
X125984000Y-52578000D01*
X161544000Y-52578000D02*
X161544000Y-93218000D01*
X120904000Y-47498000D02*
X120904000Y-93218000D01*
%TO.C,JP1*%
X133347000Y-147558000D02*
X136147000Y-147558000D01*
X136147000Y-147558000D02*
X136147000Y-145558000D01*
X133347000Y-145558000D02*
X133347000Y-147558000D01*
X136147000Y-145558000D02*
X133347000Y-145558000D01*
%TD*%
%LPC*%
%TO.C,J1*%
X131064000Y-155219000D02*
X156464000Y-155219000D01*
X156464000Y-155219000D02*
X156464000Y-149319000D01*
X156464000Y-149319000D02*
X131064000Y-149319000D01*
X131064000Y-149319000D02*
X131064000Y-155219000D01*
G36*
X131064000Y-155219000D02*
G01*
X156464000Y-155219000D01*
X156464000Y-149319000D01*
X131064000Y-149319000D01*
X131064000Y-155219000D01*
G37*
%TO.C,REF\u002A\u002A*%
G36*
X166354000Y-92948000D02*
G01*
X164354000Y-92948000D01*
X164354000Y-49768000D01*
X123174000Y-49768000D01*
X123174000Y-92948000D01*
X121174000Y-92948000D01*
X121174000Y-47768000D01*
X166354000Y-47768000D01*
X166354000Y-92948000D01*
G37*
G36*
X163814000Y-92948000D02*
G01*
X161814000Y-92948000D01*
X161814000Y-52308000D01*
X125714000Y-52308000D01*
X125714000Y-92948000D01*
X123714000Y-92948000D01*
X123714000Y-50308000D01*
X163814000Y-50308000D01*
X163814000Y-92948000D01*
G37*
%TD*%
D12*
%TO.C,J2*%
X162814000Y-103754000D03*
D13*
X162814000Y-106294000D03*
X160274000Y-103754000D03*
X160274000Y-106294000D03*
X157734000Y-103754000D03*
X157734000Y-106294000D03*
X155194000Y-103754000D03*
X155194000Y-106294000D03*
X152654000Y-103754000D03*
X152654000Y-106294000D03*
X150114000Y-103754000D03*
X150114000Y-106294000D03*
X147574000Y-103754000D03*
X147574000Y-106294000D03*
X145034000Y-103754000D03*
X145034000Y-106294000D03*
X142494000Y-103754000D03*
X142494000Y-106294000D03*
X139954000Y-103754000D03*
X139954000Y-106294000D03*
X137414000Y-103754000D03*
X137414000Y-106294000D03*
X134874000Y-103754000D03*
X134874000Y-106294000D03*
X132334000Y-103754000D03*
X132334000Y-106294000D03*
X129794000Y-103754000D03*
X129794000Y-106294000D03*
X127254000Y-103754000D03*
X127254000Y-106294000D03*
X124714000Y-103754000D03*
X124714000Y-106294000D03*
%TD*%
D14*
%TO.C,J1*%
X155014000Y-152019000D03*
X153514000Y-152019000D03*
X152014000Y-152019000D03*
X150514000Y-152019000D03*
X149014000Y-152019000D03*
X147514000Y-152019000D03*
X146014000Y-152019000D03*
X144514000Y-152019000D03*
X143014000Y-152019000D03*
X141514000Y-152019000D03*
X140014000Y-152019000D03*
X138514000Y-152019000D03*
X137014000Y-152019000D03*
X135514000Y-152019000D03*
X134014000Y-152019000D03*
X132514000Y-152019000D03*
%TD*%
D15*
%TO.C,REF\u002A\u002A*%
X122174000Y-48768000D03*
X124714000Y-48768000D03*
X127254000Y-48768000D03*
X129794000Y-48768000D03*
X132334000Y-48768000D03*
X134874000Y-48768000D03*
X137414000Y-48768000D03*
X139954000Y-48768000D03*
X142494000Y-48768000D03*
X145034000Y-48768000D03*
X147574000Y-48768000D03*
X150114000Y-48768000D03*
X152654000Y-48768000D03*
X155194000Y-48768000D03*
X157734000Y-48768000D03*
X160274000Y-48768000D03*
X162814000Y-48768000D03*
X165354000Y-48768000D03*
X122174000Y-51308000D03*
X124714000Y-51308000D03*
X127254000Y-51308000D03*
X129794000Y-51308000D03*
X132334000Y-51308000D03*
X134874000Y-51308000D03*
X137414000Y-51308000D03*
X139954000Y-51308000D03*
X142494000Y-51308000D03*
X145034000Y-51308000D03*
X147574000Y-51308000D03*
X150114000Y-51308000D03*
X152654000Y-51308000D03*
X155194000Y-51308000D03*
X157734000Y-51308000D03*
X160274000Y-51308000D03*
X162814000Y-51308000D03*
X165354000Y-51308000D03*
X122174000Y-53848000D03*
X124714000Y-53848000D03*
D16*
X127254000Y-53848000D03*
X129794000Y-53848000D03*
X132334000Y-53848000D03*
X134874000Y-53848000D03*
X137414000Y-53848000D03*
X139954000Y-53848000D03*
X142494000Y-53848000D03*
X145034000Y-53848000D03*
X147574000Y-53848000D03*
X150114000Y-53848000D03*
X152654000Y-53848000D03*
X155194000Y-53848000D03*
X157734000Y-53848000D03*
X160274000Y-53848000D03*
D15*
X162814000Y-53848000D03*
X165354000Y-53848000D03*
X122174000Y-56388000D03*
X124714000Y-56388000D03*
D16*
X127254000Y-56388000D03*
X129794000Y-56388000D03*
X132334000Y-56388000D03*
X134874000Y-56388000D03*
X137414000Y-56388000D03*
X139954000Y-56388000D03*
X142494000Y-56388000D03*
X145034000Y-56388000D03*
X147574000Y-56388000D03*
X150114000Y-56388000D03*
X152654000Y-56388000D03*
X155194000Y-56388000D03*
X157734000Y-56388000D03*
X160274000Y-56388000D03*
D15*
X162814000Y-56388000D03*
X165354000Y-56388000D03*
X122174000Y-58928000D03*
X124714000Y-58928000D03*
D16*
X127254000Y-58928000D03*
X129794000Y-58928000D03*
X132334000Y-58928000D03*
X134874000Y-58928000D03*
X137414000Y-58928000D03*
X139954000Y-58928000D03*
X142494000Y-58928000D03*
X145034000Y-58928000D03*
X147574000Y-58928000D03*
X150114000Y-58928000D03*
X152654000Y-58928000D03*
X155194000Y-58928000D03*
X157734000Y-58928000D03*
X160274000Y-58928000D03*
D15*
X162814000Y-58928000D03*
X165354000Y-58928000D03*
X122174000Y-61468000D03*
X124714000Y-61468000D03*
D16*
X127254000Y-61468000D03*
X129794000Y-61468000D03*
X132334000Y-61468000D03*
X134874000Y-61468000D03*
X137414000Y-61468000D03*
X139954000Y-61468000D03*
X142494000Y-61468000D03*
X145034000Y-61468000D03*
X147574000Y-61468000D03*
X150114000Y-61468000D03*
X152654000Y-61468000D03*
X155194000Y-61468000D03*
X157734000Y-61468000D03*
X160274000Y-61468000D03*
D15*
X162814000Y-61468000D03*
X165354000Y-61468000D03*
X122174000Y-64008000D03*
X124714000Y-64008000D03*
D16*
X127254000Y-64008000D03*
X129794000Y-64008000D03*
X132334000Y-64008000D03*
X134874000Y-64008000D03*
X137414000Y-64008000D03*
X139954000Y-64008000D03*
X142494000Y-64008000D03*
X145034000Y-64008000D03*
X147574000Y-64008000D03*
X150114000Y-64008000D03*
X152654000Y-64008000D03*
X155194000Y-64008000D03*
X157734000Y-64008000D03*
X160274000Y-64008000D03*
D15*
X162814000Y-64008000D03*
X165354000Y-64008000D03*
X122174000Y-66548000D03*
X124714000Y-66548000D03*
D16*
X127254000Y-66548000D03*
X129794000Y-66548000D03*
X132334000Y-66548000D03*
X134874000Y-66548000D03*
X137414000Y-66548000D03*
X139954000Y-66548000D03*
X142494000Y-66548000D03*
X145034000Y-66548000D03*
X147574000Y-66548000D03*
X150114000Y-66548000D03*
X152654000Y-66548000D03*
X155194000Y-66548000D03*
X157734000Y-66548000D03*
X160274000Y-66548000D03*
D15*
X162814000Y-66548000D03*
X165354000Y-66548000D03*
X122174000Y-69088000D03*
X124714000Y-69088000D03*
D16*
X127254000Y-69088000D03*
X129794000Y-69088000D03*
X132334000Y-69088000D03*
X134874000Y-69088000D03*
X137414000Y-69088000D03*
X139954000Y-69088000D03*
X142494000Y-69088000D03*
X145034000Y-69088000D03*
X147574000Y-69088000D03*
X150114000Y-69088000D03*
X152654000Y-69088000D03*
X155194000Y-69088000D03*
X157734000Y-69088000D03*
X160274000Y-69088000D03*
D15*
X162814000Y-69088000D03*
X165354000Y-69088000D03*
X122174000Y-71628000D03*
X124714000Y-71628000D03*
D16*
X127254000Y-71628000D03*
X129794000Y-71628000D03*
X132334000Y-71628000D03*
X134874000Y-71628000D03*
X137414000Y-71628000D03*
X139954000Y-71628000D03*
X142494000Y-71628000D03*
X145034000Y-71628000D03*
X147574000Y-71628000D03*
X150114000Y-71628000D03*
X152654000Y-71628000D03*
X155194000Y-71628000D03*
X157734000Y-71628000D03*
X160274000Y-71628000D03*
D15*
X162814000Y-71628000D03*
X165354000Y-71628000D03*
X122174000Y-74168000D03*
X124714000Y-74168000D03*
D16*
X127254000Y-74168000D03*
X129794000Y-74168000D03*
X132334000Y-74168000D03*
X134874000Y-74168000D03*
X137414000Y-74168000D03*
X139954000Y-74168000D03*
X142494000Y-74168000D03*
X145034000Y-74168000D03*
X147574000Y-74168000D03*
X150114000Y-74168000D03*
X152654000Y-74168000D03*
X155194000Y-74168000D03*
X157734000Y-74168000D03*
X160274000Y-74168000D03*
D15*
X162814000Y-74168000D03*
X165354000Y-74168000D03*
X122174000Y-76708000D03*
X124714000Y-76708000D03*
D16*
X127254000Y-76708000D03*
X129794000Y-76708000D03*
X132334000Y-76708000D03*
X134874000Y-76708000D03*
X137414000Y-76708000D03*
X139954000Y-76708000D03*
X142494000Y-76708000D03*
X145034000Y-76708000D03*
X147574000Y-76708000D03*
X150114000Y-76708000D03*
X152654000Y-76708000D03*
X155194000Y-76708000D03*
X157734000Y-76708000D03*
X160274000Y-76708000D03*
D15*
X162814000Y-76708000D03*
X165354000Y-76708000D03*
X122174000Y-79248000D03*
X124714000Y-79248000D03*
D16*
X127254000Y-79248000D03*
X129794000Y-79248000D03*
X132334000Y-79248000D03*
X134874000Y-79248000D03*
X137414000Y-79248000D03*
X139954000Y-79248000D03*
X142494000Y-79248000D03*
X145034000Y-79248000D03*
X147574000Y-79248000D03*
X150114000Y-79248000D03*
X152654000Y-79248000D03*
X155194000Y-79248000D03*
X157734000Y-79248000D03*
X160274000Y-79248000D03*
D15*
X162814000Y-79248000D03*
X165354000Y-79248000D03*
X122174000Y-81788000D03*
X124714000Y-81788000D03*
D16*
X127254000Y-81788000D03*
X129794000Y-81788000D03*
X132334000Y-81788000D03*
X134874000Y-81788000D03*
X137414000Y-81788000D03*
X139954000Y-81788000D03*
X142494000Y-81788000D03*
X145034000Y-81788000D03*
X147574000Y-81788000D03*
X150114000Y-81788000D03*
X152654000Y-81788000D03*
X155194000Y-81788000D03*
X157734000Y-81788000D03*
X160274000Y-81788000D03*
D15*
X162814000Y-81788000D03*
X165354000Y-81788000D03*
X122174000Y-84328000D03*
X124714000Y-84328000D03*
D16*
X127254000Y-84328000D03*
X129794000Y-84328000D03*
X132334000Y-84328000D03*
X134874000Y-84328000D03*
X137414000Y-84328000D03*
X139954000Y-84328000D03*
X142494000Y-84328000D03*
X145034000Y-84328000D03*
X147574000Y-84328000D03*
X150114000Y-84328000D03*
X152654000Y-84328000D03*
X155194000Y-84328000D03*
X157734000Y-84328000D03*
X160274000Y-84328000D03*
D15*
X162814000Y-84328000D03*
X165354000Y-84328000D03*
X122174000Y-86868000D03*
X124714000Y-86868000D03*
D16*
X127254000Y-86868000D03*
X129794000Y-86868000D03*
X132334000Y-86868000D03*
X134874000Y-86868000D03*
X137414000Y-86868000D03*
X139954000Y-86868000D03*
X142494000Y-86868000D03*
X145034000Y-86868000D03*
X147574000Y-86868000D03*
X150114000Y-86868000D03*
X152654000Y-86868000D03*
X155194000Y-86868000D03*
X157734000Y-86868000D03*
X160274000Y-86868000D03*
D15*
X162814000Y-86868000D03*
X165354000Y-86868000D03*
X122174000Y-89408000D03*
X124714000Y-89408000D03*
D16*
X127254000Y-89408000D03*
X129794000Y-89408000D03*
X132334000Y-89408000D03*
X134874000Y-89408000D03*
X137414000Y-89408000D03*
X139954000Y-89408000D03*
X142494000Y-89408000D03*
X145034000Y-89408000D03*
X147574000Y-89408000D03*
X150114000Y-89408000D03*
X152654000Y-89408000D03*
X155194000Y-89408000D03*
X157734000Y-89408000D03*
X160274000Y-89408000D03*
D15*
X162814000Y-89408000D03*
X165354000Y-89408000D03*
X122174000Y-91948000D03*
X124714000Y-91948000D03*
D16*
X127254000Y-91948000D03*
X129794000Y-91948000D03*
X132334000Y-91948000D03*
X134874000Y-91948000D03*
X137414000Y-91948000D03*
X139954000Y-91948000D03*
X142494000Y-91948000D03*
X145034000Y-91948000D03*
X147574000Y-91948000D03*
X150114000Y-91948000D03*
X152654000Y-91948000D03*
X155194000Y-91948000D03*
X157734000Y-91948000D03*
X160274000Y-91948000D03*
D15*
X162814000Y-91948000D03*
X165354000Y-91948000D03*
%TD*%
D17*
%TO.C,JP1*%
X134022000Y-146558000D03*
D18*
X135472000Y-146558000D03*
%TD*%
M02*
