%TF.GenerationSoftware,KiCad,Pcbnew,6.0.2+dfsg-1*%
%TF.CreationDate,2022-07-07T18:02:14-05:00*%
%TF.ProjectId,protopak64,70726f74-6f70-4616-9b36-342e6b696361,rev?*%
%TF.SameCoordinates,Original*%
%TF.FileFunction,Legend,Top*%
%TF.FilePolarity,Positive*%
%FSLAX46Y46*%
G04 Gerber Fmt 4.6, Leading zero omitted, Abs format (unit mm)*
G04 Created by KiCad (PCBNEW 6.0.2+dfsg-1) date 2022-07-07 18:02:14*
%MOMM*%
%LPD*%
G01*
G04 APERTURE LIST*
%ADD10C,0.150000*%
%ADD11C,0.175000*%
%ADD12C,0.120000*%
%ADD13R,1.700000X1.700000*%
%ADD14O,1.700000X1.700000*%
%ADD15R,1.000000X5.400000*%
%ADD16R,2.000000X2.000000*%
%ADD17C,2.000000*%
G04 APERTURE END LIST*
D10*
X140120666Y-101693023D02*
X140120666Y-101216833D01*
X140406380Y-101788261D02*
X139406380Y-101454928D01*
X140406380Y-101121595D01*
X140406380Y-100264452D02*
X140406380Y-100835880D01*
X140406380Y-100550166D02*
X139406380Y-100550166D01*
X139549238Y-100645404D01*
X139644476Y-100740642D01*
X139692095Y-100835880D01*
X137580666Y-101693023D02*
X137580666Y-101216833D01*
X137866380Y-101788261D02*
X136866380Y-101454928D01*
X137866380Y-101121595D01*
X136866380Y-100597785D02*
X136866380Y-100502547D01*
X136914000Y-100407309D01*
X136961619Y-100359690D01*
X137056857Y-100312071D01*
X137247333Y-100264452D01*
X137485428Y-100264452D01*
X137675904Y-100312071D01*
X137771142Y-100359690D01*
X137818761Y-100407309D01*
X137866380Y-100502547D01*
X137866380Y-100597785D01*
X137818761Y-100693023D01*
X137771142Y-100740642D01*
X137675904Y-100788261D01*
X137485428Y-100835880D01*
X137247333Y-100835880D01*
X137056857Y-100788261D01*
X136961619Y-100740642D01*
X136914000Y-100693023D01*
X136866380Y-100597785D01*
X162314000Y-101121595D02*
X162266380Y-101216833D01*
X162266380Y-101359690D01*
X162314000Y-101502547D01*
X162409238Y-101597785D01*
X162504476Y-101645404D01*
X162694952Y-101693023D01*
X162837809Y-101693023D01*
X163028285Y-101645404D01*
X163123523Y-101597785D01*
X163218761Y-101502547D01*
X163266380Y-101359690D01*
X163266380Y-101264452D01*
X163218761Y-101121595D01*
X163171142Y-101073976D01*
X162837809Y-101073976D01*
X162837809Y-101264452D01*
X163266380Y-100645404D02*
X162266380Y-100645404D01*
X163266380Y-100073976D01*
X162266380Y-100073976D01*
X163266380Y-99597785D02*
X162266380Y-99597785D01*
X162266380Y-99359690D01*
X162314000Y-99216833D01*
X162409238Y-99121595D01*
X162504476Y-99073976D01*
X162694952Y-99026357D01*
X162837809Y-99026357D01*
X163028285Y-99073976D01*
X163123523Y-99121595D01*
X163218761Y-99216833D01*
X163266380Y-99359690D01*
X163266380Y-99597785D01*
X150280666Y-109793547D02*
X150280666Y-109317357D01*
X150566380Y-109888785D02*
X149566380Y-109555452D01*
X150566380Y-109222119D01*
X149994952Y-108745928D02*
X149947333Y-108841166D01*
X149899714Y-108888785D01*
X149804476Y-108936404D01*
X149756857Y-108936404D01*
X149661619Y-108888785D01*
X149614000Y-108841166D01*
X149566380Y-108745928D01*
X149566380Y-108555452D01*
X149614000Y-108460214D01*
X149661619Y-108412595D01*
X149756857Y-108364976D01*
X149804476Y-108364976D01*
X149899714Y-108412595D01*
X149947333Y-108460214D01*
X149994952Y-108555452D01*
X149994952Y-108745928D01*
X150042571Y-108841166D01*
X150090190Y-108888785D01*
X150185428Y-108936404D01*
X150375904Y-108936404D01*
X150471142Y-108888785D01*
X150518761Y-108841166D01*
X150566380Y-108745928D01*
X150566380Y-108555452D01*
X150518761Y-108460214D01*
X150471142Y-108412595D01*
X150375904Y-108364976D01*
X150185428Y-108364976D01*
X150090190Y-108412595D01*
X150042571Y-108460214D01*
X149994952Y-108555452D01*
X157900666Y-110745928D02*
X157900666Y-110269738D01*
X158186380Y-110841166D02*
X157186380Y-110507833D01*
X158186380Y-110174500D01*
X158186380Y-109317357D02*
X158186380Y-109888785D01*
X158186380Y-109603071D02*
X157186380Y-109603071D01*
X157329238Y-109698309D01*
X157424476Y-109793547D01*
X157472095Y-109888785D01*
X157186380Y-108412595D02*
X157186380Y-108888785D01*
X157662571Y-108936404D01*
X157614952Y-108888785D01*
X157567333Y-108793547D01*
X157567333Y-108555452D01*
X157614952Y-108460214D01*
X157662571Y-108412595D01*
X157757809Y-108364976D01*
X157995904Y-108364976D01*
X158091142Y-108412595D01*
X158138761Y-108460214D01*
X158186380Y-108555452D01*
X158186380Y-108793547D01*
X158138761Y-108888785D01*
X158091142Y-108936404D01*
X125166380Y-109888785D02*
X124166380Y-109888785D01*
X124166380Y-109650690D01*
X124214000Y-109507833D01*
X124309238Y-109412595D01*
X124404476Y-109364976D01*
X124594952Y-109317357D01*
X124737809Y-109317357D01*
X124928285Y-109364976D01*
X125023523Y-109412595D01*
X125118761Y-109507833D01*
X125166380Y-109650690D01*
X125166380Y-109888785D01*
X124166380Y-108984023D02*
X124166380Y-108364976D01*
X124547333Y-108698309D01*
X124547333Y-108555452D01*
X124594952Y-108460214D01*
X124642571Y-108412595D01*
X124737809Y-108364976D01*
X124975904Y-108364976D01*
X125071142Y-108412595D01*
X125118761Y-108460214D01*
X125166380Y-108555452D01*
X125166380Y-108841166D01*
X125118761Y-108936404D01*
X125071142Y-108984023D01*
X147740666Y-101693023D02*
X147740666Y-101216833D01*
X148026380Y-101788261D02*
X147026380Y-101454928D01*
X148026380Y-101121595D01*
X147359714Y-100359690D02*
X148026380Y-100359690D01*
X146978761Y-100597785D02*
X147693047Y-100835880D01*
X147693047Y-100216833D01*
X160440666Y-101693023D02*
X160440666Y-101216833D01*
X160726380Y-101788261D02*
X159726380Y-101454928D01*
X160726380Y-101121595D01*
X160726380Y-100264452D02*
X160726380Y-100835880D01*
X160726380Y-100550166D02*
X159726380Y-100550166D01*
X159869238Y-100645404D01*
X159964476Y-100740642D01*
X160012095Y-100835880D01*
X160059714Y-99407309D02*
X160726380Y-99407309D01*
X159678761Y-99645404D02*
X160393047Y-99883500D01*
X160393047Y-99264452D01*
D11*
X142490619Y-137952571D02*
X141390619Y-137952571D01*
X141390619Y-137533523D01*
X141443000Y-137428761D01*
X141495380Y-137376380D01*
X141600142Y-137324000D01*
X141757285Y-137324000D01*
X141862047Y-137376380D01*
X141914428Y-137428761D01*
X141966809Y-137533523D01*
X141966809Y-137952571D01*
X142490619Y-136852571D02*
X141757285Y-136852571D01*
X141966809Y-136852571D02*
X141862047Y-136800190D01*
X141809666Y-136747809D01*
X141757285Y-136643047D01*
X141757285Y-136538285D01*
X142490619Y-136014476D02*
X142438238Y-136119238D01*
X142385857Y-136171619D01*
X142281095Y-136224000D01*
X141966809Y-136224000D01*
X141862047Y-136171619D01*
X141809666Y-136119238D01*
X141757285Y-136014476D01*
X141757285Y-135857333D01*
X141809666Y-135752571D01*
X141862047Y-135700190D01*
X141966809Y-135647809D01*
X142281095Y-135647809D01*
X142385857Y-135700190D01*
X142438238Y-135752571D01*
X142490619Y-135857333D01*
X142490619Y-136014476D01*
X141757285Y-135333523D02*
X141757285Y-134914476D01*
X141390619Y-135176380D02*
X142333476Y-135176380D01*
X142438238Y-135124000D01*
X142490619Y-135019238D01*
X142490619Y-134914476D01*
X142490619Y-134390666D02*
X142438238Y-134495428D01*
X142385857Y-134547809D01*
X142281095Y-134600190D01*
X141966809Y-134600190D01*
X141862047Y-134547809D01*
X141809666Y-134495428D01*
X141757285Y-134390666D01*
X141757285Y-134233523D01*
X141809666Y-134128761D01*
X141862047Y-134076380D01*
X141966809Y-134024000D01*
X142281095Y-134024000D01*
X142385857Y-134076380D01*
X142438238Y-134128761D01*
X142490619Y-134233523D01*
X142490619Y-134390666D01*
X142490619Y-133552571D02*
X141390619Y-133552571D01*
X141390619Y-133133523D01*
X141443000Y-133028761D01*
X141495380Y-132976380D01*
X141600142Y-132924000D01*
X141757285Y-132924000D01*
X141862047Y-132976380D01*
X141914428Y-133028761D01*
X141966809Y-133133523D01*
X141966809Y-133552571D01*
X142490619Y-131981142D02*
X141914428Y-131981142D01*
X141809666Y-132033523D01*
X141757285Y-132138285D01*
X141757285Y-132347809D01*
X141809666Y-132452571D01*
X142438238Y-131981142D02*
X142490619Y-132085904D01*
X142490619Y-132347809D01*
X142438238Y-132452571D01*
X142333476Y-132504952D01*
X142228714Y-132504952D01*
X142123952Y-132452571D01*
X142071571Y-132347809D01*
X142071571Y-132085904D01*
X142019190Y-131981142D01*
X142490619Y-131457333D02*
X141390619Y-131457333D01*
X142071571Y-131352571D02*
X142490619Y-131038285D01*
X141757285Y-131038285D02*
X142176333Y-131457333D01*
X141390619Y-130095428D02*
X141390619Y-130304952D01*
X141443000Y-130409714D01*
X141495380Y-130462095D01*
X141652523Y-130566857D01*
X141862047Y-130619238D01*
X142281095Y-130619238D01*
X142385857Y-130566857D01*
X142438238Y-130514476D01*
X142490619Y-130409714D01*
X142490619Y-130200190D01*
X142438238Y-130095428D01*
X142385857Y-130043047D01*
X142281095Y-129990666D01*
X142019190Y-129990666D01*
X141914428Y-130043047D01*
X141862047Y-130095428D01*
X141809666Y-130200190D01*
X141809666Y-130409714D01*
X141862047Y-130514476D01*
X141914428Y-130566857D01*
X142019190Y-130619238D01*
X141757285Y-129047809D02*
X142490619Y-129047809D01*
X141338238Y-129309714D02*
X142123952Y-129571619D01*
X142123952Y-128890666D01*
X142490619Y-127633523D02*
X141390619Y-127633523D01*
X141809666Y-127633523D02*
X141757285Y-127528761D01*
X141757285Y-127319238D01*
X141809666Y-127214476D01*
X141862047Y-127162095D01*
X141966809Y-127109714D01*
X142281095Y-127109714D01*
X142385857Y-127162095D01*
X142438238Y-127214476D01*
X142490619Y-127319238D01*
X142490619Y-127528761D01*
X142438238Y-127633523D01*
X141757285Y-126743047D02*
X142490619Y-126481142D01*
X141757285Y-126219238D02*
X142490619Y-126481142D01*
X142752523Y-126585904D01*
X142804904Y-126638285D01*
X142857285Y-126743047D01*
X141914428Y-124595428D02*
X141966809Y-124438285D01*
X142019190Y-124385904D01*
X142123952Y-124333523D01*
X142281095Y-124333523D01*
X142385857Y-124385904D01*
X142438238Y-124438285D01*
X142490619Y-124543047D01*
X142490619Y-124962095D01*
X141390619Y-124962095D01*
X141390619Y-124595428D01*
X141443000Y-124490666D01*
X141495380Y-124438285D01*
X141600142Y-124385904D01*
X141704904Y-124385904D01*
X141809666Y-124438285D01*
X141862047Y-124490666D01*
X141914428Y-124595428D01*
X141914428Y-124962095D01*
X142490619Y-123862095D02*
X141757285Y-123862095D01*
X141390619Y-123862095D02*
X141443000Y-123914476D01*
X141495380Y-123862095D01*
X141443000Y-123809714D01*
X141390619Y-123862095D01*
X141495380Y-123862095D01*
X141757285Y-122866857D02*
X142647761Y-122866857D01*
X142752523Y-122919238D01*
X142804904Y-122971619D01*
X142857285Y-123076380D01*
X142857285Y-123233523D01*
X142804904Y-123338285D01*
X142438238Y-122866857D02*
X142490619Y-122971619D01*
X142490619Y-123181142D01*
X142438238Y-123285904D01*
X142385857Y-123338285D01*
X142281095Y-123390666D01*
X141966809Y-123390666D01*
X141862047Y-123338285D01*
X141809666Y-123285904D01*
X141757285Y-123181142D01*
X141757285Y-122971619D01*
X141809666Y-122866857D01*
X142490619Y-122343047D02*
X141390619Y-122343047D01*
X141809666Y-122343047D02*
X141757285Y-122238285D01*
X141757285Y-122028761D01*
X141809666Y-121924000D01*
X141862047Y-121871619D01*
X141966809Y-121819238D01*
X142281095Y-121819238D01*
X142385857Y-121871619D01*
X142438238Y-121924000D01*
X142490619Y-122028761D01*
X142490619Y-122238285D01*
X142438238Y-122343047D01*
X142490619Y-120876380D02*
X141914428Y-120876380D01*
X141809666Y-120928761D01*
X141757285Y-121033523D01*
X141757285Y-121243047D01*
X141809666Y-121347809D01*
X142438238Y-120876380D02*
X142490619Y-120981142D01*
X142490619Y-121243047D01*
X142438238Y-121347809D01*
X142333476Y-121400190D01*
X142228714Y-121400190D01*
X142123952Y-121347809D01*
X142071571Y-121243047D01*
X142071571Y-120981142D01*
X142019190Y-120876380D01*
X142438238Y-120404952D02*
X142490619Y-120300190D01*
X142490619Y-120090666D01*
X142438238Y-119985904D01*
X142333476Y-119933523D01*
X142281095Y-119933523D01*
X142176333Y-119985904D01*
X142123952Y-120090666D01*
X142123952Y-120247809D01*
X142071571Y-120352571D01*
X141966809Y-120404952D01*
X141914428Y-120404952D01*
X141809666Y-120352571D01*
X141757285Y-120247809D01*
X141757285Y-120090666D01*
X141809666Y-119985904D01*
X142438238Y-119514476D02*
X142490619Y-119409714D01*
X142490619Y-119200190D01*
X142438238Y-119095428D01*
X142333476Y-119043047D01*
X142281095Y-119043047D01*
X142176333Y-119095428D01*
X142123952Y-119200190D01*
X142123952Y-119357333D01*
X142071571Y-119462095D01*
X141966809Y-119514476D01*
X141914428Y-119514476D01*
X141809666Y-119462095D01*
X141757285Y-119357333D01*
X141757285Y-119200190D01*
X141809666Y-119095428D01*
X144261619Y-142195428D02*
X144261619Y-142719238D01*
X143161619Y-142719238D01*
X144261619Y-141828761D02*
X143528285Y-141828761D01*
X143161619Y-141828761D02*
X143214000Y-141881142D01*
X143266380Y-141828761D01*
X143214000Y-141776380D01*
X143161619Y-141828761D01*
X143266380Y-141828761D01*
X144209238Y-140833523D02*
X144261619Y-140938285D01*
X144261619Y-141147809D01*
X144209238Y-141252571D01*
X144156857Y-141304952D01*
X144052095Y-141357333D01*
X143737809Y-141357333D01*
X143633047Y-141304952D01*
X143580666Y-141252571D01*
X143528285Y-141147809D01*
X143528285Y-140938285D01*
X143580666Y-140833523D01*
X144209238Y-139943047D02*
X144261619Y-140047809D01*
X144261619Y-140257333D01*
X144209238Y-140362095D01*
X144104476Y-140414476D01*
X143685428Y-140414476D01*
X143580666Y-140362095D01*
X143528285Y-140257333D01*
X143528285Y-140047809D01*
X143580666Y-139943047D01*
X143685428Y-139890666D01*
X143790190Y-139890666D01*
X143894952Y-140414476D01*
X143528285Y-139419238D02*
X144261619Y-139419238D01*
X143633047Y-139419238D02*
X143580666Y-139366857D01*
X143528285Y-139262095D01*
X143528285Y-139104952D01*
X143580666Y-139000190D01*
X143685428Y-138947809D01*
X144261619Y-138947809D01*
X144209238Y-138476380D02*
X144261619Y-138371619D01*
X144261619Y-138162095D01*
X144209238Y-138057333D01*
X144104476Y-138004952D01*
X144052095Y-138004952D01*
X143947333Y-138057333D01*
X143894952Y-138162095D01*
X143894952Y-138319238D01*
X143842571Y-138424000D01*
X143737809Y-138476380D01*
X143685428Y-138476380D01*
X143580666Y-138424000D01*
X143528285Y-138319238D01*
X143528285Y-138162095D01*
X143580666Y-138057333D01*
X144209238Y-137114476D02*
X144261619Y-137219238D01*
X144261619Y-137428761D01*
X144209238Y-137533523D01*
X144104476Y-137585904D01*
X143685428Y-137585904D01*
X143580666Y-137533523D01*
X143528285Y-137428761D01*
X143528285Y-137219238D01*
X143580666Y-137114476D01*
X143685428Y-137062095D01*
X143790190Y-137062095D01*
X143894952Y-137585904D01*
X144261619Y-136119238D02*
X143161619Y-136119238D01*
X144209238Y-136119238D02*
X144261619Y-136224000D01*
X144261619Y-136433523D01*
X144209238Y-136538285D01*
X144156857Y-136590666D01*
X144052095Y-136643047D01*
X143737809Y-136643047D01*
X143633047Y-136590666D01*
X143580666Y-136538285D01*
X143528285Y-136433523D01*
X143528285Y-136224000D01*
X143580666Y-136119238D01*
X143528285Y-134285904D02*
X144261619Y-134285904D01*
X143528285Y-134757333D02*
X144104476Y-134757333D01*
X144209238Y-134704952D01*
X144261619Y-134600190D01*
X144261619Y-134443047D01*
X144209238Y-134338285D01*
X144156857Y-134285904D01*
X143528285Y-133762095D02*
X144261619Y-133762095D01*
X143633047Y-133762095D02*
X143580666Y-133709714D01*
X143528285Y-133604952D01*
X143528285Y-133447809D01*
X143580666Y-133343047D01*
X143685428Y-133290666D01*
X144261619Y-133290666D01*
X144261619Y-132295428D02*
X143161619Y-132295428D01*
X144209238Y-132295428D02*
X144261619Y-132400190D01*
X144261619Y-132609714D01*
X144209238Y-132714476D01*
X144156857Y-132766857D01*
X144052095Y-132819238D01*
X143737809Y-132819238D01*
X143633047Y-132766857D01*
X143580666Y-132714476D01*
X143528285Y-132609714D01*
X143528285Y-132400190D01*
X143580666Y-132295428D01*
X144209238Y-131352571D02*
X144261619Y-131457333D01*
X144261619Y-131666857D01*
X144209238Y-131771619D01*
X144104476Y-131824000D01*
X143685428Y-131824000D01*
X143580666Y-131771619D01*
X143528285Y-131666857D01*
X143528285Y-131457333D01*
X143580666Y-131352571D01*
X143685428Y-131300190D01*
X143790190Y-131300190D01*
X143894952Y-131824000D01*
X144261619Y-130828761D02*
X143528285Y-130828761D01*
X143737809Y-130828761D02*
X143633047Y-130776380D01*
X143580666Y-130724000D01*
X143528285Y-130619238D01*
X143528285Y-130514476D01*
X144156857Y-128681142D02*
X144209238Y-128733523D01*
X144261619Y-128890666D01*
X144261619Y-128995428D01*
X144209238Y-129152571D01*
X144104476Y-129257333D01*
X143999714Y-129309714D01*
X143790190Y-129362095D01*
X143633047Y-129362095D01*
X143423523Y-129309714D01*
X143318761Y-129257333D01*
X143214000Y-129152571D01*
X143161619Y-128995428D01*
X143161619Y-128890666D01*
X143214000Y-128733523D01*
X143266380Y-128681142D01*
X143685428Y-128209714D02*
X143685428Y-127843047D01*
X144261619Y-127685904D02*
X144261619Y-128209714D01*
X143161619Y-128209714D01*
X143161619Y-127685904D01*
X144261619Y-126585904D02*
X143737809Y-126952571D01*
X144261619Y-127214476D02*
X143161619Y-127214476D01*
X143161619Y-126795428D01*
X143214000Y-126690666D01*
X143266380Y-126638285D01*
X143371142Y-126585904D01*
X143528285Y-126585904D01*
X143633047Y-126638285D01*
X143685428Y-126690666D01*
X143737809Y-126795428D01*
X143737809Y-127214476D01*
X144261619Y-126114476D02*
X143161619Y-126114476D01*
X144261619Y-125485904D01*
X143161619Y-125485904D01*
X143842571Y-124962095D02*
X143842571Y-124124000D01*
X143161619Y-123390666D02*
X143161619Y-123181142D01*
X143214000Y-123076380D01*
X143318761Y-122971619D01*
X143528285Y-122919238D01*
X143894952Y-122919238D01*
X144104476Y-122971619D01*
X144209238Y-123076380D01*
X144261619Y-123181142D01*
X144261619Y-123390666D01*
X144209238Y-123495428D01*
X144104476Y-123600190D01*
X143894952Y-123652571D01*
X143528285Y-123652571D01*
X143318761Y-123600190D01*
X143214000Y-123495428D01*
X143161619Y-123390666D01*
X144261619Y-122447809D02*
X143161619Y-122447809D01*
X143685428Y-122447809D02*
X143685428Y-121819238D01*
X144261619Y-121819238D02*
X143161619Y-121819238D01*
X144261619Y-120771619D02*
X144261619Y-121295428D01*
X143161619Y-121295428D01*
X143842571Y-120404952D02*
X143842571Y-119566857D01*
X143161619Y-119147809D02*
X144261619Y-118885904D01*
X143475904Y-118676380D01*
X144261619Y-118466857D01*
X143161619Y-118204952D01*
X143842571Y-117785904D02*
X143842571Y-116947809D01*
X143266380Y-116476380D02*
X143214000Y-116424000D01*
X143161619Y-116319238D01*
X143161619Y-116057333D01*
X143214000Y-115952571D01*
X143266380Y-115900190D01*
X143371142Y-115847809D01*
X143475904Y-115847809D01*
X143633047Y-115900190D01*
X144261619Y-116528761D01*
X144261619Y-115847809D01*
X144156857Y-115376380D02*
X144209238Y-115324000D01*
X144261619Y-115376380D01*
X144209238Y-115428761D01*
X144156857Y-115376380D01*
X144261619Y-115376380D01*
X143161619Y-114643047D02*
X143161619Y-114538285D01*
X143214000Y-114433523D01*
X143266380Y-114381142D01*
X143371142Y-114328761D01*
X143580666Y-114276380D01*
X143842571Y-114276380D01*
X144052095Y-114328761D01*
X144156857Y-114381142D01*
X144209238Y-114433523D01*
X144261619Y-114538285D01*
X144261619Y-114643047D01*
X144209238Y-114747809D01*
X144156857Y-114800190D01*
X144052095Y-114852571D01*
X143842571Y-114904952D01*
X143580666Y-114904952D01*
X143371142Y-114852571D01*
X143266380Y-114800190D01*
X143214000Y-114747809D01*
X143161619Y-114643047D01*
X145037380Y-133866857D02*
X144985000Y-133814476D01*
X144932619Y-133709714D01*
X144932619Y-133447809D01*
X144985000Y-133343047D01*
X145037380Y-133290666D01*
X145142142Y-133238285D01*
X145246904Y-133238285D01*
X145404047Y-133290666D01*
X146032619Y-133919238D01*
X146032619Y-133238285D01*
X144932619Y-132557333D02*
X144932619Y-132452571D01*
X144985000Y-132347809D01*
X145037380Y-132295428D01*
X145142142Y-132243047D01*
X145351666Y-132190666D01*
X145613571Y-132190666D01*
X145823095Y-132243047D01*
X145927857Y-132295428D01*
X145980238Y-132347809D01*
X146032619Y-132452571D01*
X146032619Y-132557333D01*
X145980238Y-132662095D01*
X145927857Y-132714476D01*
X145823095Y-132766857D01*
X145613571Y-132819238D01*
X145351666Y-132819238D01*
X145142142Y-132766857D01*
X145037380Y-132714476D01*
X144985000Y-132662095D01*
X144932619Y-132557333D01*
X145037380Y-131771619D02*
X144985000Y-131719238D01*
X144932619Y-131614476D01*
X144932619Y-131352571D01*
X144985000Y-131247809D01*
X145037380Y-131195428D01*
X145142142Y-131143047D01*
X145246904Y-131143047D01*
X145404047Y-131195428D01*
X146032619Y-131824000D01*
X146032619Y-131143047D01*
X145037380Y-130724000D02*
X144985000Y-130671619D01*
X144932619Y-130566857D01*
X144932619Y-130304952D01*
X144985000Y-130200190D01*
X145037380Y-130147809D01*
X145142142Y-130095428D01*
X145246904Y-130095428D01*
X145404047Y-130147809D01*
X146032619Y-130776380D01*
X146032619Y-130095428D01*
X145613571Y-129624000D02*
X145613571Y-128785904D01*
X144932619Y-128052571D02*
X144932619Y-127947809D01*
X144985000Y-127843047D01*
X145037380Y-127790666D01*
X145142142Y-127738285D01*
X145351666Y-127685904D01*
X145613571Y-127685904D01*
X145823095Y-127738285D01*
X145927857Y-127790666D01*
X145980238Y-127843047D01*
X146032619Y-127947809D01*
X146032619Y-128052571D01*
X145980238Y-128157333D01*
X145927857Y-128209714D01*
X145823095Y-128262095D01*
X145613571Y-128314476D01*
X145351666Y-128314476D01*
X145142142Y-128262095D01*
X145037380Y-128209714D01*
X144985000Y-128157333D01*
X144932619Y-128052571D01*
X144932619Y-127319238D02*
X144932619Y-126585904D01*
X146032619Y-127057333D01*
X145613571Y-126166857D02*
X145613571Y-125328761D01*
X144932619Y-124595428D02*
X144932619Y-124490666D01*
X144985000Y-124385904D01*
X145037380Y-124333523D01*
X145142142Y-124281142D01*
X145351666Y-124228761D01*
X145613571Y-124228761D01*
X145823095Y-124281142D01*
X145927857Y-124333523D01*
X145980238Y-124385904D01*
X146032619Y-124490666D01*
X146032619Y-124595428D01*
X145980238Y-124700190D01*
X145927857Y-124752571D01*
X145823095Y-124804952D01*
X145613571Y-124857333D01*
X145351666Y-124857333D01*
X145142142Y-124804952D01*
X145037380Y-124752571D01*
X144985000Y-124700190D01*
X144932619Y-124595428D01*
X144932619Y-123862095D02*
X144932619Y-123128761D01*
X146032619Y-123600190D01*
D10*
X130246380Y-101645404D02*
X129246380Y-101645404D01*
X129246380Y-101407309D01*
X129294000Y-101264452D01*
X129389238Y-101169214D01*
X129484476Y-101121595D01*
X129674952Y-101073976D01*
X129817809Y-101073976D01*
X130008285Y-101121595D01*
X130103523Y-101169214D01*
X130198761Y-101264452D01*
X130246380Y-101407309D01*
X130246380Y-101645404D01*
X129722571Y-100645404D02*
X129722571Y-100312071D01*
X130246380Y-100169214D02*
X130246380Y-100645404D01*
X129246380Y-100645404D01*
X129246380Y-100169214D01*
X129246380Y-99883500D02*
X129246380Y-99312071D01*
X130246380Y-99597785D02*
X129246380Y-99597785D01*
X129722571Y-98978738D02*
X129722571Y-98645404D01*
X130246380Y-98502547D02*
X130246380Y-98978738D01*
X129246380Y-98978738D01*
X129246380Y-98502547D01*
X130151142Y-97502547D02*
X130198761Y-97550166D01*
X130246380Y-97693023D01*
X130246380Y-97788261D01*
X130198761Y-97931119D01*
X130103523Y-98026357D01*
X130008285Y-98073976D01*
X129817809Y-98121595D01*
X129674952Y-98121595D01*
X129484476Y-98073976D01*
X129389238Y-98026357D01*
X129294000Y-97931119D01*
X129246380Y-97788261D01*
X129246380Y-97693023D01*
X129294000Y-97550166D01*
X129341619Y-97502547D01*
X129246380Y-97216833D02*
X129246380Y-96645404D01*
X130246380Y-96931119D02*
X129246380Y-96931119D01*
X125166380Y-101645404D02*
X124166380Y-101645404D01*
X124166380Y-101407309D01*
X124214000Y-101264452D01*
X124309238Y-101169214D01*
X124404476Y-101121595D01*
X124594952Y-101073976D01*
X124737809Y-101073976D01*
X124928285Y-101121595D01*
X125023523Y-101169214D01*
X125118761Y-101264452D01*
X125166380Y-101407309D01*
X125166380Y-101645404D01*
X124261619Y-100693023D02*
X124214000Y-100645404D01*
X124166380Y-100550166D01*
X124166380Y-100312071D01*
X124214000Y-100216833D01*
X124261619Y-100169214D01*
X124356857Y-100121595D01*
X124452095Y-100121595D01*
X124594952Y-100169214D01*
X125166380Y-100740642D01*
X125166380Y-100121595D01*
X140120666Y-110745928D02*
X140120666Y-110269738D01*
X140406380Y-110841166D02*
X139406380Y-110507833D01*
X140406380Y-110174500D01*
X140406380Y-109317357D02*
X140406380Y-109888785D01*
X140406380Y-109603071D02*
X139406380Y-109603071D01*
X139549238Y-109698309D01*
X139644476Y-109793547D01*
X139692095Y-109888785D01*
X139406380Y-108698309D02*
X139406380Y-108603071D01*
X139454000Y-108507833D01*
X139501619Y-108460214D01*
X139596857Y-108412595D01*
X139787333Y-108364976D01*
X140025428Y-108364976D01*
X140215904Y-108412595D01*
X140311142Y-108460214D01*
X140358761Y-108507833D01*
X140406380Y-108603071D01*
X140406380Y-108698309D01*
X140358761Y-108793547D01*
X140311142Y-108841166D01*
X140215904Y-108888785D01*
X140025428Y-108936404D01*
X139787333Y-108936404D01*
X139596857Y-108888785D01*
X139501619Y-108841166D01*
X139454000Y-108793547D01*
X139406380Y-108698309D01*
X157900666Y-101693023D02*
X157900666Y-101216833D01*
X158186380Y-101788261D02*
X157186380Y-101454928D01*
X158186380Y-101121595D01*
X158186380Y-100264452D02*
X158186380Y-100835880D01*
X158186380Y-100550166D02*
X157186380Y-100550166D01*
X157329238Y-100645404D01*
X157424476Y-100740642D01*
X157472095Y-100835880D01*
X157281619Y-99883500D02*
X157234000Y-99835880D01*
X157186380Y-99740642D01*
X157186380Y-99502547D01*
X157234000Y-99407309D01*
X157281619Y-99359690D01*
X157376857Y-99312071D01*
X157472095Y-99312071D01*
X157614952Y-99359690D01*
X158186380Y-99931119D01*
X158186380Y-99312071D01*
X137866380Y-109888785D02*
X136866380Y-109888785D01*
X136866380Y-109650690D01*
X136914000Y-109507833D01*
X137009238Y-109412595D01*
X137104476Y-109364976D01*
X137294952Y-109317357D01*
X137437809Y-109317357D01*
X137628285Y-109364976D01*
X137723523Y-109412595D01*
X137818761Y-109507833D01*
X137866380Y-109650690D01*
X137866380Y-109888785D01*
X136866380Y-108984023D02*
X136866380Y-108317357D01*
X137866380Y-108745928D01*
X155360666Y-101693023D02*
X155360666Y-101216833D01*
X155646380Y-101788261D02*
X154646380Y-101454928D01*
X155646380Y-101121595D01*
X154646380Y-100883500D02*
X154646380Y-100216833D01*
X155646380Y-100645404D01*
X132786380Y-101645404D02*
X131786380Y-101645404D01*
X131786380Y-101407309D01*
X131834000Y-101264452D01*
X131929238Y-101169214D01*
X132024476Y-101121595D01*
X132214952Y-101073976D01*
X132357809Y-101073976D01*
X132548285Y-101121595D01*
X132643523Y-101169214D01*
X132738761Y-101264452D01*
X132786380Y-101407309D01*
X132786380Y-101645404D01*
X132786380Y-100121595D02*
X132786380Y-100693023D01*
X132786380Y-100407309D02*
X131786380Y-100407309D01*
X131929238Y-100502547D01*
X132024476Y-100597785D01*
X132072095Y-100693023D01*
X126706380Y-101740642D02*
X126706380Y-101121595D01*
X127087333Y-101454928D01*
X127087333Y-101312071D01*
X127134952Y-101216833D01*
X127182571Y-101169214D01*
X127277809Y-101121595D01*
X127515904Y-101121595D01*
X127611142Y-101169214D01*
X127658761Y-101216833D01*
X127706380Y-101312071D01*
X127706380Y-101597785D01*
X127658761Y-101693023D01*
X127611142Y-101740642D01*
X127611142Y-100693023D02*
X127658761Y-100645404D01*
X127706380Y-100693023D01*
X127658761Y-100740642D01*
X127611142Y-100693023D01*
X127706380Y-100693023D01*
X126706380Y-100312071D02*
X126706380Y-99693023D01*
X127087333Y-100026357D01*
X127087333Y-99883500D01*
X127134952Y-99788261D01*
X127182571Y-99740642D01*
X127277809Y-99693023D01*
X127515904Y-99693023D01*
X127611142Y-99740642D01*
X127658761Y-99788261D01*
X127706380Y-99883500D01*
X127706380Y-100169214D01*
X127658761Y-100264452D01*
X127611142Y-100312071D01*
X126706380Y-99407309D02*
X127706380Y-99073976D01*
X126706380Y-98740642D01*
X135326380Y-101645404D02*
X134326380Y-101645404D01*
X134326380Y-101407309D01*
X134374000Y-101264452D01*
X134469238Y-101169214D01*
X134564476Y-101121595D01*
X134754952Y-101073976D01*
X134897809Y-101073976D01*
X135088285Y-101121595D01*
X135183523Y-101169214D01*
X135278761Y-101264452D01*
X135326380Y-101407309D01*
X135326380Y-101645404D01*
X134326380Y-100454928D02*
X134326380Y-100359690D01*
X134374000Y-100264452D01*
X134421619Y-100216833D01*
X134516857Y-100169214D01*
X134707333Y-100121595D01*
X134945428Y-100121595D01*
X135135904Y-100169214D01*
X135231142Y-100216833D01*
X135278761Y-100264452D01*
X135326380Y-100359690D01*
X135326380Y-100454928D01*
X135278761Y-100550166D01*
X135231142Y-100597785D01*
X135135904Y-100645404D01*
X134945428Y-100693023D01*
X134707333Y-100693023D01*
X134516857Y-100645404D01*
X134421619Y-100597785D01*
X134374000Y-100550166D01*
X134326380Y-100454928D01*
X152820666Y-101693023D02*
X152820666Y-101216833D01*
X153106380Y-101788261D02*
X152106380Y-101454928D01*
X153106380Y-101121595D01*
X152106380Y-100359690D02*
X152106380Y-100550166D01*
X152154000Y-100645404D01*
X152201619Y-100693023D01*
X152344476Y-100788261D01*
X152534952Y-100835880D01*
X152915904Y-100835880D01*
X153011142Y-100788261D01*
X153058761Y-100740642D01*
X153106380Y-100645404D01*
X153106380Y-100454928D01*
X153058761Y-100359690D01*
X153011142Y-100312071D01*
X152915904Y-100264452D01*
X152677809Y-100264452D01*
X152582571Y-100312071D01*
X152534952Y-100359690D01*
X152487333Y-100454928D01*
X152487333Y-100645404D01*
X152534952Y-100740642D01*
X152582571Y-100788261D01*
X152677809Y-100835880D01*
X145200666Y-101693023D02*
X145200666Y-101216833D01*
X145486380Y-101788261D02*
X144486380Y-101454928D01*
X145486380Y-101121595D01*
X144486380Y-100883500D02*
X144486380Y-100264452D01*
X144867333Y-100597785D01*
X144867333Y-100454928D01*
X144914952Y-100359690D01*
X144962571Y-100312071D01*
X145057809Y-100264452D01*
X145295904Y-100264452D01*
X145391142Y-100312071D01*
X145438761Y-100359690D01*
X145486380Y-100454928D01*
X145486380Y-100740642D01*
X145438761Y-100835880D01*
X145391142Y-100883500D01*
X145200666Y-110745928D02*
X145200666Y-110269738D01*
X145486380Y-110841166D02*
X144486380Y-110507833D01*
X145486380Y-110174500D01*
X145486380Y-109317357D02*
X145486380Y-109888785D01*
X145486380Y-109603071D02*
X144486380Y-109603071D01*
X144629238Y-109698309D01*
X144724476Y-109793547D01*
X144772095Y-109888785D01*
X145486380Y-108364976D02*
X145486380Y-108936404D01*
X145486380Y-108650690D02*
X144486380Y-108650690D01*
X144629238Y-108745928D01*
X144724476Y-108841166D01*
X144772095Y-108936404D01*
X154364000Y-110222119D02*
X154364000Y-109079261D01*
X154646380Y-110079261D02*
X155646380Y-109841166D01*
X154932095Y-109650690D01*
X155646380Y-109460214D01*
X154646380Y-109222119D01*
X154364000Y-109079261D02*
X154364000Y-108174500D01*
X155122571Y-108841166D02*
X155122571Y-108507833D01*
X155646380Y-108364976D02*
X155646380Y-108841166D01*
X154646380Y-108841166D01*
X154646380Y-108364976D01*
X150280666Y-101693023D02*
X150280666Y-101216833D01*
X150566380Y-101788261D02*
X149566380Y-101454928D01*
X150566380Y-101121595D01*
X149566380Y-100312071D02*
X149566380Y-100788261D01*
X150042571Y-100835880D01*
X149994952Y-100788261D01*
X149947333Y-100693023D01*
X149947333Y-100454928D01*
X149994952Y-100359690D01*
X150042571Y-100312071D01*
X150137809Y-100264452D01*
X150375904Y-100264452D01*
X150471142Y-100312071D01*
X150518761Y-100359690D01*
X150566380Y-100454928D01*
X150566380Y-100693023D01*
X150518761Y-100788261D01*
X150471142Y-100835880D01*
X126706380Y-111269738D02*
X126706380Y-110650690D01*
X127087333Y-110984023D01*
X127087333Y-110841166D01*
X127134952Y-110745928D01*
X127182571Y-110698309D01*
X127277809Y-110650690D01*
X127515904Y-110650690D01*
X127611142Y-110698309D01*
X127658761Y-110745928D01*
X127706380Y-110841166D01*
X127706380Y-111126880D01*
X127658761Y-111222119D01*
X127611142Y-111269738D01*
X127611142Y-110222119D02*
X127658761Y-110174500D01*
X127706380Y-110222119D01*
X127658761Y-110269738D01*
X127611142Y-110222119D01*
X127706380Y-110222119D01*
X126706380Y-109841166D02*
X126706380Y-109222119D01*
X127087333Y-109555452D01*
X127087333Y-109412595D01*
X127134952Y-109317357D01*
X127182571Y-109269738D01*
X127277809Y-109222119D01*
X127515904Y-109222119D01*
X127611142Y-109269738D01*
X127658761Y-109317357D01*
X127706380Y-109412595D01*
X127706380Y-109698309D01*
X127658761Y-109793547D01*
X127611142Y-109841166D01*
X126706380Y-108936404D02*
X127706380Y-108603071D01*
X126706380Y-108269738D01*
X132786380Y-109888785D02*
X131786380Y-109888785D01*
X131786380Y-109650690D01*
X131834000Y-109507833D01*
X131929238Y-109412595D01*
X132024476Y-109364976D01*
X132214952Y-109317357D01*
X132357809Y-109317357D01*
X132548285Y-109364976D01*
X132643523Y-109412595D01*
X132738761Y-109507833D01*
X132786380Y-109650690D01*
X132786380Y-109888785D01*
X131786380Y-108412595D02*
X131786380Y-108888785D01*
X132262571Y-108936404D01*
X132214952Y-108888785D01*
X132167333Y-108793547D01*
X132167333Y-108555452D01*
X132214952Y-108460214D01*
X132262571Y-108412595D01*
X132357809Y-108364976D01*
X132595904Y-108364976D01*
X132691142Y-108412595D01*
X132738761Y-108460214D01*
X132786380Y-108555452D01*
X132786380Y-108793547D01*
X132738761Y-108888785D01*
X132691142Y-108936404D01*
X152820666Y-110745928D02*
X152820666Y-110269738D01*
X153106380Y-110841166D02*
X152106380Y-110507833D01*
X153106380Y-110174500D01*
X153106380Y-109317357D02*
X153106380Y-109888785D01*
X153106380Y-109603071D02*
X152106380Y-109603071D01*
X152249238Y-109698309D01*
X152344476Y-109793547D01*
X152392095Y-109888785D01*
X152106380Y-108984023D02*
X152106380Y-108364976D01*
X152487333Y-108698309D01*
X152487333Y-108555452D01*
X152534952Y-108460214D01*
X152582571Y-108412595D01*
X152677809Y-108364976D01*
X152915904Y-108364976D01*
X153011142Y-108412595D01*
X153058761Y-108460214D01*
X153106380Y-108555452D01*
X153106380Y-108841166D01*
X153058761Y-108936404D01*
X153011142Y-108984023D01*
X141664000Y-110126880D02*
X141664000Y-109079261D01*
X141946380Y-109698309D02*
X141946380Y-109507833D01*
X141994000Y-109412595D01*
X142089238Y-109317357D01*
X142279714Y-109269738D01*
X142613047Y-109269738D01*
X142803523Y-109317357D01*
X142898761Y-109412595D01*
X142946380Y-109507833D01*
X142946380Y-109698309D01*
X142898761Y-109793547D01*
X142803523Y-109888785D01*
X142613047Y-109936404D01*
X142279714Y-109936404D01*
X142089238Y-109888785D01*
X141994000Y-109793547D01*
X141946380Y-109698309D01*
X141664000Y-109079261D02*
X141664000Y-108174500D01*
X142422571Y-108841166D02*
X142422571Y-108507833D01*
X142946380Y-108364976D02*
X142946380Y-108841166D01*
X141946380Y-108841166D01*
X141946380Y-108364976D01*
X142660666Y-101693023D02*
X142660666Y-101216833D01*
X142946380Y-101788261D02*
X141946380Y-101454928D01*
X142946380Y-101121595D01*
X142041619Y-100835880D02*
X141994000Y-100788261D01*
X141946380Y-100693023D01*
X141946380Y-100454928D01*
X141994000Y-100359690D01*
X142041619Y-100312071D01*
X142136857Y-100264452D01*
X142232095Y-100264452D01*
X142374952Y-100312071D01*
X142946380Y-100883500D01*
X142946380Y-100264452D01*
X160631142Y-109269738D02*
X160678761Y-109317357D01*
X160726380Y-109460214D01*
X160726380Y-109555452D01*
X160678761Y-109698309D01*
X160583523Y-109793547D01*
X160488285Y-109841166D01*
X160297809Y-109888785D01*
X160154952Y-109888785D01*
X159964476Y-109841166D01*
X159869238Y-109793547D01*
X159774000Y-109698309D01*
X159726380Y-109555452D01*
X159726380Y-109460214D01*
X159774000Y-109317357D01*
X159821619Y-109269738D01*
X160202571Y-108841166D02*
X160202571Y-108507833D01*
X160726380Y-108364976D02*
X160726380Y-108841166D01*
X159726380Y-108841166D01*
X159726380Y-108364976D01*
X135326380Y-109888785D02*
X134326380Y-109888785D01*
X134326380Y-109650690D01*
X134374000Y-109507833D01*
X134469238Y-109412595D01*
X134564476Y-109364976D01*
X134754952Y-109317357D01*
X134897809Y-109317357D01*
X135088285Y-109364976D01*
X135183523Y-109412595D01*
X135278761Y-109507833D01*
X135326380Y-109650690D01*
X135326380Y-109888785D01*
X134326380Y-108460214D02*
X134326380Y-108650690D01*
X134374000Y-108745928D01*
X134421619Y-108793547D01*
X134564476Y-108888785D01*
X134754952Y-108936404D01*
X135135904Y-108936404D01*
X135231142Y-108888785D01*
X135278761Y-108841166D01*
X135326380Y-108745928D01*
X135326380Y-108555452D01*
X135278761Y-108460214D01*
X135231142Y-108412595D01*
X135135904Y-108364976D01*
X134897809Y-108364976D01*
X134802571Y-108412595D01*
X134754952Y-108460214D01*
X134707333Y-108555452D01*
X134707333Y-108745928D01*
X134754952Y-108841166D01*
X134802571Y-108888785D01*
X134897809Y-108936404D01*
X138240190Y-146491904D02*
X138811619Y-146491904D01*
X138525904Y-147291904D02*
X138525904Y-146491904D01*
X139144952Y-147291904D02*
X139144952Y-146491904D01*
X139573523Y-147291904D02*
X139573523Y-146872857D01*
X139525904Y-146796666D01*
X139430666Y-146758571D01*
X139287809Y-146758571D01*
X139192571Y-146796666D01*
X139144952Y-146834761D01*
X140049714Y-147291904D02*
X140049714Y-146758571D01*
X140049714Y-146491904D02*
X140002095Y-146530000D01*
X140049714Y-146568095D01*
X140097333Y-146530000D01*
X140049714Y-146491904D01*
X140049714Y-146568095D01*
X140478285Y-147253809D02*
X140573523Y-147291904D01*
X140764000Y-147291904D01*
X140859238Y-147253809D01*
X140906857Y-147177619D01*
X140906857Y-147139523D01*
X140859238Y-147063333D01*
X140764000Y-147025238D01*
X140621142Y-147025238D01*
X140525904Y-146987142D01*
X140478285Y-146910952D01*
X140478285Y-146872857D01*
X140525904Y-146796666D01*
X140621142Y-146758571D01*
X140764000Y-146758571D01*
X140859238Y-146796666D01*
X142049714Y-147253809D02*
X142192571Y-147291904D01*
X142430666Y-147291904D01*
X142525904Y-147253809D01*
X142573523Y-147215714D01*
X142621142Y-147139523D01*
X142621142Y-147063333D01*
X142573523Y-146987142D01*
X142525904Y-146949047D01*
X142430666Y-146910952D01*
X142240190Y-146872857D01*
X142144952Y-146834761D01*
X142097333Y-146796666D01*
X142049714Y-146720476D01*
X142049714Y-146644285D01*
X142097333Y-146568095D01*
X142144952Y-146530000D01*
X142240190Y-146491904D01*
X142478285Y-146491904D01*
X142621142Y-146530000D01*
X143049714Y-147291904D02*
X143049714Y-146758571D01*
X143049714Y-146491904D02*
X143002095Y-146530000D01*
X143049714Y-146568095D01*
X143097333Y-146530000D01*
X143049714Y-146491904D01*
X143049714Y-146568095D01*
X143954476Y-147291904D02*
X143954476Y-146491904D01*
X143954476Y-147253809D02*
X143859238Y-147291904D01*
X143668761Y-147291904D01*
X143573523Y-147253809D01*
X143525904Y-147215714D01*
X143478285Y-147139523D01*
X143478285Y-146910952D01*
X143525904Y-146834761D01*
X143573523Y-146796666D01*
X143668761Y-146758571D01*
X143859238Y-146758571D01*
X143954476Y-146796666D01*
X144811619Y-147253809D02*
X144716380Y-147291904D01*
X144525904Y-147291904D01*
X144430666Y-147253809D01*
X144383047Y-147177619D01*
X144383047Y-146872857D01*
X144430666Y-146796666D01*
X144525904Y-146758571D01*
X144716380Y-146758571D01*
X144811619Y-146796666D01*
X144859238Y-146872857D01*
X144859238Y-146949047D01*
X144383047Y-147025238D01*
X146002095Y-147063333D02*
X146478285Y-147063333D01*
X145906857Y-147291904D02*
X146240190Y-146491904D01*
X146573523Y-147291904D01*
X146811619Y-146758571D02*
X147002095Y-147291904D01*
X147192571Y-146910952D01*
X147383047Y-147291904D01*
X147573523Y-146758571D01*
X148383047Y-147291904D02*
X148383047Y-146872857D01*
X148335428Y-146796666D01*
X148240190Y-146758571D01*
X148049714Y-146758571D01*
X147954476Y-146796666D01*
X148383047Y-147253809D02*
X148287809Y-147291904D01*
X148049714Y-147291904D01*
X147954476Y-147253809D01*
X147906857Y-147177619D01*
X147906857Y-147101428D01*
X147954476Y-147025238D01*
X148049714Y-146987142D01*
X148287809Y-146987142D01*
X148383047Y-146949047D01*
X148764000Y-146758571D02*
X149002095Y-147291904D01*
X149240190Y-146758571D02*
X149002095Y-147291904D01*
X148906857Y-147482380D01*
X148859238Y-147520476D01*
X148764000Y-147558571D01*
X139764000Y-148160857D02*
X139430666Y-148160857D01*
X139430666Y-148579904D02*
X139430666Y-147779904D01*
X139906857Y-147779904D01*
X140287809Y-148579904D02*
X140287809Y-148046571D01*
X140287809Y-148198952D02*
X140335428Y-148122761D01*
X140383047Y-148084666D01*
X140478285Y-148046571D01*
X140573523Y-148046571D01*
X141049714Y-148579904D02*
X140954476Y-148541809D01*
X140906857Y-148503714D01*
X140859238Y-148427523D01*
X140859238Y-148198952D01*
X140906857Y-148122761D01*
X140954476Y-148084666D01*
X141049714Y-148046571D01*
X141192571Y-148046571D01*
X141287809Y-148084666D01*
X141335428Y-148122761D01*
X141383047Y-148198952D01*
X141383047Y-148427523D01*
X141335428Y-148503714D01*
X141287809Y-148541809D01*
X141192571Y-148579904D01*
X141049714Y-148579904D01*
X141811619Y-148579904D02*
X141811619Y-148046571D01*
X141811619Y-148122761D02*
X141859238Y-148084666D01*
X141954476Y-148046571D01*
X142097333Y-148046571D01*
X142192571Y-148084666D01*
X142240190Y-148160857D01*
X142240190Y-148579904D01*
X142240190Y-148160857D02*
X142287809Y-148084666D01*
X142383047Y-148046571D01*
X142525904Y-148046571D01*
X142621142Y-148084666D01*
X142668761Y-148160857D01*
X142668761Y-148579904D01*
X143906857Y-148579904D02*
X143906857Y-147779904D01*
X144287809Y-147779904D01*
X144383047Y-147818000D01*
X144430666Y-147856095D01*
X144478285Y-147932285D01*
X144478285Y-148046571D01*
X144430666Y-148122761D01*
X144383047Y-148160857D01*
X144287809Y-148198952D01*
X143906857Y-148198952D01*
X145049714Y-148579904D02*
X144954476Y-148541809D01*
X144906857Y-148465619D01*
X144906857Y-147779904D01*
X145859238Y-148579904D02*
X145859238Y-148160857D01*
X145811619Y-148084666D01*
X145716380Y-148046571D01*
X145525904Y-148046571D01*
X145430666Y-148084666D01*
X145859238Y-148541809D02*
X145764000Y-148579904D01*
X145525904Y-148579904D01*
X145430666Y-148541809D01*
X145383047Y-148465619D01*
X145383047Y-148389428D01*
X145430666Y-148313238D01*
X145525904Y-148275142D01*
X145764000Y-148275142D01*
X145859238Y-148237047D01*
X146240190Y-148046571D02*
X146478285Y-148579904D01*
X146716380Y-148046571D02*
X146478285Y-148579904D01*
X146383047Y-148770380D01*
X146335428Y-148808476D01*
X146240190Y-148846571D01*
X147478285Y-148541809D02*
X147383047Y-148579904D01*
X147192571Y-148579904D01*
X147097333Y-148541809D01*
X147049714Y-148465619D01*
X147049714Y-148160857D01*
X147097333Y-148084666D01*
X147192571Y-148046571D01*
X147383047Y-148046571D01*
X147478285Y-148084666D01*
X147525904Y-148160857D01*
X147525904Y-148237047D01*
X147049714Y-148313238D01*
X147954476Y-148579904D02*
X147954476Y-148046571D01*
X147954476Y-148198952D02*
X148002095Y-148122761D01*
X148049714Y-148084666D01*
X148144952Y-148046571D01*
X148240190Y-148046571D01*
X147740666Y-109793547D02*
X147740666Y-109317357D01*
X148026380Y-109888785D02*
X147026380Y-109555452D01*
X148026380Y-109222119D01*
X148026380Y-108841166D02*
X148026380Y-108650690D01*
X147978761Y-108555452D01*
X147931142Y-108507833D01*
X147788285Y-108412595D01*
X147597809Y-108364976D01*
X147216857Y-108364976D01*
X147121619Y-108412595D01*
X147074000Y-108460214D01*
X147026380Y-108555452D01*
X147026380Y-108745928D01*
X147074000Y-108841166D01*
X147121619Y-108888785D01*
X147216857Y-108936404D01*
X147454952Y-108936404D01*
X147550190Y-108888785D01*
X147597809Y-108841166D01*
X147645428Y-108745928D01*
X147645428Y-108555452D01*
X147597809Y-108460214D01*
X147550190Y-108412595D01*
X147454952Y-108364976D01*
X162314000Y-110460214D02*
X162266380Y-110555452D01*
X162266380Y-110698309D01*
X162314000Y-110841166D01*
X162409238Y-110936404D01*
X162504476Y-110984023D01*
X162694952Y-111031642D01*
X162837809Y-111031642D01*
X163028285Y-110984023D01*
X163123523Y-110936404D01*
X163218761Y-110841166D01*
X163266380Y-110698309D01*
X163266380Y-110603071D01*
X163218761Y-110460214D01*
X163171142Y-110412595D01*
X162837809Y-110412595D01*
X162837809Y-110603071D01*
X163266380Y-109984023D02*
X162266380Y-109984023D01*
X163266380Y-109412595D01*
X162266380Y-109412595D01*
X163266380Y-108936404D02*
X162266380Y-108936404D01*
X162266380Y-108698309D01*
X162314000Y-108555452D01*
X162409238Y-108460214D01*
X162504476Y-108412595D01*
X162694952Y-108364976D01*
X162837809Y-108364976D01*
X163028285Y-108412595D01*
X163123523Y-108460214D01*
X163218761Y-108555452D01*
X163266380Y-108698309D01*
X163266380Y-108936404D01*
X130246380Y-109888785D02*
X129246380Y-109888785D01*
X129246380Y-109650690D01*
X129294000Y-109507833D01*
X129389238Y-109412595D01*
X129484476Y-109364976D01*
X129674952Y-109317357D01*
X129817809Y-109317357D01*
X130008285Y-109364976D01*
X130103523Y-109412595D01*
X130198761Y-109507833D01*
X130246380Y-109650690D01*
X130246380Y-109888785D01*
X129579714Y-108460214D02*
X130246380Y-108460214D01*
X129198761Y-108698309D02*
X129913047Y-108936404D01*
X129913047Y-108317357D01*
%TO.C,REF\u002A\u002A*%
X164854000Y-97154904D02*
X164806380Y-97250142D01*
X164806380Y-97393000D01*
X164854000Y-97535857D01*
X164949238Y-97631095D01*
X165044476Y-97678714D01*
X165234952Y-97726333D01*
X165377809Y-97726333D01*
X165568285Y-97678714D01*
X165663523Y-97631095D01*
X165758761Y-97535857D01*
X165806380Y-97393000D01*
X165806380Y-97297761D01*
X165758761Y-97154904D01*
X165711142Y-97107285D01*
X165377809Y-97107285D01*
X165377809Y-97297761D01*
X165806380Y-96678714D02*
X164806380Y-96678714D01*
X165806380Y-96107285D01*
X164806380Y-96107285D01*
X165806380Y-95631095D02*
X164806380Y-95631095D01*
X164806380Y-95393000D01*
X164854000Y-95250142D01*
X164949238Y-95154904D01*
X165044476Y-95107285D01*
X165234952Y-95059666D01*
X165377809Y-95059666D01*
X165568285Y-95107285D01*
X165663523Y-95154904D01*
X165758761Y-95250142D01*
X165806380Y-95393000D01*
X165806380Y-95631095D01*
X124166380Y-97869190D02*
X124166380Y-97250142D01*
X124547333Y-97583476D01*
X124547333Y-97440619D01*
X124594952Y-97345380D01*
X124642571Y-97297761D01*
X124737809Y-97250142D01*
X124975904Y-97250142D01*
X125071142Y-97297761D01*
X125118761Y-97345380D01*
X125166380Y-97440619D01*
X125166380Y-97726333D01*
X125118761Y-97821571D01*
X125071142Y-97869190D01*
X125071142Y-96821571D02*
X125118761Y-96773952D01*
X125166380Y-96821571D01*
X125118761Y-96869190D01*
X125071142Y-96821571D01*
X125166380Y-96821571D01*
X124166380Y-96440619D02*
X124166380Y-95821571D01*
X124547333Y-96154904D01*
X124547333Y-96012047D01*
X124594952Y-95916809D01*
X124642571Y-95869190D01*
X124737809Y-95821571D01*
X124975904Y-95821571D01*
X125071142Y-95869190D01*
X125118761Y-95916809D01*
X125166380Y-96012047D01*
X125166380Y-96297761D01*
X125118761Y-96393000D01*
X125071142Y-96440619D01*
X124166380Y-95535857D02*
X125166380Y-95202523D01*
X124166380Y-94869190D01*
X162266380Y-97869190D02*
X162266380Y-97250142D01*
X162647333Y-97583476D01*
X162647333Y-97440619D01*
X162694952Y-97345380D01*
X162742571Y-97297761D01*
X162837809Y-97250142D01*
X163075904Y-97250142D01*
X163171142Y-97297761D01*
X163218761Y-97345380D01*
X163266380Y-97440619D01*
X163266380Y-97726333D01*
X163218761Y-97821571D01*
X163171142Y-97869190D01*
X163171142Y-96821571D02*
X163218761Y-96773952D01*
X163266380Y-96821571D01*
X163218761Y-96869190D01*
X163171142Y-96821571D01*
X163266380Y-96821571D01*
X162266380Y-96440619D02*
X162266380Y-95821571D01*
X162647333Y-96154904D01*
X162647333Y-96012047D01*
X162694952Y-95916809D01*
X162742571Y-95869190D01*
X162837809Y-95821571D01*
X163075904Y-95821571D01*
X163171142Y-95869190D01*
X163218761Y-95916809D01*
X163266380Y-96012047D01*
X163266380Y-96297761D01*
X163218761Y-96393000D01*
X163171142Y-96440619D01*
X162266380Y-95535857D02*
X163266380Y-95202523D01*
X162266380Y-94869190D01*
X121674000Y-97154904D02*
X121626380Y-97250142D01*
X121626380Y-97393000D01*
X121674000Y-97535857D01*
X121769238Y-97631095D01*
X121864476Y-97678714D01*
X122054952Y-97726333D01*
X122197809Y-97726333D01*
X122388285Y-97678714D01*
X122483523Y-97631095D01*
X122578761Y-97535857D01*
X122626380Y-97393000D01*
X122626380Y-97297761D01*
X122578761Y-97154904D01*
X122531142Y-97107285D01*
X122197809Y-97107285D01*
X122197809Y-97297761D01*
X122626380Y-96678714D02*
X121626380Y-96678714D01*
X122626380Y-96107285D01*
X121626380Y-96107285D01*
X122626380Y-95631095D02*
X121626380Y-95631095D01*
X121626380Y-95393000D01*
X121674000Y-95250142D01*
X121769238Y-95154904D01*
X121864476Y-95107285D01*
X122054952Y-95059666D01*
X122197809Y-95059666D01*
X122388285Y-95107285D01*
X122483523Y-95154904D01*
X122578761Y-95250142D01*
X122626380Y-95393000D01*
X122626380Y-95631095D01*
D12*
%TO.C,J2*%
X161544000Y-105024000D02*
X164144000Y-105024000D01*
X123384000Y-102424000D02*
X123384000Y-107624000D01*
X162814000Y-102424000D02*
X164144000Y-102424000D01*
X161544000Y-102424000D02*
X123384000Y-102424000D01*
X164144000Y-107624000D02*
X123384000Y-107624000D01*
X164144000Y-102424000D02*
X164144000Y-103754000D01*
X161544000Y-102424000D02*
X161544000Y-105024000D01*
X164144000Y-105024000D02*
X164144000Y-107624000D01*
%TO.C,REF\u002A\u002A*%
X125984000Y-93218000D02*
X120904000Y-93218000D01*
X125984000Y-52578000D02*
X125984000Y-93218000D01*
X123444000Y-50038000D02*
X164084000Y-50038000D01*
X123444000Y-93218000D02*
X123444000Y-50038000D01*
X161544000Y-93218000D02*
X161544000Y-52578000D01*
X161544000Y-52578000D02*
X125984000Y-52578000D01*
X120904000Y-47498000D02*
X166624000Y-47498000D01*
X124714000Y-93218000D02*
X124714000Y-94488000D01*
X122174000Y-93218000D02*
X122174000Y-94488000D01*
X120904000Y-93218000D02*
X120904000Y-47498000D01*
X162814000Y-93218000D02*
X162814000Y-94488000D01*
X165354000Y-93218000D02*
X165354000Y-94488000D01*
X166624000Y-93218000D02*
X161544000Y-93218000D01*
X166624000Y-47498000D02*
X166624000Y-93218000D01*
X164084000Y-50038000D02*
X164084000Y-93218000D01*
%TD*%
%LPC*%
%TO.C,J1*%
X131064000Y-155219000D02*
X156464000Y-155219000D01*
X156464000Y-155219000D02*
X156464000Y-149319000D01*
X156464000Y-149319000D02*
X131064000Y-149319000D01*
X131064000Y-149319000D02*
X131064000Y-155219000D01*
G36*
X131064000Y-155219000D02*
G01*
X156464000Y-155219000D01*
X156464000Y-149319000D01*
X131064000Y-149319000D01*
X131064000Y-155219000D01*
G37*
%TO.C,REF\u002A\u002A*%
G36*
X166354000Y-92948000D02*
G01*
X164354000Y-92948000D01*
X164354000Y-49768000D01*
X123174000Y-49768000D01*
X123174000Y-92948000D01*
X121174000Y-92948000D01*
X121174000Y-47768000D01*
X166354000Y-47768000D01*
X166354000Y-92948000D01*
G37*
G36*
X163814000Y-92948000D02*
G01*
X161814000Y-92948000D01*
X161814000Y-52308000D01*
X125714000Y-52308000D01*
X125714000Y-92948000D01*
X123714000Y-92948000D01*
X123714000Y-50308000D01*
X163814000Y-50308000D01*
X163814000Y-92948000D01*
G37*
%TD*%
D13*
%TO.C,J2*%
X162814000Y-103754000D03*
D14*
X162814000Y-106294000D03*
X160274000Y-103754000D03*
X160274000Y-106294000D03*
X157734000Y-103754000D03*
X157734000Y-106294000D03*
X155194000Y-103754000D03*
X155194000Y-106294000D03*
X152654000Y-103754000D03*
X152654000Y-106294000D03*
X150114000Y-103754000D03*
X150114000Y-106294000D03*
X147574000Y-103754000D03*
X147574000Y-106294000D03*
X145034000Y-103754000D03*
X145034000Y-106294000D03*
X142494000Y-103754000D03*
X142494000Y-106294000D03*
X139954000Y-103754000D03*
X139954000Y-106294000D03*
X137414000Y-103754000D03*
X137414000Y-106294000D03*
X134874000Y-103754000D03*
X134874000Y-106294000D03*
X132334000Y-103754000D03*
X132334000Y-106294000D03*
X129794000Y-103754000D03*
X129794000Y-106294000D03*
X127254000Y-103754000D03*
X127254000Y-106294000D03*
X124714000Y-103754000D03*
X124714000Y-106294000D03*
%TD*%
D15*
%TO.C,J1*%
X155014000Y-152019000D03*
X153514000Y-152019000D03*
X152014000Y-152019000D03*
X150514000Y-152019000D03*
X149014000Y-152019000D03*
X147514000Y-152019000D03*
X146014000Y-152019000D03*
X144514000Y-152019000D03*
X143014000Y-152019000D03*
X141514000Y-152019000D03*
X140014000Y-152019000D03*
X138514000Y-152019000D03*
X137014000Y-152019000D03*
X135514000Y-152019000D03*
X134014000Y-152019000D03*
X132514000Y-152019000D03*
%TD*%
D16*
%TO.C,REF\u002A\u002A*%
X122174000Y-48768000D03*
X124714000Y-48768000D03*
X127254000Y-48768000D03*
X129794000Y-48768000D03*
X132334000Y-48768000D03*
X134874000Y-48768000D03*
X137414000Y-48768000D03*
X139954000Y-48768000D03*
X142494000Y-48768000D03*
X145034000Y-48768000D03*
X147574000Y-48768000D03*
X150114000Y-48768000D03*
X152654000Y-48768000D03*
X155194000Y-48768000D03*
X157734000Y-48768000D03*
X160274000Y-48768000D03*
X162814000Y-48768000D03*
X165354000Y-48768000D03*
X122174000Y-51308000D03*
X124714000Y-51308000D03*
X127254000Y-51308000D03*
X129794000Y-51308000D03*
X132334000Y-51308000D03*
X134874000Y-51308000D03*
X137414000Y-51308000D03*
X139954000Y-51308000D03*
X142494000Y-51308000D03*
X145034000Y-51308000D03*
X147574000Y-51308000D03*
X150114000Y-51308000D03*
X152654000Y-51308000D03*
X155194000Y-51308000D03*
X157734000Y-51308000D03*
X160274000Y-51308000D03*
X162814000Y-51308000D03*
X165354000Y-51308000D03*
X122174000Y-53848000D03*
X124714000Y-53848000D03*
D17*
X127254000Y-53848000D03*
X129794000Y-53848000D03*
X132334000Y-53848000D03*
X134874000Y-53848000D03*
X137414000Y-53848000D03*
X139954000Y-53848000D03*
X142494000Y-53848000D03*
X145034000Y-53848000D03*
X147574000Y-53848000D03*
X150114000Y-53848000D03*
X152654000Y-53848000D03*
X155194000Y-53848000D03*
X157734000Y-53848000D03*
X160274000Y-53848000D03*
D16*
X162814000Y-53848000D03*
X165354000Y-53848000D03*
X122174000Y-56388000D03*
X124714000Y-56388000D03*
D17*
X127254000Y-56388000D03*
X129794000Y-56388000D03*
X132334000Y-56388000D03*
X134874000Y-56388000D03*
X137414000Y-56388000D03*
X139954000Y-56388000D03*
X142494000Y-56388000D03*
X145034000Y-56388000D03*
X147574000Y-56388000D03*
X150114000Y-56388000D03*
X152654000Y-56388000D03*
X155194000Y-56388000D03*
X157734000Y-56388000D03*
X160274000Y-56388000D03*
D16*
X162814000Y-56388000D03*
X165354000Y-56388000D03*
X122174000Y-58928000D03*
X124714000Y-58928000D03*
D17*
X127254000Y-58928000D03*
X129794000Y-58928000D03*
X132334000Y-58928000D03*
X134874000Y-58928000D03*
X137414000Y-58928000D03*
X139954000Y-58928000D03*
X142494000Y-58928000D03*
X145034000Y-58928000D03*
X147574000Y-58928000D03*
X150114000Y-58928000D03*
X152654000Y-58928000D03*
X155194000Y-58928000D03*
X157734000Y-58928000D03*
X160274000Y-58928000D03*
D16*
X162814000Y-58928000D03*
X165354000Y-58928000D03*
X122174000Y-61468000D03*
X124714000Y-61468000D03*
D17*
X127254000Y-61468000D03*
X129794000Y-61468000D03*
X132334000Y-61468000D03*
X134874000Y-61468000D03*
X137414000Y-61468000D03*
X139954000Y-61468000D03*
X142494000Y-61468000D03*
X145034000Y-61468000D03*
X147574000Y-61468000D03*
X150114000Y-61468000D03*
X152654000Y-61468000D03*
X155194000Y-61468000D03*
X157734000Y-61468000D03*
X160274000Y-61468000D03*
D16*
X162814000Y-61468000D03*
X165354000Y-61468000D03*
X122174000Y-64008000D03*
X124714000Y-64008000D03*
D17*
X127254000Y-64008000D03*
X129794000Y-64008000D03*
X132334000Y-64008000D03*
X134874000Y-64008000D03*
X137414000Y-64008000D03*
X139954000Y-64008000D03*
X142494000Y-64008000D03*
X145034000Y-64008000D03*
X147574000Y-64008000D03*
X150114000Y-64008000D03*
X152654000Y-64008000D03*
X155194000Y-64008000D03*
X157734000Y-64008000D03*
X160274000Y-64008000D03*
D16*
X162814000Y-64008000D03*
X165354000Y-64008000D03*
X122174000Y-66548000D03*
X124714000Y-66548000D03*
D17*
X127254000Y-66548000D03*
X129794000Y-66548000D03*
X132334000Y-66548000D03*
X134874000Y-66548000D03*
X137414000Y-66548000D03*
X139954000Y-66548000D03*
X142494000Y-66548000D03*
X145034000Y-66548000D03*
X147574000Y-66548000D03*
X150114000Y-66548000D03*
X152654000Y-66548000D03*
X155194000Y-66548000D03*
X157734000Y-66548000D03*
X160274000Y-66548000D03*
D16*
X162814000Y-66548000D03*
X165354000Y-66548000D03*
X122174000Y-69088000D03*
X124714000Y-69088000D03*
D17*
X127254000Y-69088000D03*
X129794000Y-69088000D03*
X132334000Y-69088000D03*
X134874000Y-69088000D03*
X137414000Y-69088000D03*
X139954000Y-69088000D03*
X142494000Y-69088000D03*
X145034000Y-69088000D03*
X147574000Y-69088000D03*
X150114000Y-69088000D03*
X152654000Y-69088000D03*
X155194000Y-69088000D03*
X157734000Y-69088000D03*
X160274000Y-69088000D03*
D16*
X162814000Y-69088000D03*
X165354000Y-69088000D03*
X122174000Y-71628000D03*
X124714000Y-71628000D03*
D17*
X127254000Y-71628000D03*
X129794000Y-71628000D03*
X132334000Y-71628000D03*
X134874000Y-71628000D03*
X137414000Y-71628000D03*
X139954000Y-71628000D03*
X142494000Y-71628000D03*
X145034000Y-71628000D03*
X147574000Y-71628000D03*
X150114000Y-71628000D03*
X152654000Y-71628000D03*
X155194000Y-71628000D03*
X157734000Y-71628000D03*
X160274000Y-71628000D03*
D16*
X162814000Y-71628000D03*
X165354000Y-71628000D03*
X122174000Y-74168000D03*
X124714000Y-74168000D03*
D17*
X127254000Y-74168000D03*
X129794000Y-74168000D03*
X132334000Y-74168000D03*
X134874000Y-74168000D03*
X137414000Y-74168000D03*
X139954000Y-74168000D03*
X142494000Y-74168000D03*
X145034000Y-74168000D03*
X147574000Y-74168000D03*
X150114000Y-74168000D03*
X152654000Y-74168000D03*
X155194000Y-74168000D03*
X157734000Y-74168000D03*
X160274000Y-74168000D03*
D16*
X162814000Y-74168000D03*
X165354000Y-74168000D03*
X122174000Y-76708000D03*
X124714000Y-76708000D03*
D17*
X127254000Y-76708000D03*
X129794000Y-76708000D03*
X132334000Y-76708000D03*
X134874000Y-76708000D03*
X137414000Y-76708000D03*
X139954000Y-76708000D03*
X142494000Y-76708000D03*
X145034000Y-76708000D03*
X147574000Y-76708000D03*
X150114000Y-76708000D03*
X152654000Y-76708000D03*
X155194000Y-76708000D03*
X157734000Y-76708000D03*
X160274000Y-76708000D03*
D16*
X162814000Y-76708000D03*
X165354000Y-76708000D03*
X122174000Y-79248000D03*
X124714000Y-79248000D03*
D17*
X127254000Y-79248000D03*
X129794000Y-79248000D03*
X132334000Y-79248000D03*
X134874000Y-79248000D03*
X137414000Y-79248000D03*
X139954000Y-79248000D03*
X142494000Y-79248000D03*
X145034000Y-79248000D03*
X147574000Y-79248000D03*
X150114000Y-79248000D03*
X152654000Y-79248000D03*
X155194000Y-79248000D03*
X157734000Y-79248000D03*
X160274000Y-79248000D03*
D16*
X162814000Y-79248000D03*
X165354000Y-79248000D03*
X122174000Y-81788000D03*
X124714000Y-81788000D03*
D17*
X127254000Y-81788000D03*
X129794000Y-81788000D03*
X132334000Y-81788000D03*
X134874000Y-81788000D03*
X137414000Y-81788000D03*
X139954000Y-81788000D03*
X142494000Y-81788000D03*
X145034000Y-81788000D03*
X147574000Y-81788000D03*
X150114000Y-81788000D03*
X152654000Y-81788000D03*
X155194000Y-81788000D03*
X157734000Y-81788000D03*
X160274000Y-81788000D03*
D16*
X162814000Y-81788000D03*
X165354000Y-81788000D03*
X122174000Y-84328000D03*
X124714000Y-84328000D03*
D17*
X127254000Y-84328000D03*
X129794000Y-84328000D03*
X132334000Y-84328000D03*
X134874000Y-84328000D03*
X137414000Y-84328000D03*
X139954000Y-84328000D03*
X142494000Y-84328000D03*
X145034000Y-84328000D03*
X147574000Y-84328000D03*
X150114000Y-84328000D03*
X152654000Y-84328000D03*
X155194000Y-84328000D03*
X157734000Y-84328000D03*
X160274000Y-84328000D03*
D16*
X162814000Y-84328000D03*
X165354000Y-84328000D03*
X122174000Y-86868000D03*
X124714000Y-86868000D03*
D17*
X127254000Y-86868000D03*
X129794000Y-86868000D03*
X132334000Y-86868000D03*
X134874000Y-86868000D03*
X137414000Y-86868000D03*
X139954000Y-86868000D03*
X142494000Y-86868000D03*
X145034000Y-86868000D03*
X147574000Y-86868000D03*
X150114000Y-86868000D03*
X152654000Y-86868000D03*
X155194000Y-86868000D03*
X157734000Y-86868000D03*
X160274000Y-86868000D03*
D16*
X162814000Y-86868000D03*
X165354000Y-86868000D03*
X122174000Y-89408000D03*
X124714000Y-89408000D03*
D17*
X127254000Y-89408000D03*
X129794000Y-89408000D03*
X132334000Y-89408000D03*
X134874000Y-89408000D03*
X137414000Y-89408000D03*
X139954000Y-89408000D03*
X142494000Y-89408000D03*
X145034000Y-89408000D03*
X147574000Y-89408000D03*
X150114000Y-89408000D03*
X152654000Y-89408000D03*
X155194000Y-89408000D03*
X157734000Y-89408000D03*
X160274000Y-89408000D03*
D16*
X162814000Y-89408000D03*
X165354000Y-89408000D03*
X122174000Y-91948000D03*
X124714000Y-91948000D03*
D17*
X127254000Y-91948000D03*
X129794000Y-91948000D03*
X132334000Y-91948000D03*
X134874000Y-91948000D03*
X137414000Y-91948000D03*
X139954000Y-91948000D03*
X142494000Y-91948000D03*
X145034000Y-91948000D03*
X147574000Y-91948000D03*
X150114000Y-91948000D03*
X152654000Y-91948000D03*
X155194000Y-91948000D03*
X157734000Y-91948000D03*
X160274000Y-91948000D03*
D16*
X162814000Y-91948000D03*
X165354000Y-91948000D03*
%TD*%
M02*
