M48
; DRILL file {KiCad 6.0.2+dfsg-1} date Thu Jul  7 18:03:12 2022
; FORMAT={-:-/ absolute / metric / decimal}
; #@! TF.CreationDate,2022-07-07T18:03:12-05:00
; #@! TF.GenerationSoftware,Kicad,Pcbnew,6.0.2+dfsg-1
; #@! TF.FileFunction,Plated,1,2,PTH
FMAT,2
METRIC
; #@! TA.AperFunction,Plated,PTH,ViaDrill
T1C0.400
; #@! TA.AperFunction,Plated,PTH,ComponentDrill
T2C1.000
%
G90
G05
T1
X155.014Y-148.156
T2
X122.174Y-48.768
X122.174Y-51.308
X122.174Y-53.848
X122.174Y-56.388
X122.174Y-58.928
X122.174Y-61.468
X122.174Y-64.008
X122.174Y-66.548
X122.174Y-69.088
X122.174Y-71.628
X122.174Y-74.168
X122.174Y-76.708
X122.174Y-79.248
X122.174Y-81.788
X122.174Y-84.328
X122.174Y-86.868
X122.174Y-89.408
X122.174Y-91.948
X124.714Y-48.768
X124.714Y-51.308
X124.714Y-53.848
X124.714Y-56.388
X124.714Y-58.928
X124.714Y-61.468
X124.714Y-64.008
X124.714Y-66.548
X124.714Y-69.088
X124.714Y-71.628
X124.714Y-74.168
X124.714Y-76.708
X124.714Y-79.248
X124.714Y-81.788
X124.714Y-84.328
X124.714Y-86.868
X124.714Y-89.408
X124.714Y-91.948
X124.714Y-103.754
X124.714Y-106.294
X127.254Y-48.768
X127.254Y-51.308
X127.254Y-53.848
X127.254Y-56.388
X127.254Y-58.928
X127.254Y-61.468
X127.254Y-64.008
X127.254Y-66.548
X127.254Y-69.088
X127.254Y-71.628
X127.254Y-74.168
X127.254Y-76.708
X127.254Y-79.248
X127.254Y-81.788
X127.254Y-84.328
X127.254Y-86.868
X127.254Y-89.408
X127.254Y-91.948
X127.254Y-103.754
X127.254Y-106.294
X129.794Y-48.768
X129.794Y-51.308
X129.794Y-53.848
X129.794Y-56.388
X129.794Y-58.928
X129.794Y-61.468
X129.794Y-64.008
X129.794Y-66.548
X129.794Y-69.088
X129.794Y-71.628
X129.794Y-74.168
X129.794Y-76.708
X129.794Y-79.248
X129.794Y-81.788
X129.794Y-84.328
X129.794Y-86.868
X129.794Y-89.408
X129.794Y-91.948
X129.794Y-103.754
X129.794Y-106.294
X132.334Y-48.768
X132.334Y-51.308
X132.334Y-53.848
X132.334Y-56.388
X132.334Y-58.928
X132.334Y-61.468
X132.334Y-64.008
X132.334Y-66.548
X132.334Y-69.088
X132.334Y-71.628
X132.334Y-74.168
X132.334Y-76.708
X132.334Y-79.248
X132.334Y-81.788
X132.334Y-84.328
X132.334Y-86.868
X132.334Y-89.408
X132.334Y-91.948
X132.334Y-103.754
X132.334Y-106.294
X134.874Y-48.768
X134.874Y-51.308
X134.874Y-53.848
X134.874Y-56.388
X134.874Y-58.928
X134.874Y-61.468
X134.874Y-64.008
X134.874Y-66.548
X134.874Y-69.088
X134.874Y-71.628
X134.874Y-74.168
X134.874Y-76.708
X134.874Y-79.248
X134.874Y-81.788
X134.874Y-84.328
X134.874Y-86.868
X134.874Y-89.408
X134.874Y-91.948
X134.874Y-103.754
X134.874Y-106.294
X137.414Y-48.768
X137.414Y-51.308
X137.414Y-53.848
X137.414Y-56.388
X137.414Y-58.928
X137.414Y-61.468
X137.414Y-64.008
X137.414Y-66.548
X137.414Y-69.088
X137.414Y-71.628
X137.414Y-74.168
X137.414Y-76.708
X137.414Y-79.248
X137.414Y-81.788
X137.414Y-84.328
X137.414Y-86.868
X137.414Y-89.408
X137.414Y-91.948
X137.414Y-103.754
X137.414Y-106.294
X139.954Y-48.768
X139.954Y-51.308
X139.954Y-53.848
X139.954Y-56.388
X139.954Y-58.928
X139.954Y-61.468
X139.954Y-64.008
X139.954Y-66.548
X139.954Y-69.088
X139.954Y-71.628
X139.954Y-74.168
X139.954Y-76.708
X139.954Y-79.248
X139.954Y-81.788
X139.954Y-84.328
X139.954Y-86.868
X139.954Y-89.408
X139.954Y-91.948
X139.954Y-103.754
X139.954Y-106.294
X142.494Y-48.768
X142.494Y-51.308
X142.494Y-53.848
X142.494Y-56.388
X142.494Y-58.928
X142.494Y-61.468
X142.494Y-64.008
X142.494Y-66.548
X142.494Y-69.088
X142.494Y-71.628
X142.494Y-74.168
X142.494Y-76.708
X142.494Y-79.248
X142.494Y-81.788
X142.494Y-84.328
X142.494Y-86.868
X142.494Y-89.408
X142.494Y-91.948
X142.494Y-103.754
X142.494Y-106.294
X145.034Y-48.768
X145.034Y-51.308
X145.034Y-53.848
X145.034Y-56.388
X145.034Y-58.928
X145.034Y-61.468
X145.034Y-64.008
X145.034Y-66.548
X145.034Y-69.088
X145.034Y-71.628
X145.034Y-74.168
X145.034Y-76.708
X145.034Y-79.248
X145.034Y-81.788
X145.034Y-84.328
X145.034Y-86.868
X145.034Y-89.408
X145.034Y-91.948
X145.034Y-103.754
X145.034Y-106.294
X147.574Y-48.768
X147.574Y-51.308
X147.574Y-53.848
X147.574Y-56.388
X147.574Y-58.928
X147.574Y-61.468
X147.574Y-64.008
X147.574Y-66.548
X147.574Y-69.088
X147.574Y-71.628
X147.574Y-74.168
X147.574Y-76.708
X147.574Y-79.248
X147.574Y-81.788
X147.574Y-84.328
X147.574Y-86.868
X147.574Y-89.408
X147.574Y-91.948
X147.574Y-103.754
X147.574Y-106.294
X150.114Y-48.768
X150.114Y-51.308
X150.114Y-53.848
X150.114Y-56.388
X150.114Y-58.928
X150.114Y-61.468
X150.114Y-64.008
X150.114Y-66.548
X150.114Y-69.088
X150.114Y-71.628
X150.114Y-74.168
X150.114Y-76.708
X150.114Y-79.248
X150.114Y-81.788
X150.114Y-84.328
X150.114Y-86.868
X150.114Y-89.408
X150.114Y-91.948
X150.114Y-103.754
X150.114Y-106.294
X152.654Y-48.768
X152.654Y-51.308
X152.654Y-53.848
X152.654Y-56.388
X152.654Y-58.928
X152.654Y-61.468
X152.654Y-64.008
X152.654Y-66.548
X152.654Y-69.088
X152.654Y-71.628
X152.654Y-74.168
X152.654Y-76.708
X152.654Y-79.248
X152.654Y-81.788
X152.654Y-84.328
X152.654Y-86.868
X152.654Y-89.408
X152.654Y-91.948
X152.654Y-103.754
X152.654Y-106.294
X155.194Y-48.768
X155.194Y-51.308
X155.194Y-53.848
X155.194Y-56.388
X155.194Y-58.928
X155.194Y-61.468
X155.194Y-64.008
X155.194Y-66.548
X155.194Y-69.088
X155.194Y-71.628
X155.194Y-74.168
X155.194Y-76.708
X155.194Y-79.248
X155.194Y-81.788
X155.194Y-84.328
X155.194Y-86.868
X155.194Y-89.408
X155.194Y-91.948
X155.194Y-103.754
X155.194Y-106.294
X157.734Y-48.768
X157.734Y-51.308
X157.734Y-53.848
X157.734Y-56.388
X157.734Y-58.928
X157.734Y-61.468
X157.734Y-64.008
X157.734Y-66.548
X157.734Y-69.088
X157.734Y-71.628
X157.734Y-74.168
X157.734Y-76.708
X157.734Y-79.248
X157.734Y-81.788
X157.734Y-84.328
X157.734Y-86.868
X157.734Y-89.408
X157.734Y-91.948
X157.734Y-103.754
X157.734Y-106.294
X160.274Y-48.768
X160.274Y-51.308
X160.274Y-53.848
X160.274Y-56.388
X160.274Y-58.928
X160.274Y-61.468
X160.274Y-64.008
X160.274Y-66.548
X160.274Y-69.088
X160.274Y-71.628
X160.274Y-74.168
X160.274Y-76.708
X160.274Y-79.248
X160.274Y-81.788
X160.274Y-84.328
X160.274Y-86.868
X160.274Y-89.408
X160.274Y-91.948
X160.274Y-103.754
X160.274Y-106.294
X162.814Y-48.768
X162.814Y-51.308
X162.814Y-53.848
X162.814Y-56.388
X162.814Y-58.928
X162.814Y-61.468
X162.814Y-64.008
X162.814Y-66.548
X162.814Y-69.088
X162.814Y-71.628
X162.814Y-74.168
X162.814Y-76.708
X162.814Y-79.248
X162.814Y-81.788
X162.814Y-84.328
X162.814Y-86.868
X162.814Y-89.408
X162.814Y-91.948
X162.814Y-103.754
X162.814Y-106.294
X165.354Y-48.768
X165.354Y-51.308
X165.354Y-53.848
X165.354Y-56.388
X165.354Y-58.928
X165.354Y-61.468
X165.354Y-64.008
X165.354Y-66.548
X165.354Y-69.088
X165.354Y-71.628
X165.354Y-74.168
X165.354Y-76.708
X165.354Y-79.248
X165.354Y-81.788
X165.354Y-84.328
X165.354Y-86.868
X165.354Y-89.408
X165.354Y-91.948
T0
M30
