%TF.GenerationSoftware,KiCad,Pcbnew,8.0.3-8.0.3-0~ubuntu24.04.1*%
%TF.CreationDate,2024-06-19T14:37:03-05:00*%
%TF.ProjectId,protopak64,70726f74-6f70-4616-9b36-342e6b696361,rev?*%
%TF.SameCoordinates,Original*%
%TF.FileFunction,Copper,L2,Bot*%
%TF.FilePolarity,Positive*%
%FSLAX46Y46*%
G04 Gerber Fmt 4.6, Leading zero omitted, Abs format (unit mm)*
G04 Created by KiCad (PCBNEW 8.0.3-8.0.3-0~ubuntu24.04.1) date 2024-06-19 14:37:03*
%MOMM*%
%LPD*%
G01*
G04 APERTURE LIST*
G04 Aperture macros list*
%AMFreePoly0*
4,1,6,1.000000,0.000000,0.500000,-0.750000,-0.500000,-0.750000,-0.500000,0.750000,0.500000,0.750000,1.000000,0.000000,1.000000,0.000000,$1*%
%AMFreePoly1*
4,1,6,0.500000,-0.750000,-0.650000,-0.750000,-0.150000,0.000000,-0.650000,0.750000,0.500000,0.750000,0.500000,-0.750000,0.500000,-0.750000,$1*%
G04 Aperture macros list end*
%TA.AperFunction,EtchedComponent*%
%ADD10C,0.000000*%
%TD*%
%TA.AperFunction,ComponentPad*%
%ADD11R,1.700000X1.700000*%
%TD*%
%TA.AperFunction,ComponentPad*%
%ADD12O,1.700000X1.700000*%
%TD*%
%TA.AperFunction,SMDPad,CuDef*%
%ADD13R,1.000000X5.400000*%
%TD*%
%TA.AperFunction,ComponentPad*%
%ADD14R,2.000000X2.000000*%
%TD*%
%TA.AperFunction,ComponentPad*%
%ADD15C,2.000000*%
%TD*%
%TA.AperFunction,SMDPad,CuDef*%
%ADD16FreePoly0,0.000000*%
%TD*%
%TA.AperFunction,SMDPad,CuDef*%
%ADD17FreePoly1,0.000000*%
%TD*%
%TA.AperFunction,ViaPad*%
%ADD18C,0.800000*%
%TD*%
%TA.AperFunction,Conductor*%
%ADD19C,0.600000*%
%TD*%
%TA.AperFunction,Conductor*%
%ADD20C,0.250000*%
%TD*%
G04 APERTURE END LIST*
D10*
%TA.AperFunction,EtchedComponent*%
G36*
X166354000Y-77708000D02*
G01*
X164354000Y-77708000D01*
X164354000Y-19288000D01*
X123174000Y-19288000D01*
X123174000Y-77708000D01*
X121174000Y-77708000D01*
X121174000Y-17288000D01*
X166354000Y-17288000D01*
X166354000Y-77708000D01*
G37*
%TD.AperFunction*%
%TA.AperFunction,EtchedComponent*%
G36*
X163814000Y-77708000D02*
G01*
X161814000Y-77708000D01*
X161814000Y-21828000D01*
X125714000Y-21828000D01*
X125714000Y-77708000D01*
X123714000Y-77708000D01*
X123714000Y-19828000D01*
X163814000Y-19828000D01*
X163814000Y-77708000D01*
G37*
%TD.AperFunction*%
D11*
X162814000Y-89408000D03*
D12*
X162814000Y-91948000D03*
X160274000Y-89408000D03*
X160274000Y-91948000D03*
X157734000Y-89408000D03*
X157734000Y-91948000D03*
X155194000Y-89408000D03*
X155194000Y-91948000D03*
X152654000Y-89408000D03*
X152654000Y-91948000D03*
X150114000Y-89408000D03*
X150114000Y-91948000D03*
X147574000Y-89408000D03*
X147574000Y-91948000D03*
X145034000Y-89408000D03*
X145034000Y-91948000D03*
X142494000Y-89408000D03*
X142494000Y-91948000D03*
X139954000Y-89408000D03*
X139954000Y-91948000D03*
X137414000Y-89408000D03*
X137414000Y-91948000D03*
X134874000Y-89408000D03*
X134874000Y-91948000D03*
X132334000Y-89408000D03*
X132334000Y-91948000D03*
X129794000Y-89408000D03*
X129794000Y-91948000D03*
X127254000Y-89408000D03*
X127254000Y-91948000D03*
X124714000Y-89408000D03*
X124714000Y-91948000D03*
D11*
X162814000Y-103754000D03*
D12*
X162814000Y-106294000D03*
X160274000Y-103754000D03*
X160274000Y-106294000D03*
X157734000Y-103754000D03*
X157734000Y-106294000D03*
X155194000Y-103754000D03*
X155194000Y-106294000D03*
X152654000Y-103754000D03*
X152654000Y-106294000D03*
X150114000Y-103754000D03*
X150114000Y-106294000D03*
X147574000Y-103754000D03*
X147574000Y-106294000D03*
X145034000Y-103754000D03*
X145034000Y-106294000D03*
X142494000Y-103754000D03*
X142494000Y-106294000D03*
X139954000Y-103754000D03*
X139954000Y-106294000D03*
X137414000Y-103754000D03*
X137414000Y-106294000D03*
X134874000Y-103754000D03*
X134874000Y-106294000D03*
X132334000Y-103754000D03*
X132334000Y-106294000D03*
X129794000Y-103754000D03*
X129794000Y-106294000D03*
X127254000Y-103754000D03*
X127254000Y-106294000D03*
X124714000Y-103754000D03*
X124714000Y-106294000D03*
D13*
X155014000Y-152019000D03*
X153514000Y-152019000D03*
X152014000Y-152019000D03*
X150514000Y-152019000D03*
X149014000Y-152019000D03*
X147514000Y-152019000D03*
X146014000Y-152019000D03*
X144514000Y-152019000D03*
X143014000Y-152019000D03*
X141514000Y-152019000D03*
X140014000Y-152019000D03*
X138514000Y-152019000D03*
X137014000Y-152019000D03*
X135514000Y-152019000D03*
X134014000Y-152019000D03*
X132514000Y-152019000D03*
D14*
X122174000Y-18288000D03*
X124714000Y-18288000D03*
X127254000Y-18288000D03*
X129794000Y-18288000D03*
X132334000Y-18288000D03*
X134874000Y-18288000D03*
X137414000Y-18288000D03*
X139954000Y-18288000D03*
X142494000Y-18288000D03*
X145034000Y-18288000D03*
X147574000Y-18288000D03*
X150114000Y-18288000D03*
X152654000Y-18288000D03*
X155194000Y-18288000D03*
X157734000Y-18288000D03*
X160274000Y-18288000D03*
X162814000Y-18288000D03*
X165354000Y-18288000D03*
X122174000Y-20828000D03*
X124714000Y-20828000D03*
X127254000Y-20828000D03*
X129794000Y-20828000D03*
X132334000Y-20828000D03*
X134874000Y-20828000D03*
X137414000Y-20828000D03*
X139954000Y-20828000D03*
X142494000Y-20828000D03*
X145034000Y-20828000D03*
X147574000Y-20828000D03*
X150114000Y-20828000D03*
X152654000Y-20828000D03*
X155194000Y-20828000D03*
X157734000Y-20828000D03*
X160274000Y-20828000D03*
X162814000Y-20828000D03*
X165354000Y-20828000D03*
X122174000Y-23368000D03*
X124714000Y-23368000D03*
D15*
X127254000Y-23368000D03*
X129794000Y-23368000D03*
X132334000Y-23368000D03*
X134874000Y-23368000D03*
X137414000Y-23368000D03*
X139954000Y-23368000D03*
X142494000Y-23368000D03*
X145034000Y-23368000D03*
X147574000Y-23368000D03*
X150114000Y-23368000D03*
X152654000Y-23368000D03*
X155194000Y-23368000D03*
X157734000Y-23368000D03*
X160274000Y-23368000D03*
D14*
X162814000Y-23368000D03*
X165354000Y-23368000D03*
X122174000Y-25908000D03*
X124714000Y-25908000D03*
D15*
X127254000Y-25908000D03*
X129794000Y-25908000D03*
X132334000Y-25908000D03*
X134874000Y-25908000D03*
X137414000Y-25908000D03*
X139954000Y-25908000D03*
X142494000Y-25908000D03*
X145034000Y-25908000D03*
X147574000Y-25908000D03*
X150114000Y-25908000D03*
X152654000Y-25908000D03*
X155194000Y-25908000D03*
X157734000Y-25908000D03*
X160274000Y-25908000D03*
D14*
X162814000Y-25908000D03*
X165354000Y-25908000D03*
X122174000Y-28448000D03*
X124714000Y-28448000D03*
D15*
X127254000Y-28448000D03*
X129794000Y-28448000D03*
X132334000Y-28448000D03*
X134874000Y-28448000D03*
X137414000Y-28448000D03*
X139954000Y-28448000D03*
X142494000Y-28448000D03*
X145034000Y-28448000D03*
X147574000Y-28448000D03*
X150114000Y-28448000D03*
X152654000Y-28448000D03*
X155194000Y-28448000D03*
X157734000Y-28448000D03*
X160274000Y-28448000D03*
D14*
X162814000Y-28448000D03*
X165354000Y-28448000D03*
X122174000Y-30988000D03*
X124714000Y-30988000D03*
D15*
X127254000Y-30988000D03*
X129794000Y-30988000D03*
X132334000Y-30988000D03*
X134874000Y-30988000D03*
X137414000Y-30988000D03*
X139954000Y-30988000D03*
X142494000Y-30988000D03*
X145034000Y-30988000D03*
X147574000Y-30988000D03*
X150114000Y-30988000D03*
X152654000Y-30988000D03*
X155194000Y-30988000D03*
X157734000Y-30988000D03*
X160274000Y-30988000D03*
D14*
X162814000Y-30988000D03*
X165354000Y-30988000D03*
X122174000Y-33528000D03*
X124714000Y-33528000D03*
D15*
X127254000Y-33528000D03*
X129794000Y-33528000D03*
X132334000Y-33528000D03*
X134874000Y-33528000D03*
X137414000Y-33528000D03*
X139954000Y-33528000D03*
X142494000Y-33528000D03*
X145034000Y-33528000D03*
X147574000Y-33528000D03*
X150114000Y-33528000D03*
X152654000Y-33528000D03*
X155194000Y-33528000D03*
X157734000Y-33528000D03*
X160274000Y-33528000D03*
D14*
X162814000Y-33528000D03*
X165354000Y-33528000D03*
X122174000Y-36068000D03*
X124714000Y-36068000D03*
D15*
X127254000Y-36068000D03*
X129794000Y-36068000D03*
X132334000Y-36068000D03*
X134874000Y-36068000D03*
X137414000Y-36068000D03*
X139954000Y-36068000D03*
X142494000Y-36068000D03*
X145034000Y-36068000D03*
X147574000Y-36068000D03*
X150114000Y-36068000D03*
X152654000Y-36068000D03*
X155194000Y-36068000D03*
X157734000Y-36068000D03*
X160274000Y-36068000D03*
D14*
X162814000Y-36068000D03*
X165354000Y-36068000D03*
X122174000Y-38608000D03*
X124714000Y-38608000D03*
D15*
X127254000Y-38608000D03*
X129794000Y-38608000D03*
X132334000Y-38608000D03*
X134874000Y-38608000D03*
X137414000Y-38608000D03*
X139954000Y-38608000D03*
X142494000Y-38608000D03*
X145034000Y-38608000D03*
X147574000Y-38608000D03*
X150114000Y-38608000D03*
X152654000Y-38608000D03*
X155194000Y-38608000D03*
X157734000Y-38608000D03*
X160274000Y-38608000D03*
D14*
X162814000Y-38608000D03*
X165354000Y-38608000D03*
X122174000Y-41148000D03*
X124714000Y-41148000D03*
D15*
X127254000Y-41148000D03*
X129794000Y-41148000D03*
X132334000Y-41148000D03*
X134874000Y-41148000D03*
X137414000Y-41148000D03*
X139954000Y-41148000D03*
X142494000Y-41148000D03*
X145034000Y-41148000D03*
X147574000Y-41148000D03*
X150114000Y-41148000D03*
X152654000Y-41148000D03*
X155194000Y-41148000D03*
X157734000Y-41148000D03*
X160274000Y-41148000D03*
D14*
X162814000Y-41148000D03*
X165354000Y-41148000D03*
X122174000Y-43688000D03*
X124714000Y-43688000D03*
D15*
X127254000Y-43688000D03*
X129794000Y-43688000D03*
X132334000Y-43688000D03*
X134874000Y-43688000D03*
X137414000Y-43688000D03*
X139954000Y-43688000D03*
X142494000Y-43688000D03*
X145034000Y-43688000D03*
X147574000Y-43688000D03*
X150114000Y-43688000D03*
X152654000Y-43688000D03*
X155194000Y-43688000D03*
X157734000Y-43688000D03*
X160274000Y-43688000D03*
D14*
X162814000Y-43688000D03*
X165354000Y-43688000D03*
X122174000Y-46228000D03*
X124714000Y-46228000D03*
D15*
X127254000Y-46228000D03*
X129794000Y-46228000D03*
X132334000Y-46228000D03*
X134874000Y-46228000D03*
X137414000Y-46228000D03*
X139954000Y-46228000D03*
X142494000Y-46228000D03*
X145034000Y-46228000D03*
X147574000Y-46228000D03*
X150114000Y-46228000D03*
X152654000Y-46228000D03*
X155194000Y-46228000D03*
X157734000Y-46228000D03*
X160274000Y-46228000D03*
D14*
X162814000Y-46228000D03*
X165354000Y-46228000D03*
X122174000Y-48768000D03*
X124714000Y-48768000D03*
D15*
X127254000Y-48768000D03*
X129794000Y-48768000D03*
X132334000Y-48768000D03*
X134874000Y-48768000D03*
X137414000Y-48768000D03*
X139954000Y-48768000D03*
X142494000Y-48768000D03*
X145034000Y-48768000D03*
X147574000Y-48768000D03*
X150114000Y-48768000D03*
X152654000Y-48768000D03*
X155194000Y-48768000D03*
X157734000Y-48768000D03*
X160274000Y-48768000D03*
D14*
X162814000Y-48768000D03*
X165354000Y-48768000D03*
X122174000Y-51308000D03*
X124714000Y-51308000D03*
D15*
X127254000Y-51308000D03*
X129794000Y-51308000D03*
X132334000Y-51308000D03*
X134874000Y-51308000D03*
X137414000Y-51308000D03*
X139954000Y-51308000D03*
X142494000Y-51308000D03*
X145034000Y-51308000D03*
X147574000Y-51308000D03*
X150114000Y-51308000D03*
X152654000Y-51308000D03*
X155194000Y-51308000D03*
X157734000Y-51308000D03*
X160274000Y-51308000D03*
D14*
X162814000Y-51308000D03*
X165354000Y-51308000D03*
X122174000Y-53848000D03*
X124714000Y-53848000D03*
D15*
X127254000Y-53848000D03*
X129794000Y-53848000D03*
X132334000Y-53848000D03*
X134874000Y-53848000D03*
X137414000Y-53848000D03*
X139954000Y-53848000D03*
X142494000Y-53848000D03*
X145034000Y-53848000D03*
X147574000Y-53848000D03*
X150114000Y-53848000D03*
X152654000Y-53848000D03*
X155194000Y-53848000D03*
X157734000Y-53848000D03*
X160274000Y-53848000D03*
D14*
X162814000Y-53848000D03*
X165354000Y-53848000D03*
X122174000Y-56388000D03*
X124714000Y-56388000D03*
D15*
X127254000Y-56388000D03*
X129794000Y-56388000D03*
X132334000Y-56388000D03*
X134874000Y-56388000D03*
X137414000Y-56388000D03*
X139954000Y-56388000D03*
X142494000Y-56388000D03*
X145034000Y-56388000D03*
X147574000Y-56388000D03*
X150114000Y-56388000D03*
X152654000Y-56388000D03*
X155194000Y-56388000D03*
X157734000Y-56388000D03*
X160274000Y-56388000D03*
D14*
X162814000Y-56388000D03*
X165354000Y-56388000D03*
X122174000Y-58928000D03*
X124714000Y-58928000D03*
D15*
X127254000Y-58928000D03*
X129794000Y-58928000D03*
X132334000Y-58928000D03*
X134874000Y-58928000D03*
X137414000Y-58928000D03*
X139954000Y-58928000D03*
X142494000Y-58928000D03*
X145034000Y-58928000D03*
X147574000Y-58928000D03*
X150114000Y-58928000D03*
X152654000Y-58928000D03*
X155194000Y-58928000D03*
X157734000Y-58928000D03*
X160274000Y-58928000D03*
D14*
X162814000Y-58928000D03*
X165354000Y-58928000D03*
X122174000Y-61468000D03*
X124714000Y-61468000D03*
D15*
X127254000Y-61468000D03*
X129794000Y-61468000D03*
X132334000Y-61468000D03*
X134874000Y-61468000D03*
X137414000Y-61468000D03*
X139954000Y-61468000D03*
X142494000Y-61468000D03*
X145034000Y-61468000D03*
X147574000Y-61468000D03*
X150114000Y-61468000D03*
X152654000Y-61468000D03*
X155194000Y-61468000D03*
X157734000Y-61468000D03*
X160274000Y-61468000D03*
D14*
X162814000Y-61468000D03*
X165354000Y-61468000D03*
X122174000Y-64008000D03*
X124714000Y-64008000D03*
D15*
X127254000Y-64008000D03*
X129794000Y-64008000D03*
X132334000Y-64008000D03*
X134874000Y-64008000D03*
X137414000Y-64008000D03*
X139954000Y-64008000D03*
X142494000Y-64008000D03*
X145034000Y-64008000D03*
X147574000Y-64008000D03*
X150114000Y-64008000D03*
X152654000Y-64008000D03*
X155194000Y-64008000D03*
X157734000Y-64008000D03*
X160274000Y-64008000D03*
D14*
X162814000Y-64008000D03*
X165354000Y-64008000D03*
X122174000Y-66548000D03*
X124714000Y-66548000D03*
D15*
X127254000Y-66548000D03*
X129794000Y-66548000D03*
X132334000Y-66548000D03*
X134874000Y-66548000D03*
X137414000Y-66548000D03*
X139954000Y-66548000D03*
X142494000Y-66548000D03*
X145034000Y-66548000D03*
X147574000Y-66548000D03*
X150114000Y-66548000D03*
X152654000Y-66548000D03*
X155194000Y-66548000D03*
X157734000Y-66548000D03*
X160274000Y-66548000D03*
D14*
X162814000Y-66548000D03*
X165354000Y-66548000D03*
X122174000Y-69088000D03*
X124714000Y-69088000D03*
D15*
X127254000Y-69088000D03*
X129794000Y-69088000D03*
X132334000Y-69088000D03*
X134874000Y-69088000D03*
X137414000Y-69088000D03*
X139954000Y-69088000D03*
X142494000Y-69088000D03*
X145034000Y-69088000D03*
X147574000Y-69088000D03*
X150114000Y-69088000D03*
X152654000Y-69088000D03*
X155194000Y-69088000D03*
X157734000Y-69088000D03*
X160274000Y-69088000D03*
D14*
X162814000Y-69088000D03*
X165354000Y-69088000D03*
X122174000Y-71628000D03*
X124714000Y-71628000D03*
D15*
X127254000Y-71628000D03*
X129794000Y-71628000D03*
X132334000Y-71628000D03*
X134874000Y-71628000D03*
X137414000Y-71628000D03*
X139954000Y-71628000D03*
X142494000Y-71628000D03*
X145034000Y-71628000D03*
X147574000Y-71628000D03*
X150114000Y-71628000D03*
X152654000Y-71628000D03*
X155194000Y-71628000D03*
X157734000Y-71628000D03*
X160274000Y-71628000D03*
D14*
X162814000Y-71628000D03*
X165354000Y-71628000D03*
X122174000Y-74168000D03*
X124714000Y-74168000D03*
D15*
X127254000Y-74168000D03*
X129794000Y-74168000D03*
X132334000Y-74168000D03*
X134874000Y-74168000D03*
X137414000Y-74168000D03*
X139954000Y-74168000D03*
X142494000Y-74168000D03*
X145034000Y-74168000D03*
X147574000Y-74168000D03*
X150114000Y-74168000D03*
X152654000Y-74168000D03*
X155194000Y-74168000D03*
X157734000Y-74168000D03*
X160274000Y-74168000D03*
D14*
X162814000Y-74168000D03*
X165354000Y-74168000D03*
X122174000Y-76708000D03*
X124714000Y-76708000D03*
D15*
X127254000Y-76708000D03*
X129794000Y-76708000D03*
X132334000Y-76708000D03*
X134874000Y-76708000D03*
X137414000Y-76708000D03*
X139954000Y-76708000D03*
X142494000Y-76708000D03*
X145034000Y-76708000D03*
X147574000Y-76708000D03*
X150114000Y-76708000D03*
X152654000Y-76708000D03*
X155194000Y-76708000D03*
X157734000Y-76708000D03*
X160274000Y-76708000D03*
D14*
X162814000Y-76708000D03*
X165354000Y-76708000D03*
D16*
X134022000Y-146558000D03*
D17*
X135472000Y-146558000D03*
D18*
X155014000Y-148156000D03*
D19*
X122174000Y-76708000D02*
X122174000Y-80010000D01*
X165354000Y-76708000D02*
X165354000Y-80264000D01*
D20*
X157523061Y-111462939D02*
X159004000Y-109982000D01*
X153514000Y-152019000D02*
X153514000Y-145132000D01*
X146715120Y-143128282D02*
X146715120Y-113385188D01*
X146715120Y-113385188D02*
X148637369Y-111462939D01*
X160274000Y-103754000D02*
X159004000Y-102484000D01*
X148637369Y-111462939D02*
X157523061Y-111462939D01*
X147711758Y-144124920D02*
X146715120Y-143128282D01*
X152506920Y-144124920D02*
X147711758Y-144124920D01*
X159004000Y-109982000D02*
X159004000Y-105024000D01*
X159004000Y-90678000D02*
X160274000Y-89408000D01*
X153514000Y-145132000D02*
X152506920Y-144124920D01*
X159004000Y-102484000D02*
X159004000Y-90678000D01*
X159004000Y-105024000D02*
X160274000Y-103754000D01*
X146265600Y-143314480D02*
X146265600Y-113198990D01*
X152014000Y-152019000D02*
X152014000Y-145410000D01*
X156464000Y-109728000D02*
X156464000Y-105024000D01*
X146265600Y-113198990D02*
X148451171Y-111013419D01*
X148451171Y-111013419D02*
X155178581Y-111013419D01*
X151178440Y-144574440D02*
X147525560Y-144574440D01*
X156464000Y-105024000D02*
X157734000Y-103754000D01*
X152014000Y-145410000D02*
X151178440Y-144574440D01*
X147525560Y-144574440D02*
X146265600Y-143314480D01*
X156464000Y-90678000D02*
X157734000Y-89408000D01*
X157734000Y-103754000D02*
X156464000Y-102484000D01*
X155178581Y-111013419D02*
X156464000Y-109728000D01*
X156464000Y-102484000D02*
X156464000Y-90678000D01*
X145816080Y-113012792D02*
X148264973Y-110563899D01*
X153924000Y-90678000D02*
X155194000Y-89408000D01*
X152580101Y-110563899D02*
X153924000Y-109220000D01*
X147339362Y-145023960D02*
X145816080Y-143500678D01*
X153924000Y-102484000D02*
X153924000Y-90678000D01*
X153924000Y-105024000D02*
X155194000Y-103754000D01*
X150514000Y-152019000D02*
X150514000Y-145942000D01*
X153924000Y-109220000D02*
X153924000Y-105024000D01*
X155194000Y-103754000D02*
X153924000Y-102484000D01*
X150514000Y-145942000D02*
X149595960Y-145023960D01*
X148264973Y-110563899D02*
X152580101Y-110563899D01*
X149595960Y-145023960D02*
X147339362Y-145023960D01*
X145816080Y-143500678D02*
X145816080Y-113012792D01*
X145366560Y-112826594D02*
X148078775Y-110114379D01*
X151384000Y-105024000D02*
X152654000Y-103754000D01*
X151384000Y-90678000D02*
X152654000Y-89408000D01*
X149014000Y-146220000D02*
X148267480Y-145473480D01*
X152654000Y-103754000D02*
X151384000Y-102484000D01*
X151384000Y-108966000D02*
X151384000Y-105024000D01*
X145366560Y-143686875D02*
X145366560Y-112826594D01*
X147153165Y-145473480D02*
X145366560Y-143686875D01*
X150235621Y-110114379D02*
X151384000Y-108966000D01*
X149014000Y-152019000D02*
X149014000Y-146220000D01*
X148267480Y-145473480D02*
X147153165Y-145473480D01*
X151384000Y-102484000D02*
X151384000Y-90678000D01*
X148078775Y-110114379D02*
X150235621Y-110114379D01*
X148844000Y-108713436D02*
X148844000Y-105024000D01*
X148844000Y-105024000D02*
X150114000Y-103754000D01*
X148844000Y-90678000D02*
X150114000Y-89408000D01*
X144917040Y-143873073D02*
X144917040Y-112640396D01*
X148844000Y-102484000D02*
X148844000Y-90678000D01*
X150114000Y-103754000D02*
X148844000Y-102484000D01*
X147514000Y-152019000D02*
X147514000Y-146470033D01*
X147514000Y-146470033D02*
X144917040Y-143873073D01*
X144917040Y-112640396D02*
X148844000Y-108713436D01*
X146304000Y-108712000D02*
X146304000Y-105024000D01*
X146304000Y-90678000D02*
X147574000Y-89408000D01*
X146014000Y-152019000D02*
X146014000Y-145605751D01*
X147574000Y-103754000D02*
X146304000Y-102484000D01*
X146304000Y-105024000D02*
X147574000Y-103754000D01*
X146304000Y-102484000D02*
X146304000Y-90678000D01*
X146014000Y-145605751D02*
X144467520Y-144059271D01*
X144467520Y-110548480D02*
X146304000Y-108712000D01*
X144467520Y-144059271D02*
X144467520Y-110548480D01*
X144018000Y-144245469D02*
X144018000Y-107442000D01*
X144514000Y-144741469D02*
X144018000Y-144245469D01*
X143764000Y-105024000D02*
X145034000Y-103754000D01*
X143764000Y-90678000D02*
X145034000Y-89408000D01*
X144514000Y-152019000D02*
X144514000Y-144741469D01*
X144018000Y-107442000D02*
X143764000Y-107188000D01*
X143764000Y-107188000D02*
X143764000Y-105024000D01*
X143764000Y-102484000D02*
X143764000Y-90678000D01*
X145034000Y-103754000D02*
X143764000Y-102484000D01*
X143510000Y-144276308D02*
X143510000Y-110490000D01*
X141224000Y-102484000D02*
X141224000Y-90678000D01*
X143014000Y-152019000D02*
X143014000Y-144772308D01*
X141224000Y-90678000D02*
X142494000Y-89408000D01*
X143510000Y-110490000D02*
X141224000Y-108204000D01*
X141224000Y-108204000D02*
X141224000Y-105024000D01*
X142494000Y-103754000D02*
X141224000Y-102484000D01*
X143014000Y-144772308D02*
X143510000Y-144276308D01*
X141224000Y-105024000D02*
X142494000Y-103754000D01*
X143060480Y-112454198D02*
X143060480Y-144090110D01*
X138684000Y-102484000D02*
X138684000Y-90678000D01*
X138684000Y-90678000D02*
X139954000Y-89408000D01*
X138684000Y-108077718D02*
X143060480Y-112454198D01*
X143060480Y-144090110D02*
X141514000Y-145636590D01*
X139954000Y-103754000D02*
X138684000Y-102484000D01*
X141514000Y-145636590D02*
X141514000Y-152019000D01*
X139954000Y-103754000D02*
X138684000Y-105024000D01*
X138684000Y-105024000D02*
X138684000Y-108077718D01*
X142610960Y-143903912D02*
X142610960Y-112640396D01*
X142610960Y-112640396D02*
X139698564Y-109728000D01*
X136144000Y-90678000D02*
X137414000Y-89408000D01*
X140335000Y-146177000D02*
X140337872Y-146177000D01*
X136144000Y-108712000D02*
X136144000Y-105024000D01*
X136144000Y-102484000D02*
X136144000Y-90678000D01*
X140014000Y-152019000D02*
X140014000Y-146498000D01*
X137414000Y-103754000D02*
X136144000Y-102484000D01*
X140337872Y-146177000D02*
X142610960Y-143903912D01*
X139698564Y-109728000D02*
X137160000Y-109728000D01*
X137160000Y-109728000D02*
X136144000Y-108712000D01*
X140014000Y-146498000D02*
X140335000Y-146177000D01*
X136144000Y-105024000D02*
X137414000Y-103754000D01*
X133604000Y-108966000D02*
X133604000Y-105024000D01*
X133604000Y-90678000D02*
X134874000Y-89408000D01*
X133604000Y-105024000D02*
X134874000Y-103754000D01*
X139261237Y-145472763D02*
X140406391Y-145472763D01*
X139512366Y-110177520D02*
X134815520Y-110177520D01*
X142161440Y-143717714D02*
X142161440Y-112826594D01*
X134874000Y-103754000D02*
X133604000Y-102484000D01*
X138514000Y-152019000D02*
X138514000Y-146220000D01*
X140406391Y-145472763D02*
X142161440Y-143717714D01*
X133604000Y-102484000D02*
X133604000Y-90678000D01*
X138514000Y-146220000D02*
X139261237Y-145472763D01*
X142161440Y-112826594D02*
X139512366Y-110177520D01*
X134815520Y-110177520D02*
X133604000Y-108966000D01*
X131064000Y-109220000D02*
X131064000Y-105024000D01*
X137014000Y-146196000D02*
X138186757Y-145023243D01*
X131064000Y-105024000D02*
X132334000Y-103754000D01*
X137014000Y-152019000D02*
X137014000Y-146196000D01*
X140220193Y-145023243D02*
X141711920Y-143531516D01*
X141711920Y-143531516D02*
X141711920Y-113012792D01*
X131064000Y-90678000D02*
X132334000Y-89408000D01*
X131064000Y-102484000D02*
X131064000Y-90678000D01*
X141711920Y-113012792D02*
X139326168Y-110627040D01*
X132334000Y-103754000D02*
X131064000Y-102484000D01*
X139326168Y-110627040D02*
X132471040Y-110627040D01*
X138186757Y-145023243D02*
X140220193Y-145023243D01*
X132471040Y-110627040D02*
X131064000Y-109220000D01*
X135514000Y-152019000D02*
X135514000Y-146600000D01*
X135514000Y-146600000D02*
X135472000Y-146558000D01*
X141262400Y-143345318D02*
X141262400Y-113198990D01*
X140033995Y-144573723D02*
X141262400Y-143345318D01*
X141262400Y-113198990D02*
X139139970Y-111076560D01*
X135472000Y-145452000D02*
X136350277Y-144573723D01*
X128524000Y-107696000D02*
X128524000Y-105024000D01*
X129794000Y-103754000D02*
X128524000Y-102484000D01*
X128524000Y-90678000D02*
X129794000Y-89408000D01*
X139139970Y-111076560D02*
X131904560Y-111076560D01*
X135472000Y-146558000D02*
X135472000Y-145452000D01*
X128524000Y-102484000D02*
X128524000Y-90678000D01*
X136350277Y-144573723D02*
X140033995Y-144573723D01*
X131904560Y-111076560D02*
X128524000Y-107696000D01*
X128524000Y-105024000D02*
X129794000Y-103754000D01*
D19*
X127254000Y-108204000D02*
X127254000Y-106294000D01*
X138430000Y-112014000D02*
X131064000Y-112014000D01*
X140208000Y-142748000D02*
X140208000Y-113792000D01*
X135636000Y-143510000D02*
X139446000Y-143510000D01*
X131064000Y-112014000D02*
X127254000Y-108204000D01*
X134014000Y-146566000D02*
X134022000Y-146558000D01*
X134014000Y-152019000D02*
X134014000Y-146566000D01*
X139446000Y-143510000D02*
X140208000Y-142748000D01*
X134022000Y-145124000D02*
X135636000Y-143510000D01*
X140208000Y-113792000D02*
X138430000Y-112014000D01*
X134022000Y-146558000D02*
X134022000Y-145124000D01*
D20*
X125984000Y-90678000D02*
X124714000Y-89408000D01*
X135128000Y-142494000D02*
X138684000Y-142494000D01*
X139192000Y-114300000D02*
X137922000Y-113030000D01*
X125984000Y-102484000D02*
X125984000Y-90678000D01*
X132514000Y-152019000D02*
X132514000Y-145108000D01*
X124714000Y-103754000D02*
X125984000Y-102484000D01*
X138684000Y-142494000D02*
X139192000Y-141986000D01*
X132514000Y-145108000D02*
X135128000Y-142494000D01*
X137922000Y-113030000D02*
X130556000Y-113030000D01*
X130556000Y-113030000D02*
X125984000Y-108458000D01*
X125984000Y-105024000D02*
X124714000Y-103754000D01*
X139192000Y-141986000D02*
X139192000Y-114300000D01*
X125984000Y-108458000D02*
X125984000Y-105024000D01*
%TA.AperFunction,Conductor*%
G36*
X167381621Y-78887002D02*
G01*
X167428114Y-78940658D01*
X167439500Y-78993000D01*
X167439500Y-98924760D01*
X167419498Y-98992881D01*
X167402595Y-99013855D01*
X165240426Y-101176024D01*
X165212225Y-101204225D01*
X165184024Y-101232425D01*
X165184023Y-101232426D01*
X165153500Y-101306117D01*
X165153500Y-112386760D01*
X165133498Y-112454881D01*
X165116595Y-112475855D01*
X163529855Y-114062595D01*
X163467543Y-114096621D01*
X163440760Y-114099500D01*
X158202118Y-114099500D01*
X158128426Y-114130023D01*
X158128422Y-114130026D01*
X156350426Y-115908024D01*
X156322225Y-115936225D01*
X156294024Y-115964425D01*
X156294023Y-115964426D01*
X156263500Y-116038117D01*
X156263500Y-149178316D01*
X156243498Y-149246437D01*
X156189842Y-149292930D01*
X156119568Y-149303034D01*
X156054988Y-149273540D01*
X156018724Y-149217113D01*
X156018249Y-149217291D01*
X156017433Y-149215104D01*
X156016604Y-149213814D01*
X156015751Y-149210594D01*
X155964444Y-149073035D01*
X155964444Y-149073034D01*
X155876904Y-148956095D01*
X155759965Y-148868555D01*
X155623093Y-148817505D01*
X155562597Y-148811000D01*
X155268000Y-148811000D01*
X155268000Y-149352000D01*
X154760000Y-149352000D01*
X154760000Y-148811000D01*
X154465402Y-148811000D01*
X154404905Y-148817505D01*
X154317532Y-148850094D01*
X154246716Y-148855158D01*
X154184404Y-148821133D01*
X154150379Y-148758821D01*
X154147500Y-148732038D01*
X154147500Y-145069607D01*
X154147499Y-145069603D01*
X154142726Y-145045606D01*
X154123155Y-144947215D01*
X154075400Y-144831925D01*
X154006071Y-144728167D01*
X153917833Y-144639929D01*
X152910753Y-143632849D01*
X152806995Y-143563520D01*
X152691705Y-143515765D01*
X152618006Y-143501105D01*
X152569316Y-143491420D01*
X152569314Y-143491420D01*
X148026352Y-143491420D01*
X147958231Y-143471418D01*
X147937257Y-143454515D01*
X147385525Y-142902783D01*
X147351499Y-142840471D01*
X147348620Y-142813688D01*
X147348620Y-113699782D01*
X147368622Y-113631661D01*
X147385525Y-113610687D01*
X148862869Y-112133344D01*
X148925181Y-112099318D01*
X148951964Y-112096439D01*
X157585454Y-112096439D01*
X157585455Y-112096439D01*
X157707846Y-112072094D01*
X157823136Y-112024339D01*
X157926894Y-111955010D01*
X159496071Y-110385833D01*
X159565400Y-110282075D01*
X159613155Y-110166785D01*
X159637500Y-110044394D01*
X159637500Y-109919606D01*
X159637500Y-107688287D01*
X159657502Y-107620166D01*
X159711158Y-107573673D01*
X159781432Y-107563569D01*
X159804406Y-107569112D01*
X159939365Y-107615444D01*
X160161431Y-107652500D01*
X160161435Y-107652500D01*
X160386565Y-107652500D01*
X160386569Y-107652500D01*
X160608635Y-107615444D01*
X160821574Y-107542342D01*
X161019576Y-107435189D01*
X161197240Y-107296906D01*
X161349722Y-107131268D01*
X161438816Y-106994898D01*
X161492819Y-106948810D01*
X161563167Y-106939235D01*
X161627524Y-106969212D01*
X161649782Y-106994898D01*
X161738674Y-107130958D01*
X161891097Y-107296534D01*
X162068698Y-107434767D01*
X162068699Y-107434768D01*
X162266628Y-107541882D01*
X162266630Y-107541883D01*
X162479483Y-107614955D01*
X162479492Y-107614957D01*
X162560000Y-107628391D01*
X162560000Y-106724702D01*
X162621007Y-106759925D01*
X162748174Y-106794000D01*
X162879826Y-106794000D01*
X163006993Y-106759925D01*
X163068000Y-106724702D01*
X163068000Y-107628390D01*
X163148507Y-107614957D01*
X163148516Y-107614955D01*
X163361369Y-107541883D01*
X163361371Y-107541882D01*
X163559300Y-107434768D01*
X163559301Y-107434767D01*
X163736902Y-107296534D01*
X163889325Y-107130958D01*
X164012419Y-106942548D01*
X164102820Y-106736456D01*
X164102823Y-106736449D01*
X164150544Y-106548000D01*
X163244703Y-106548000D01*
X163279925Y-106486993D01*
X163314000Y-106359826D01*
X163314000Y-106228174D01*
X163279925Y-106101007D01*
X163244703Y-106040000D01*
X164150544Y-106040000D01*
X164150544Y-106039999D01*
X164102823Y-105851550D01*
X164102820Y-105851543D01*
X164012419Y-105645451D01*
X163889325Y-105457041D01*
X163745652Y-105300969D01*
X163714232Y-105237304D01*
X163722219Y-105166758D01*
X163767079Y-105111729D01*
X163794322Y-105097576D01*
X163909965Y-105054444D01*
X164026904Y-104966904D01*
X164114444Y-104849965D01*
X164114444Y-104849964D01*
X164165494Y-104713093D01*
X164171999Y-104652597D01*
X164172000Y-104652585D01*
X164172000Y-104008000D01*
X163244703Y-104008000D01*
X163279925Y-103946993D01*
X163314000Y-103819826D01*
X163314000Y-103688174D01*
X163279925Y-103561007D01*
X163244703Y-103500000D01*
X164172000Y-103500000D01*
X164172000Y-102855414D01*
X164171999Y-102855402D01*
X164165494Y-102794906D01*
X164114444Y-102658035D01*
X164114444Y-102658034D01*
X164026904Y-102541095D01*
X163909965Y-102453555D01*
X163773093Y-102402505D01*
X163712597Y-102396000D01*
X163068000Y-102396000D01*
X163068000Y-103323297D01*
X163006993Y-103288075D01*
X162879826Y-103254000D01*
X162748174Y-103254000D01*
X162621007Y-103288075D01*
X162560000Y-103323297D01*
X162560000Y-102396000D01*
X161915402Y-102396000D01*
X161854906Y-102402505D01*
X161718035Y-102453555D01*
X161718034Y-102453555D01*
X161601095Y-102541095D01*
X161513555Y-102658034D01*
X161513553Y-102658039D01*
X161469380Y-102776470D01*
X161426833Y-102833306D01*
X161360313Y-102858116D01*
X161290939Y-102843024D01*
X161258626Y-102817777D01*
X161197240Y-102751094D01*
X161197239Y-102751093D01*
X161197237Y-102751091D01*
X161077679Y-102658035D01*
X161019576Y-102612811D01*
X160821574Y-102505658D01*
X160821572Y-102505657D01*
X160821571Y-102505656D01*
X160608639Y-102432557D01*
X160608630Y-102432555D01*
X160564476Y-102425187D01*
X160386569Y-102395500D01*
X160161431Y-102395500D01*
X160034664Y-102416653D01*
X159939356Y-102432557D01*
X159936227Y-102433350D01*
X159934905Y-102433300D01*
X159934224Y-102433414D01*
X159934200Y-102433273D01*
X159865281Y-102430681D01*
X159816204Y-102400300D01*
X159674405Y-102258501D01*
X159640379Y-102196189D01*
X159637500Y-102169406D01*
X159637500Y-93342287D01*
X159657502Y-93274166D01*
X159711158Y-93227673D01*
X159781432Y-93217569D01*
X159804406Y-93223112D01*
X159939365Y-93269444D01*
X160161431Y-93306500D01*
X160161435Y-93306500D01*
X160386565Y-93306500D01*
X160386569Y-93306500D01*
X160608635Y-93269444D01*
X160821574Y-93196342D01*
X161019576Y-93089189D01*
X161197240Y-92950906D01*
X161349722Y-92785268D01*
X161438816Y-92648898D01*
X161492819Y-92602810D01*
X161563167Y-92593235D01*
X161627524Y-92623212D01*
X161649782Y-92648898D01*
X161738674Y-92784958D01*
X161891097Y-92950534D01*
X162068698Y-93088767D01*
X162068699Y-93088768D01*
X162266628Y-93195882D01*
X162266630Y-93195883D01*
X162479483Y-93268955D01*
X162479492Y-93268957D01*
X162560000Y-93282391D01*
X162560000Y-92378702D01*
X162621007Y-92413925D01*
X162748174Y-92448000D01*
X162879826Y-92448000D01*
X163006993Y-92413925D01*
X163068000Y-92378702D01*
X163068000Y-93282390D01*
X163148507Y-93268957D01*
X163148516Y-93268955D01*
X163361369Y-93195883D01*
X163361371Y-93195882D01*
X163559300Y-93088768D01*
X163559301Y-93088767D01*
X163736902Y-92950534D01*
X163889325Y-92784958D01*
X164012419Y-92596548D01*
X164102820Y-92390456D01*
X164102823Y-92390449D01*
X164150544Y-92202000D01*
X163244703Y-92202000D01*
X163279925Y-92140993D01*
X163314000Y-92013826D01*
X163314000Y-91882174D01*
X163279925Y-91755007D01*
X163244703Y-91694000D01*
X164150544Y-91694000D01*
X164150544Y-91693999D01*
X164102823Y-91505550D01*
X164102820Y-91505543D01*
X164012419Y-91299451D01*
X163889325Y-91111041D01*
X163745652Y-90954969D01*
X163714232Y-90891304D01*
X163722219Y-90820758D01*
X163767079Y-90765729D01*
X163794322Y-90751576D01*
X163909965Y-90708444D01*
X164026904Y-90620904D01*
X164114444Y-90503965D01*
X164114444Y-90503964D01*
X164165494Y-90367093D01*
X164171999Y-90306597D01*
X164172000Y-90306585D01*
X164172000Y-89662000D01*
X163244703Y-89662000D01*
X163279925Y-89600993D01*
X163314000Y-89473826D01*
X163314000Y-89342174D01*
X163279925Y-89215007D01*
X163244703Y-89154000D01*
X164172000Y-89154000D01*
X164172000Y-88509414D01*
X164171999Y-88509402D01*
X164165494Y-88448906D01*
X164114444Y-88312035D01*
X164114444Y-88312034D01*
X164026904Y-88195095D01*
X163909965Y-88107555D01*
X163773093Y-88056505D01*
X163712597Y-88050000D01*
X163068000Y-88050000D01*
X163068000Y-88977297D01*
X163006993Y-88942075D01*
X162879826Y-88908000D01*
X162748174Y-88908000D01*
X162621007Y-88942075D01*
X162560000Y-88977297D01*
X162560000Y-88050000D01*
X161915402Y-88050000D01*
X161854906Y-88056505D01*
X161718035Y-88107555D01*
X161718034Y-88107555D01*
X161601095Y-88195095D01*
X161513555Y-88312034D01*
X161513553Y-88312039D01*
X161469380Y-88430470D01*
X161426833Y-88487306D01*
X161360313Y-88512116D01*
X161290939Y-88497024D01*
X161258626Y-88471777D01*
X161197240Y-88405094D01*
X161197239Y-88405093D01*
X161197237Y-88405091D01*
X161077679Y-88312035D01*
X161019576Y-88266811D01*
X160821574Y-88159658D01*
X160821572Y-88159657D01*
X160821571Y-88159656D01*
X160608639Y-88086557D01*
X160608630Y-88086555D01*
X160564476Y-88079187D01*
X160386569Y-88049500D01*
X160161431Y-88049500D01*
X160013211Y-88074233D01*
X159939369Y-88086555D01*
X159939360Y-88086557D01*
X159726428Y-88159656D01*
X159726426Y-88159658D01*
X159528426Y-88266810D01*
X159528424Y-88266811D01*
X159350762Y-88405091D01*
X159198279Y-88570729D01*
X159109483Y-88706643D01*
X159055479Y-88752731D01*
X158985131Y-88762306D01*
X158920774Y-88732329D01*
X158898517Y-88706643D01*
X158809720Y-88570729D01*
X158657237Y-88405091D01*
X158537679Y-88312035D01*
X158479576Y-88266811D01*
X158281574Y-88159658D01*
X158281572Y-88159657D01*
X158281571Y-88159656D01*
X158068639Y-88086557D01*
X158068630Y-88086555D01*
X158024476Y-88079187D01*
X157846569Y-88049500D01*
X157621431Y-88049500D01*
X157473211Y-88074233D01*
X157399369Y-88086555D01*
X157399360Y-88086557D01*
X157186428Y-88159656D01*
X157186426Y-88159658D01*
X156988426Y-88266810D01*
X156988424Y-88266811D01*
X156810762Y-88405091D01*
X156658279Y-88570729D01*
X156569483Y-88706643D01*
X156515479Y-88752731D01*
X156445131Y-88762306D01*
X156380774Y-88732329D01*
X156358517Y-88706643D01*
X156269720Y-88570729D01*
X156117237Y-88405091D01*
X155997679Y-88312035D01*
X155939576Y-88266811D01*
X155741574Y-88159658D01*
X155741572Y-88159657D01*
X155741571Y-88159656D01*
X155528639Y-88086557D01*
X155528630Y-88086555D01*
X155484476Y-88079187D01*
X155306569Y-88049500D01*
X155081431Y-88049500D01*
X154933211Y-88074233D01*
X154859369Y-88086555D01*
X154859360Y-88086557D01*
X154646428Y-88159656D01*
X154646426Y-88159658D01*
X154448426Y-88266810D01*
X154448424Y-88266811D01*
X154270762Y-88405091D01*
X154118279Y-88570729D01*
X154029483Y-88706643D01*
X153975479Y-88752731D01*
X153905131Y-88762306D01*
X153840774Y-88732329D01*
X153818517Y-88706643D01*
X153729720Y-88570729D01*
X153577237Y-88405091D01*
X153457679Y-88312035D01*
X153399576Y-88266811D01*
X153201574Y-88159658D01*
X153201572Y-88159657D01*
X153201571Y-88159656D01*
X152988639Y-88086557D01*
X152988630Y-88086555D01*
X152944476Y-88079187D01*
X152766569Y-88049500D01*
X152541431Y-88049500D01*
X152393211Y-88074233D01*
X152319369Y-88086555D01*
X152319360Y-88086557D01*
X152106428Y-88159656D01*
X152106426Y-88159658D01*
X151908426Y-88266810D01*
X151908424Y-88266811D01*
X151730762Y-88405091D01*
X151578279Y-88570729D01*
X151489483Y-88706643D01*
X151435479Y-88752731D01*
X151365131Y-88762306D01*
X151300774Y-88732329D01*
X151278517Y-88706643D01*
X151189720Y-88570729D01*
X151037237Y-88405091D01*
X150917679Y-88312035D01*
X150859576Y-88266811D01*
X150661574Y-88159658D01*
X150661572Y-88159657D01*
X150661571Y-88159656D01*
X150448639Y-88086557D01*
X150448630Y-88086555D01*
X150404476Y-88079187D01*
X150226569Y-88049500D01*
X150001431Y-88049500D01*
X149853211Y-88074233D01*
X149779369Y-88086555D01*
X149779360Y-88086557D01*
X149566428Y-88159656D01*
X149566426Y-88159658D01*
X149368426Y-88266810D01*
X149368424Y-88266811D01*
X149190762Y-88405091D01*
X149038279Y-88570729D01*
X148949483Y-88706643D01*
X148895479Y-88752731D01*
X148825131Y-88762306D01*
X148760774Y-88732329D01*
X148738517Y-88706643D01*
X148649720Y-88570729D01*
X148497237Y-88405091D01*
X148377679Y-88312035D01*
X148319576Y-88266811D01*
X148121574Y-88159658D01*
X148121572Y-88159657D01*
X148121571Y-88159656D01*
X147908639Y-88086557D01*
X147908630Y-88086555D01*
X147864476Y-88079187D01*
X147686569Y-88049500D01*
X147461431Y-88049500D01*
X147313211Y-88074233D01*
X147239369Y-88086555D01*
X147239360Y-88086557D01*
X147026428Y-88159656D01*
X147026426Y-88159658D01*
X146828426Y-88266810D01*
X146828424Y-88266811D01*
X146650762Y-88405091D01*
X146498279Y-88570729D01*
X146409483Y-88706643D01*
X146355479Y-88752731D01*
X146285131Y-88762306D01*
X146220774Y-88732329D01*
X146198517Y-88706643D01*
X146109720Y-88570729D01*
X145957237Y-88405091D01*
X145837679Y-88312035D01*
X145779576Y-88266811D01*
X145581574Y-88159658D01*
X145581572Y-88159657D01*
X145581571Y-88159656D01*
X145368639Y-88086557D01*
X145368630Y-88086555D01*
X145324476Y-88079187D01*
X145146569Y-88049500D01*
X144921431Y-88049500D01*
X144773211Y-88074233D01*
X144699369Y-88086555D01*
X144699360Y-88086557D01*
X144486428Y-88159656D01*
X144486426Y-88159658D01*
X144288426Y-88266810D01*
X144288424Y-88266811D01*
X144110762Y-88405091D01*
X143958279Y-88570729D01*
X143869483Y-88706643D01*
X143815479Y-88752731D01*
X143745131Y-88762306D01*
X143680774Y-88732329D01*
X143658517Y-88706643D01*
X143569720Y-88570729D01*
X143417237Y-88405091D01*
X143297679Y-88312035D01*
X143239576Y-88266811D01*
X143041574Y-88159658D01*
X143041572Y-88159657D01*
X143041571Y-88159656D01*
X142828639Y-88086557D01*
X142828630Y-88086555D01*
X142784476Y-88079187D01*
X142606569Y-88049500D01*
X142381431Y-88049500D01*
X142233211Y-88074233D01*
X142159369Y-88086555D01*
X142159360Y-88086557D01*
X141946428Y-88159656D01*
X141946426Y-88159658D01*
X141748426Y-88266810D01*
X141748424Y-88266811D01*
X141570762Y-88405091D01*
X141418279Y-88570729D01*
X141329483Y-88706643D01*
X141275479Y-88752731D01*
X141205131Y-88762306D01*
X141140774Y-88732329D01*
X141118517Y-88706643D01*
X141029720Y-88570729D01*
X140877237Y-88405091D01*
X140757679Y-88312035D01*
X140699576Y-88266811D01*
X140501574Y-88159658D01*
X140501572Y-88159657D01*
X140501571Y-88159656D01*
X140288639Y-88086557D01*
X140288630Y-88086555D01*
X140244476Y-88079187D01*
X140066569Y-88049500D01*
X139841431Y-88049500D01*
X139693211Y-88074233D01*
X139619369Y-88086555D01*
X139619360Y-88086557D01*
X139406428Y-88159656D01*
X139406426Y-88159658D01*
X139208426Y-88266810D01*
X139208424Y-88266811D01*
X139030762Y-88405091D01*
X138878279Y-88570729D01*
X138789483Y-88706643D01*
X138735479Y-88752731D01*
X138665131Y-88762306D01*
X138600774Y-88732329D01*
X138578517Y-88706643D01*
X138489720Y-88570729D01*
X138337237Y-88405091D01*
X138217679Y-88312035D01*
X138159576Y-88266811D01*
X137961574Y-88159658D01*
X137961572Y-88159657D01*
X137961571Y-88159656D01*
X137748639Y-88086557D01*
X137748630Y-88086555D01*
X137704476Y-88079187D01*
X137526569Y-88049500D01*
X137301431Y-88049500D01*
X137153211Y-88074233D01*
X137079369Y-88086555D01*
X137079360Y-88086557D01*
X136866428Y-88159656D01*
X136866426Y-88159658D01*
X136668426Y-88266810D01*
X136668424Y-88266811D01*
X136490762Y-88405091D01*
X136338279Y-88570729D01*
X136249483Y-88706643D01*
X136195479Y-88752731D01*
X136125131Y-88762306D01*
X136060774Y-88732329D01*
X136038517Y-88706643D01*
X135949720Y-88570729D01*
X135797237Y-88405091D01*
X135677679Y-88312035D01*
X135619576Y-88266811D01*
X135421574Y-88159658D01*
X135421572Y-88159657D01*
X135421571Y-88159656D01*
X135208639Y-88086557D01*
X135208630Y-88086555D01*
X135164476Y-88079187D01*
X134986569Y-88049500D01*
X134761431Y-88049500D01*
X134613211Y-88074233D01*
X134539369Y-88086555D01*
X134539360Y-88086557D01*
X134326428Y-88159656D01*
X134326426Y-88159658D01*
X134128426Y-88266810D01*
X134128424Y-88266811D01*
X133950762Y-88405091D01*
X133798279Y-88570729D01*
X133709483Y-88706643D01*
X133655479Y-88752731D01*
X133585131Y-88762306D01*
X133520774Y-88732329D01*
X133498517Y-88706643D01*
X133409720Y-88570729D01*
X133257237Y-88405091D01*
X133137679Y-88312035D01*
X133079576Y-88266811D01*
X132881574Y-88159658D01*
X132881572Y-88159657D01*
X132881571Y-88159656D01*
X132668639Y-88086557D01*
X132668630Y-88086555D01*
X132624476Y-88079187D01*
X132446569Y-88049500D01*
X132221431Y-88049500D01*
X132073211Y-88074233D01*
X131999369Y-88086555D01*
X131999360Y-88086557D01*
X131786428Y-88159656D01*
X131786426Y-88159658D01*
X131588426Y-88266810D01*
X131588424Y-88266811D01*
X131410762Y-88405091D01*
X131258279Y-88570729D01*
X131169483Y-88706643D01*
X131115479Y-88752731D01*
X131045131Y-88762306D01*
X130980774Y-88732329D01*
X130958517Y-88706643D01*
X130869720Y-88570729D01*
X130717237Y-88405091D01*
X130597679Y-88312035D01*
X130539576Y-88266811D01*
X130341574Y-88159658D01*
X130341572Y-88159657D01*
X130341571Y-88159656D01*
X130128639Y-88086557D01*
X130128630Y-88086555D01*
X130084476Y-88079187D01*
X129906569Y-88049500D01*
X129681431Y-88049500D01*
X129533211Y-88074233D01*
X129459369Y-88086555D01*
X129459360Y-88086557D01*
X129246428Y-88159656D01*
X129246426Y-88159658D01*
X129048426Y-88266810D01*
X129048424Y-88266811D01*
X128870762Y-88405091D01*
X128718279Y-88570729D01*
X128629483Y-88706643D01*
X128575479Y-88752731D01*
X128505131Y-88762306D01*
X128440774Y-88732329D01*
X128418517Y-88706643D01*
X128329720Y-88570729D01*
X128177237Y-88405091D01*
X128057679Y-88312035D01*
X127999576Y-88266811D01*
X127801574Y-88159658D01*
X127801572Y-88159657D01*
X127801571Y-88159656D01*
X127588639Y-88086557D01*
X127588630Y-88086555D01*
X127544476Y-88079187D01*
X127366569Y-88049500D01*
X127141431Y-88049500D01*
X126993211Y-88074233D01*
X126919369Y-88086555D01*
X126919360Y-88086557D01*
X126706428Y-88159656D01*
X126706426Y-88159658D01*
X126508426Y-88266810D01*
X126508424Y-88266811D01*
X126330762Y-88405091D01*
X126178279Y-88570729D01*
X126089483Y-88706643D01*
X126035479Y-88752731D01*
X125965131Y-88762306D01*
X125900774Y-88732329D01*
X125878517Y-88706643D01*
X125789720Y-88570729D01*
X125637237Y-88405091D01*
X125517679Y-88312035D01*
X125459576Y-88266811D01*
X125261574Y-88159658D01*
X125261572Y-88159657D01*
X125261571Y-88159656D01*
X125048639Y-88086557D01*
X125048630Y-88086555D01*
X125004476Y-88079187D01*
X124826569Y-88049500D01*
X124601431Y-88049500D01*
X124453211Y-88074233D01*
X124379369Y-88086555D01*
X124379360Y-88086557D01*
X124166428Y-88159656D01*
X124166426Y-88159658D01*
X123968426Y-88266810D01*
X123968424Y-88266811D01*
X123790762Y-88405091D01*
X123638279Y-88570729D01*
X123638275Y-88570734D01*
X123515141Y-88759206D01*
X123424703Y-88965386D01*
X123424702Y-88965387D01*
X123369437Y-89183624D01*
X123369436Y-89183630D01*
X123369436Y-89183632D01*
X123350844Y-89408000D01*
X123366836Y-89600993D01*
X123369437Y-89632375D01*
X123424702Y-89850612D01*
X123424703Y-89850613D01*
X123515141Y-90056793D01*
X123638275Y-90245265D01*
X123638279Y-90245270D01*
X123790762Y-90410908D01*
X123845331Y-90453381D01*
X123968424Y-90549189D01*
X124001680Y-90567186D01*
X124052071Y-90617200D01*
X124067423Y-90686516D01*
X124042862Y-90753129D01*
X124001680Y-90788813D01*
X123968426Y-90806810D01*
X123968424Y-90806811D01*
X123790762Y-90945091D01*
X123638279Y-91110729D01*
X123638275Y-91110734D01*
X123515141Y-91299206D01*
X123424703Y-91505386D01*
X123424702Y-91505387D01*
X123369437Y-91723624D01*
X123369436Y-91723630D01*
X123369436Y-91723632D01*
X123350844Y-91948000D01*
X123366836Y-92140993D01*
X123369437Y-92172375D01*
X123424702Y-92390612D01*
X123424703Y-92390613D01*
X123424704Y-92390616D01*
X123515140Y-92596791D01*
X123515141Y-92596793D01*
X123638275Y-92785265D01*
X123638279Y-92785270D01*
X123790762Y-92950908D01*
X123845331Y-92993381D01*
X123968424Y-93089189D01*
X124166426Y-93196342D01*
X124166427Y-93196342D01*
X124166428Y-93196343D01*
X124228258Y-93217569D01*
X124379365Y-93269444D01*
X124601431Y-93306500D01*
X124601435Y-93306500D01*
X124826565Y-93306500D01*
X124826569Y-93306500D01*
X125048635Y-93269444D01*
X125183590Y-93223113D01*
X125254512Y-93219913D01*
X125315908Y-93255566D01*
X125348282Y-93318751D01*
X125350500Y-93342287D01*
X125350500Y-102169404D01*
X125330498Y-102237525D01*
X125313595Y-102258499D01*
X125171794Y-102400300D01*
X125109482Y-102434326D01*
X125053781Y-102433382D01*
X125053776Y-102433414D01*
X125053563Y-102433378D01*
X125051764Y-102433348D01*
X125048642Y-102432557D01*
X125003968Y-102425102D01*
X124826569Y-102395500D01*
X124601431Y-102395500D01*
X124453211Y-102420233D01*
X124379369Y-102432555D01*
X124379360Y-102432557D01*
X124166428Y-102505656D01*
X124166426Y-102505658D01*
X123968426Y-102612810D01*
X123968424Y-102612811D01*
X123790762Y-102751091D01*
X123638279Y-102916729D01*
X123638275Y-102916734D01*
X123515141Y-103105206D01*
X123424703Y-103311386D01*
X123424702Y-103311387D01*
X123369437Y-103529624D01*
X123369436Y-103529630D01*
X123369436Y-103529632D01*
X123350844Y-103754000D01*
X123366836Y-103946993D01*
X123369437Y-103978375D01*
X123424702Y-104196612D01*
X123424703Y-104196613D01*
X123515141Y-104402793D01*
X123638275Y-104591265D01*
X123638279Y-104591270D01*
X123790762Y-104756908D01*
X123845331Y-104799381D01*
X123968424Y-104895189D01*
X124001680Y-104913186D01*
X124052071Y-104963200D01*
X124067423Y-105032516D01*
X124042862Y-105099129D01*
X124001680Y-105134813D01*
X123968426Y-105152810D01*
X123968424Y-105152811D01*
X123790762Y-105291091D01*
X123638279Y-105456729D01*
X123638275Y-105456734D01*
X123515141Y-105645206D01*
X123424703Y-105851386D01*
X123424702Y-105851387D01*
X123369437Y-106069624D01*
X123369436Y-106069630D01*
X123369436Y-106069632D01*
X123350844Y-106294000D01*
X123366836Y-106486993D01*
X123369437Y-106518375D01*
X123424702Y-106736612D01*
X123424703Y-106736613D01*
X123424704Y-106736616D01*
X123515140Y-106942791D01*
X123515141Y-106942793D01*
X123638275Y-107131265D01*
X123638279Y-107131270D01*
X123790762Y-107296908D01*
X123845331Y-107339381D01*
X123968424Y-107435189D01*
X124166426Y-107542342D01*
X124166427Y-107542342D01*
X124166428Y-107542343D01*
X124216044Y-107559376D01*
X124379365Y-107615444D01*
X124601431Y-107652500D01*
X124601435Y-107652500D01*
X124826565Y-107652500D01*
X124826569Y-107652500D01*
X125048635Y-107615444D01*
X125183590Y-107569113D01*
X125254512Y-107565913D01*
X125315908Y-107601566D01*
X125348282Y-107664751D01*
X125350500Y-107688287D01*
X125350500Y-108395606D01*
X125350500Y-108520394D01*
X125374845Y-108642785D01*
X125422600Y-108758075D01*
X125491929Y-108861833D01*
X130152167Y-113522071D01*
X130255925Y-113591400D01*
X130371215Y-113639155D01*
X130493606Y-113663500D01*
X130618393Y-113663500D01*
X137607406Y-113663500D01*
X137675527Y-113683502D01*
X137696501Y-113700405D01*
X138521595Y-114525499D01*
X138555621Y-114587811D01*
X138558500Y-114614594D01*
X138558500Y-141671406D01*
X138538498Y-141739527D01*
X138521595Y-141760501D01*
X138458501Y-141823595D01*
X138396189Y-141857621D01*
X138369406Y-141860500D01*
X135065603Y-141860500D01*
X134992568Y-141875028D01*
X134943215Y-141884845D01*
X134943213Y-141884845D01*
X134943212Y-141884846D01*
X134827923Y-141932601D01*
X134724171Y-142001926D01*
X134724164Y-142001931D01*
X132021931Y-144704164D01*
X132021926Y-144704171D01*
X131952601Y-144807923D01*
X131904846Y-144923212D01*
X131880500Y-145045603D01*
X131880500Y-148738591D01*
X131860498Y-148806712D01*
X131806842Y-148853205D01*
X131798534Y-148856646D01*
X131767795Y-148868111D01*
X131767792Y-148868112D01*
X131650738Y-148955738D01*
X131563112Y-149072792D01*
X131563110Y-149072797D01*
X131509256Y-149217184D01*
X131506767Y-149216255D01*
X131477988Y-149266792D01*
X131415077Y-149299697D01*
X131344363Y-149293366D01*
X131288297Y-149249810D01*
X131264680Y-149182856D01*
X131264500Y-149176117D01*
X131264500Y-116038117D01*
X131233976Y-115964426D01*
X131233975Y-115964425D01*
X131177574Y-115908024D01*
X129399577Y-114130026D01*
X129399573Y-114130023D01*
X129325882Y-114099500D01*
X124087240Y-114099500D01*
X124019119Y-114079498D01*
X123998145Y-114062595D01*
X122411405Y-112475855D01*
X122377379Y-112413543D01*
X122374500Y-112386760D01*
X122374500Y-101306117D01*
X122343976Y-101232426D01*
X122343975Y-101232425D01*
X122287574Y-101176024D01*
X120125405Y-99013855D01*
X120091379Y-98951543D01*
X120088500Y-98924760D01*
X120088500Y-78993000D01*
X120108502Y-78924879D01*
X120162158Y-78878386D01*
X120214500Y-78867000D01*
X167313500Y-78867000D01*
X167381621Y-78887002D01*
G37*
%TD.AperFunction*%
%TA.AperFunction,Conductor*%
G36*
X163068000Y-105863297D02*
G01*
X163006993Y-105828075D01*
X162879826Y-105794000D01*
X162748174Y-105794000D01*
X162621007Y-105828075D01*
X162560000Y-105863297D01*
X162560000Y-104184702D01*
X162621007Y-104219925D01*
X162748174Y-104254000D01*
X162879826Y-104254000D01*
X163006993Y-104219925D01*
X163068000Y-104184702D01*
X163068000Y-105863297D01*
G37*
%TD.AperFunction*%
%TA.AperFunction,Conductor*%
G36*
X163068000Y-91517297D02*
G01*
X163006993Y-91482075D01*
X162879826Y-91448000D01*
X162748174Y-91448000D01*
X162621007Y-91482075D01*
X162560000Y-91517297D01*
X162560000Y-89838702D01*
X162621007Y-89873925D01*
X162748174Y-89908000D01*
X162879826Y-89908000D01*
X163006993Y-89873925D01*
X163068000Y-89838702D01*
X163068000Y-91517297D01*
G37*
%TD.AperFunction*%
M02*
