%TF.GenerationSoftware,KiCad,Pcbnew,8.0.3-8.0.3-0~ubuntu24.04.1*%
%TF.CreationDate,2024-06-19T14:37:18-05:00*%
%TF.ProjectId,protopak64,70726f74-6f70-4616-9b36-342e6b696361,rev?*%
%TF.SameCoordinates,Original*%
%TF.FileFunction,Drillmap*%
%TF.FilePolarity,Positive*%
%FSLAX45Y45*%
G04 Gerber Fmt 4.5, Leading zero omitted, Abs format (unit mm)*
G04 Created by KiCad (PCBNEW 8.0.3-8.0.3-0~ubuntu24.04.1) date 2024-06-19 14:37:18*
%MOMM*%
%LPD*%
G01*
G04 APERTURE LIST*
%ADD10C,0.100000*%
%ADD11C,0.200000*%
G04 APERTURE END LIST*
D10*
X12065000Y-1600200D02*
X16687800Y-1600200D01*
X13106400Y-15468600D02*
X13106400Y-11607800D01*
X12395200Y-11430000D02*
X12217400Y-11252200D01*
X12928600Y-11430000D02*
X12395200Y-11430000D01*
X16535400Y-11252200D02*
X16535400Y-10134600D01*
X12217400Y-11252200D02*
X12217400Y-10134600D01*
X15646400Y-11607800D02*
X15824200Y-11430000D01*
X11988800Y-9906000D02*
X11988800Y-1676400D01*
X16687800Y-1600200D02*
X16764000Y-1676400D01*
X13106400Y-15468600D02*
X13157200Y-15519400D01*
X13157200Y-15519400D02*
X15595600Y-15519400D01*
X16357600Y-11430000D02*
X16535400Y-11252200D01*
X16357600Y-11430000D02*
X15824200Y-11430000D01*
X12065000Y-1600200D02*
X11988800Y-1676400D01*
X15595600Y-15519400D02*
X15646400Y-15468600D01*
X16764000Y-9906000D02*
X16535400Y-10134600D01*
X16764000Y-1676400D02*
X16764000Y-9906000D01*
X12217400Y-10134600D02*
X11988800Y-9906000D01*
X13106400Y-11607800D02*
X12928600Y-11430000D01*
X15646400Y-15468600D02*
X15646400Y-11607800D01*
D11*
D10*
X15481400Y-14795600D02*
X15521400Y-14835600D01*
X15521400Y-14795600D02*
X15481400Y-14835600D01*
X12267400Y-1828800D02*
G75*
G02*
X12167400Y-1828800I-50000J0D01*
G01*
X12167400Y-1828800D02*
G75*
G02*
X12267400Y-1828800I50000J0D01*
G01*
X12267400Y-2082800D02*
G75*
G02*
X12167400Y-2082800I-50000J0D01*
G01*
X12167400Y-2082800D02*
G75*
G02*
X12267400Y-2082800I50000J0D01*
G01*
X12267400Y-2336800D02*
G75*
G02*
X12167400Y-2336800I-50000J0D01*
G01*
X12167400Y-2336800D02*
G75*
G02*
X12267400Y-2336800I50000J0D01*
G01*
X12267400Y-2590800D02*
G75*
G02*
X12167400Y-2590800I-50000J0D01*
G01*
X12167400Y-2590800D02*
G75*
G02*
X12267400Y-2590800I50000J0D01*
G01*
X12267400Y-2844800D02*
G75*
G02*
X12167400Y-2844800I-50000J0D01*
G01*
X12167400Y-2844800D02*
G75*
G02*
X12267400Y-2844800I50000J0D01*
G01*
X12267400Y-3098800D02*
G75*
G02*
X12167400Y-3098800I-50000J0D01*
G01*
X12167400Y-3098800D02*
G75*
G02*
X12267400Y-3098800I50000J0D01*
G01*
X12267400Y-3352800D02*
G75*
G02*
X12167400Y-3352800I-50000J0D01*
G01*
X12167400Y-3352800D02*
G75*
G02*
X12267400Y-3352800I50000J0D01*
G01*
X12267400Y-3606800D02*
G75*
G02*
X12167400Y-3606800I-50000J0D01*
G01*
X12167400Y-3606800D02*
G75*
G02*
X12267400Y-3606800I50000J0D01*
G01*
X12267400Y-3860800D02*
G75*
G02*
X12167400Y-3860800I-50000J0D01*
G01*
X12167400Y-3860800D02*
G75*
G02*
X12267400Y-3860800I50000J0D01*
G01*
X12267400Y-4114800D02*
G75*
G02*
X12167400Y-4114800I-50000J0D01*
G01*
X12167400Y-4114800D02*
G75*
G02*
X12267400Y-4114800I50000J0D01*
G01*
X12267400Y-4368800D02*
G75*
G02*
X12167400Y-4368800I-50000J0D01*
G01*
X12167400Y-4368800D02*
G75*
G02*
X12267400Y-4368800I50000J0D01*
G01*
X12267400Y-4622800D02*
G75*
G02*
X12167400Y-4622800I-50000J0D01*
G01*
X12167400Y-4622800D02*
G75*
G02*
X12267400Y-4622800I50000J0D01*
G01*
X12267400Y-4876800D02*
G75*
G02*
X12167400Y-4876800I-50000J0D01*
G01*
X12167400Y-4876800D02*
G75*
G02*
X12267400Y-4876800I50000J0D01*
G01*
X12267400Y-5130800D02*
G75*
G02*
X12167400Y-5130800I-50000J0D01*
G01*
X12167400Y-5130800D02*
G75*
G02*
X12267400Y-5130800I50000J0D01*
G01*
X12267400Y-5384800D02*
G75*
G02*
X12167400Y-5384800I-50000J0D01*
G01*
X12167400Y-5384800D02*
G75*
G02*
X12267400Y-5384800I50000J0D01*
G01*
X12267400Y-5638800D02*
G75*
G02*
X12167400Y-5638800I-50000J0D01*
G01*
X12167400Y-5638800D02*
G75*
G02*
X12267400Y-5638800I50000J0D01*
G01*
X12267400Y-5892800D02*
G75*
G02*
X12167400Y-5892800I-50000J0D01*
G01*
X12167400Y-5892800D02*
G75*
G02*
X12267400Y-5892800I50000J0D01*
G01*
X12267400Y-6146800D02*
G75*
G02*
X12167400Y-6146800I-50000J0D01*
G01*
X12167400Y-6146800D02*
G75*
G02*
X12267400Y-6146800I50000J0D01*
G01*
X12267400Y-6400800D02*
G75*
G02*
X12167400Y-6400800I-50000J0D01*
G01*
X12167400Y-6400800D02*
G75*
G02*
X12267400Y-6400800I50000J0D01*
G01*
X12267400Y-6654800D02*
G75*
G02*
X12167400Y-6654800I-50000J0D01*
G01*
X12167400Y-6654800D02*
G75*
G02*
X12267400Y-6654800I50000J0D01*
G01*
X12267400Y-6908800D02*
G75*
G02*
X12167400Y-6908800I-50000J0D01*
G01*
X12167400Y-6908800D02*
G75*
G02*
X12267400Y-6908800I50000J0D01*
G01*
X12267400Y-7162800D02*
G75*
G02*
X12167400Y-7162800I-50000J0D01*
G01*
X12167400Y-7162800D02*
G75*
G02*
X12267400Y-7162800I50000J0D01*
G01*
X12267400Y-7416800D02*
G75*
G02*
X12167400Y-7416800I-50000J0D01*
G01*
X12167400Y-7416800D02*
G75*
G02*
X12267400Y-7416800I50000J0D01*
G01*
X12267400Y-7670800D02*
G75*
G02*
X12167400Y-7670800I-50000J0D01*
G01*
X12167400Y-7670800D02*
G75*
G02*
X12267400Y-7670800I50000J0D01*
G01*
X12521400Y-1828800D02*
G75*
G02*
X12421400Y-1828800I-50000J0D01*
G01*
X12421400Y-1828800D02*
G75*
G02*
X12521400Y-1828800I50000J0D01*
G01*
X12521400Y-2082800D02*
G75*
G02*
X12421400Y-2082800I-50000J0D01*
G01*
X12421400Y-2082800D02*
G75*
G02*
X12521400Y-2082800I50000J0D01*
G01*
X12521400Y-2336800D02*
G75*
G02*
X12421400Y-2336800I-50000J0D01*
G01*
X12421400Y-2336800D02*
G75*
G02*
X12521400Y-2336800I50000J0D01*
G01*
X12521400Y-2590800D02*
G75*
G02*
X12421400Y-2590800I-50000J0D01*
G01*
X12421400Y-2590800D02*
G75*
G02*
X12521400Y-2590800I50000J0D01*
G01*
X12521400Y-2844800D02*
G75*
G02*
X12421400Y-2844800I-50000J0D01*
G01*
X12421400Y-2844800D02*
G75*
G02*
X12521400Y-2844800I50000J0D01*
G01*
X12521400Y-3098800D02*
G75*
G02*
X12421400Y-3098800I-50000J0D01*
G01*
X12421400Y-3098800D02*
G75*
G02*
X12521400Y-3098800I50000J0D01*
G01*
X12521400Y-3352800D02*
G75*
G02*
X12421400Y-3352800I-50000J0D01*
G01*
X12421400Y-3352800D02*
G75*
G02*
X12521400Y-3352800I50000J0D01*
G01*
X12521400Y-3606800D02*
G75*
G02*
X12421400Y-3606800I-50000J0D01*
G01*
X12421400Y-3606800D02*
G75*
G02*
X12521400Y-3606800I50000J0D01*
G01*
X12521400Y-3860800D02*
G75*
G02*
X12421400Y-3860800I-50000J0D01*
G01*
X12421400Y-3860800D02*
G75*
G02*
X12521400Y-3860800I50000J0D01*
G01*
X12521400Y-4114800D02*
G75*
G02*
X12421400Y-4114800I-50000J0D01*
G01*
X12421400Y-4114800D02*
G75*
G02*
X12521400Y-4114800I50000J0D01*
G01*
X12521400Y-4368800D02*
G75*
G02*
X12421400Y-4368800I-50000J0D01*
G01*
X12421400Y-4368800D02*
G75*
G02*
X12521400Y-4368800I50000J0D01*
G01*
X12521400Y-4622800D02*
G75*
G02*
X12421400Y-4622800I-50000J0D01*
G01*
X12421400Y-4622800D02*
G75*
G02*
X12521400Y-4622800I50000J0D01*
G01*
X12521400Y-4876800D02*
G75*
G02*
X12421400Y-4876800I-50000J0D01*
G01*
X12421400Y-4876800D02*
G75*
G02*
X12521400Y-4876800I50000J0D01*
G01*
X12521400Y-5130800D02*
G75*
G02*
X12421400Y-5130800I-50000J0D01*
G01*
X12421400Y-5130800D02*
G75*
G02*
X12521400Y-5130800I50000J0D01*
G01*
X12521400Y-5384800D02*
G75*
G02*
X12421400Y-5384800I-50000J0D01*
G01*
X12421400Y-5384800D02*
G75*
G02*
X12521400Y-5384800I50000J0D01*
G01*
X12521400Y-5638800D02*
G75*
G02*
X12421400Y-5638800I-50000J0D01*
G01*
X12421400Y-5638800D02*
G75*
G02*
X12521400Y-5638800I50000J0D01*
G01*
X12521400Y-5892800D02*
G75*
G02*
X12421400Y-5892800I-50000J0D01*
G01*
X12421400Y-5892800D02*
G75*
G02*
X12521400Y-5892800I50000J0D01*
G01*
X12521400Y-6146800D02*
G75*
G02*
X12421400Y-6146800I-50000J0D01*
G01*
X12421400Y-6146800D02*
G75*
G02*
X12521400Y-6146800I50000J0D01*
G01*
X12521400Y-6400800D02*
G75*
G02*
X12421400Y-6400800I-50000J0D01*
G01*
X12421400Y-6400800D02*
G75*
G02*
X12521400Y-6400800I50000J0D01*
G01*
X12521400Y-6654800D02*
G75*
G02*
X12421400Y-6654800I-50000J0D01*
G01*
X12421400Y-6654800D02*
G75*
G02*
X12521400Y-6654800I50000J0D01*
G01*
X12521400Y-6908800D02*
G75*
G02*
X12421400Y-6908800I-50000J0D01*
G01*
X12421400Y-6908800D02*
G75*
G02*
X12521400Y-6908800I50000J0D01*
G01*
X12521400Y-7162800D02*
G75*
G02*
X12421400Y-7162800I-50000J0D01*
G01*
X12421400Y-7162800D02*
G75*
G02*
X12521400Y-7162800I50000J0D01*
G01*
X12521400Y-7416800D02*
G75*
G02*
X12421400Y-7416800I-50000J0D01*
G01*
X12421400Y-7416800D02*
G75*
G02*
X12521400Y-7416800I50000J0D01*
G01*
X12521400Y-7670800D02*
G75*
G02*
X12421400Y-7670800I-50000J0D01*
G01*
X12421400Y-7670800D02*
G75*
G02*
X12521400Y-7670800I50000J0D01*
G01*
X12521400Y-8940800D02*
G75*
G02*
X12421400Y-8940800I-50000J0D01*
G01*
X12421400Y-8940800D02*
G75*
G02*
X12521400Y-8940800I50000J0D01*
G01*
X12521400Y-9194800D02*
G75*
G02*
X12421400Y-9194800I-50000J0D01*
G01*
X12421400Y-9194800D02*
G75*
G02*
X12521400Y-9194800I50000J0D01*
G01*
X12521400Y-10375400D02*
G75*
G02*
X12421400Y-10375400I-50000J0D01*
G01*
X12421400Y-10375400D02*
G75*
G02*
X12521400Y-10375400I50000J0D01*
G01*
X12521400Y-10629400D02*
G75*
G02*
X12421400Y-10629400I-50000J0D01*
G01*
X12421400Y-10629400D02*
G75*
G02*
X12521400Y-10629400I50000J0D01*
G01*
X12775400Y-1828800D02*
G75*
G02*
X12675400Y-1828800I-50000J0D01*
G01*
X12675400Y-1828800D02*
G75*
G02*
X12775400Y-1828800I50000J0D01*
G01*
X12775400Y-2082800D02*
G75*
G02*
X12675400Y-2082800I-50000J0D01*
G01*
X12675400Y-2082800D02*
G75*
G02*
X12775400Y-2082800I50000J0D01*
G01*
X12775400Y-2336800D02*
G75*
G02*
X12675400Y-2336800I-50000J0D01*
G01*
X12675400Y-2336800D02*
G75*
G02*
X12775400Y-2336800I50000J0D01*
G01*
X12775400Y-2590800D02*
G75*
G02*
X12675400Y-2590800I-50000J0D01*
G01*
X12675400Y-2590800D02*
G75*
G02*
X12775400Y-2590800I50000J0D01*
G01*
X12775400Y-2844800D02*
G75*
G02*
X12675400Y-2844800I-50000J0D01*
G01*
X12675400Y-2844800D02*
G75*
G02*
X12775400Y-2844800I50000J0D01*
G01*
X12775400Y-3098800D02*
G75*
G02*
X12675400Y-3098800I-50000J0D01*
G01*
X12675400Y-3098800D02*
G75*
G02*
X12775400Y-3098800I50000J0D01*
G01*
X12775400Y-3352800D02*
G75*
G02*
X12675400Y-3352800I-50000J0D01*
G01*
X12675400Y-3352800D02*
G75*
G02*
X12775400Y-3352800I50000J0D01*
G01*
X12775400Y-3606800D02*
G75*
G02*
X12675400Y-3606800I-50000J0D01*
G01*
X12675400Y-3606800D02*
G75*
G02*
X12775400Y-3606800I50000J0D01*
G01*
X12775400Y-3860800D02*
G75*
G02*
X12675400Y-3860800I-50000J0D01*
G01*
X12675400Y-3860800D02*
G75*
G02*
X12775400Y-3860800I50000J0D01*
G01*
X12775400Y-4114800D02*
G75*
G02*
X12675400Y-4114800I-50000J0D01*
G01*
X12675400Y-4114800D02*
G75*
G02*
X12775400Y-4114800I50000J0D01*
G01*
X12775400Y-4368800D02*
G75*
G02*
X12675400Y-4368800I-50000J0D01*
G01*
X12675400Y-4368800D02*
G75*
G02*
X12775400Y-4368800I50000J0D01*
G01*
X12775400Y-4622800D02*
G75*
G02*
X12675400Y-4622800I-50000J0D01*
G01*
X12675400Y-4622800D02*
G75*
G02*
X12775400Y-4622800I50000J0D01*
G01*
X12775400Y-4876800D02*
G75*
G02*
X12675400Y-4876800I-50000J0D01*
G01*
X12675400Y-4876800D02*
G75*
G02*
X12775400Y-4876800I50000J0D01*
G01*
X12775400Y-5130800D02*
G75*
G02*
X12675400Y-5130800I-50000J0D01*
G01*
X12675400Y-5130800D02*
G75*
G02*
X12775400Y-5130800I50000J0D01*
G01*
X12775400Y-5384800D02*
G75*
G02*
X12675400Y-5384800I-50000J0D01*
G01*
X12675400Y-5384800D02*
G75*
G02*
X12775400Y-5384800I50000J0D01*
G01*
X12775400Y-5638800D02*
G75*
G02*
X12675400Y-5638800I-50000J0D01*
G01*
X12675400Y-5638800D02*
G75*
G02*
X12775400Y-5638800I50000J0D01*
G01*
X12775400Y-5892800D02*
G75*
G02*
X12675400Y-5892800I-50000J0D01*
G01*
X12675400Y-5892800D02*
G75*
G02*
X12775400Y-5892800I50000J0D01*
G01*
X12775400Y-6146800D02*
G75*
G02*
X12675400Y-6146800I-50000J0D01*
G01*
X12675400Y-6146800D02*
G75*
G02*
X12775400Y-6146800I50000J0D01*
G01*
X12775400Y-6400800D02*
G75*
G02*
X12675400Y-6400800I-50000J0D01*
G01*
X12675400Y-6400800D02*
G75*
G02*
X12775400Y-6400800I50000J0D01*
G01*
X12775400Y-6654800D02*
G75*
G02*
X12675400Y-6654800I-50000J0D01*
G01*
X12675400Y-6654800D02*
G75*
G02*
X12775400Y-6654800I50000J0D01*
G01*
X12775400Y-6908800D02*
G75*
G02*
X12675400Y-6908800I-50000J0D01*
G01*
X12675400Y-6908800D02*
G75*
G02*
X12775400Y-6908800I50000J0D01*
G01*
X12775400Y-7162800D02*
G75*
G02*
X12675400Y-7162800I-50000J0D01*
G01*
X12675400Y-7162800D02*
G75*
G02*
X12775400Y-7162800I50000J0D01*
G01*
X12775400Y-7416800D02*
G75*
G02*
X12675400Y-7416800I-50000J0D01*
G01*
X12675400Y-7416800D02*
G75*
G02*
X12775400Y-7416800I50000J0D01*
G01*
X12775400Y-7670800D02*
G75*
G02*
X12675400Y-7670800I-50000J0D01*
G01*
X12675400Y-7670800D02*
G75*
G02*
X12775400Y-7670800I50000J0D01*
G01*
X12775400Y-8940800D02*
G75*
G02*
X12675400Y-8940800I-50000J0D01*
G01*
X12675400Y-8940800D02*
G75*
G02*
X12775400Y-8940800I50000J0D01*
G01*
X12775400Y-9194800D02*
G75*
G02*
X12675400Y-9194800I-50000J0D01*
G01*
X12675400Y-9194800D02*
G75*
G02*
X12775400Y-9194800I50000J0D01*
G01*
X12775400Y-10375400D02*
G75*
G02*
X12675400Y-10375400I-50000J0D01*
G01*
X12675400Y-10375400D02*
G75*
G02*
X12775400Y-10375400I50000J0D01*
G01*
X12775400Y-10629400D02*
G75*
G02*
X12675400Y-10629400I-50000J0D01*
G01*
X12675400Y-10629400D02*
G75*
G02*
X12775400Y-10629400I50000J0D01*
G01*
X13029400Y-1828800D02*
G75*
G02*
X12929400Y-1828800I-50000J0D01*
G01*
X12929400Y-1828800D02*
G75*
G02*
X13029400Y-1828800I50000J0D01*
G01*
X13029400Y-2082800D02*
G75*
G02*
X12929400Y-2082800I-50000J0D01*
G01*
X12929400Y-2082800D02*
G75*
G02*
X13029400Y-2082800I50000J0D01*
G01*
X13029400Y-2336800D02*
G75*
G02*
X12929400Y-2336800I-50000J0D01*
G01*
X12929400Y-2336800D02*
G75*
G02*
X13029400Y-2336800I50000J0D01*
G01*
X13029400Y-2590800D02*
G75*
G02*
X12929400Y-2590800I-50000J0D01*
G01*
X12929400Y-2590800D02*
G75*
G02*
X13029400Y-2590800I50000J0D01*
G01*
X13029400Y-2844800D02*
G75*
G02*
X12929400Y-2844800I-50000J0D01*
G01*
X12929400Y-2844800D02*
G75*
G02*
X13029400Y-2844800I50000J0D01*
G01*
X13029400Y-3098800D02*
G75*
G02*
X12929400Y-3098800I-50000J0D01*
G01*
X12929400Y-3098800D02*
G75*
G02*
X13029400Y-3098800I50000J0D01*
G01*
X13029400Y-3352800D02*
G75*
G02*
X12929400Y-3352800I-50000J0D01*
G01*
X12929400Y-3352800D02*
G75*
G02*
X13029400Y-3352800I50000J0D01*
G01*
X13029400Y-3606800D02*
G75*
G02*
X12929400Y-3606800I-50000J0D01*
G01*
X12929400Y-3606800D02*
G75*
G02*
X13029400Y-3606800I50000J0D01*
G01*
X13029400Y-3860800D02*
G75*
G02*
X12929400Y-3860800I-50000J0D01*
G01*
X12929400Y-3860800D02*
G75*
G02*
X13029400Y-3860800I50000J0D01*
G01*
X13029400Y-4114800D02*
G75*
G02*
X12929400Y-4114800I-50000J0D01*
G01*
X12929400Y-4114800D02*
G75*
G02*
X13029400Y-4114800I50000J0D01*
G01*
X13029400Y-4368800D02*
G75*
G02*
X12929400Y-4368800I-50000J0D01*
G01*
X12929400Y-4368800D02*
G75*
G02*
X13029400Y-4368800I50000J0D01*
G01*
X13029400Y-4622800D02*
G75*
G02*
X12929400Y-4622800I-50000J0D01*
G01*
X12929400Y-4622800D02*
G75*
G02*
X13029400Y-4622800I50000J0D01*
G01*
X13029400Y-4876800D02*
G75*
G02*
X12929400Y-4876800I-50000J0D01*
G01*
X12929400Y-4876800D02*
G75*
G02*
X13029400Y-4876800I50000J0D01*
G01*
X13029400Y-5130800D02*
G75*
G02*
X12929400Y-5130800I-50000J0D01*
G01*
X12929400Y-5130800D02*
G75*
G02*
X13029400Y-5130800I50000J0D01*
G01*
X13029400Y-5384800D02*
G75*
G02*
X12929400Y-5384800I-50000J0D01*
G01*
X12929400Y-5384800D02*
G75*
G02*
X13029400Y-5384800I50000J0D01*
G01*
X13029400Y-5638800D02*
G75*
G02*
X12929400Y-5638800I-50000J0D01*
G01*
X12929400Y-5638800D02*
G75*
G02*
X13029400Y-5638800I50000J0D01*
G01*
X13029400Y-5892800D02*
G75*
G02*
X12929400Y-5892800I-50000J0D01*
G01*
X12929400Y-5892800D02*
G75*
G02*
X13029400Y-5892800I50000J0D01*
G01*
X13029400Y-6146800D02*
G75*
G02*
X12929400Y-6146800I-50000J0D01*
G01*
X12929400Y-6146800D02*
G75*
G02*
X13029400Y-6146800I50000J0D01*
G01*
X13029400Y-6400800D02*
G75*
G02*
X12929400Y-6400800I-50000J0D01*
G01*
X12929400Y-6400800D02*
G75*
G02*
X13029400Y-6400800I50000J0D01*
G01*
X13029400Y-6654800D02*
G75*
G02*
X12929400Y-6654800I-50000J0D01*
G01*
X12929400Y-6654800D02*
G75*
G02*
X13029400Y-6654800I50000J0D01*
G01*
X13029400Y-6908800D02*
G75*
G02*
X12929400Y-6908800I-50000J0D01*
G01*
X12929400Y-6908800D02*
G75*
G02*
X13029400Y-6908800I50000J0D01*
G01*
X13029400Y-7162800D02*
G75*
G02*
X12929400Y-7162800I-50000J0D01*
G01*
X12929400Y-7162800D02*
G75*
G02*
X13029400Y-7162800I50000J0D01*
G01*
X13029400Y-7416800D02*
G75*
G02*
X12929400Y-7416800I-50000J0D01*
G01*
X12929400Y-7416800D02*
G75*
G02*
X13029400Y-7416800I50000J0D01*
G01*
X13029400Y-7670800D02*
G75*
G02*
X12929400Y-7670800I-50000J0D01*
G01*
X12929400Y-7670800D02*
G75*
G02*
X13029400Y-7670800I50000J0D01*
G01*
X13029400Y-8940800D02*
G75*
G02*
X12929400Y-8940800I-50000J0D01*
G01*
X12929400Y-8940800D02*
G75*
G02*
X13029400Y-8940800I50000J0D01*
G01*
X13029400Y-9194800D02*
G75*
G02*
X12929400Y-9194800I-50000J0D01*
G01*
X12929400Y-9194800D02*
G75*
G02*
X13029400Y-9194800I50000J0D01*
G01*
X13029400Y-10375400D02*
G75*
G02*
X12929400Y-10375400I-50000J0D01*
G01*
X12929400Y-10375400D02*
G75*
G02*
X13029400Y-10375400I50000J0D01*
G01*
X13029400Y-10629400D02*
G75*
G02*
X12929400Y-10629400I-50000J0D01*
G01*
X12929400Y-10629400D02*
G75*
G02*
X13029400Y-10629400I50000J0D01*
G01*
X13283400Y-1828800D02*
G75*
G02*
X13183400Y-1828800I-50000J0D01*
G01*
X13183400Y-1828800D02*
G75*
G02*
X13283400Y-1828800I50000J0D01*
G01*
X13283400Y-2082800D02*
G75*
G02*
X13183400Y-2082800I-50000J0D01*
G01*
X13183400Y-2082800D02*
G75*
G02*
X13283400Y-2082800I50000J0D01*
G01*
X13283400Y-2336800D02*
G75*
G02*
X13183400Y-2336800I-50000J0D01*
G01*
X13183400Y-2336800D02*
G75*
G02*
X13283400Y-2336800I50000J0D01*
G01*
X13283400Y-2590800D02*
G75*
G02*
X13183400Y-2590800I-50000J0D01*
G01*
X13183400Y-2590800D02*
G75*
G02*
X13283400Y-2590800I50000J0D01*
G01*
X13283400Y-2844800D02*
G75*
G02*
X13183400Y-2844800I-50000J0D01*
G01*
X13183400Y-2844800D02*
G75*
G02*
X13283400Y-2844800I50000J0D01*
G01*
X13283400Y-3098800D02*
G75*
G02*
X13183400Y-3098800I-50000J0D01*
G01*
X13183400Y-3098800D02*
G75*
G02*
X13283400Y-3098800I50000J0D01*
G01*
X13283400Y-3352800D02*
G75*
G02*
X13183400Y-3352800I-50000J0D01*
G01*
X13183400Y-3352800D02*
G75*
G02*
X13283400Y-3352800I50000J0D01*
G01*
X13283400Y-3606800D02*
G75*
G02*
X13183400Y-3606800I-50000J0D01*
G01*
X13183400Y-3606800D02*
G75*
G02*
X13283400Y-3606800I50000J0D01*
G01*
X13283400Y-3860800D02*
G75*
G02*
X13183400Y-3860800I-50000J0D01*
G01*
X13183400Y-3860800D02*
G75*
G02*
X13283400Y-3860800I50000J0D01*
G01*
X13283400Y-4114800D02*
G75*
G02*
X13183400Y-4114800I-50000J0D01*
G01*
X13183400Y-4114800D02*
G75*
G02*
X13283400Y-4114800I50000J0D01*
G01*
X13283400Y-4368800D02*
G75*
G02*
X13183400Y-4368800I-50000J0D01*
G01*
X13183400Y-4368800D02*
G75*
G02*
X13283400Y-4368800I50000J0D01*
G01*
X13283400Y-4622800D02*
G75*
G02*
X13183400Y-4622800I-50000J0D01*
G01*
X13183400Y-4622800D02*
G75*
G02*
X13283400Y-4622800I50000J0D01*
G01*
X13283400Y-4876800D02*
G75*
G02*
X13183400Y-4876800I-50000J0D01*
G01*
X13183400Y-4876800D02*
G75*
G02*
X13283400Y-4876800I50000J0D01*
G01*
X13283400Y-5130800D02*
G75*
G02*
X13183400Y-5130800I-50000J0D01*
G01*
X13183400Y-5130800D02*
G75*
G02*
X13283400Y-5130800I50000J0D01*
G01*
X13283400Y-5384800D02*
G75*
G02*
X13183400Y-5384800I-50000J0D01*
G01*
X13183400Y-5384800D02*
G75*
G02*
X13283400Y-5384800I50000J0D01*
G01*
X13283400Y-5638800D02*
G75*
G02*
X13183400Y-5638800I-50000J0D01*
G01*
X13183400Y-5638800D02*
G75*
G02*
X13283400Y-5638800I50000J0D01*
G01*
X13283400Y-5892800D02*
G75*
G02*
X13183400Y-5892800I-50000J0D01*
G01*
X13183400Y-5892800D02*
G75*
G02*
X13283400Y-5892800I50000J0D01*
G01*
X13283400Y-6146800D02*
G75*
G02*
X13183400Y-6146800I-50000J0D01*
G01*
X13183400Y-6146800D02*
G75*
G02*
X13283400Y-6146800I50000J0D01*
G01*
X13283400Y-6400800D02*
G75*
G02*
X13183400Y-6400800I-50000J0D01*
G01*
X13183400Y-6400800D02*
G75*
G02*
X13283400Y-6400800I50000J0D01*
G01*
X13283400Y-6654800D02*
G75*
G02*
X13183400Y-6654800I-50000J0D01*
G01*
X13183400Y-6654800D02*
G75*
G02*
X13283400Y-6654800I50000J0D01*
G01*
X13283400Y-6908800D02*
G75*
G02*
X13183400Y-6908800I-50000J0D01*
G01*
X13183400Y-6908800D02*
G75*
G02*
X13283400Y-6908800I50000J0D01*
G01*
X13283400Y-7162800D02*
G75*
G02*
X13183400Y-7162800I-50000J0D01*
G01*
X13183400Y-7162800D02*
G75*
G02*
X13283400Y-7162800I50000J0D01*
G01*
X13283400Y-7416800D02*
G75*
G02*
X13183400Y-7416800I-50000J0D01*
G01*
X13183400Y-7416800D02*
G75*
G02*
X13283400Y-7416800I50000J0D01*
G01*
X13283400Y-7670800D02*
G75*
G02*
X13183400Y-7670800I-50000J0D01*
G01*
X13183400Y-7670800D02*
G75*
G02*
X13283400Y-7670800I50000J0D01*
G01*
X13283400Y-8940800D02*
G75*
G02*
X13183400Y-8940800I-50000J0D01*
G01*
X13183400Y-8940800D02*
G75*
G02*
X13283400Y-8940800I50000J0D01*
G01*
X13283400Y-9194800D02*
G75*
G02*
X13183400Y-9194800I-50000J0D01*
G01*
X13183400Y-9194800D02*
G75*
G02*
X13283400Y-9194800I50000J0D01*
G01*
X13283400Y-10375400D02*
G75*
G02*
X13183400Y-10375400I-50000J0D01*
G01*
X13183400Y-10375400D02*
G75*
G02*
X13283400Y-10375400I50000J0D01*
G01*
X13283400Y-10629400D02*
G75*
G02*
X13183400Y-10629400I-50000J0D01*
G01*
X13183400Y-10629400D02*
G75*
G02*
X13283400Y-10629400I50000J0D01*
G01*
X13537400Y-1828800D02*
G75*
G02*
X13437400Y-1828800I-50000J0D01*
G01*
X13437400Y-1828800D02*
G75*
G02*
X13537400Y-1828800I50000J0D01*
G01*
X13537400Y-2082800D02*
G75*
G02*
X13437400Y-2082800I-50000J0D01*
G01*
X13437400Y-2082800D02*
G75*
G02*
X13537400Y-2082800I50000J0D01*
G01*
X13537400Y-2336800D02*
G75*
G02*
X13437400Y-2336800I-50000J0D01*
G01*
X13437400Y-2336800D02*
G75*
G02*
X13537400Y-2336800I50000J0D01*
G01*
X13537400Y-2590800D02*
G75*
G02*
X13437400Y-2590800I-50000J0D01*
G01*
X13437400Y-2590800D02*
G75*
G02*
X13537400Y-2590800I50000J0D01*
G01*
X13537400Y-2844800D02*
G75*
G02*
X13437400Y-2844800I-50000J0D01*
G01*
X13437400Y-2844800D02*
G75*
G02*
X13537400Y-2844800I50000J0D01*
G01*
X13537400Y-3098800D02*
G75*
G02*
X13437400Y-3098800I-50000J0D01*
G01*
X13437400Y-3098800D02*
G75*
G02*
X13537400Y-3098800I50000J0D01*
G01*
X13537400Y-3352800D02*
G75*
G02*
X13437400Y-3352800I-50000J0D01*
G01*
X13437400Y-3352800D02*
G75*
G02*
X13537400Y-3352800I50000J0D01*
G01*
X13537400Y-3606800D02*
G75*
G02*
X13437400Y-3606800I-50000J0D01*
G01*
X13437400Y-3606800D02*
G75*
G02*
X13537400Y-3606800I50000J0D01*
G01*
X13537400Y-3860800D02*
G75*
G02*
X13437400Y-3860800I-50000J0D01*
G01*
X13437400Y-3860800D02*
G75*
G02*
X13537400Y-3860800I50000J0D01*
G01*
X13537400Y-4114800D02*
G75*
G02*
X13437400Y-4114800I-50000J0D01*
G01*
X13437400Y-4114800D02*
G75*
G02*
X13537400Y-4114800I50000J0D01*
G01*
X13537400Y-4368800D02*
G75*
G02*
X13437400Y-4368800I-50000J0D01*
G01*
X13437400Y-4368800D02*
G75*
G02*
X13537400Y-4368800I50000J0D01*
G01*
X13537400Y-4622800D02*
G75*
G02*
X13437400Y-4622800I-50000J0D01*
G01*
X13437400Y-4622800D02*
G75*
G02*
X13537400Y-4622800I50000J0D01*
G01*
X13537400Y-4876800D02*
G75*
G02*
X13437400Y-4876800I-50000J0D01*
G01*
X13437400Y-4876800D02*
G75*
G02*
X13537400Y-4876800I50000J0D01*
G01*
X13537400Y-5130800D02*
G75*
G02*
X13437400Y-5130800I-50000J0D01*
G01*
X13437400Y-5130800D02*
G75*
G02*
X13537400Y-5130800I50000J0D01*
G01*
X13537400Y-5384800D02*
G75*
G02*
X13437400Y-5384800I-50000J0D01*
G01*
X13437400Y-5384800D02*
G75*
G02*
X13537400Y-5384800I50000J0D01*
G01*
X13537400Y-5638800D02*
G75*
G02*
X13437400Y-5638800I-50000J0D01*
G01*
X13437400Y-5638800D02*
G75*
G02*
X13537400Y-5638800I50000J0D01*
G01*
X13537400Y-5892800D02*
G75*
G02*
X13437400Y-5892800I-50000J0D01*
G01*
X13437400Y-5892800D02*
G75*
G02*
X13537400Y-5892800I50000J0D01*
G01*
X13537400Y-6146800D02*
G75*
G02*
X13437400Y-6146800I-50000J0D01*
G01*
X13437400Y-6146800D02*
G75*
G02*
X13537400Y-6146800I50000J0D01*
G01*
X13537400Y-6400800D02*
G75*
G02*
X13437400Y-6400800I-50000J0D01*
G01*
X13437400Y-6400800D02*
G75*
G02*
X13537400Y-6400800I50000J0D01*
G01*
X13537400Y-6654800D02*
G75*
G02*
X13437400Y-6654800I-50000J0D01*
G01*
X13437400Y-6654800D02*
G75*
G02*
X13537400Y-6654800I50000J0D01*
G01*
X13537400Y-6908800D02*
G75*
G02*
X13437400Y-6908800I-50000J0D01*
G01*
X13437400Y-6908800D02*
G75*
G02*
X13537400Y-6908800I50000J0D01*
G01*
X13537400Y-7162800D02*
G75*
G02*
X13437400Y-7162800I-50000J0D01*
G01*
X13437400Y-7162800D02*
G75*
G02*
X13537400Y-7162800I50000J0D01*
G01*
X13537400Y-7416800D02*
G75*
G02*
X13437400Y-7416800I-50000J0D01*
G01*
X13437400Y-7416800D02*
G75*
G02*
X13537400Y-7416800I50000J0D01*
G01*
X13537400Y-7670800D02*
G75*
G02*
X13437400Y-7670800I-50000J0D01*
G01*
X13437400Y-7670800D02*
G75*
G02*
X13537400Y-7670800I50000J0D01*
G01*
X13537400Y-8940800D02*
G75*
G02*
X13437400Y-8940800I-50000J0D01*
G01*
X13437400Y-8940800D02*
G75*
G02*
X13537400Y-8940800I50000J0D01*
G01*
X13537400Y-9194800D02*
G75*
G02*
X13437400Y-9194800I-50000J0D01*
G01*
X13437400Y-9194800D02*
G75*
G02*
X13537400Y-9194800I50000J0D01*
G01*
X13537400Y-10375400D02*
G75*
G02*
X13437400Y-10375400I-50000J0D01*
G01*
X13437400Y-10375400D02*
G75*
G02*
X13537400Y-10375400I50000J0D01*
G01*
X13537400Y-10629400D02*
G75*
G02*
X13437400Y-10629400I-50000J0D01*
G01*
X13437400Y-10629400D02*
G75*
G02*
X13537400Y-10629400I50000J0D01*
G01*
X13791400Y-1828800D02*
G75*
G02*
X13691400Y-1828800I-50000J0D01*
G01*
X13691400Y-1828800D02*
G75*
G02*
X13791400Y-1828800I50000J0D01*
G01*
X13791400Y-2082800D02*
G75*
G02*
X13691400Y-2082800I-50000J0D01*
G01*
X13691400Y-2082800D02*
G75*
G02*
X13791400Y-2082800I50000J0D01*
G01*
X13791400Y-2336800D02*
G75*
G02*
X13691400Y-2336800I-50000J0D01*
G01*
X13691400Y-2336800D02*
G75*
G02*
X13791400Y-2336800I50000J0D01*
G01*
X13791400Y-2590800D02*
G75*
G02*
X13691400Y-2590800I-50000J0D01*
G01*
X13691400Y-2590800D02*
G75*
G02*
X13791400Y-2590800I50000J0D01*
G01*
X13791400Y-2844800D02*
G75*
G02*
X13691400Y-2844800I-50000J0D01*
G01*
X13691400Y-2844800D02*
G75*
G02*
X13791400Y-2844800I50000J0D01*
G01*
X13791400Y-3098800D02*
G75*
G02*
X13691400Y-3098800I-50000J0D01*
G01*
X13691400Y-3098800D02*
G75*
G02*
X13791400Y-3098800I50000J0D01*
G01*
X13791400Y-3352800D02*
G75*
G02*
X13691400Y-3352800I-50000J0D01*
G01*
X13691400Y-3352800D02*
G75*
G02*
X13791400Y-3352800I50000J0D01*
G01*
X13791400Y-3606800D02*
G75*
G02*
X13691400Y-3606800I-50000J0D01*
G01*
X13691400Y-3606800D02*
G75*
G02*
X13791400Y-3606800I50000J0D01*
G01*
X13791400Y-3860800D02*
G75*
G02*
X13691400Y-3860800I-50000J0D01*
G01*
X13691400Y-3860800D02*
G75*
G02*
X13791400Y-3860800I50000J0D01*
G01*
X13791400Y-4114800D02*
G75*
G02*
X13691400Y-4114800I-50000J0D01*
G01*
X13691400Y-4114800D02*
G75*
G02*
X13791400Y-4114800I50000J0D01*
G01*
X13791400Y-4368800D02*
G75*
G02*
X13691400Y-4368800I-50000J0D01*
G01*
X13691400Y-4368800D02*
G75*
G02*
X13791400Y-4368800I50000J0D01*
G01*
X13791400Y-4622800D02*
G75*
G02*
X13691400Y-4622800I-50000J0D01*
G01*
X13691400Y-4622800D02*
G75*
G02*
X13791400Y-4622800I50000J0D01*
G01*
X13791400Y-4876800D02*
G75*
G02*
X13691400Y-4876800I-50000J0D01*
G01*
X13691400Y-4876800D02*
G75*
G02*
X13791400Y-4876800I50000J0D01*
G01*
X13791400Y-5130800D02*
G75*
G02*
X13691400Y-5130800I-50000J0D01*
G01*
X13691400Y-5130800D02*
G75*
G02*
X13791400Y-5130800I50000J0D01*
G01*
X13791400Y-5384800D02*
G75*
G02*
X13691400Y-5384800I-50000J0D01*
G01*
X13691400Y-5384800D02*
G75*
G02*
X13791400Y-5384800I50000J0D01*
G01*
X13791400Y-5638800D02*
G75*
G02*
X13691400Y-5638800I-50000J0D01*
G01*
X13691400Y-5638800D02*
G75*
G02*
X13791400Y-5638800I50000J0D01*
G01*
X13791400Y-5892800D02*
G75*
G02*
X13691400Y-5892800I-50000J0D01*
G01*
X13691400Y-5892800D02*
G75*
G02*
X13791400Y-5892800I50000J0D01*
G01*
X13791400Y-6146800D02*
G75*
G02*
X13691400Y-6146800I-50000J0D01*
G01*
X13691400Y-6146800D02*
G75*
G02*
X13791400Y-6146800I50000J0D01*
G01*
X13791400Y-6400800D02*
G75*
G02*
X13691400Y-6400800I-50000J0D01*
G01*
X13691400Y-6400800D02*
G75*
G02*
X13791400Y-6400800I50000J0D01*
G01*
X13791400Y-6654800D02*
G75*
G02*
X13691400Y-6654800I-50000J0D01*
G01*
X13691400Y-6654800D02*
G75*
G02*
X13791400Y-6654800I50000J0D01*
G01*
X13791400Y-6908800D02*
G75*
G02*
X13691400Y-6908800I-50000J0D01*
G01*
X13691400Y-6908800D02*
G75*
G02*
X13791400Y-6908800I50000J0D01*
G01*
X13791400Y-7162800D02*
G75*
G02*
X13691400Y-7162800I-50000J0D01*
G01*
X13691400Y-7162800D02*
G75*
G02*
X13791400Y-7162800I50000J0D01*
G01*
X13791400Y-7416800D02*
G75*
G02*
X13691400Y-7416800I-50000J0D01*
G01*
X13691400Y-7416800D02*
G75*
G02*
X13791400Y-7416800I50000J0D01*
G01*
X13791400Y-7670800D02*
G75*
G02*
X13691400Y-7670800I-50000J0D01*
G01*
X13691400Y-7670800D02*
G75*
G02*
X13791400Y-7670800I50000J0D01*
G01*
X13791400Y-8940800D02*
G75*
G02*
X13691400Y-8940800I-50000J0D01*
G01*
X13691400Y-8940800D02*
G75*
G02*
X13791400Y-8940800I50000J0D01*
G01*
X13791400Y-9194800D02*
G75*
G02*
X13691400Y-9194800I-50000J0D01*
G01*
X13691400Y-9194800D02*
G75*
G02*
X13791400Y-9194800I50000J0D01*
G01*
X13791400Y-10375400D02*
G75*
G02*
X13691400Y-10375400I-50000J0D01*
G01*
X13691400Y-10375400D02*
G75*
G02*
X13791400Y-10375400I50000J0D01*
G01*
X13791400Y-10629400D02*
G75*
G02*
X13691400Y-10629400I-50000J0D01*
G01*
X13691400Y-10629400D02*
G75*
G02*
X13791400Y-10629400I50000J0D01*
G01*
X14045400Y-1828800D02*
G75*
G02*
X13945400Y-1828800I-50000J0D01*
G01*
X13945400Y-1828800D02*
G75*
G02*
X14045400Y-1828800I50000J0D01*
G01*
X14045400Y-2082800D02*
G75*
G02*
X13945400Y-2082800I-50000J0D01*
G01*
X13945400Y-2082800D02*
G75*
G02*
X14045400Y-2082800I50000J0D01*
G01*
X14045400Y-2336800D02*
G75*
G02*
X13945400Y-2336800I-50000J0D01*
G01*
X13945400Y-2336800D02*
G75*
G02*
X14045400Y-2336800I50000J0D01*
G01*
X14045400Y-2590800D02*
G75*
G02*
X13945400Y-2590800I-50000J0D01*
G01*
X13945400Y-2590800D02*
G75*
G02*
X14045400Y-2590800I50000J0D01*
G01*
X14045400Y-2844800D02*
G75*
G02*
X13945400Y-2844800I-50000J0D01*
G01*
X13945400Y-2844800D02*
G75*
G02*
X14045400Y-2844800I50000J0D01*
G01*
X14045400Y-3098800D02*
G75*
G02*
X13945400Y-3098800I-50000J0D01*
G01*
X13945400Y-3098800D02*
G75*
G02*
X14045400Y-3098800I50000J0D01*
G01*
X14045400Y-3352800D02*
G75*
G02*
X13945400Y-3352800I-50000J0D01*
G01*
X13945400Y-3352800D02*
G75*
G02*
X14045400Y-3352800I50000J0D01*
G01*
X14045400Y-3606800D02*
G75*
G02*
X13945400Y-3606800I-50000J0D01*
G01*
X13945400Y-3606800D02*
G75*
G02*
X14045400Y-3606800I50000J0D01*
G01*
X14045400Y-3860800D02*
G75*
G02*
X13945400Y-3860800I-50000J0D01*
G01*
X13945400Y-3860800D02*
G75*
G02*
X14045400Y-3860800I50000J0D01*
G01*
X14045400Y-4114800D02*
G75*
G02*
X13945400Y-4114800I-50000J0D01*
G01*
X13945400Y-4114800D02*
G75*
G02*
X14045400Y-4114800I50000J0D01*
G01*
X14045400Y-4368800D02*
G75*
G02*
X13945400Y-4368800I-50000J0D01*
G01*
X13945400Y-4368800D02*
G75*
G02*
X14045400Y-4368800I50000J0D01*
G01*
X14045400Y-4622800D02*
G75*
G02*
X13945400Y-4622800I-50000J0D01*
G01*
X13945400Y-4622800D02*
G75*
G02*
X14045400Y-4622800I50000J0D01*
G01*
X14045400Y-4876800D02*
G75*
G02*
X13945400Y-4876800I-50000J0D01*
G01*
X13945400Y-4876800D02*
G75*
G02*
X14045400Y-4876800I50000J0D01*
G01*
X14045400Y-5130800D02*
G75*
G02*
X13945400Y-5130800I-50000J0D01*
G01*
X13945400Y-5130800D02*
G75*
G02*
X14045400Y-5130800I50000J0D01*
G01*
X14045400Y-5384800D02*
G75*
G02*
X13945400Y-5384800I-50000J0D01*
G01*
X13945400Y-5384800D02*
G75*
G02*
X14045400Y-5384800I50000J0D01*
G01*
X14045400Y-5638800D02*
G75*
G02*
X13945400Y-5638800I-50000J0D01*
G01*
X13945400Y-5638800D02*
G75*
G02*
X14045400Y-5638800I50000J0D01*
G01*
X14045400Y-5892800D02*
G75*
G02*
X13945400Y-5892800I-50000J0D01*
G01*
X13945400Y-5892800D02*
G75*
G02*
X14045400Y-5892800I50000J0D01*
G01*
X14045400Y-6146800D02*
G75*
G02*
X13945400Y-6146800I-50000J0D01*
G01*
X13945400Y-6146800D02*
G75*
G02*
X14045400Y-6146800I50000J0D01*
G01*
X14045400Y-6400800D02*
G75*
G02*
X13945400Y-6400800I-50000J0D01*
G01*
X13945400Y-6400800D02*
G75*
G02*
X14045400Y-6400800I50000J0D01*
G01*
X14045400Y-6654800D02*
G75*
G02*
X13945400Y-6654800I-50000J0D01*
G01*
X13945400Y-6654800D02*
G75*
G02*
X14045400Y-6654800I50000J0D01*
G01*
X14045400Y-6908800D02*
G75*
G02*
X13945400Y-6908800I-50000J0D01*
G01*
X13945400Y-6908800D02*
G75*
G02*
X14045400Y-6908800I50000J0D01*
G01*
X14045400Y-7162800D02*
G75*
G02*
X13945400Y-7162800I-50000J0D01*
G01*
X13945400Y-7162800D02*
G75*
G02*
X14045400Y-7162800I50000J0D01*
G01*
X14045400Y-7416800D02*
G75*
G02*
X13945400Y-7416800I-50000J0D01*
G01*
X13945400Y-7416800D02*
G75*
G02*
X14045400Y-7416800I50000J0D01*
G01*
X14045400Y-7670800D02*
G75*
G02*
X13945400Y-7670800I-50000J0D01*
G01*
X13945400Y-7670800D02*
G75*
G02*
X14045400Y-7670800I50000J0D01*
G01*
X14045400Y-8940800D02*
G75*
G02*
X13945400Y-8940800I-50000J0D01*
G01*
X13945400Y-8940800D02*
G75*
G02*
X14045400Y-8940800I50000J0D01*
G01*
X14045400Y-9194800D02*
G75*
G02*
X13945400Y-9194800I-50000J0D01*
G01*
X13945400Y-9194800D02*
G75*
G02*
X14045400Y-9194800I50000J0D01*
G01*
X14045400Y-10375400D02*
G75*
G02*
X13945400Y-10375400I-50000J0D01*
G01*
X13945400Y-10375400D02*
G75*
G02*
X14045400Y-10375400I50000J0D01*
G01*
X14045400Y-10629400D02*
G75*
G02*
X13945400Y-10629400I-50000J0D01*
G01*
X13945400Y-10629400D02*
G75*
G02*
X14045400Y-10629400I50000J0D01*
G01*
X14299400Y-1828800D02*
G75*
G02*
X14199400Y-1828800I-50000J0D01*
G01*
X14199400Y-1828800D02*
G75*
G02*
X14299400Y-1828800I50000J0D01*
G01*
X14299400Y-2082800D02*
G75*
G02*
X14199400Y-2082800I-50000J0D01*
G01*
X14199400Y-2082800D02*
G75*
G02*
X14299400Y-2082800I50000J0D01*
G01*
X14299400Y-2336800D02*
G75*
G02*
X14199400Y-2336800I-50000J0D01*
G01*
X14199400Y-2336800D02*
G75*
G02*
X14299400Y-2336800I50000J0D01*
G01*
X14299400Y-2590800D02*
G75*
G02*
X14199400Y-2590800I-50000J0D01*
G01*
X14199400Y-2590800D02*
G75*
G02*
X14299400Y-2590800I50000J0D01*
G01*
X14299400Y-2844800D02*
G75*
G02*
X14199400Y-2844800I-50000J0D01*
G01*
X14199400Y-2844800D02*
G75*
G02*
X14299400Y-2844800I50000J0D01*
G01*
X14299400Y-3098800D02*
G75*
G02*
X14199400Y-3098800I-50000J0D01*
G01*
X14199400Y-3098800D02*
G75*
G02*
X14299400Y-3098800I50000J0D01*
G01*
X14299400Y-3352800D02*
G75*
G02*
X14199400Y-3352800I-50000J0D01*
G01*
X14199400Y-3352800D02*
G75*
G02*
X14299400Y-3352800I50000J0D01*
G01*
X14299400Y-3606800D02*
G75*
G02*
X14199400Y-3606800I-50000J0D01*
G01*
X14199400Y-3606800D02*
G75*
G02*
X14299400Y-3606800I50000J0D01*
G01*
X14299400Y-3860800D02*
G75*
G02*
X14199400Y-3860800I-50000J0D01*
G01*
X14199400Y-3860800D02*
G75*
G02*
X14299400Y-3860800I50000J0D01*
G01*
X14299400Y-4114800D02*
G75*
G02*
X14199400Y-4114800I-50000J0D01*
G01*
X14199400Y-4114800D02*
G75*
G02*
X14299400Y-4114800I50000J0D01*
G01*
X14299400Y-4368800D02*
G75*
G02*
X14199400Y-4368800I-50000J0D01*
G01*
X14199400Y-4368800D02*
G75*
G02*
X14299400Y-4368800I50000J0D01*
G01*
X14299400Y-4622800D02*
G75*
G02*
X14199400Y-4622800I-50000J0D01*
G01*
X14199400Y-4622800D02*
G75*
G02*
X14299400Y-4622800I50000J0D01*
G01*
X14299400Y-4876800D02*
G75*
G02*
X14199400Y-4876800I-50000J0D01*
G01*
X14199400Y-4876800D02*
G75*
G02*
X14299400Y-4876800I50000J0D01*
G01*
X14299400Y-5130800D02*
G75*
G02*
X14199400Y-5130800I-50000J0D01*
G01*
X14199400Y-5130800D02*
G75*
G02*
X14299400Y-5130800I50000J0D01*
G01*
X14299400Y-5384800D02*
G75*
G02*
X14199400Y-5384800I-50000J0D01*
G01*
X14199400Y-5384800D02*
G75*
G02*
X14299400Y-5384800I50000J0D01*
G01*
X14299400Y-5638800D02*
G75*
G02*
X14199400Y-5638800I-50000J0D01*
G01*
X14199400Y-5638800D02*
G75*
G02*
X14299400Y-5638800I50000J0D01*
G01*
X14299400Y-5892800D02*
G75*
G02*
X14199400Y-5892800I-50000J0D01*
G01*
X14199400Y-5892800D02*
G75*
G02*
X14299400Y-5892800I50000J0D01*
G01*
X14299400Y-6146800D02*
G75*
G02*
X14199400Y-6146800I-50000J0D01*
G01*
X14199400Y-6146800D02*
G75*
G02*
X14299400Y-6146800I50000J0D01*
G01*
X14299400Y-6400800D02*
G75*
G02*
X14199400Y-6400800I-50000J0D01*
G01*
X14199400Y-6400800D02*
G75*
G02*
X14299400Y-6400800I50000J0D01*
G01*
X14299400Y-6654800D02*
G75*
G02*
X14199400Y-6654800I-50000J0D01*
G01*
X14199400Y-6654800D02*
G75*
G02*
X14299400Y-6654800I50000J0D01*
G01*
X14299400Y-6908800D02*
G75*
G02*
X14199400Y-6908800I-50000J0D01*
G01*
X14199400Y-6908800D02*
G75*
G02*
X14299400Y-6908800I50000J0D01*
G01*
X14299400Y-7162800D02*
G75*
G02*
X14199400Y-7162800I-50000J0D01*
G01*
X14199400Y-7162800D02*
G75*
G02*
X14299400Y-7162800I50000J0D01*
G01*
X14299400Y-7416800D02*
G75*
G02*
X14199400Y-7416800I-50000J0D01*
G01*
X14199400Y-7416800D02*
G75*
G02*
X14299400Y-7416800I50000J0D01*
G01*
X14299400Y-7670800D02*
G75*
G02*
X14199400Y-7670800I-50000J0D01*
G01*
X14199400Y-7670800D02*
G75*
G02*
X14299400Y-7670800I50000J0D01*
G01*
X14299400Y-8940800D02*
G75*
G02*
X14199400Y-8940800I-50000J0D01*
G01*
X14199400Y-8940800D02*
G75*
G02*
X14299400Y-8940800I50000J0D01*
G01*
X14299400Y-9194800D02*
G75*
G02*
X14199400Y-9194800I-50000J0D01*
G01*
X14199400Y-9194800D02*
G75*
G02*
X14299400Y-9194800I50000J0D01*
G01*
X14299400Y-10375400D02*
G75*
G02*
X14199400Y-10375400I-50000J0D01*
G01*
X14199400Y-10375400D02*
G75*
G02*
X14299400Y-10375400I50000J0D01*
G01*
X14299400Y-10629400D02*
G75*
G02*
X14199400Y-10629400I-50000J0D01*
G01*
X14199400Y-10629400D02*
G75*
G02*
X14299400Y-10629400I50000J0D01*
G01*
X14553400Y-1828800D02*
G75*
G02*
X14453400Y-1828800I-50000J0D01*
G01*
X14453400Y-1828800D02*
G75*
G02*
X14553400Y-1828800I50000J0D01*
G01*
X14553400Y-2082800D02*
G75*
G02*
X14453400Y-2082800I-50000J0D01*
G01*
X14453400Y-2082800D02*
G75*
G02*
X14553400Y-2082800I50000J0D01*
G01*
X14553400Y-2336800D02*
G75*
G02*
X14453400Y-2336800I-50000J0D01*
G01*
X14453400Y-2336800D02*
G75*
G02*
X14553400Y-2336800I50000J0D01*
G01*
X14553400Y-2590800D02*
G75*
G02*
X14453400Y-2590800I-50000J0D01*
G01*
X14453400Y-2590800D02*
G75*
G02*
X14553400Y-2590800I50000J0D01*
G01*
X14553400Y-2844800D02*
G75*
G02*
X14453400Y-2844800I-50000J0D01*
G01*
X14453400Y-2844800D02*
G75*
G02*
X14553400Y-2844800I50000J0D01*
G01*
X14553400Y-3098800D02*
G75*
G02*
X14453400Y-3098800I-50000J0D01*
G01*
X14453400Y-3098800D02*
G75*
G02*
X14553400Y-3098800I50000J0D01*
G01*
X14553400Y-3352800D02*
G75*
G02*
X14453400Y-3352800I-50000J0D01*
G01*
X14453400Y-3352800D02*
G75*
G02*
X14553400Y-3352800I50000J0D01*
G01*
X14553400Y-3606800D02*
G75*
G02*
X14453400Y-3606800I-50000J0D01*
G01*
X14453400Y-3606800D02*
G75*
G02*
X14553400Y-3606800I50000J0D01*
G01*
X14553400Y-3860800D02*
G75*
G02*
X14453400Y-3860800I-50000J0D01*
G01*
X14453400Y-3860800D02*
G75*
G02*
X14553400Y-3860800I50000J0D01*
G01*
X14553400Y-4114800D02*
G75*
G02*
X14453400Y-4114800I-50000J0D01*
G01*
X14453400Y-4114800D02*
G75*
G02*
X14553400Y-4114800I50000J0D01*
G01*
X14553400Y-4368800D02*
G75*
G02*
X14453400Y-4368800I-50000J0D01*
G01*
X14453400Y-4368800D02*
G75*
G02*
X14553400Y-4368800I50000J0D01*
G01*
X14553400Y-4622800D02*
G75*
G02*
X14453400Y-4622800I-50000J0D01*
G01*
X14453400Y-4622800D02*
G75*
G02*
X14553400Y-4622800I50000J0D01*
G01*
X14553400Y-4876800D02*
G75*
G02*
X14453400Y-4876800I-50000J0D01*
G01*
X14453400Y-4876800D02*
G75*
G02*
X14553400Y-4876800I50000J0D01*
G01*
X14553400Y-5130800D02*
G75*
G02*
X14453400Y-5130800I-50000J0D01*
G01*
X14453400Y-5130800D02*
G75*
G02*
X14553400Y-5130800I50000J0D01*
G01*
X14553400Y-5384800D02*
G75*
G02*
X14453400Y-5384800I-50000J0D01*
G01*
X14453400Y-5384800D02*
G75*
G02*
X14553400Y-5384800I50000J0D01*
G01*
X14553400Y-5638800D02*
G75*
G02*
X14453400Y-5638800I-50000J0D01*
G01*
X14453400Y-5638800D02*
G75*
G02*
X14553400Y-5638800I50000J0D01*
G01*
X14553400Y-5892800D02*
G75*
G02*
X14453400Y-5892800I-50000J0D01*
G01*
X14453400Y-5892800D02*
G75*
G02*
X14553400Y-5892800I50000J0D01*
G01*
X14553400Y-6146800D02*
G75*
G02*
X14453400Y-6146800I-50000J0D01*
G01*
X14453400Y-6146800D02*
G75*
G02*
X14553400Y-6146800I50000J0D01*
G01*
X14553400Y-6400800D02*
G75*
G02*
X14453400Y-6400800I-50000J0D01*
G01*
X14453400Y-6400800D02*
G75*
G02*
X14553400Y-6400800I50000J0D01*
G01*
X14553400Y-6654800D02*
G75*
G02*
X14453400Y-6654800I-50000J0D01*
G01*
X14453400Y-6654800D02*
G75*
G02*
X14553400Y-6654800I50000J0D01*
G01*
X14553400Y-6908800D02*
G75*
G02*
X14453400Y-6908800I-50000J0D01*
G01*
X14453400Y-6908800D02*
G75*
G02*
X14553400Y-6908800I50000J0D01*
G01*
X14553400Y-7162800D02*
G75*
G02*
X14453400Y-7162800I-50000J0D01*
G01*
X14453400Y-7162800D02*
G75*
G02*
X14553400Y-7162800I50000J0D01*
G01*
X14553400Y-7416800D02*
G75*
G02*
X14453400Y-7416800I-50000J0D01*
G01*
X14453400Y-7416800D02*
G75*
G02*
X14553400Y-7416800I50000J0D01*
G01*
X14553400Y-7670800D02*
G75*
G02*
X14453400Y-7670800I-50000J0D01*
G01*
X14453400Y-7670800D02*
G75*
G02*
X14553400Y-7670800I50000J0D01*
G01*
X14553400Y-8940800D02*
G75*
G02*
X14453400Y-8940800I-50000J0D01*
G01*
X14453400Y-8940800D02*
G75*
G02*
X14553400Y-8940800I50000J0D01*
G01*
X14553400Y-9194800D02*
G75*
G02*
X14453400Y-9194800I-50000J0D01*
G01*
X14453400Y-9194800D02*
G75*
G02*
X14553400Y-9194800I50000J0D01*
G01*
X14553400Y-10375400D02*
G75*
G02*
X14453400Y-10375400I-50000J0D01*
G01*
X14453400Y-10375400D02*
G75*
G02*
X14553400Y-10375400I50000J0D01*
G01*
X14553400Y-10629400D02*
G75*
G02*
X14453400Y-10629400I-50000J0D01*
G01*
X14453400Y-10629400D02*
G75*
G02*
X14553400Y-10629400I50000J0D01*
G01*
X14807400Y-1828800D02*
G75*
G02*
X14707400Y-1828800I-50000J0D01*
G01*
X14707400Y-1828800D02*
G75*
G02*
X14807400Y-1828800I50000J0D01*
G01*
X14807400Y-2082800D02*
G75*
G02*
X14707400Y-2082800I-50000J0D01*
G01*
X14707400Y-2082800D02*
G75*
G02*
X14807400Y-2082800I50000J0D01*
G01*
X14807400Y-2336800D02*
G75*
G02*
X14707400Y-2336800I-50000J0D01*
G01*
X14707400Y-2336800D02*
G75*
G02*
X14807400Y-2336800I50000J0D01*
G01*
X14807400Y-2590800D02*
G75*
G02*
X14707400Y-2590800I-50000J0D01*
G01*
X14707400Y-2590800D02*
G75*
G02*
X14807400Y-2590800I50000J0D01*
G01*
X14807400Y-2844800D02*
G75*
G02*
X14707400Y-2844800I-50000J0D01*
G01*
X14707400Y-2844800D02*
G75*
G02*
X14807400Y-2844800I50000J0D01*
G01*
X14807400Y-3098800D02*
G75*
G02*
X14707400Y-3098800I-50000J0D01*
G01*
X14707400Y-3098800D02*
G75*
G02*
X14807400Y-3098800I50000J0D01*
G01*
X14807400Y-3352800D02*
G75*
G02*
X14707400Y-3352800I-50000J0D01*
G01*
X14707400Y-3352800D02*
G75*
G02*
X14807400Y-3352800I50000J0D01*
G01*
X14807400Y-3606800D02*
G75*
G02*
X14707400Y-3606800I-50000J0D01*
G01*
X14707400Y-3606800D02*
G75*
G02*
X14807400Y-3606800I50000J0D01*
G01*
X14807400Y-3860800D02*
G75*
G02*
X14707400Y-3860800I-50000J0D01*
G01*
X14707400Y-3860800D02*
G75*
G02*
X14807400Y-3860800I50000J0D01*
G01*
X14807400Y-4114800D02*
G75*
G02*
X14707400Y-4114800I-50000J0D01*
G01*
X14707400Y-4114800D02*
G75*
G02*
X14807400Y-4114800I50000J0D01*
G01*
X14807400Y-4368800D02*
G75*
G02*
X14707400Y-4368800I-50000J0D01*
G01*
X14707400Y-4368800D02*
G75*
G02*
X14807400Y-4368800I50000J0D01*
G01*
X14807400Y-4622800D02*
G75*
G02*
X14707400Y-4622800I-50000J0D01*
G01*
X14707400Y-4622800D02*
G75*
G02*
X14807400Y-4622800I50000J0D01*
G01*
X14807400Y-4876800D02*
G75*
G02*
X14707400Y-4876800I-50000J0D01*
G01*
X14707400Y-4876800D02*
G75*
G02*
X14807400Y-4876800I50000J0D01*
G01*
X14807400Y-5130800D02*
G75*
G02*
X14707400Y-5130800I-50000J0D01*
G01*
X14707400Y-5130800D02*
G75*
G02*
X14807400Y-5130800I50000J0D01*
G01*
X14807400Y-5384800D02*
G75*
G02*
X14707400Y-5384800I-50000J0D01*
G01*
X14707400Y-5384800D02*
G75*
G02*
X14807400Y-5384800I50000J0D01*
G01*
X14807400Y-5638800D02*
G75*
G02*
X14707400Y-5638800I-50000J0D01*
G01*
X14707400Y-5638800D02*
G75*
G02*
X14807400Y-5638800I50000J0D01*
G01*
X14807400Y-5892800D02*
G75*
G02*
X14707400Y-5892800I-50000J0D01*
G01*
X14707400Y-5892800D02*
G75*
G02*
X14807400Y-5892800I50000J0D01*
G01*
X14807400Y-6146800D02*
G75*
G02*
X14707400Y-6146800I-50000J0D01*
G01*
X14707400Y-6146800D02*
G75*
G02*
X14807400Y-6146800I50000J0D01*
G01*
X14807400Y-6400800D02*
G75*
G02*
X14707400Y-6400800I-50000J0D01*
G01*
X14707400Y-6400800D02*
G75*
G02*
X14807400Y-6400800I50000J0D01*
G01*
X14807400Y-6654800D02*
G75*
G02*
X14707400Y-6654800I-50000J0D01*
G01*
X14707400Y-6654800D02*
G75*
G02*
X14807400Y-6654800I50000J0D01*
G01*
X14807400Y-6908800D02*
G75*
G02*
X14707400Y-6908800I-50000J0D01*
G01*
X14707400Y-6908800D02*
G75*
G02*
X14807400Y-6908800I50000J0D01*
G01*
X14807400Y-7162800D02*
G75*
G02*
X14707400Y-7162800I-50000J0D01*
G01*
X14707400Y-7162800D02*
G75*
G02*
X14807400Y-7162800I50000J0D01*
G01*
X14807400Y-7416800D02*
G75*
G02*
X14707400Y-7416800I-50000J0D01*
G01*
X14707400Y-7416800D02*
G75*
G02*
X14807400Y-7416800I50000J0D01*
G01*
X14807400Y-7670800D02*
G75*
G02*
X14707400Y-7670800I-50000J0D01*
G01*
X14707400Y-7670800D02*
G75*
G02*
X14807400Y-7670800I50000J0D01*
G01*
X14807400Y-8940800D02*
G75*
G02*
X14707400Y-8940800I-50000J0D01*
G01*
X14707400Y-8940800D02*
G75*
G02*
X14807400Y-8940800I50000J0D01*
G01*
X14807400Y-9194800D02*
G75*
G02*
X14707400Y-9194800I-50000J0D01*
G01*
X14707400Y-9194800D02*
G75*
G02*
X14807400Y-9194800I50000J0D01*
G01*
X14807400Y-10375400D02*
G75*
G02*
X14707400Y-10375400I-50000J0D01*
G01*
X14707400Y-10375400D02*
G75*
G02*
X14807400Y-10375400I50000J0D01*
G01*
X14807400Y-10629400D02*
G75*
G02*
X14707400Y-10629400I-50000J0D01*
G01*
X14707400Y-10629400D02*
G75*
G02*
X14807400Y-10629400I50000J0D01*
G01*
X15061400Y-1828800D02*
G75*
G02*
X14961400Y-1828800I-50000J0D01*
G01*
X14961400Y-1828800D02*
G75*
G02*
X15061400Y-1828800I50000J0D01*
G01*
X15061400Y-2082800D02*
G75*
G02*
X14961400Y-2082800I-50000J0D01*
G01*
X14961400Y-2082800D02*
G75*
G02*
X15061400Y-2082800I50000J0D01*
G01*
X15061400Y-2336800D02*
G75*
G02*
X14961400Y-2336800I-50000J0D01*
G01*
X14961400Y-2336800D02*
G75*
G02*
X15061400Y-2336800I50000J0D01*
G01*
X15061400Y-2590800D02*
G75*
G02*
X14961400Y-2590800I-50000J0D01*
G01*
X14961400Y-2590800D02*
G75*
G02*
X15061400Y-2590800I50000J0D01*
G01*
X15061400Y-2844800D02*
G75*
G02*
X14961400Y-2844800I-50000J0D01*
G01*
X14961400Y-2844800D02*
G75*
G02*
X15061400Y-2844800I50000J0D01*
G01*
X15061400Y-3098800D02*
G75*
G02*
X14961400Y-3098800I-50000J0D01*
G01*
X14961400Y-3098800D02*
G75*
G02*
X15061400Y-3098800I50000J0D01*
G01*
X15061400Y-3352800D02*
G75*
G02*
X14961400Y-3352800I-50000J0D01*
G01*
X14961400Y-3352800D02*
G75*
G02*
X15061400Y-3352800I50000J0D01*
G01*
X15061400Y-3606800D02*
G75*
G02*
X14961400Y-3606800I-50000J0D01*
G01*
X14961400Y-3606800D02*
G75*
G02*
X15061400Y-3606800I50000J0D01*
G01*
X15061400Y-3860800D02*
G75*
G02*
X14961400Y-3860800I-50000J0D01*
G01*
X14961400Y-3860800D02*
G75*
G02*
X15061400Y-3860800I50000J0D01*
G01*
X15061400Y-4114800D02*
G75*
G02*
X14961400Y-4114800I-50000J0D01*
G01*
X14961400Y-4114800D02*
G75*
G02*
X15061400Y-4114800I50000J0D01*
G01*
X15061400Y-4368800D02*
G75*
G02*
X14961400Y-4368800I-50000J0D01*
G01*
X14961400Y-4368800D02*
G75*
G02*
X15061400Y-4368800I50000J0D01*
G01*
X15061400Y-4622800D02*
G75*
G02*
X14961400Y-4622800I-50000J0D01*
G01*
X14961400Y-4622800D02*
G75*
G02*
X15061400Y-4622800I50000J0D01*
G01*
X15061400Y-4876800D02*
G75*
G02*
X14961400Y-4876800I-50000J0D01*
G01*
X14961400Y-4876800D02*
G75*
G02*
X15061400Y-4876800I50000J0D01*
G01*
X15061400Y-5130800D02*
G75*
G02*
X14961400Y-5130800I-50000J0D01*
G01*
X14961400Y-5130800D02*
G75*
G02*
X15061400Y-5130800I50000J0D01*
G01*
X15061400Y-5384800D02*
G75*
G02*
X14961400Y-5384800I-50000J0D01*
G01*
X14961400Y-5384800D02*
G75*
G02*
X15061400Y-5384800I50000J0D01*
G01*
X15061400Y-5638800D02*
G75*
G02*
X14961400Y-5638800I-50000J0D01*
G01*
X14961400Y-5638800D02*
G75*
G02*
X15061400Y-5638800I50000J0D01*
G01*
X15061400Y-5892800D02*
G75*
G02*
X14961400Y-5892800I-50000J0D01*
G01*
X14961400Y-5892800D02*
G75*
G02*
X15061400Y-5892800I50000J0D01*
G01*
X15061400Y-6146800D02*
G75*
G02*
X14961400Y-6146800I-50000J0D01*
G01*
X14961400Y-6146800D02*
G75*
G02*
X15061400Y-6146800I50000J0D01*
G01*
X15061400Y-6400800D02*
G75*
G02*
X14961400Y-6400800I-50000J0D01*
G01*
X14961400Y-6400800D02*
G75*
G02*
X15061400Y-6400800I50000J0D01*
G01*
X15061400Y-6654800D02*
G75*
G02*
X14961400Y-6654800I-50000J0D01*
G01*
X14961400Y-6654800D02*
G75*
G02*
X15061400Y-6654800I50000J0D01*
G01*
X15061400Y-6908800D02*
G75*
G02*
X14961400Y-6908800I-50000J0D01*
G01*
X14961400Y-6908800D02*
G75*
G02*
X15061400Y-6908800I50000J0D01*
G01*
X15061400Y-7162800D02*
G75*
G02*
X14961400Y-7162800I-50000J0D01*
G01*
X14961400Y-7162800D02*
G75*
G02*
X15061400Y-7162800I50000J0D01*
G01*
X15061400Y-7416800D02*
G75*
G02*
X14961400Y-7416800I-50000J0D01*
G01*
X14961400Y-7416800D02*
G75*
G02*
X15061400Y-7416800I50000J0D01*
G01*
X15061400Y-7670800D02*
G75*
G02*
X14961400Y-7670800I-50000J0D01*
G01*
X14961400Y-7670800D02*
G75*
G02*
X15061400Y-7670800I50000J0D01*
G01*
X15061400Y-8940800D02*
G75*
G02*
X14961400Y-8940800I-50000J0D01*
G01*
X14961400Y-8940800D02*
G75*
G02*
X15061400Y-8940800I50000J0D01*
G01*
X15061400Y-9194800D02*
G75*
G02*
X14961400Y-9194800I-50000J0D01*
G01*
X14961400Y-9194800D02*
G75*
G02*
X15061400Y-9194800I50000J0D01*
G01*
X15061400Y-10375400D02*
G75*
G02*
X14961400Y-10375400I-50000J0D01*
G01*
X14961400Y-10375400D02*
G75*
G02*
X15061400Y-10375400I50000J0D01*
G01*
X15061400Y-10629400D02*
G75*
G02*
X14961400Y-10629400I-50000J0D01*
G01*
X14961400Y-10629400D02*
G75*
G02*
X15061400Y-10629400I50000J0D01*
G01*
X15315400Y-1828800D02*
G75*
G02*
X15215400Y-1828800I-50000J0D01*
G01*
X15215400Y-1828800D02*
G75*
G02*
X15315400Y-1828800I50000J0D01*
G01*
X15315400Y-2082800D02*
G75*
G02*
X15215400Y-2082800I-50000J0D01*
G01*
X15215400Y-2082800D02*
G75*
G02*
X15315400Y-2082800I50000J0D01*
G01*
X15315400Y-2336800D02*
G75*
G02*
X15215400Y-2336800I-50000J0D01*
G01*
X15215400Y-2336800D02*
G75*
G02*
X15315400Y-2336800I50000J0D01*
G01*
X15315400Y-2590800D02*
G75*
G02*
X15215400Y-2590800I-50000J0D01*
G01*
X15215400Y-2590800D02*
G75*
G02*
X15315400Y-2590800I50000J0D01*
G01*
X15315400Y-2844800D02*
G75*
G02*
X15215400Y-2844800I-50000J0D01*
G01*
X15215400Y-2844800D02*
G75*
G02*
X15315400Y-2844800I50000J0D01*
G01*
X15315400Y-3098800D02*
G75*
G02*
X15215400Y-3098800I-50000J0D01*
G01*
X15215400Y-3098800D02*
G75*
G02*
X15315400Y-3098800I50000J0D01*
G01*
X15315400Y-3352800D02*
G75*
G02*
X15215400Y-3352800I-50000J0D01*
G01*
X15215400Y-3352800D02*
G75*
G02*
X15315400Y-3352800I50000J0D01*
G01*
X15315400Y-3606800D02*
G75*
G02*
X15215400Y-3606800I-50000J0D01*
G01*
X15215400Y-3606800D02*
G75*
G02*
X15315400Y-3606800I50000J0D01*
G01*
X15315400Y-3860800D02*
G75*
G02*
X15215400Y-3860800I-50000J0D01*
G01*
X15215400Y-3860800D02*
G75*
G02*
X15315400Y-3860800I50000J0D01*
G01*
X15315400Y-4114800D02*
G75*
G02*
X15215400Y-4114800I-50000J0D01*
G01*
X15215400Y-4114800D02*
G75*
G02*
X15315400Y-4114800I50000J0D01*
G01*
X15315400Y-4368800D02*
G75*
G02*
X15215400Y-4368800I-50000J0D01*
G01*
X15215400Y-4368800D02*
G75*
G02*
X15315400Y-4368800I50000J0D01*
G01*
X15315400Y-4622800D02*
G75*
G02*
X15215400Y-4622800I-50000J0D01*
G01*
X15215400Y-4622800D02*
G75*
G02*
X15315400Y-4622800I50000J0D01*
G01*
X15315400Y-4876800D02*
G75*
G02*
X15215400Y-4876800I-50000J0D01*
G01*
X15215400Y-4876800D02*
G75*
G02*
X15315400Y-4876800I50000J0D01*
G01*
X15315400Y-5130800D02*
G75*
G02*
X15215400Y-5130800I-50000J0D01*
G01*
X15215400Y-5130800D02*
G75*
G02*
X15315400Y-5130800I50000J0D01*
G01*
X15315400Y-5384800D02*
G75*
G02*
X15215400Y-5384800I-50000J0D01*
G01*
X15215400Y-5384800D02*
G75*
G02*
X15315400Y-5384800I50000J0D01*
G01*
X15315400Y-5638800D02*
G75*
G02*
X15215400Y-5638800I-50000J0D01*
G01*
X15215400Y-5638800D02*
G75*
G02*
X15315400Y-5638800I50000J0D01*
G01*
X15315400Y-5892800D02*
G75*
G02*
X15215400Y-5892800I-50000J0D01*
G01*
X15215400Y-5892800D02*
G75*
G02*
X15315400Y-5892800I50000J0D01*
G01*
X15315400Y-6146800D02*
G75*
G02*
X15215400Y-6146800I-50000J0D01*
G01*
X15215400Y-6146800D02*
G75*
G02*
X15315400Y-6146800I50000J0D01*
G01*
X15315400Y-6400800D02*
G75*
G02*
X15215400Y-6400800I-50000J0D01*
G01*
X15215400Y-6400800D02*
G75*
G02*
X15315400Y-6400800I50000J0D01*
G01*
X15315400Y-6654800D02*
G75*
G02*
X15215400Y-6654800I-50000J0D01*
G01*
X15215400Y-6654800D02*
G75*
G02*
X15315400Y-6654800I50000J0D01*
G01*
X15315400Y-6908800D02*
G75*
G02*
X15215400Y-6908800I-50000J0D01*
G01*
X15215400Y-6908800D02*
G75*
G02*
X15315400Y-6908800I50000J0D01*
G01*
X15315400Y-7162800D02*
G75*
G02*
X15215400Y-7162800I-50000J0D01*
G01*
X15215400Y-7162800D02*
G75*
G02*
X15315400Y-7162800I50000J0D01*
G01*
X15315400Y-7416800D02*
G75*
G02*
X15215400Y-7416800I-50000J0D01*
G01*
X15215400Y-7416800D02*
G75*
G02*
X15315400Y-7416800I50000J0D01*
G01*
X15315400Y-7670800D02*
G75*
G02*
X15215400Y-7670800I-50000J0D01*
G01*
X15215400Y-7670800D02*
G75*
G02*
X15315400Y-7670800I50000J0D01*
G01*
X15315400Y-8940800D02*
G75*
G02*
X15215400Y-8940800I-50000J0D01*
G01*
X15215400Y-8940800D02*
G75*
G02*
X15315400Y-8940800I50000J0D01*
G01*
X15315400Y-9194800D02*
G75*
G02*
X15215400Y-9194800I-50000J0D01*
G01*
X15215400Y-9194800D02*
G75*
G02*
X15315400Y-9194800I50000J0D01*
G01*
X15315400Y-10375400D02*
G75*
G02*
X15215400Y-10375400I-50000J0D01*
G01*
X15215400Y-10375400D02*
G75*
G02*
X15315400Y-10375400I50000J0D01*
G01*
X15315400Y-10629400D02*
G75*
G02*
X15215400Y-10629400I-50000J0D01*
G01*
X15215400Y-10629400D02*
G75*
G02*
X15315400Y-10629400I50000J0D01*
G01*
X15569400Y-1828800D02*
G75*
G02*
X15469400Y-1828800I-50000J0D01*
G01*
X15469400Y-1828800D02*
G75*
G02*
X15569400Y-1828800I50000J0D01*
G01*
X15569400Y-2082800D02*
G75*
G02*
X15469400Y-2082800I-50000J0D01*
G01*
X15469400Y-2082800D02*
G75*
G02*
X15569400Y-2082800I50000J0D01*
G01*
X15569400Y-2336800D02*
G75*
G02*
X15469400Y-2336800I-50000J0D01*
G01*
X15469400Y-2336800D02*
G75*
G02*
X15569400Y-2336800I50000J0D01*
G01*
X15569400Y-2590800D02*
G75*
G02*
X15469400Y-2590800I-50000J0D01*
G01*
X15469400Y-2590800D02*
G75*
G02*
X15569400Y-2590800I50000J0D01*
G01*
X15569400Y-2844800D02*
G75*
G02*
X15469400Y-2844800I-50000J0D01*
G01*
X15469400Y-2844800D02*
G75*
G02*
X15569400Y-2844800I50000J0D01*
G01*
X15569400Y-3098800D02*
G75*
G02*
X15469400Y-3098800I-50000J0D01*
G01*
X15469400Y-3098800D02*
G75*
G02*
X15569400Y-3098800I50000J0D01*
G01*
X15569400Y-3352800D02*
G75*
G02*
X15469400Y-3352800I-50000J0D01*
G01*
X15469400Y-3352800D02*
G75*
G02*
X15569400Y-3352800I50000J0D01*
G01*
X15569400Y-3606800D02*
G75*
G02*
X15469400Y-3606800I-50000J0D01*
G01*
X15469400Y-3606800D02*
G75*
G02*
X15569400Y-3606800I50000J0D01*
G01*
X15569400Y-3860800D02*
G75*
G02*
X15469400Y-3860800I-50000J0D01*
G01*
X15469400Y-3860800D02*
G75*
G02*
X15569400Y-3860800I50000J0D01*
G01*
X15569400Y-4114800D02*
G75*
G02*
X15469400Y-4114800I-50000J0D01*
G01*
X15469400Y-4114800D02*
G75*
G02*
X15569400Y-4114800I50000J0D01*
G01*
X15569400Y-4368800D02*
G75*
G02*
X15469400Y-4368800I-50000J0D01*
G01*
X15469400Y-4368800D02*
G75*
G02*
X15569400Y-4368800I50000J0D01*
G01*
X15569400Y-4622800D02*
G75*
G02*
X15469400Y-4622800I-50000J0D01*
G01*
X15469400Y-4622800D02*
G75*
G02*
X15569400Y-4622800I50000J0D01*
G01*
X15569400Y-4876800D02*
G75*
G02*
X15469400Y-4876800I-50000J0D01*
G01*
X15469400Y-4876800D02*
G75*
G02*
X15569400Y-4876800I50000J0D01*
G01*
X15569400Y-5130800D02*
G75*
G02*
X15469400Y-5130800I-50000J0D01*
G01*
X15469400Y-5130800D02*
G75*
G02*
X15569400Y-5130800I50000J0D01*
G01*
X15569400Y-5384800D02*
G75*
G02*
X15469400Y-5384800I-50000J0D01*
G01*
X15469400Y-5384800D02*
G75*
G02*
X15569400Y-5384800I50000J0D01*
G01*
X15569400Y-5638800D02*
G75*
G02*
X15469400Y-5638800I-50000J0D01*
G01*
X15469400Y-5638800D02*
G75*
G02*
X15569400Y-5638800I50000J0D01*
G01*
X15569400Y-5892800D02*
G75*
G02*
X15469400Y-5892800I-50000J0D01*
G01*
X15469400Y-5892800D02*
G75*
G02*
X15569400Y-5892800I50000J0D01*
G01*
X15569400Y-6146800D02*
G75*
G02*
X15469400Y-6146800I-50000J0D01*
G01*
X15469400Y-6146800D02*
G75*
G02*
X15569400Y-6146800I50000J0D01*
G01*
X15569400Y-6400800D02*
G75*
G02*
X15469400Y-6400800I-50000J0D01*
G01*
X15469400Y-6400800D02*
G75*
G02*
X15569400Y-6400800I50000J0D01*
G01*
X15569400Y-6654800D02*
G75*
G02*
X15469400Y-6654800I-50000J0D01*
G01*
X15469400Y-6654800D02*
G75*
G02*
X15569400Y-6654800I50000J0D01*
G01*
X15569400Y-6908800D02*
G75*
G02*
X15469400Y-6908800I-50000J0D01*
G01*
X15469400Y-6908800D02*
G75*
G02*
X15569400Y-6908800I50000J0D01*
G01*
X15569400Y-7162800D02*
G75*
G02*
X15469400Y-7162800I-50000J0D01*
G01*
X15469400Y-7162800D02*
G75*
G02*
X15569400Y-7162800I50000J0D01*
G01*
X15569400Y-7416800D02*
G75*
G02*
X15469400Y-7416800I-50000J0D01*
G01*
X15469400Y-7416800D02*
G75*
G02*
X15569400Y-7416800I50000J0D01*
G01*
X15569400Y-7670800D02*
G75*
G02*
X15469400Y-7670800I-50000J0D01*
G01*
X15469400Y-7670800D02*
G75*
G02*
X15569400Y-7670800I50000J0D01*
G01*
X15569400Y-8940800D02*
G75*
G02*
X15469400Y-8940800I-50000J0D01*
G01*
X15469400Y-8940800D02*
G75*
G02*
X15569400Y-8940800I50000J0D01*
G01*
X15569400Y-9194800D02*
G75*
G02*
X15469400Y-9194800I-50000J0D01*
G01*
X15469400Y-9194800D02*
G75*
G02*
X15569400Y-9194800I50000J0D01*
G01*
X15569400Y-10375400D02*
G75*
G02*
X15469400Y-10375400I-50000J0D01*
G01*
X15469400Y-10375400D02*
G75*
G02*
X15569400Y-10375400I50000J0D01*
G01*
X15569400Y-10629400D02*
G75*
G02*
X15469400Y-10629400I-50000J0D01*
G01*
X15469400Y-10629400D02*
G75*
G02*
X15569400Y-10629400I50000J0D01*
G01*
X15823400Y-1828800D02*
G75*
G02*
X15723400Y-1828800I-50000J0D01*
G01*
X15723400Y-1828800D02*
G75*
G02*
X15823400Y-1828800I50000J0D01*
G01*
X15823400Y-2082800D02*
G75*
G02*
X15723400Y-2082800I-50000J0D01*
G01*
X15723400Y-2082800D02*
G75*
G02*
X15823400Y-2082800I50000J0D01*
G01*
X15823400Y-2336800D02*
G75*
G02*
X15723400Y-2336800I-50000J0D01*
G01*
X15723400Y-2336800D02*
G75*
G02*
X15823400Y-2336800I50000J0D01*
G01*
X15823400Y-2590800D02*
G75*
G02*
X15723400Y-2590800I-50000J0D01*
G01*
X15723400Y-2590800D02*
G75*
G02*
X15823400Y-2590800I50000J0D01*
G01*
X15823400Y-2844800D02*
G75*
G02*
X15723400Y-2844800I-50000J0D01*
G01*
X15723400Y-2844800D02*
G75*
G02*
X15823400Y-2844800I50000J0D01*
G01*
X15823400Y-3098800D02*
G75*
G02*
X15723400Y-3098800I-50000J0D01*
G01*
X15723400Y-3098800D02*
G75*
G02*
X15823400Y-3098800I50000J0D01*
G01*
X15823400Y-3352800D02*
G75*
G02*
X15723400Y-3352800I-50000J0D01*
G01*
X15723400Y-3352800D02*
G75*
G02*
X15823400Y-3352800I50000J0D01*
G01*
X15823400Y-3606800D02*
G75*
G02*
X15723400Y-3606800I-50000J0D01*
G01*
X15723400Y-3606800D02*
G75*
G02*
X15823400Y-3606800I50000J0D01*
G01*
X15823400Y-3860800D02*
G75*
G02*
X15723400Y-3860800I-50000J0D01*
G01*
X15723400Y-3860800D02*
G75*
G02*
X15823400Y-3860800I50000J0D01*
G01*
X15823400Y-4114800D02*
G75*
G02*
X15723400Y-4114800I-50000J0D01*
G01*
X15723400Y-4114800D02*
G75*
G02*
X15823400Y-4114800I50000J0D01*
G01*
X15823400Y-4368800D02*
G75*
G02*
X15723400Y-4368800I-50000J0D01*
G01*
X15723400Y-4368800D02*
G75*
G02*
X15823400Y-4368800I50000J0D01*
G01*
X15823400Y-4622800D02*
G75*
G02*
X15723400Y-4622800I-50000J0D01*
G01*
X15723400Y-4622800D02*
G75*
G02*
X15823400Y-4622800I50000J0D01*
G01*
X15823400Y-4876800D02*
G75*
G02*
X15723400Y-4876800I-50000J0D01*
G01*
X15723400Y-4876800D02*
G75*
G02*
X15823400Y-4876800I50000J0D01*
G01*
X15823400Y-5130800D02*
G75*
G02*
X15723400Y-5130800I-50000J0D01*
G01*
X15723400Y-5130800D02*
G75*
G02*
X15823400Y-5130800I50000J0D01*
G01*
X15823400Y-5384800D02*
G75*
G02*
X15723400Y-5384800I-50000J0D01*
G01*
X15723400Y-5384800D02*
G75*
G02*
X15823400Y-5384800I50000J0D01*
G01*
X15823400Y-5638800D02*
G75*
G02*
X15723400Y-5638800I-50000J0D01*
G01*
X15723400Y-5638800D02*
G75*
G02*
X15823400Y-5638800I50000J0D01*
G01*
X15823400Y-5892800D02*
G75*
G02*
X15723400Y-5892800I-50000J0D01*
G01*
X15723400Y-5892800D02*
G75*
G02*
X15823400Y-5892800I50000J0D01*
G01*
X15823400Y-6146800D02*
G75*
G02*
X15723400Y-6146800I-50000J0D01*
G01*
X15723400Y-6146800D02*
G75*
G02*
X15823400Y-6146800I50000J0D01*
G01*
X15823400Y-6400800D02*
G75*
G02*
X15723400Y-6400800I-50000J0D01*
G01*
X15723400Y-6400800D02*
G75*
G02*
X15823400Y-6400800I50000J0D01*
G01*
X15823400Y-6654800D02*
G75*
G02*
X15723400Y-6654800I-50000J0D01*
G01*
X15723400Y-6654800D02*
G75*
G02*
X15823400Y-6654800I50000J0D01*
G01*
X15823400Y-6908800D02*
G75*
G02*
X15723400Y-6908800I-50000J0D01*
G01*
X15723400Y-6908800D02*
G75*
G02*
X15823400Y-6908800I50000J0D01*
G01*
X15823400Y-7162800D02*
G75*
G02*
X15723400Y-7162800I-50000J0D01*
G01*
X15723400Y-7162800D02*
G75*
G02*
X15823400Y-7162800I50000J0D01*
G01*
X15823400Y-7416800D02*
G75*
G02*
X15723400Y-7416800I-50000J0D01*
G01*
X15723400Y-7416800D02*
G75*
G02*
X15823400Y-7416800I50000J0D01*
G01*
X15823400Y-7670800D02*
G75*
G02*
X15723400Y-7670800I-50000J0D01*
G01*
X15723400Y-7670800D02*
G75*
G02*
X15823400Y-7670800I50000J0D01*
G01*
X15823400Y-8940800D02*
G75*
G02*
X15723400Y-8940800I-50000J0D01*
G01*
X15723400Y-8940800D02*
G75*
G02*
X15823400Y-8940800I50000J0D01*
G01*
X15823400Y-9194800D02*
G75*
G02*
X15723400Y-9194800I-50000J0D01*
G01*
X15723400Y-9194800D02*
G75*
G02*
X15823400Y-9194800I50000J0D01*
G01*
X15823400Y-10375400D02*
G75*
G02*
X15723400Y-10375400I-50000J0D01*
G01*
X15723400Y-10375400D02*
G75*
G02*
X15823400Y-10375400I50000J0D01*
G01*
X15823400Y-10629400D02*
G75*
G02*
X15723400Y-10629400I-50000J0D01*
G01*
X15723400Y-10629400D02*
G75*
G02*
X15823400Y-10629400I50000J0D01*
G01*
X16077400Y-1828800D02*
G75*
G02*
X15977400Y-1828800I-50000J0D01*
G01*
X15977400Y-1828800D02*
G75*
G02*
X16077400Y-1828800I50000J0D01*
G01*
X16077400Y-2082800D02*
G75*
G02*
X15977400Y-2082800I-50000J0D01*
G01*
X15977400Y-2082800D02*
G75*
G02*
X16077400Y-2082800I50000J0D01*
G01*
X16077400Y-2336800D02*
G75*
G02*
X15977400Y-2336800I-50000J0D01*
G01*
X15977400Y-2336800D02*
G75*
G02*
X16077400Y-2336800I50000J0D01*
G01*
X16077400Y-2590800D02*
G75*
G02*
X15977400Y-2590800I-50000J0D01*
G01*
X15977400Y-2590800D02*
G75*
G02*
X16077400Y-2590800I50000J0D01*
G01*
X16077400Y-2844800D02*
G75*
G02*
X15977400Y-2844800I-50000J0D01*
G01*
X15977400Y-2844800D02*
G75*
G02*
X16077400Y-2844800I50000J0D01*
G01*
X16077400Y-3098800D02*
G75*
G02*
X15977400Y-3098800I-50000J0D01*
G01*
X15977400Y-3098800D02*
G75*
G02*
X16077400Y-3098800I50000J0D01*
G01*
X16077400Y-3352800D02*
G75*
G02*
X15977400Y-3352800I-50000J0D01*
G01*
X15977400Y-3352800D02*
G75*
G02*
X16077400Y-3352800I50000J0D01*
G01*
X16077400Y-3606800D02*
G75*
G02*
X15977400Y-3606800I-50000J0D01*
G01*
X15977400Y-3606800D02*
G75*
G02*
X16077400Y-3606800I50000J0D01*
G01*
X16077400Y-3860800D02*
G75*
G02*
X15977400Y-3860800I-50000J0D01*
G01*
X15977400Y-3860800D02*
G75*
G02*
X16077400Y-3860800I50000J0D01*
G01*
X16077400Y-4114800D02*
G75*
G02*
X15977400Y-4114800I-50000J0D01*
G01*
X15977400Y-4114800D02*
G75*
G02*
X16077400Y-4114800I50000J0D01*
G01*
X16077400Y-4368800D02*
G75*
G02*
X15977400Y-4368800I-50000J0D01*
G01*
X15977400Y-4368800D02*
G75*
G02*
X16077400Y-4368800I50000J0D01*
G01*
X16077400Y-4622800D02*
G75*
G02*
X15977400Y-4622800I-50000J0D01*
G01*
X15977400Y-4622800D02*
G75*
G02*
X16077400Y-4622800I50000J0D01*
G01*
X16077400Y-4876800D02*
G75*
G02*
X15977400Y-4876800I-50000J0D01*
G01*
X15977400Y-4876800D02*
G75*
G02*
X16077400Y-4876800I50000J0D01*
G01*
X16077400Y-5130800D02*
G75*
G02*
X15977400Y-5130800I-50000J0D01*
G01*
X15977400Y-5130800D02*
G75*
G02*
X16077400Y-5130800I50000J0D01*
G01*
X16077400Y-5384800D02*
G75*
G02*
X15977400Y-5384800I-50000J0D01*
G01*
X15977400Y-5384800D02*
G75*
G02*
X16077400Y-5384800I50000J0D01*
G01*
X16077400Y-5638800D02*
G75*
G02*
X15977400Y-5638800I-50000J0D01*
G01*
X15977400Y-5638800D02*
G75*
G02*
X16077400Y-5638800I50000J0D01*
G01*
X16077400Y-5892800D02*
G75*
G02*
X15977400Y-5892800I-50000J0D01*
G01*
X15977400Y-5892800D02*
G75*
G02*
X16077400Y-5892800I50000J0D01*
G01*
X16077400Y-6146800D02*
G75*
G02*
X15977400Y-6146800I-50000J0D01*
G01*
X15977400Y-6146800D02*
G75*
G02*
X16077400Y-6146800I50000J0D01*
G01*
X16077400Y-6400800D02*
G75*
G02*
X15977400Y-6400800I-50000J0D01*
G01*
X15977400Y-6400800D02*
G75*
G02*
X16077400Y-6400800I50000J0D01*
G01*
X16077400Y-6654800D02*
G75*
G02*
X15977400Y-6654800I-50000J0D01*
G01*
X15977400Y-6654800D02*
G75*
G02*
X16077400Y-6654800I50000J0D01*
G01*
X16077400Y-6908800D02*
G75*
G02*
X15977400Y-6908800I-50000J0D01*
G01*
X15977400Y-6908800D02*
G75*
G02*
X16077400Y-6908800I50000J0D01*
G01*
X16077400Y-7162800D02*
G75*
G02*
X15977400Y-7162800I-50000J0D01*
G01*
X15977400Y-7162800D02*
G75*
G02*
X16077400Y-7162800I50000J0D01*
G01*
X16077400Y-7416800D02*
G75*
G02*
X15977400Y-7416800I-50000J0D01*
G01*
X15977400Y-7416800D02*
G75*
G02*
X16077400Y-7416800I50000J0D01*
G01*
X16077400Y-7670800D02*
G75*
G02*
X15977400Y-7670800I-50000J0D01*
G01*
X15977400Y-7670800D02*
G75*
G02*
X16077400Y-7670800I50000J0D01*
G01*
X16077400Y-8940800D02*
G75*
G02*
X15977400Y-8940800I-50000J0D01*
G01*
X15977400Y-8940800D02*
G75*
G02*
X16077400Y-8940800I50000J0D01*
G01*
X16077400Y-9194800D02*
G75*
G02*
X15977400Y-9194800I-50000J0D01*
G01*
X15977400Y-9194800D02*
G75*
G02*
X16077400Y-9194800I50000J0D01*
G01*
X16077400Y-10375400D02*
G75*
G02*
X15977400Y-10375400I-50000J0D01*
G01*
X15977400Y-10375400D02*
G75*
G02*
X16077400Y-10375400I50000J0D01*
G01*
X16077400Y-10629400D02*
G75*
G02*
X15977400Y-10629400I-50000J0D01*
G01*
X15977400Y-10629400D02*
G75*
G02*
X16077400Y-10629400I50000J0D01*
G01*
X16331400Y-1828800D02*
G75*
G02*
X16231400Y-1828800I-50000J0D01*
G01*
X16231400Y-1828800D02*
G75*
G02*
X16331400Y-1828800I50000J0D01*
G01*
X16331400Y-2082800D02*
G75*
G02*
X16231400Y-2082800I-50000J0D01*
G01*
X16231400Y-2082800D02*
G75*
G02*
X16331400Y-2082800I50000J0D01*
G01*
X16331400Y-2336800D02*
G75*
G02*
X16231400Y-2336800I-50000J0D01*
G01*
X16231400Y-2336800D02*
G75*
G02*
X16331400Y-2336800I50000J0D01*
G01*
X16331400Y-2590800D02*
G75*
G02*
X16231400Y-2590800I-50000J0D01*
G01*
X16231400Y-2590800D02*
G75*
G02*
X16331400Y-2590800I50000J0D01*
G01*
X16331400Y-2844800D02*
G75*
G02*
X16231400Y-2844800I-50000J0D01*
G01*
X16231400Y-2844800D02*
G75*
G02*
X16331400Y-2844800I50000J0D01*
G01*
X16331400Y-3098800D02*
G75*
G02*
X16231400Y-3098800I-50000J0D01*
G01*
X16231400Y-3098800D02*
G75*
G02*
X16331400Y-3098800I50000J0D01*
G01*
X16331400Y-3352800D02*
G75*
G02*
X16231400Y-3352800I-50000J0D01*
G01*
X16231400Y-3352800D02*
G75*
G02*
X16331400Y-3352800I50000J0D01*
G01*
X16331400Y-3606800D02*
G75*
G02*
X16231400Y-3606800I-50000J0D01*
G01*
X16231400Y-3606800D02*
G75*
G02*
X16331400Y-3606800I50000J0D01*
G01*
X16331400Y-3860800D02*
G75*
G02*
X16231400Y-3860800I-50000J0D01*
G01*
X16231400Y-3860800D02*
G75*
G02*
X16331400Y-3860800I50000J0D01*
G01*
X16331400Y-4114800D02*
G75*
G02*
X16231400Y-4114800I-50000J0D01*
G01*
X16231400Y-4114800D02*
G75*
G02*
X16331400Y-4114800I50000J0D01*
G01*
X16331400Y-4368800D02*
G75*
G02*
X16231400Y-4368800I-50000J0D01*
G01*
X16231400Y-4368800D02*
G75*
G02*
X16331400Y-4368800I50000J0D01*
G01*
X16331400Y-4622800D02*
G75*
G02*
X16231400Y-4622800I-50000J0D01*
G01*
X16231400Y-4622800D02*
G75*
G02*
X16331400Y-4622800I50000J0D01*
G01*
X16331400Y-4876800D02*
G75*
G02*
X16231400Y-4876800I-50000J0D01*
G01*
X16231400Y-4876800D02*
G75*
G02*
X16331400Y-4876800I50000J0D01*
G01*
X16331400Y-5130800D02*
G75*
G02*
X16231400Y-5130800I-50000J0D01*
G01*
X16231400Y-5130800D02*
G75*
G02*
X16331400Y-5130800I50000J0D01*
G01*
X16331400Y-5384800D02*
G75*
G02*
X16231400Y-5384800I-50000J0D01*
G01*
X16231400Y-5384800D02*
G75*
G02*
X16331400Y-5384800I50000J0D01*
G01*
X16331400Y-5638800D02*
G75*
G02*
X16231400Y-5638800I-50000J0D01*
G01*
X16231400Y-5638800D02*
G75*
G02*
X16331400Y-5638800I50000J0D01*
G01*
X16331400Y-5892800D02*
G75*
G02*
X16231400Y-5892800I-50000J0D01*
G01*
X16231400Y-5892800D02*
G75*
G02*
X16331400Y-5892800I50000J0D01*
G01*
X16331400Y-6146800D02*
G75*
G02*
X16231400Y-6146800I-50000J0D01*
G01*
X16231400Y-6146800D02*
G75*
G02*
X16331400Y-6146800I50000J0D01*
G01*
X16331400Y-6400800D02*
G75*
G02*
X16231400Y-6400800I-50000J0D01*
G01*
X16231400Y-6400800D02*
G75*
G02*
X16331400Y-6400800I50000J0D01*
G01*
X16331400Y-6654800D02*
G75*
G02*
X16231400Y-6654800I-50000J0D01*
G01*
X16231400Y-6654800D02*
G75*
G02*
X16331400Y-6654800I50000J0D01*
G01*
X16331400Y-6908800D02*
G75*
G02*
X16231400Y-6908800I-50000J0D01*
G01*
X16231400Y-6908800D02*
G75*
G02*
X16331400Y-6908800I50000J0D01*
G01*
X16331400Y-7162800D02*
G75*
G02*
X16231400Y-7162800I-50000J0D01*
G01*
X16231400Y-7162800D02*
G75*
G02*
X16331400Y-7162800I50000J0D01*
G01*
X16331400Y-7416800D02*
G75*
G02*
X16231400Y-7416800I-50000J0D01*
G01*
X16231400Y-7416800D02*
G75*
G02*
X16331400Y-7416800I50000J0D01*
G01*
X16331400Y-7670800D02*
G75*
G02*
X16231400Y-7670800I-50000J0D01*
G01*
X16231400Y-7670800D02*
G75*
G02*
X16331400Y-7670800I50000J0D01*
G01*
X16331400Y-8940800D02*
G75*
G02*
X16231400Y-8940800I-50000J0D01*
G01*
X16231400Y-8940800D02*
G75*
G02*
X16331400Y-8940800I50000J0D01*
G01*
X16331400Y-9194800D02*
G75*
G02*
X16231400Y-9194800I-50000J0D01*
G01*
X16231400Y-9194800D02*
G75*
G02*
X16331400Y-9194800I50000J0D01*
G01*
X16331400Y-10375400D02*
G75*
G02*
X16231400Y-10375400I-50000J0D01*
G01*
X16231400Y-10375400D02*
G75*
G02*
X16331400Y-10375400I50000J0D01*
G01*
X16331400Y-10629400D02*
G75*
G02*
X16231400Y-10629400I-50000J0D01*
G01*
X16231400Y-10629400D02*
G75*
G02*
X16331400Y-10629400I50000J0D01*
G01*
X16585400Y-1828800D02*
G75*
G02*
X16485400Y-1828800I-50000J0D01*
G01*
X16485400Y-1828800D02*
G75*
G02*
X16585400Y-1828800I50000J0D01*
G01*
X16585400Y-2082800D02*
G75*
G02*
X16485400Y-2082800I-50000J0D01*
G01*
X16485400Y-2082800D02*
G75*
G02*
X16585400Y-2082800I50000J0D01*
G01*
X16585400Y-2336800D02*
G75*
G02*
X16485400Y-2336800I-50000J0D01*
G01*
X16485400Y-2336800D02*
G75*
G02*
X16585400Y-2336800I50000J0D01*
G01*
X16585400Y-2590800D02*
G75*
G02*
X16485400Y-2590800I-50000J0D01*
G01*
X16485400Y-2590800D02*
G75*
G02*
X16585400Y-2590800I50000J0D01*
G01*
X16585400Y-2844800D02*
G75*
G02*
X16485400Y-2844800I-50000J0D01*
G01*
X16485400Y-2844800D02*
G75*
G02*
X16585400Y-2844800I50000J0D01*
G01*
X16585400Y-3098800D02*
G75*
G02*
X16485400Y-3098800I-50000J0D01*
G01*
X16485400Y-3098800D02*
G75*
G02*
X16585400Y-3098800I50000J0D01*
G01*
X16585400Y-3352800D02*
G75*
G02*
X16485400Y-3352800I-50000J0D01*
G01*
X16485400Y-3352800D02*
G75*
G02*
X16585400Y-3352800I50000J0D01*
G01*
X16585400Y-3606800D02*
G75*
G02*
X16485400Y-3606800I-50000J0D01*
G01*
X16485400Y-3606800D02*
G75*
G02*
X16585400Y-3606800I50000J0D01*
G01*
X16585400Y-3860800D02*
G75*
G02*
X16485400Y-3860800I-50000J0D01*
G01*
X16485400Y-3860800D02*
G75*
G02*
X16585400Y-3860800I50000J0D01*
G01*
X16585400Y-4114800D02*
G75*
G02*
X16485400Y-4114800I-50000J0D01*
G01*
X16485400Y-4114800D02*
G75*
G02*
X16585400Y-4114800I50000J0D01*
G01*
X16585400Y-4368800D02*
G75*
G02*
X16485400Y-4368800I-50000J0D01*
G01*
X16485400Y-4368800D02*
G75*
G02*
X16585400Y-4368800I50000J0D01*
G01*
X16585400Y-4622800D02*
G75*
G02*
X16485400Y-4622800I-50000J0D01*
G01*
X16485400Y-4622800D02*
G75*
G02*
X16585400Y-4622800I50000J0D01*
G01*
X16585400Y-4876800D02*
G75*
G02*
X16485400Y-4876800I-50000J0D01*
G01*
X16485400Y-4876800D02*
G75*
G02*
X16585400Y-4876800I50000J0D01*
G01*
X16585400Y-5130800D02*
G75*
G02*
X16485400Y-5130800I-50000J0D01*
G01*
X16485400Y-5130800D02*
G75*
G02*
X16585400Y-5130800I50000J0D01*
G01*
X16585400Y-5384800D02*
G75*
G02*
X16485400Y-5384800I-50000J0D01*
G01*
X16485400Y-5384800D02*
G75*
G02*
X16585400Y-5384800I50000J0D01*
G01*
X16585400Y-5638800D02*
G75*
G02*
X16485400Y-5638800I-50000J0D01*
G01*
X16485400Y-5638800D02*
G75*
G02*
X16585400Y-5638800I50000J0D01*
G01*
X16585400Y-5892800D02*
G75*
G02*
X16485400Y-5892800I-50000J0D01*
G01*
X16485400Y-5892800D02*
G75*
G02*
X16585400Y-5892800I50000J0D01*
G01*
X16585400Y-6146800D02*
G75*
G02*
X16485400Y-6146800I-50000J0D01*
G01*
X16485400Y-6146800D02*
G75*
G02*
X16585400Y-6146800I50000J0D01*
G01*
X16585400Y-6400800D02*
G75*
G02*
X16485400Y-6400800I-50000J0D01*
G01*
X16485400Y-6400800D02*
G75*
G02*
X16585400Y-6400800I50000J0D01*
G01*
X16585400Y-6654800D02*
G75*
G02*
X16485400Y-6654800I-50000J0D01*
G01*
X16485400Y-6654800D02*
G75*
G02*
X16585400Y-6654800I50000J0D01*
G01*
X16585400Y-6908800D02*
G75*
G02*
X16485400Y-6908800I-50000J0D01*
G01*
X16485400Y-6908800D02*
G75*
G02*
X16585400Y-6908800I50000J0D01*
G01*
X16585400Y-7162800D02*
G75*
G02*
X16485400Y-7162800I-50000J0D01*
G01*
X16485400Y-7162800D02*
G75*
G02*
X16585400Y-7162800I50000J0D01*
G01*
X16585400Y-7416800D02*
G75*
G02*
X16485400Y-7416800I-50000J0D01*
G01*
X16485400Y-7416800D02*
G75*
G02*
X16585400Y-7416800I50000J0D01*
G01*
X16585400Y-7670800D02*
G75*
G02*
X16485400Y-7670800I-50000J0D01*
G01*
X16485400Y-7670800D02*
G75*
G02*
X16585400Y-7670800I50000J0D01*
G01*
D11*
X12244577Y-15835884D02*
X12244577Y-15635884D01*
X12244577Y-15635884D02*
X12292196Y-15635884D01*
X12292196Y-15635884D02*
X12320767Y-15645408D01*
X12320767Y-15645408D02*
X12339815Y-15664455D01*
X12339815Y-15664455D02*
X12349339Y-15683503D01*
X12349339Y-15683503D02*
X12358862Y-15721598D01*
X12358862Y-15721598D02*
X12358862Y-15750169D01*
X12358862Y-15750169D02*
X12349339Y-15788265D01*
X12349339Y-15788265D02*
X12339815Y-15807312D01*
X12339815Y-15807312D02*
X12320767Y-15826360D01*
X12320767Y-15826360D02*
X12292196Y-15835884D01*
X12292196Y-15835884D02*
X12244577Y-15835884D01*
X12444577Y-15835884D02*
X12444577Y-15702550D01*
X12444577Y-15740646D02*
X12454101Y-15721598D01*
X12454101Y-15721598D02*
X12463624Y-15712074D01*
X12463624Y-15712074D02*
X12482672Y-15702550D01*
X12482672Y-15702550D02*
X12501720Y-15702550D01*
X12568386Y-15835884D02*
X12568386Y-15702550D01*
X12568386Y-15635884D02*
X12558862Y-15645408D01*
X12558862Y-15645408D02*
X12568386Y-15654931D01*
X12568386Y-15654931D02*
X12577910Y-15645408D01*
X12577910Y-15645408D02*
X12568386Y-15635884D01*
X12568386Y-15635884D02*
X12568386Y-15654931D01*
X12692196Y-15835884D02*
X12673148Y-15826360D01*
X12673148Y-15826360D02*
X12663624Y-15807312D01*
X12663624Y-15807312D02*
X12663624Y-15635884D01*
X12796958Y-15835884D02*
X12777910Y-15826360D01*
X12777910Y-15826360D02*
X12768386Y-15807312D01*
X12768386Y-15807312D02*
X12768386Y-15635884D01*
X13025529Y-15835884D02*
X13025529Y-15635884D01*
X13025529Y-15635884D02*
X13092196Y-15778741D01*
X13092196Y-15778741D02*
X13158862Y-15635884D01*
X13158862Y-15635884D02*
X13158862Y-15835884D01*
X13339815Y-15835884D02*
X13339815Y-15731122D01*
X13339815Y-15731122D02*
X13330291Y-15712074D01*
X13330291Y-15712074D02*
X13311243Y-15702550D01*
X13311243Y-15702550D02*
X13273148Y-15702550D01*
X13273148Y-15702550D02*
X13254101Y-15712074D01*
X13339815Y-15826360D02*
X13320767Y-15835884D01*
X13320767Y-15835884D02*
X13273148Y-15835884D01*
X13273148Y-15835884D02*
X13254101Y-15826360D01*
X13254101Y-15826360D02*
X13244577Y-15807312D01*
X13244577Y-15807312D02*
X13244577Y-15788265D01*
X13244577Y-15788265D02*
X13254101Y-15769217D01*
X13254101Y-15769217D02*
X13273148Y-15759693D01*
X13273148Y-15759693D02*
X13320767Y-15759693D01*
X13320767Y-15759693D02*
X13339815Y-15750169D01*
X13435053Y-15702550D02*
X13435053Y-15902550D01*
X13435053Y-15712074D02*
X13454101Y-15702550D01*
X13454101Y-15702550D02*
X13492196Y-15702550D01*
X13492196Y-15702550D02*
X13511243Y-15712074D01*
X13511243Y-15712074D02*
X13520767Y-15721598D01*
X13520767Y-15721598D02*
X13530291Y-15740646D01*
X13530291Y-15740646D02*
X13530291Y-15797788D01*
X13530291Y-15797788D02*
X13520767Y-15816836D01*
X13520767Y-15816836D02*
X13511243Y-15826360D01*
X13511243Y-15826360D02*
X13492196Y-15835884D01*
X13492196Y-15835884D02*
X13454101Y-15835884D01*
X13454101Y-15835884D02*
X13435053Y-15826360D01*
X13616005Y-15816836D02*
X13625529Y-15826360D01*
X13625529Y-15826360D02*
X13616005Y-15835884D01*
X13616005Y-15835884D02*
X13606482Y-15826360D01*
X13606482Y-15826360D02*
X13616005Y-15816836D01*
X13616005Y-15816836D02*
X13616005Y-15835884D01*
X13616005Y-15712074D02*
X13625529Y-15721598D01*
X13625529Y-15721598D02*
X13616005Y-15731122D01*
X13616005Y-15731122D02*
X13606482Y-15721598D01*
X13606482Y-15721598D02*
X13616005Y-15712074D01*
X13616005Y-15712074D02*
X13616005Y-15731122D01*
D10*
X11943800Y-16144400D02*
X11983800Y-16184400D01*
X11983800Y-16144400D02*
X11943800Y-16184400D01*
D11*
X12282672Y-16055884D02*
X12301720Y-16055884D01*
X12301720Y-16055884D02*
X12320767Y-16065408D01*
X12320767Y-16065408D02*
X12330291Y-16074931D01*
X12330291Y-16074931D02*
X12339815Y-16093979D01*
X12339815Y-16093979D02*
X12349339Y-16132074D01*
X12349339Y-16132074D02*
X12349339Y-16179693D01*
X12349339Y-16179693D02*
X12339815Y-16217788D01*
X12339815Y-16217788D02*
X12330291Y-16236836D01*
X12330291Y-16236836D02*
X12320767Y-16246360D01*
X12320767Y-16246360D02*
X12301720Y-16255884D01*
X12301720Y-16255884D02*
X12282672Y-16255884D01*
X12282672Y-16255884D02*
X12263624Y-16246360D01*
X12263624Y-16246360D02*
X12254101Y-16236836D01*
X12254101Y-16236836D02*
X12244577Y-16217788D01*
X12244577Y-16217788D02*
X12235053Y-16179693D01*
X12235053Y-16179693D02*
X12235053Y-16132074D01*
X12235053Y-16132074D02*
X12244577Y-16093979D01*
X12244577Y-16093979D02*
X12254101Y-16074931D01*
X12254101Y-16074931D02*
X12263624Y-16065408D01*
X12263624Y-16065408D02*
X12282672Y-16055884D01*
X12435053Y-16236836D02*
X12444577Y-16246360D01*
X12444577Y-16246360D02*
X12435053Y-16255884D01*
X12435053Y-16255884D02*
X12425529Y-16246360D01*
X12425529Y-16246360D02*
X12435053Y-16236836D01*
X12435053Y-16236836D02*
X12435053Y-16255884D01*
X12616005Y-16122550D02*
X12616005Y-16255884D01*
X12568386Y-16046360D02*
X12520767Y-16189217D01*
X12520767Y-16189217D02*
X12644577Y-16189217D01*
X12758862Y-16055884D02*
X12777910Y-16055884D01*
X12777910Y-16055884D02*
X12796958Y-16065408D01*
X12796958Y-16065408D02*
X12806482Y-16074931D01*
X12806482Y-16074931D02*
X12816005Y-16093979D01*
X12816005Y-16093979D02*
X12825529Y-16132074D01*
X12825529Y-16132074D02*
X12825529Y-16179693D01*
X12825529Y-16179693D02*
X12816005Y-16217788D01*
X12816005Y-16217788D02*
X12806482Y-16236836D01*
X12806482Y-16236836D02*
X12796958Y-16246360D01*
X12796958Y-16246360D02*
X12777910Y-16255884D01*
X12777910Y-16255884D02*
X12758862Y-16255884D01*
X12758862Y-16255884D02*
X12739815Y-16246360D01*
X12739815Y-16246360D02*
X12730291Y-16236836D01*
X12730291Y-16236836D02*
X12720767Y-16217788D01*
X12720767Y-16217788D02*
X12711243Y-16179693D01*
X12711243Y-16179693D02*
X12711243Y-16132074D01*
X12711243Y-16132074D02*
X12720767Y-16093979D01*
X12720767Y-16093979D02*
X12730291Y-16074931D01*
X12730291Y-16074931D02*
X12739815Y-16065408D01*
X12739815Y-16065408D02*
X12758862Y-16055884D01*
X12949339Y-16055884D02*
X12968386Y-16055884D01*
X12968386Y-16055884D02*
X12987434Y-16065408D01*
X12987434Y-16065408D02*
X12996958Y-16074931D01*
X12996958Y-16074931D02*
X13006482Y-16093979D01*
X13006482Y-16093979D02*
X13016005Y-16132074D01*
X13016005Y-16132074D02*
X13016005Y-16179693D01*
X13016005Y-16179693D02*
X13006482Y-16217788D01*
X13006482Y-16217788D02*
X12996958Y-16236836D01*
X12996958Y-16236836D02*
X12987434Y-16246360D01*
X12987434Y-16246360D02*
X12968386Y-16255884D01*
X12968386Y-16255884D02*
X12949339Y-16255884D01*
X12949339Y-16255884D02*
X12930291Y-16246360D01*
X12930291Y-16246360D02*
X12920767Y-16236836D01*
X12920767Y-16236836D02*
X12911243Y-16217788D01*
X12911243Y-16217788D02*
X12901720Y-16179693D01*
X12901720Y-16179693D02*
X12901720Y-16132074D01*
X12901720Y-16132074D02*
X12911243Y-16093979D01*
X12911243Y-16093979D02*
X12920767Y-16074931D01*
X12920767Y-16074931D02*
X12930291Y-16065408D01*
X12930291Y-16065408D02*
X12949339Y-16055884D01*
X13101720Y-16255884D02*
X13101720Y-16122550D01*
X13101720Y-16141598D02*
X13111243Y-16132074D01*
X13111243Y-16132074D02*
X13130291Y-16122550D01*
X13130291Y-16122550D02*
X13158863Y-16122550D01*
X13158863Y-16122550D02*
X13177910Y-16132074D01*
X13177910Y-16132074D02*
X13187434Y-16151122D01*
X13187434Y-16151122D02*
X13187434Y-16255884D01*
X13187434Y-16151122D02*
X13196958Y-16132074D01*
X13196958Y-16132074D02*
X13216005Y-16122550D01*
X13216005Y-16122550D02*
X13244577Y-16122550D01*
X13244577Y-16122550D02*
X13263624Y-16132074D01*
X13263624Y-16132074D02*
X13273148Y-16151122D01*
X13273148Y-16151122D02*
X13273148Y-16255884D01*
X13368386Y-16255884D02*
X13368386Y-16122550D01*
X13368386Y-16141598D02*
X13377910Y-16132074D01*
X13377910Y-16132074D02*
X13396958Y-16122550D01*
X13396958Y-16122550D02*
X13425529Y-16122550D01*
X13425529Y-16122550D02*
X13444577Y-16132074D01*
X13444577Y-16132074D02*
X13454101Y-16151122D01*
X13454101Y-16151122D02*
X13454101Y-16255884D01*
X13454101Y-16151122D02*
X13463624Y-16132074D01*
X13463624Y-16132074D02*
X13482672Y-16122550D01*
X13482672Y-16122550D02*
X13511243Y-16122550D01*
X13511243Y-16122550D02*
X13530291Y-16132074D01*
X13530291Y-16132074D02*
X13539815Y-16151122D01*
X13539815Y-16151122D02*
X13539815Y-16255884D01*
X13930291Y-16046360D02*
X13758863Y-16303503D01*
X14187434Y-16055884D02*
X14206482Y-16055884D01*
X14206482Y-16055884D02*
X14225529Y-16065408D01*
X14225529Y-16065408D02*
X14235053Y-16074931D01*
X14235053Y-16074931D02*
X14244577Y-16093979D01*
X14244577Y-16093979D02*
X14254101Y-16132074D01*
X14254101Y-16132074D02*
X14254101Y-16179693D01*
X14254101Y-16179693D02*
X14244577Y-16217788D01*
X14244577Y-16217788D02*
X14235053Y-16236836D01*
X14235053Y-16236836D02*
X14225529Y-16246360D01*
X14225529Y-16246360D02*
X14206482Y-16255884D01*
X14206482Y-16255884D02*
X14187434Y-16255884D01*
X14187434Y-16255884D02*
X14168386Y-16246360D01*
X14168386Y-16246360D02*
X14158863Y-16236836D01*
X14158863Y-16236836D02*
X14149339Y-16217788D01*
X14149339Y-16217788D02*
X14139815Y-16179693D01*
X14139815Y-16179693D02*
X14139815Y-16132074D01*
X14139815Y-16132074D02*
X14149339Y-16093979D01*
X14149339Y-16093979D02*
X14158863Y-16074931D01*
X14158863Y-16074931D02*
X14168386Y-16065408D01*
X14168386Y-16065408D02*
X14187434Y-16055884D01*
X14339815Y-16236836D02*
X14349339Y-16246360D01*
X14349339Y-16246360D02*
X14339815Y-16255884D01*
X14339815Y-16255884D02*
X14330291Y-16246360D01*
X14330291Y-16246360D02*
X14339815Y-16236836D01*
X14339815Y-16236836D02*
X14339815Y-16255884D01*
X14473148Y-16055884D02*
X14492196Y-16055884D01*
X14492196Y-16055884D02*
X14511244Y-16065408D01*
X14511244Y-16065408D02*
X14520767Y-16074931D01*
X14520767Y-16074931D02*
X14530291Y-16093979D01*
X14530291Y-16093979D02*
X14539815Y-16132074D01*
X14539815Y-16132074D02*
X14539815Y-16179693D01*
X14539815Y-16179693D02*
X14530291Y-16217788D01*
X14530291Y-16217788D02*
X14520767Y-16236836D01*
X14520767Y-16236836D02*
X14511244Y-16246360D01*
X14511244Y-16246360D02*
X14492196Y-16255884D01*
X14492196Y-16255884D02*
X14473148Y-16255884D01*
X14473148Y-16255884D02*
X14454101Y-16246360D01*
X14454101Y-16246360D02*
X14444577Y-16236836D01*
X14444577Y-16236836D02*
X14435053Y-16217788D01*
X14435053Y-16217788D02*
X14425529Y-16179693D01*
X14425529Y-16179693D02*
X14425529Y-16132074D01*
X14425529Y-16132074D02*
X14435053Y-16093979D01*
X14435053Y-16093979D02*
X14444577Y-16074931D01*
X14444577Y-16074931D02*
X14454101Y-16065408D01*
X14454101Y-16065408D02*
X14473148Y-16055884D01*
X14730291Y-16255884D02*
X14616006Y-16255884D01*
X14673148Y-16255884D02*
X14673148Y-16055884D01*
X14673148Y-16055884D02*
X14654101Y-16084455D01*
X14654101Y-16084455D02*
X14635053Y-16103503D01*
X14635053Y-16103503D02*
X14616006Y-16113027D01*
X14911244Y-16055884D02*
X14816006Y-16055884D01*
X14816006Y-16055884D02*
X14806482Y-16151122D01*
X14806482Y-16151122D02*
X14816006Y-16141598D01*
X14816006Y-16141598D02*
X14835053Y-16132074D01*
X14835053Y-16132074D02*
X14882672Y-16132074D01*
X14882672Y-16132074D02*
X14901720Y-16141598D01*
X14901720Y-16141598D02*
X14911244Y-16151122D01*
X14911244Y-16151122D02*
X14920767Y-16170169D01*
X14920767Y-16170169D02*
X14920767Y-16217788D01*
X14920767Y-16217788D02*
X14911244Y-16236836D01*
X14911244Y-16236836D02*
X14901720Y-16246360D01*
X14901720Y-16246360D02*
X14882672Y-16255884D01*
X14882672Y-16255884D02*
X14835053Y-16255884D01*
X14835053Y-16255884D02*
X14816006Y-16246360D01*
X14816006Y-16246360D02*
X14806482Y-16236836D01*
X14987434Y-16055884D02*
X15120767Y-16055884D01*
X15120767Y-16055884D02*
X15035053Y-16255884D01*
X15187434Y-16055884D02*
X15187434Y-16093979D01*
X15263625Y-16055884D02*
X15263625Y-16093979D01*
X15558863Y-16332074D02*
X15549339Y-16322550D01*
X15549339Y-16322550D02*
X15530291Y-16293979D01*
X15530291Y-16293979D02*
X15520768Y-16274931D01*
X15520768Y-16274931D02*
X15511244Y-16246360D01*
X15511244Y-16246360D02*
X15501720Y-16198741D01*
X15501720Y-16198741D02*
X15501720Y-16160646D01*
X15501720Y-16160646D02*
X15511244Y-16113027D01*
X15511244Y-16113027D02*
X15520768Y-16084455D01*
X15520768Y-16084455D02*
X15530291Y-16065408D01*
X15530291Y-16065408D02*
X15549339Y-16036836D01*
X15549339Y-16036836D02*
X15558863Y-16027312D01*
X15739815Y-16255884D02*
X15625529Y-16255884D01*
X15682672Y-16255884D02*
X15682672Y-16055884D01*
X15682672Y-16055884D02*
X15663625Y-16084455D01*
X15663625Y-16084455D02*
X15644577Y-16103503D01*
X15644577Y-16103503D02*
X15625529Y-16113027D01*
X15977910Y-16255884D02*
X15977910Y-16055884D01*
X16063625Y-16255884D02*
X16063625Y-16151122D01*
X16063625Y-16151122D02*
X16054101Y-16132074D01*
X16054101Y-16132074D02*
X16035053Y-16122550D01*
X16035053Y-16122550D02*
X16006482Y-16122550D01*
X16006482Y-16122550D02*
X15987434Y-16132074D01*
X15987434Y-16132074D02*
X15977910Y-16141598D01*
X16187434Y-16255884D02*
X16168387Y-16246360D01*
X16168387Y-16246360D02*
X16158863Y-16236836D01*
X16158863Y-16236836D02*
X16149339Y-16217788D01*
X16149339Y-16217788D02*
X16149339Y-16160646D01*
X16149339Y-16160646D02*
X16158863Y-16141598D01*
X16158863Y-16141598D02*
X16168387Y-16132074D01*
X16168387Y-16132074D02*
X16187434Y-16122550D01*
X16187434Y-16122550D02*
X16216006Y-16122550D01*
X16216006Y-16122550D02*
X16235053Y-16132074D01*
X16235053Y-16132074D02*
X16244577Y-16141598D01*
X16244577Y-16141598D02*
X16254101Y-16160646D01*
X16254101Y-16160646D02*
X16254101Y-16217788D01*
X16254101Y-16217788D02*
X16244577Y-16236836D01*
X16244577Y-16236836D02*
X16235053Y-16246360D01*
X16235053Y-16246360D02*
X16216006Y-16255884D01*
X16216006Y-16255884D02*
X16187434Y-16255884D01*
X16368387Y-16255884D02*
X16349339Y-16246360D01*
X16349339Y-16246360D02*
X16339815Y-16227312D01*
X16339815Y-16227312D02*
X16339815Y-16055884D01*
X16520768Y-16246360D02*
X16501720Y-16255884D01*
X16501720Y-16255884D02*
X16463625Y-16255884D01*
X16463625Y-16255884D02*
X16444577Y-16246360D01*
X16444577Y-16246360D02*
X16435053Y-16227312D01*
X16435053Y-16227312D02*
X16435053Y-16151122D01*
X16435053Y-16151122D02*
X16444577Y-16132074D01*
X16444577Y-16132074D02*
X16463625Y-16122550D01*
X16463625Y-16122550D02*
X16501720Y-16122550D01*
X16501720Y-16122550D02*
X16520768Y-16132074D01*
X16520768Y-16132074D02*
X16530291Y-16151122D01*
X16530291Y-16151122D02*
X16530291Y-16170169D01*
X16530291Y-16170169D02*
X16435053Y-16189217D01*
X16596958Y-16332074D02*
X16606482Y-16322550D01*
X16606482Y-16322550D02*
X16625530Y-16293979D01*
X16625530Y-16293979D02*
X16635053Y-16274931D01*
X16635053Y-16274931D02*
X16644577Y-16246360D01*
X16644577Y-16246360D02*
X16654101Y-16198741D01*
X16654101Y-16198741D02*
X16654101Y-16160646D01*
X16654101Y-16160646D02*
X16644577Y-16113027D01*
X16644577Y-16113027D02*
X16635053Y-16084455D01*
X16635053Y-16084455D02*
X16625530Y-16065408D01*
X16625530Y-16065408D02*
X16606482Y-16036836D01*
X16606482Y-16036836D02*
X16596958Y-16027312D01*
D10*
X11983800Y-16428400D02*
G75*
G02*
X11883800Y-16428400I-50000J0D01*
G01*
X11883800Y-16428400D02*
G75*
G02*
X11983800Y-16428400I50000J0D01*
G01*
D11*
X12349339Y-16519884D02*
X12235053Y-16519884D01*
X12292196Y-16519884D02*
X12292196Y-16319884D01*
X12292196Y-16319884D02*
X12273148Y-16348455D01*
X12273148Y-16348455D02*
X12254101Y-16367503D01*
X12254101Y-16367503D02*
X12235053Y-16377027D01*
X12435053Y-16500836D02*
X12444577Y-16510360D01*
X12444577Y-16510360D02*
X12435053Y-16519884D01*
X12435053Y-16519884D02*
X12425529Y-16510360D01*
X12425529Y-16510360D02*
X12435053Y-16500836D01*
X12435053Y-16500836D02*
X12435053Y-16519884D01*
X12568386Y-16319884D02*
X12587434Y-16319884D01*
X12587434Y-16319884D02*
X12606482Y-16329408D01*
X12606482Y-16329408D02*
X12616005Y-16338931D01*
X12616005Y-16338931D02*
X12625529Y-16357979D01*
X12625529Y-16357979D02*
X12635053Y-16396074D01*
X12635053Y-16396074D02*
X12635053Y-16443693D01*
X12635053Y-16443693D02*
X12625529Y-16481788D01*
X12625529Y-16481788D02*
X12616005Y-16500836D01*
X12616005Y-16500836D02*
X12606482Y-16510360D01*
X12606482Y-16510360D02*
X12587434Y-16519884D01*
X12587434Y-16519884D02*
X12568386Y-16519884D01*
X12568386Y-16519884D02*
X12549339Y-16510360D01*
X12549339Y-16510360D02*
X12539815Y-16500836D01*
X12539815Y-16500836D02*
X12530291Y-16481788D01*
X12530291Y-16481788D02*
X12520767Y-16443693D01*
X12520767Y-16443693D02*
X12520767Y-16396074D01*
X12520767Y-16396074D02*
X12530291Y-16357979D01*
X12530291Y-16357979D02*
X12539815Y-16338931D01*
X12539815Y-16338931D02*
X12549339Y-16329408D01*
X12549339Y-16329408D02*
X12568386Y-16319884D01*
X12758862Y-16319884D02*
X12777910Y-16319884D01*
X12777910Y-16319884D02*
X12796958Y-16329408D01*
X12796958Y-16329408D02*
X12806482Y-16338931D01*
X12806482Y-16338931D02*
X12816005Y-16357979D01*
X12816005Y-16357979D02*
X12825529Y-16396074D01*
X12825529Y-16396074D02*
X12825529Y-16443693D01*
X12825529Y-16443693D02*
X12816005Y-16481788D01*
X12816005Y-16481788D02*
X12806482Y-16500836D01*
X12806482Y-16500836D02*
X12796958Y-16510360D01*
X12796958Y-16510360D02*
X12777910Y-16519884D01*
X12777910Y-16519884D02*
X12758862Y-16519884D01*
X12758862Y-16519884D02*
X12739815Y-16510360D01*
X12739815Y-16510360D02*
X12730291Y-16500836D01*
X12730291Y-16500836D02*
X12720767Y-16481788D01*
X12720767Y-16481788D02*
X12711243Y-16443693D01*
X12711243Y-16443693D02*
X12711243Y-16396074D01*
X12711243Y-16396074D02*
X12720767Y-16357979D01*
X12720767Y-16357979D02*
X12730291Y-16338931D01*
X12730291Y-16338931D02*
X12739815Y-16329408D01*
X12739815Y-16329408D02*
X12758862Y-16319884D01*
X12949339Y-16319884D02*
X12968386Y-16319884D01*
X12968386Y-16319884D02*
X12987434Y-16329408D01*
X12987434Y-16329408D02*
X12996958Y-16338931D01*
X12996958Y-16338931D02*
X13006482Y-16357979D01*
X13006482Y-16357979D02*
X13016005Y-16396074D01*
X13016005Y-16396074D02*
X13016005Y-16443693D01*
X13016005Y-16443693D02*
X13006482Y-16481788D01*
X13006482Y-16481788D02*
X12996958Y-16500836D01*
X12996958Y-16500836D02*
X12987434Y-16510360D01*
X12987434Y-16510360D02*
X12968386Y-16519884D01*
X12968386Y-16519884D02*
X12949339Y-16519884D01*
X12949339Y-16519884D02*
X12930291Y-16510360D01*
X12930291Y-16510360D02*
X12920767Y-16500836D01*
X12920767Y-16500836D02*
X12911243Y-16481788D01*
X12911243Y-16481788D02*
X12901720Y-16443693D01*
X12901720Y-16443693D02*
X12901720Y-16396074D01*
X12901720Y-16396074D02*
X12911243Y-16357979D01*
X12911243Y-16357979D02*
X12920767Y-16338931D01*
X12920767Y-16338931D02*
X12930291Y-16329408D01*
X12930291Y-16329408D02*
X12949339Y-16319884D01*
X13101720Y-16519884D02*
X13101720Y-16386550D01*
X13101720Y-16405598D02*
X13111243Y-16396074D01*
X13111243Y-16396074D02*
X13130291Y-16386550D01*
X13130291Y-16386550D02*
X13158863Y-16386550D01*
X13158863Y-16386550D02*
X13177910Y-16396074D01*
X13177910Y-16396074D02*
X13187434Y-16415122D01*
X13187434Y-16415122D02*
X13187434Y-16519884D01*
X13187434Y-16415122D02*
X13196958Y-16396074D01*
X13196958Y-16396074D02*
X13216005Y-16386550D01*
X13216005Y-16386550D02*
X13244577Y-16386550D01*
X13244577Y-16386550D02*
X13263624Y-16396074D01*
X13263624Y-16396074D02*
X13273148Y-16415122D01*
X13273148Y-16415122D02*
X13273148Y-16519884D01*
X13368386Y-16519884D02*
X13368386Y-16386550D01*
X13368386Y-16405598D02*
X13377910Y-16396074D01*
X13377910Y-16396074D02*
X13396958Y-16386550D01*
X13396958Y-16386550D02*
X13425529Y-16386550D01*
X13425529Y-16386550D02*
X13444577Y-16396074D01*
X13444577Y-16396074D02*
X13454101Y-16415122D01*
X13454101Y-16415122D02*
X13454101Y-16519884D01*
X13454101Y-16415122D02*
X13463624Y-16396074D01*
X13463624Y-16396074D02*
X13482672Y-16386550D01*
X13482672Y-16386550D02*
X13511243Y-16386550D01*
X13511243Y-16386550D02*
X13530291Y-16396074D01*
X13530291Y-16396074D02*
X13539815Y-16415122D01*
X13539815Y-16415122D02*
X13539815Y-16519884D01*
X13930291Y-16310360D02*
X13758863Y-16567503D01*
X14187434Y-16319884D02*
X14206482Y-16319884D01*
X14206482Y-16319884D02*
X14225529Y-16329408D01*
X14225529Y-16329408D02*
X14235053Y-16338931D01*
X14235053Y-16338931D02*
X14244577Y-16357979D01*
X14244577Y-16357979D02*
X14254101Y-16396074D01*
X14254101Y-16396074D02*
X14254101Y-16443693D01*
X14254101Y-16443693D02*
X14244577Y-16481788D01*
X14244577Y-16481788D02*
X14235053Y-16500836D01*
X14235053Y-16500836D02*
X14225529Y-16510360D01*
X14225529Y-16510360D02*
X14206482Y-16519884D01*
X14206482Y-16519884D02*
X14187434Y-16519884D01*
X14187434Y-16519884D02*
X14168386Y-16510360D01*
X14168386Y-16510360D02*
X14158863Y-16500836D01*
X14158863Y-16500836D02*
X14149339Y-16481788D01*
X14149339Y-16481788D02*
X14139815Y-16443693D01*
X14139815Y-16443693D02*
X14139815Y-16396074D01*
X14139815Y-16396074D02*
X14149339Y-16357979D01*
X14149339Y-16357979D02*
X14158863Y-16338931D01*
X14158863Y-16338931D02*
X14168386Y-16329408D01*
X14168386Y-16329408D02*
X14187434Y-16319884D01*
X14339815Y-16500836D02*
X14349339Y-16510360D01*
X14349339Y-16510360D02*
X14339815Y-16519884D01*
X14339815Y-16519884D02*
X14330291Y-16510360D01*
X14330291Y-16510360D02*
X14339815Y-16500836D01*
X14339815Y-16500836D02*
X14339815Y-16519884D01*
X14473148Y-16319884D02*
X14492196Y-16319884D01*
X14492196Y-16319884D02*
X14511244Y-16329408D01*
X14511244Y-16329408D02*
X14520767Y-16338931D01*
X14520767Y-16338931D02*
X14530291Y-16357979D01*
X14530291Y-16357979D02*
X14539815Y-16396074D01*
X14539815Y-16396074D02*
X14539815Y-16443693D01*
X14539815Y-16443693D02*
X14530291Y-16481788D01*
X14530291Y-16481788D02*
X14520767Y-16500836D01*
X14520767Y-16500836D02*
X14511244Y-16510360D01*
X14511244Y-16510360D02*
X14492196Y-16519884D01*
X14492196Y-16519884D02*
X14473148Y-16519884D01*
X14473148Y-16519884D02*
X14454101Y-16510360D01*
X14454101Y-16510360D02*
X14444577Y-16500836D01*
X14444577Y-16500836D02*
X14435053Y-16481788D01*
X14435053Y-16481788D02*
X14425529Y-16443693D01*
X14425529Y-16443693D02*
X14425529Y-16396074D01*
X14425529Y-16396074D02*
X14435053Y-16357979D01*
X14435053Y-16357979D02*
X14444577Y-16338931D01*
X14444577Y-16338931D02*
X14454101Y-16329408D01*
X14454101Y-16329408D02*
X14473148Y-16319884D01*
X14606482Y-16319884D02*
X14730291Y-16319884D01*
X14730291Y-16319884D02*
X14663625Y-16396074D01*
X14663625Y-16396074D02*
X14692196Y-16396074D01*
X14692196Y-16396074D02*
X14711244Y-16405598D01*
X14711244Y-16405598D02*
X14720767Y-16415122D01*
X14720767Y-16415122D02*
X14730291Y-16434169D01*
X14730291Y-16434169D02*
X14730291Y-16481788D01*
X14730291Y-16481788D02*
X14720767Y-16500836D01*
X14720767Y-16500836D02*
X14711244Y-16510360D01*
X14711244Y-16510360D02*
X14692196Y-16519884D01*
X14692196Y-16519884D02*
X14635053Y-16519884D01*
X14635053Y-16519884D02*
X14616006Y-16510360D01*
X14616006Y-16510360D02*
X14606482Y-16500836D01*
X14825529Y-16519884D02*
X14863625Y-16519884D01*
X14863625Y-16519884D02*
X14882672Y-16510360D01*
X14882672Y-16510360D02*
X14892196Y-16500836D01*
X14892196Y-16500836D02*
X14911244Y-16472265D01*
X14911244Y-16472265D02*
X14920767Y-16434169D01*
X14920767Y-16434169D02*
X14920767Y-16357979D01*
X14920767Y-16357979D02*
X14911244Y-16338931D01*
X14911244Y-16338931D02*
X14901720Y-16329408D01*
X14901720Y-16329408D02*
X14882672Y-16319884D01*
X14882672Y-16319884D02*
X14844577Y-16319884D01*
X14844577Y-16319884D02*
X14825529Y-16329408D01*
X14825529Y-16329408D02*
X14816006Y-16338931D01*
X14816006Y-16338931D02*
X14806482Y-16357979D01*
X14806482Y-16357979D02*
X14806482Y-16405598D01*
X14806482Y-16405598D02*
X14816006Y-16424646D01*
X14816006Y-16424646D02*
X14825529Y-16434169D01*
X14825529Y-16434169D02*
X14844577Y-16443693D01*
X14844577Y-16443693D02*
X14882672Y-16443693D01*
X14882672Y-16443693D02*
X14901720Y-16434169D01*
X14901720Y-16434169D02*
X14911244Y-16424646D01*
X14911244Y-16424646D02*
X14920767Y-16405598D01*
X15092196Y-16386550D02*
X15092196Y-16519884D01*
X15044577Y-16310360D02*
X14996958Y-16453217D01*
X14996958Y-16453217D02*
X15120767Y-16453217D01*
X15187434Y-16319884D02*
X15187434Y-16357979D01*
X15263625Y-16319884D02*
X15263625Y-16357979D01*
X15558863Y-16596074D02*
X15549339Y-16586550D01*
X15549339Y-16586550D02*
X15530291Y-16557979D01*
X15530291Y-16557979D02*
X15520768Y-16538931D01*
X15520768Y-16538931D02*
X15511244Y-16510360D01*
X15511244Y-16510360D02*
X15501720Y-16462741D01*
X15501720Y-16462741D02*
X15501720Y-16424646D01*
X15501720Y-16424646D02*
X15511244Y-16377027D01*
X15511244Y-16377027D02*
X15520768Y-16348455D01*
X15520768Y-16348455D02*
X15530291Y-16329408D01*
X15530291Y-16329408D02*
X15549339Y-16300836D01*
X15549339Y-16300836D02*
X15558863Y-16291312D01*
X15720768Y-16386550D02*
X15720768Y-16519884D01*
X15673148Y-16310360D02*
X15625529Y-16453217D01*
X15625529Y-16453217D02*
X15749339Y-16453217D01*
X15835053Y-16519884D02*
X15873148Y-16519884D01*
X15873148Y-16519884D02*
X15892196Y-16510360D01*
X15892196Y-16510360D02*
X15901720Y-16500836D01*
X15901720Y-16500836D02*
X15920768Y-16472265D01*
X15920768Y-16472265D02*
X15930291Y-16434169D01*
X15930291Y-16434169D02*
X15930291Y-16357979D01*
X15930291Y-16357979D02*
X15920768Y-16338931D01*
X15920768Y-16338931D02*
X15911244Y-16329408D01*
X15911244Y-16329408D02*
X15892196Y-16319884D01*
X15892196Y-16319884D02*
X15854101Y-16319884D01*
X15854101Y-16319884D02*
X15835053Y-16329408D01*
X15835053Y-16329408D02*
X15825529Y-16338931D01*
X15825529Y-16338931D02*
X15816006Y-16357979D01*
X15816006Y-16357979D02*
X15816006Y-16405598D01*
X15816006Y-16405598D02*
X15825529Y-16424646D01*
X15825529Y-16424646D02*
X15835053Y-16434169D01*
X15835053Y-16434169D02*
X15854101Y-16443693D01*
X15854101Y-16443693D02*
X15892196Y-16443693D01*
X15892196Y-16443693D02*
X15911244Y-16434169D01*
X15911244Y-16434169D02*
X15920768Y-16424646D01*
X15920768Y-16424646D02*
X15930291Y-16405598D01*
X16101720Y-16319884D02*
X16063625Y-16319884D01*
X16063625Y-16319884D02*
X16044577Y-16329408D01*
X16044577Y-16329408D02*
X16035053Y-16338931D01*
X16035053Y-16338931D02*
X16016006Y-16367503D01*
X16016006Y-16367503D02*
X16006482Y-16405598D01*
X16006482Y-16405598D02*
X16006482Y-16481788D01*
X16006482Y-16481788D02*
X16016006Y-16500836D01*
X16016006Y-16500836D02*
X16025529Y-16510360D01*
X16025529Y-16510360D02*
X16044577Y-16519884D01*
X16044577Y-16519884D02*
X16082672Y-16519884D01*
X16082672Y-16519884D02*
X16101720Y-16510360D01*
X16101720Y-16510360D02*
X16111244Y-16500836D01*
X16111244Y-16500836D02*
X16120768Y-16481788D01*
X16120768Y-16481788D02*
X16120768Y-16434169D01*
X16120768Y-16434169D02*
X16111244Y-16415122D01*
X16111244Y-16415122D02*
X16101720Y-16405598D01*
X16101720Y-16405598D02*
X16082672Y-16396074D01*
X16082672Y-16396074D02*
X16044577Y-16396074D01*
X16044577Y-16396074D02*
X16025529Y-16405598D01*
X16025529Y-16405598D02*
X16016006Y-16415122D01*
X16016006Y-16415122D02*
X16006482Y-16434169D01*
X16358863Y-16519884D02*
X16358863Y-16319884D01*
X16444577Y-16519884D02*
X16444577Y-16415122D01*
X16444577Y-16415122D02*
X16435053Y-16396074D01*
X16435053Y-16396074D02*
X16416006Y-16386550D01*
X16416006Y-16386550D02*
X16387434Y-16386550D01*
X16387434Y-16386550D02*
X16368387Y-16396074D01*
X16368387Y-16396074D02*
X16358863Y-16405598D01*
X16568387Y-16519884D02*
X16549339Y-16510360D01*
X16549339Y-16510360D02*
X16539815Y-16500836D01*
X16539815Y-16500836D02*
X16530291Y-16481788D01*
X16530291Y-16481788D02*
X16530291Y-16424646D01*
X16530291Y-16424646D02*
X16539815Y-16405598D01*
X16539815Y-16405598D02*
X16549339Y-16396074D01*
X16549339Y-16396074D02*
X16568387Y-16386550D01*
X16568387Y-16386550D02*
X16596958Y-16386550D01*
X16596958Y-16386550D02*
X16616006Y-16396074D01*
X16616006Y-16396074D02*
X16625530Y-16405598D01*
X16625530Y-16405598D02*
X16635053Y-16424646D01*
X16635053Y-16424646D02*
X16635053Y-16481788D01*
X16635053Y-16481788D02*
X16625530Y-16500836D01*
X16625530Y-16500836D02*
X16616006Y-16510360D01*
X16616006Y-16510360D02*
X16596958Y-16519884D01*
X16596958Y-16519884D02*
X16568387Y-16519884D01*
X16749339Y-16519884D02*
X16730291Y-16510360D01*
X16730291Y-16510360D02*
X16720768Y-16491312D01*
X16720768Y-16491312D02*
X16720768Y-16319884D01*
X16901720Y-16510360D02*
X16882673Y-16519884D01*
X16882673Y-16519884D02*
X16844577Y-16519884D01*
X16844577Y-16519884D02*
X16825530Y-16510360D01*
X16825530Y-16510360D02*
X16816006Y-16491312D01*
X16816006Y-16491312D02*
X16816006Y-16415122D01*
X16816006Y-16415122D02*
X16825530Y-16396074D01*
X16825530Y-16396074D02*
X16844577Y-16386550D01*
X16844577Y-16386550D02*
X16882673Y-16386550D01*
X16882673Y-16386550D02*
X16901720Y-16396074D01*
X16901720Y-16396074D02*
X16911244Y-16415122D01*
X16911244Y-16415122D02*
X16911244Y-16434169D01*
X16911244Y-16434169D02*
X16816006Y-16453217D01*
X16987434Y-16510360D02*
X17006482Y-16519884D01*
X17006482Y-16519884D02*
X17044577Y-16519884D01*
X17044577Y-16519884D02*
X17063625Y-16510360D01*
X17063625Y-16510360D02*
X17073149Y-16491312D01*
X17073149Y-16491312D02*
X17073149Y-16481788D01*
X17073149Y-16481788D02*
X17063625Y-16462741D01*
X17063625Y-16462741D02*
X17044577Y-16453217D01*
X17044577Y-16453217D02*
X17016006Y-16453217D01*
X17016006Y-16453217D02*
X16996958Y-16443693D01*
X16996958Y-16443693D02*
X16987434Y-16424646D01*
X16987434Y-16424646D02*
X16987434Y-16415122D01*
X16987434Y-16415122D02*
X16996958Y-16396074D01*
X16996958Y-16396074D02*
X17016006Y-16386550D01*
X17016006Y-16386550D02*
X17044577Y-16386550D01*
X17044577Y-16386550D02*
X17063625Y-16396074D01*
X17139815Y-16596074D02*
X17149339Y-16586550D01*
X17149339Y-16586550D02*
X17168387Y-16557979D01*
X17168387Y-16557979D02*
X17177911Y-16538931D01*
X17177911Y-16538931D02*
X17187434Y-16510360D01*
X17187434Y-16510360D02*
X17196958Y-16462741D01*
X17196958Y-16462741D02*
X17196958Y-16424646D01*
X17196958Y-16424646D02*
X17187434Y-16377027D01*
X17187434Y-16377027D02*
X17177911Y-16348455D01*
X17177911Y-16348455D02*
X17168387Y-16329408D01*
X17168387Y-16329408D02*
X17149339Y-16300836D01*
X17149339Y-16300836D02*
X17139815Y-16291312D01*
M02*
