M48
; DRILL file {KiCad 8.0.3-8.0.3-0~ubuntu24.04.1} date 2024-06-19T14:37:17-0500
; FORMAT={-:-/ absolute / metric / decimal}
; #@! TF.CreationDate,2024-06-19T14:37:17-05:00
; #@! TF.GenerationSoftware,Kicad,Pcbnew,8.0.3-8.0.3-0~ubuntu24.04.1
; #@! TF.FileFunction,Plated,1,2,PTH
FMAT,2
METRIC
; #@! TA.AperFunction,Plated,PTH,ViaDrill
T1C0.400
; #@! TA.AperFunction,Plated,PTH,ComponentDrill
T2C1.000
%
G90
G05
T1
X155.014Y-148.156
T2
X122.174Y-18.288
X122.174Y-20.828
X122.174Y-23.368
X122.174Y-25.908
X122.174Y-28.448
X122.174Y-30.988
X122.174Y-33.528
X122.174Y-36.068
X122.174Y-38.608
X122.174Y-41.148
X122.174Y-43.688
X122.174Y-46.228
X122.174Y-48.768
X122.174Y-51.308
X122.174Y-53.848
X122.174Y-56.388
X122.174Y-58.928
X122.174Y-61.468
X122.174Y-64.008
X122.174Y-66.548
X122.174Y-69.088
X122.174Y-71.628
X122.174Y-74.168
X122.174Y-76.708
X124.714Y-18.288
X124.714Y-20.828
X124.714Y-23.368
X124.714Y-25.908
X124.714Y-28.448
X124.714Y-30.988
X124.714Y-33.528
X124.714Y-36.068
X124.714Y-38.608
X124.714Y-41.148
X124.714Y-43.688
X124.714Y-46.228
X124.714Y-48.768
X124.714Y-51.308
X124.714Y-53.848
X124.714Y-56.388
X124.714Y-58.928
X124.714Y-61.468
X124.714Y-64.008
X124.714Y-66.548
X124.714Y-69.088
X124.714Y-71.628
X124.714Y-74.168
X124.714Y-76.708
X124.714Y-89.408
X124.714Y-91.948
X124.714Y-103.754
X124.714Y-106.294
X127.254Y-18.288
X127.254Y-20.828
X127.254Y-23.368
X127.254Y-25.908
X127.254Y-28.448
X127.254Y-30.988
X127.254Y-33.528
X127.254Y-36.068
X127.254Y-38.608
X127.254Y-41.148
X127.254Y-43.688
X127.254Y-46.228
X127.254Y-48.768
X127.254Y-51.308
X127.254Y-53.848
X127.254Y-56.388
X127.254Y-58.928
X127.254Y-61.468
X127.254Y-64.008
X127.254Y-66.548
X127.254Y-69.088
X127.254Y-71.628
X127.254Y-74.168
X127.254Y-76.708
X127.254Y-89.408
X127.254Y-91.948
X127.254Y-103.754
X127.254Y-106.294
X129.794Y-18.288
X129.794Y-20.828
X129.794Y-23.368
X129.794Y-25.908
X129.794Y-28.448
X129.794Y-30.988
X129.794Y-33.528
X129.794Y-36.068
X129.794Y-38.608
X129.794Y-41.148
X129.794Y-43.688
X129.794Y-46.228
X129.794Y-48.768
X129.794Y-51.308
X129.794Y-53.848
X129.794Y-56.388
X129.794Y-58.928
X129.794Y-61.468
X129.794Y-64.008
X129.794Y-66.548
X129.794Y-69.088
X129.794Y-71.628
X129.794Y-74.168
X129.794Y-76.708
X129.794Y-89.408
X129.794Y-91.948
X129.794Y-103.754
X129.794Y-106.294
X132.334Y-18.288
X132.334Y-20.828
X132.334Y-23.368
X132.334Y-25.908
X132.334Y-28.448
X132.334Y-30.988
X132.334Y-33.528
X132.334Y-36.068
X132.334Y-38.608
X132.334Y-41.148
X132.334Y-43.688
X132.334Y-46.228
X132.334Y-48.768
X132.334Y-51.308
X132.334Y-53.848
X132.334Y-56.388
X132.334Y-58.928
X132.334Y-61.468
X132.334Y-64.008
X132.334Y-66.548
X132.334Y-69.088
X132.334Y-71.628
X132.334Y-74.168
X132.334Y-76.708
X132.334Y-89.408
X132.334Y-91.948
X132.334Y-103.754
X132.334Y-106.294
X134.874Y-18.288
X134.874Y-20.828
X134.874Y-23.368
X134.874Y-25.908
X134.874Y-28.448
X134.874Y-30.988
X134.874Y-33.528
X134.874Y-36.068
X134.874Y-38.608
X134.874Y-41.148
X134.874Y-43.688
X134.874Y-46.228
X134.874Y-48.768
X134.874Y-51.308
X134.874Y-53.848
X134.874Y-56.388
X134.874Y-58.928
X134.874Y-61.468
X134.874Y-64.008
X134.874Y-66.548
X134.874Y-69.088
X134.874Y-71.628
X134.874Y-74.168
X134.874Y-76.708
X134.874Y-89.408
X134.874Y-91.948
X134.874Y-103.754
X134.874Y-106.294
X137.414Y-18.288
X137.414Y-20.828
X137.414Y-23.368
X137.414Y-25.908
X137.414Y-28.448
X137.414Y-30.988
X137.414Y-33.528
X137.414Y-36.068
X137.414Y-38.608
X137.414Y-41.148
X137.414Y-43.688
X137.414Y-46.228
X137.414Y-48.768
X137.414Y-51.308
X137.414Y-53.848
X137.414Y-56.388
X137.414Y-58.928
X137.414Y-61.468
X137.414Y-64.008
X137.414Y-66.548
X137.414Y-69.088
X137.414Y-71.628
X137.414Y-74.168
X137.414Y-76.708
X137.414Y-89.408
X137.414Y-91.948
X137.414Y-103.754
X137.414Y-106.294
X139.954Y-18.288
X139.954Y-20.828
X139.954Y-23.368
X139.954Y-25.908
X139.954Y-28.448
X139.954Y-30.988
X139.954Y-33.528
X139.954Y-36.068
X139.954Y-38.608
X139.954Y-41.148
X139.954Y-43.688
X139.954Y-46.228
X139.954Y-48.768
X139.954Y-51.308
X139.954Y-53.848
X139.954Y-56.388
X139.954Y-58.928
X139.954Y-61.468
X139.954Y-64.008
X139.954Y-66.548
X139.954Y-69.088
X139.954Y-71.628
X139.954Y-74.168
X139.954Y-76.708
X139.954Y-89.408
X139.954Y-91.948
X139.954Y-103.754
X139.954Y-106.294
X142.494Y-18.288
X142.494Y-20.828
X142.494Y-23.368
X142.494Y-25.908
X142.494Y-28.448
X142.494Y-30.988
X142.494Y-33.528
X142.494Y-36.068
X142.494Y-38.608
X142.494Y-41.148
X142.494Y-43.688
X142.494Y-46.228
X142.494Y-48.768
X142.494Y-51.308
X142.494Y-53.848
X142.494Y-56.388
X142.494Y-58.928
X142.494Y-61.468
X142.494Y-64.008
X142.494Y-66.548
X142.494Y-69.088
X142.494Y-71.628
X142.494Y-74.168
X142.494Y-76.708
X142.494Y-89.408
X142.494Y-91.948
X142.494Y-103.754
X142.494Y-106.294
X145.034Y-18.288
X145.034Y-20.828
X145.034Y-23.368
X145.034Y-25.908
X145.034Y-28.448
X145.034Y-30.988
X145.034Y-33.528
X145.034Y-36.068
X145.034Y-38.608
X145.034Y-41.148
X145.034Y-43.688
X145.034Y-46.228
X145.034Y-48.768
X145.034Y-51.308
X145.034Y-53.848
X145.034Y-56.388
X145.034Y-58.928
X145.034Y-61.468
X145.034Y-64.008
X145.034Y-66.548
X145.034Y-69.088
X145.034Y-71.628
X145.034Y-74.168
X145.034Y-76.708
X145.034Y-89.408
X145.034Y-91.948
X145.034Y-103.754
X145.034Y-106.294
X147.574Y-18.288
X147.574Y-20.828
X147.574Y-23.368
X147.574Y-25.908
X147.574Y-28.448
X147.574Y-30.988
X147.574Y-33.528
X147.574Y-36.068
X147.574Y-38.608
X147.574Y-41.148
X147.574Y-43.688
X147.574Y-46.228
X147.574Y-48.768
X147.574Y-51.308
X147.574Y-53.848
X147.574Y-56.388
X147.574Y-58.928
X147.574Y-61.468
X147.574Y-64.008
X147.574Y-66.548
X147.574Y-69.088
X147.574Y-71.628
X147.574Y-74.168
X147.574Y-76.708
X147.574Y-89.408
X147.574Y-91.948
X147.574Y-103.754
X147.574Y-106.294
X150.114Y-18.288
X150.114Y-20.828
X150.114Y-23.368
X150.114Y-25.908
X150.114Y-28.448
X150.114Y-30.988
X150.114Y-33.528
X150.114Y-36.068
X150.114Y-38.608
X150.114Y-41.148
X150.114Y-43.688
X150.114Y-46.228
X150.114Y-48.768
X150.114Y-51.308
X150.114Y-53.848
X150.114Y-56.388
X150.114Y-58.928
X150.114Y-61.468
X150.114Y-64.008
X150.114Y-66.548
X150.114Y-69.088
X150.114Y-71.628
X150.114Y-74.168
X150.114Y-76.708
X150.114Y-89.408
X150.114Y-91.948
X150.114Y-103.754
X150.114Y-106.294
X152.654Y-18.288
X152.654Y-20.828
X152.654Y-23.368
X152.654Y-25.908
X152.654Y-28.448
X152.654Y-30.988
X152.654Y-33.528
X152.654Y-36.068
X152.654Y-38.608
X152.654Y-41.148
X152.654Y-43.688
X152.654Y-46.228
X152.654Y-48.768
X152.654Y-51.308
X152.654Y-53.848
X152.654Y-56.388
X152.654Y-58.928
X152.654Y-61.468
X152.654Y-64.008
X152.654Y-66.548
X152.654Y-69.088
X152.654Y-71.628
X152.654Y-74.168
X152.654Y-76.708
X152.654Y-89.408
X152.654Y-91.948
X152.654Y-103.754
X152.654Y-106.294
X155.194Y-18.288
X155.194Y-20.828
X155.194Y-23.368
X155.194Y-25.908
X155.194Y-28.448
X155.194Y-30.988
X155.194Y-33.528
X155.194Y-36.068
X155.194Y-38.608
X155.194Y-41.148
X155.194Y-43.688
X155.194Y-46.228
X155.194Y-48.768
X155.194Y-51.308
X155.194Y-53.848
X155.194Y-56.388
X155.194Y-58.928
X155.194Y-61.468
X155.194Y-64.008
X155.194Y-66.548
X155.194Y-69.088
X155.194Y-71.628
X155.194Y-74.168
X155.194Y-76.708
X155.194Y-89.408
X155.194Y-91.948
X155.194Y-103.754
X155.194Y-106.294
X157.734Y-18.288
X157.734Y-20.828
X157.734Y-23.368
X157.734Y-25.908
X157.734Y-28.448
X157.734Y-30.988
X157.734Y-33.528
X157.734Y-36.068
X157.734Y-38.608
X157.734Y-41.148
X157.734Y-43.688
X157.734Y-46.228
X157.734Y-48.768
X157.734Y-51.308
X157.734Y-53.848
X157.734Y-56.388
X157.734Y-58.928
X157.734Y-61.468
X157.734Y-64.008
X157.734Y-66.548
X157.734Y-69.088
X157.734Y-71.628
X157.734Y-74.168
X157.734Y-76.708
X157.734Y-89.408
X157.734Y-91.948
X157.734Y-103.754
X157.734Y-106.294
X160.274Y-18.288
X160.274Y-20.828
X160.274Y-23.368
X160.274Y-25.908
X160.274Y-28.448
X160.274Y-30.988
X160.274Y-33.528
X160.274Y-36.068
X160.274Y-38.608
X160.274Y-41.148
X160.274Y-43.688
X160.274Y-46.228
X160.274Y-48.768
X160.274Y-51.308
X160.274Y-53.848
X160.274Y-56.388
X160.274Y-58.928
X160.274Y-61.468
X160.274Y-64.008
X160.274Y-66.548
X160.274Y-69.088
X160.274Y-71.628
X160.274Y-74.168
X160.274Y-76.708
X160.274Y-89.408
X160.274Y-91.948
X160.274Y-103.754
X160.274Y-106.294
X162.814Y-18.288
X162.814Y-20.828
X162.814Y-23.368
X162.814Y-25.908
X162.814Y-28.448
X162.814Y-30.988
X162.814Y-33.528
X162.814Y-36.068
X162.814Y-38.608
X162.814Y-41.148
X162.814Y-43.688
X162.814Y-46.228
X162.814Y-48.768
X162.814Y-51.308
X162.814Y-53.848
X162.814Y-56.388
X162.814Y-58.928
X162.814Y-61.468
X162.814Y-64.008
X162.814Y-66.548
X162.814Y-69.088
X162.814Y-71.628
X162.814Y-74.168
X162.814Y-76.708
X162.814Y-89.408
X162.814Y-91.948
X162.814Y-103.754
X162.814Y-106.294
X165.354Y-18.288
X165.354Y-20.828
X165.354Y-23.368
X165.354Y-25.908
X165.354Y-28.448
X165.354Y-30.988
X165.354Y-33.528
X165.354Y-36.068
X165.354Y-38.608
X165.354Y-41.148
X165.354Y-43.688
X165.354Y-46.228
X165.354Y-48.768
X165.354Y-51.308
X165.354Y-53.848
X165.354Y-56.388
X165.354Y-58.928
X165.354Y-61.468
X165.354Y-64.008
X165.354Y-66.548
X165.354Y-69.088
X165.354Y-71.628
X165.354Y-74.168
X165.354Y-76.708
M30
