%TF.GenerationSoftware,KiCad,Pcbnew,8.0.3-8.0.3-0~ubuntu24.04.1*%
%TF.CreationDate,2024-06-19T14:37:04-05:00*%
%TF.ProjectId,protopak64,70726f74-6f70-4616-9b36-342e6b696361,rev?*%
%TF.SameCoordinates,Original*%
%TF.FileFunction,Soldermask,Top*%
%TF.FilePolarity,Negative*%
%FSLAX46Y46*%
G04 Gerber Fmt 4.6, Leading zero omitted, Abs format (unit mm)*
G04 Created by KiCad (PCBNEW 8.0.3-8.0.3-0~ubuntu24.04.1) date 2024-06-19 14:37:04*
%MOMM*%
%LPD*%
G01*
G04 APERTURE LIST*
%ADD10C,0.120000*%
%ADD11C,0.000000*%
%ADD12R,1.700000X1.700000*%
%ADD13O,1.700000X1.700000*%
%ADD14R,1.000000X5.400000*%
%ADD15R,2.000000X2.000000*%
%ADD16C,2.000000*%
G04 APERTURE END LIST*
D10*
X131064000Y-155219000D02*
X156464000Y-155219000D01*
X156464000Y-149319000D01*
X131064000Y-149319000D01*
X131064000Y-155219000D01*
G36*
X131064000Y-155219000D02*
G01*
X156464000Y-155219000D01*
X156464000Y-149319000D01*
X131064000Y-149319000D01*
X131064000Y-155219000D01*
G37*
D11*
G36*
X163814000Y-77708000D02*
G01*
X161814000Y-77708000D01*
X161814000Y-21828000D01*
X125714000Y-21828000D01*
X125714000Y-77708000D01*
X123714000Y-77708000D01*
X123714000Y-19828000D01*
X163814000Y-19828000D01*
X163814000Y-77708000D01*
G37*
G36*
X166354000Y-77708000D02*
G01*
X164354000Y-77708000D01*
X164354000Y-19288000D01*
X123174000Y-19288000D01*
X123174000Y-77708000D01*
X121174000Y-77708000D01*
X121174000Y-17288000D01*
X166354000Y-17288000D01*
X166354000Y-77708000D01*
G37*
D12*
X162814000Y-89408000D03*
D13*
X162814000Y-91948000D03*
X160274000Y-89408000D03*
X160274000Y-91948000D03*
X157734000Y-89408000D03*
X157734000Y-91948000D03*
X155194000Y-89408000D03*
X155194000Y-91948000D03*
X152654000Y-89408000D03*
X152654000Y-91948000D03*
X150114000Y-89408000D03*
X150114000Y-91948000D03*
X147574000Y-89408000D03*
X147574000Y-91948000D03*
X145034000Y-89408000D03*
X145034000Y-91948000D03*
X142494000Y-89408000D03*
X142494000Y-91948000D03*
X139954000Y-89408000D03*
X139954000Y-91948000D03*
X137414000Y-89408000D03*
X137414000Y-91948000D03*
X134874000Y-89408000D03*
X134874000Y-91948000D03*
X132334000Y-89408000D03*
X132334000Y-91948000D03*
X129794000Y-89408000D03*
X129794000Y-91948000D03*
X127254000Y-89408000D03*
X127254000Y-91948000D03*
X124714000Y-89408000D03*
X124714000Y-91948000D03*
D12*
X162814000Y-103754000D03*
D13*
X162814000Y-106294000D03*
X160274000Y-103754000D03*
X160274000Y-106294000D03*
X157734000Y-103754000D03*
X157734000Y-106294000D03*
X155194000Y-103754000D03*
X155194000Y-106294000D03*
X152654000Y-103754000D03*
X152654000Y-106294000D03*
X150114000Y-103754000D03*
X150114000Y-106294000D03*
X147574000Y-103754000D03*
X147574000Y-106294000D03*
X145034000Y-103754000D03*
X145034000Y-106294000D03*
X142494000Y-103754000D03*
X142494000Y-106294000D03*
X139954000Y-103754000D03*
X139954000Y-106294000D03*
X137414000Y-103754000D03*
X137414000Y-106294000D03*
X134874000Y-103754000D03*
X134874000Y-106294000D03*
X132334000Y-103754000D03*
X132334000Y-106294000D03*
X129794000Y-103754000D03*
X129794000Y-106294000D03*
X127254000Y-103754000D03*
X127254000Y-106294000D03*
X124714000Y-103754000D03*
X124714000Y-106294000D03*
D14*
X155014000Y-152019000D03*
X153514000Y-152019000D03*
X152014000Y-152019000D03*
X150514000Y-152019000D03*
X149014000Y-152019000D03*
X147514000Y-152019000D03*
X146014000Y-152019000D03*
X144514000Y-152019000D03*
X143014000Y-152019000D03*
X141514000Y-152019000D03*
X140014000Y-152019000D03*
X138514000Y-152019000D03*
X137014000Y-152019000D03*
X135514000Y-152019000D03*
X134014000Y-152019000D03*
X132514000Y-152019000D03*
D15*
X122174000Y-18288000D03*
X124714000Y-18288000D03*
X127254000Y-18288000D03*
X129794000Y-18288000D03*
X132334000Y-18288000D03*
X134874000Y-18288000D03*
X137414000Y-18288000D03*
X139954000Y-18288000D03*
X142494000Y-18288000D03*
X145034000Y-18288000D03*
X147574000Y-18288000D03*
X150114000Y-18288000D03*
X152654000Y-18288000D03*
X155194000Y-18288000D03*
X157734000Y-18288000D03*
X160274000Y-18288000D03*
X162814000Y-18288000D03*
X165354000Y-18288000D03*
X122174000Y-20828000D03*
X124714000Y-20828000D03*
X127254000Y-20828000D03*
X129794000Y-20828000D03*
X132334000Y-20828000D03*
X134874000Y-20828000D03*
X137414000Y-20828000D03*
X139954000Y-20828000D03*
X142494000Y-20828000D03*
X145034000Y-20828000D03*
X147574000Y-20828000D03*
X150114000Y-20828000D03*
X152654000Y-20828000D03*
X155194000Y-20828000D03*
X157734000Y-20828000D03*
X160274000Y-20828000D03*
X162814000Y-20828000D03*
X165354000Y-20828000D03*
X122174000Y-23368000D03*
X124714000Y-23368000D03*
D16*
X127254000Y-23368000D03*
X129794000Y-23368000D03*
X132334000Y-23368000D03*
X134874000Y-23368000D03*
X137414000Y-23368000D03*
X139954000Y-23368000D03*
X142494000Y-23368000D03*
X145034000Y-23368000D03*
X147574000Y-23368000D03*
X150114000Y-23368000D03*
X152654000Y-23368000D03*
X155194000Y-23368000D03*
X157734000Y-23368000D03*
X160274000Y-23368000D03*
D15*
X162814000Y-23368000D03*
X165354000Y-23368000D03*
X122174000Y-25908000D03*
X124714000Y-25908000D03*
D16*
X127254000Y-25908000D03*
X129794000Y-25908000D03*
X132334000Y-25908000D03*
X134874000Y-25908000D03*
X137414000Y-25908000D03*
X139954000Y-25908000D03*
X142494000Y-25908000D03*
X145034000Y-25908000D03*
X147574000Y-25908000D03*
X150114000Y-25908000D03*
X152654000Y-25908000D03*
X155194000Y-25908000D03*
X157734000Y-25908000D03*
X160274000Y-25908000D03*
D15*
X162814000Y-25908000D03*
X165354000Y-25908000D03*
X122174000Y-28448000D03*
X124714000Y-28448000D03*
D16*
X127254000Y-28448000D03*
X129794000Y-28448000D03*
X132334000Y-28448000D03*
X134874000Y-28448000D03*
X137414000Y-28448000D03*
X139954000Y-28448000D03*
X142494000Y-28448000D03*
X145034000Y-28448000D03*
X147574000Y-28448000D03*
X150114000Y-28448000D03*
X152654000Y-28448000D03*
X155194000Y-28448000D03*
X157734000Y-28448000D03*
X160274000Y-28448000D03*
D15*
X162814000Y-28448000D03*
X165354000Y-28448000D03*
X122174000Y-30988000D03*
X124714000Y-30988000D03*
D16*
X127254000Y-30988000D03*
X129794000Y-30988000D03*
X132334000Y-30988000D03*
X134874000Y-30988000D03*
X137414000Y-30988000D03*
X139954000Y-30988000D03*
X142494000Y-30988000D03*
X145034000Y-30988000D03*
X147574000Y-30988000D03*
X150114000Y-30988000D03*
X152654000Y-30988000D03*
X155194000Y-30988000D03*
X157734000Y-30988000D03*
X160274000Y-30988000D03*
D15*
X162814000Y-30988000D03*
X165354000Y-30988000D03*
X122174000Y-33528000D03*
X124714000Y-33528000D03*
D16*
X127254000Y-33528000D03*
X129794000Y-33528000D03*
X132334000Y-33528000D03*
X134874000Y-33528000D03*
X137414000Y-33528000D03*
X139954000Y-33528000D03*
X142494000Y-33528000D03*
X145034000Y-33528000D03*
X147574000Y-33528000D03*
X150114000Y-33528000D03*
X152654000Y-33528000D03*
X155194000Y-33528000D03*
X157734000Y-33528000D03*
X160274000Y-33528000D03*
D15*
X162814000Y-33528000D03*
X165354000Y-33528000D03*
X122174000Y-36068000D03*
X124714000Y-36068000D03*
D16*
X127254000Y-36068000D03*
X129794000Y-36068000D03*
X132334000Y-36068000D03*
X134874000Y-36068000D03*
X137414000Y-36068000D03*
X139954000Y-36068000D03*
X142494000Y-36068000D03*
X145034000Y-36068000D03*
X147574000Y-36068000D03*
X150114000Y-36068000D03*
X152654000Y-36068000D03*
X155194000Y-36068000D03*
X157734000Y-36068000D03*
X160274000Y-36068000D03*
D15*
X162814000Y-36068000D03*
X165354000Y-36068000D03*
X122174000Y-38608000D03*
X124714000Y-38608000D03*
D16*
X127254000Y-38608000D03*
X129794000Y-38608000D03*
X132334000Y-38608000D03*
X134874000Y-38608000D03*
X137414000Y-38608000D03*
X139954000Y-38608000D03*
X142494000Y-38608000D03*
X145034000Y-38608000D03*
X147574000Y-38608000D03*
X150114000Y-38608000D03*
X152654000Y-38608000D03*
X155194000Y-38608000D03*
X157734000Y-38608000D03*
X160274000Y-38608000D03*
D15*
X162814000Y-38608000D03*
X165354000Y-38608000D03*
X122174000Y-41148000D03*
X124714000Y-41148000D03*
D16*
X127254000Y-41148000D03*
X129794000Y-41148000D03*
X132334000Y-41148000D03*
X134874000Y-41148000D03*
X137414000Y-41148000D03*
X139954000Y-41148000D03*
X142494000Y-41148000D03*
X145034000Y-41148000D03*
X147574000Y-41148000D03*
X150114000Y-41148000D03*
X152654000Y-41148000D03*
X155194000Y-41148000D03*
X157734000Y-41148000D03*
X160274000Y-41148000D03*
D15*
X162814000Y-41148000D03*
X165354000Y-41148000D03*
X122174000Y-43688000D03*
X124714000Y-43688000D03*
D16*
X127254000Y-43688000D03*
X129794000Y-43688000D03*
X132334000Y-43688000D03*
X134874000Y-43688000D03*
X137414000Y-43688000D03*
X139954000Y-43688000D03*
X142494000Y-43688000D03*
X145034000Y-43688000D03*
X147574000Y-43688000D03*
X150114000Y-43688000D03*
X152654000Y-43688000D03*
X155194000Y-43688000D03*
X157734000Y-43688000D03*
X160274000Y-43688000D03*
D15*
X162814000Y-43688000D03*
X165354000Y-43688000D03*
X122174000Y-46228000D03*
X124714000Y-46228000D03*
D16*
X127254000Y-46228000D03*
X129794000Y-46228000D03*
X132334000Y-46228000D03*
X134874000Y-46228000D03*
X137414000Y-46228000D03*
X139954000Y-46228000D03*
X142494000Y-46228000D03*
X145034000Y-46228000D03*
X147574000Y-46228000D03*
X150114000Y-46228000D03*
X152654000Y-46228000D03*
X155194000Y-46228000D03*
X157734000Y-46228000D03*
X160274000Y-46228000D03*
D15*
X162814000Y-46228000D03*
X165354000Y-46228000D03*
X122174000Y-48768000D03*
X124714000Y-48768000D03*
D16*
X127254000Y-48768000D03*
X129794000Y-48768000D03*
X132334000Y-48768000D03*
X134874000Y-48768000D03*
X137414000Y-48768000D03*
X139954000Y-48768000D03*
X142494000Y-48768000D03*
X145034000Y-48768000D03*
X147574000Y-48768000D03*
X150114000Y-48768000D03*
X152654000Y-48768000D03*
X155194000Y-48768000D03*
X157734000Y-48768000D03*
X160274000Y-48768000D03*
D15*
X162814000Y-48768000D03*
X165354000Y-48768000D03*
X122174000Y-51308000D03*
X124714000Y-51308000D03*
D16*
X127254000Y-51308000D03*
X129794000Y-51308000D03*
X132334000Y-51308000D03*
X134874000Y-51308000D03*
X137414000Y-51308000D03*
X139954000Y-51308000D03*
X142494000Y-51308000D03*
X145034000Y-51308000D03*
X147574000Y-51308000D03*
X150114000Y-51308000D03*
X152654000Y-51308000D03*
X155194000Y-51308000D03*
X157734000Y-51308000D03*
X160274000Y-51308000D03*
D15*
X162814000Y-51308000D03*
X165354000Y-51308000D03*
X122174000Y-53848000D03*
X124714000Y-53848000D03*
D16*
X127254000Y-53848000D03*
X129794000Y-53848000D03*
X132334000Y-53848000D03*
X134874000Y-53848000D03*
X137414000Y-53848000D03*
X139954000Y-53848000D03*
X142494000Y-53848000D03*
X145034000Y-53848000D03*
X147574000Y-53848000D03*
X150114000Y-53848000D03*
X152654000Y-53848000D03*
X155194000Y-53848000D03*
X157734000Y-53848000D03*
X160274000Y-53848000D03*
D15*
X162814000Y-53848000D03*
X165354000Y-53848000D03*
X122174000Y-56388000D03*
X124714000Y-56388000D03*
D16*
X127254000Y-56388000D03*
X129794000Y-56388000D03*
X132334000Y-56388000D03*
X134874000Y-56388000D03*
X137414000Y-56388000D03*
X139954000Y-56388000D03*
X142494000Y-56388000D03*
X145034000Y-56388000D03*
X147574000Y-56388000D03*
X150114000Y-56388000D03*
X152654000Y-56388000D03*
X155194000Y-56388000D03*
X157734000Y-56388000D03*
X160274000Y-56388000D03*
D15*
X162814000Y-56388000D03*
X165354000Y-56388000D03*
X122174000Y-58928000D03*
X124714000Y-58928000D03*
D16*
X127254000Y-58928000D03*
X129794000Y-58928000D03*
X132334000Y-58928000D03*
X134874000Y-58928000D03*
X137414000Y-58928000D03*
X139954000Y-58928000D03*
X142494000Y-58928000D03*
X145034000Y-58928000D03*
X147574000Y-58928000D03*
X150114000Y-58928000D03*
X152654000Y-58928000D03*
X155194000Y-58928000D03*
X157734000Y-58928000D03*
X160274000Y-58928000D03*
D15*
X162814000Y-58928000D03*
X165354000Y-58928000D03*
X122174000Y-61468000D03*
X124714000Y-61468000D03*
D16*
X127254000Y-61468000D03*
X129794000Y-61468000D03*
X132334000Y-61468000D03*
X134874000Y-61468000D03*
X137414000Y-61468000D03*
X139954000Y-61468000D03*
X142494000Y-61468000D03*
X145034000Y-61468000D03*
X147574000Y-61468000D03*
X150114000Y-61468000D03*
X152654000Y-61468000D03*
X155194000Y-61468000D03*
X157734000Y-61468000D03*
X160274000Y-61468000D03*
D15*
X162814000Y-61468000D03*
X165354000Y-61468000D03*
X122174000Y-64008000D03*
X124714000Y-64008000D03*
D16*
X127254000Y-64008000D03*
X129794000Y-64008000D03*
X132334000Y-64008000D03*
X134874000Y-64008000D03*
X137414000Y-64008000D03*
X139954000Y-64008000D03*
X142494000Y-64008000D03*
X145034000Y-64008000D03*
X147574000Y-64008000D03*
X150114000Y-64008000D03*
X152654000Y-64008000D03*
X155194000Y-64008000D03*
X157734000Y-64008000D03*
X160274000Y-64008000D03*
D15*
X162814000Y-64008000D03*
X165354000Y-64008000D03*
X122174000Y-66548000D03*
X124714000Y-66548000D03*
D16*
X127254000Y-66548000D03*
X129794000Y-66548000D03*
X132334000Y-66548000D03*
X134874000Y-66548000D03*
X137414000Y-66548000D03*
X139954000Y-66548000D03*
X142494000Y-66548000D03*
X145034000Y-66548000D03*
X147574000Y-66548000D03*
X150114000Y-66548000D03*
X152654000Y-66548000D03*
X155194000Y-66548000D03*
X157734000Y-66548000D03*
X160274000Y-66548000D03*
D15*
X162814000Y-66548000D03*
X165354000Y-66548000D03*
X122174000Y-69088000D03*
X124714000Y-69088000D03*
D16*
X127254000Y-69088000D03*
X129794000Y-69088000D03*
X132334000Y-69088000D03*
X134874000Y-69088000D03*
X137414000Y-69088000D03*
X139954000Y-69088000D03*
X142494000Y-69088000D03*
X145034000Y-69088000D03*
X147574000Y-69088000D03*
X150114000Y-69088000D03*
X152654000Y-69088000D03*
X155194000Y-69088000D03*
X157734000Y-69088000D03*
X160274000Y-69088000D03*
D15*
X162814000Y-69088000D03*
X165354000Y-69088000D03*
X122174000Y-71628000D03*
X124714000Y-71628000D03*
D16*
X127254000Y-71628000D03*
X129794000Y-71628000D03*
X132334000Y-71628000D03*
X134874000Y-71628000D03*
X137414000Y-71628000D03*
X139954000Y-71628000D03*
X142494000Y-71628000D03*
X145034000Y-71628000D03*
X147574000Y-71628000D03*
X150114000Y-71628000D03*
X152654000Y-71628000D03*
X155194000Y-71628000D03*
X157734000Y-71628000D03*
X160274000Y-71628000D03*
D15*
X162814000Y-71628000D03*
X165354000Y-71628000D03*
X122174000Y-74168000D03*
X124714000Y-74168000D03*
D16*
X127254000Y-74168000D03*
X129794000Y-74168000D03*
X132334000Y-74168000D03*
X134874000Y-74168000D03*
X137414000Y-74168000D03*
X139954000Y-74168000D03*
X142494000Y-74168000D03*
X145034000Y-74168000D03*
X147574000Y-74168000D03*
X150114000Y-74168000D03*
X152654000Y-74168000D03*
X155194000Y-74168000D03*
X157734000Y-74168000D03*
X160274000Y-74168000D03*
D15*
X162814000Y-74168000D03*
X165354000Y-74168000D03*
X122174000Y-76708000D03*
X124714000Y-76708000D03*
D16*
X127254000Y-76708000D03*
X129794000Y-76708000D03*
X132334000Y-76708000D03*
X134874000Y-76708000D03*
X137414000Y-76708000D03*
X139954000Y-76708000D03*
X142494000Y-76708000D03*
X145034000Y-76708000D03*
X147574000Y-76708000D03*
X150114000Y-76708000D03*
X152654000Y-76708000D03*
X155194000Y-76708000D03*
X157734000Y-76708000D03*
X160274000Y-76708000D03*
D15*
X162814000Y-76708000D03*
X165354000Y-76708000D03*
M02*
