%TF.GenerationSoftware,KiCad,Pcbnew,8.0.3-8.0.3-0~ubuntu24.04.1*%
%TF.CreationDate,2024-06-19T14:37:03-05:00*%
%TF.ProjectId,protopak64,70726f74-6f70-4616-9b36-342e6b696361,rev?*%
%TF.SameCoordinates,Original*%
%TF.FileFunction,Legend,Top*%
%TF.FilePolarity,Positive*%
%FSLAX46Y46*%
G04 Gerber Fmt 4.6, Leading zero omitted, Abs format (unit mm)*
G04 Created by KiCad (PCBNEW 8.0.3-8.0.3-0~ubuntu24.04.1) date 2024-06-19 14:37:03*
%MOMM*%
%LPD*%
G01*
G04 APERTURE LIST*
%ADD10C,0.200000*%
%ADD11C,0.150000*%
%ADD12C,0.120000*%
%ADD13C,0.000000*%
%ADD14R,1.700000X1.700000*%
%ADD15O,1.700000X1.700000*%
%ADD16R,1.000000X5.400000*%
%ADD17R,2.000000X2.000000*%
%ADD18C,2.000000*%
G04 APERTURE END LIST*
D10*
X159004000Y-125603000D02*
G75*
G02*
X128522942Y-125603000I-15240529J5850292D01*
G01*
X159004000Y-124002056D02*
G75*
G02*
X128522942Y-124002056I-15240529J4083688D01*
G01*
D11*
X140716000Y-141351000D02*
X133223000Y-141351000D01*
X147743104Y-95443731D02*
X147743104Y-94967541D01*
X148028819Y-95538969D02*
X147028819Y-95205636D01*
X147028819Y-95205636D02*
X148028819Y-94872303D01*
X148028819Y-94491350D02*
X148028819Y-94300874D01*
X148028819Y-94300874D02*
X147981200Y-94205636D01*
X147981200Y-94205636D02*
X147933580Y-94158017D01*
X147933580Y-94158017D02*
X147790723Y-94062779D01*
X147790723Y-94062779D02*
X147600247Y-94015160D01*
X147600247Y-94015160D02*
X147219295Y-94015160D01*
X147219295Y-94015160D02*
X147124057Y-94062779D01*
X147124057Y-94062779D02*
X147076438Y-94110398D01*
X147076438Y-94110398D02*
X147028819Y-94205636D01*
X147028819Y-94205636D02*
X147028819Y-94396112D01*
X147028819Y-94396112D02*
X147076438Y-94491350D01*
X147076438Y-94491350D02*
X147124057Y-94538969D01*
X147124057Y-94538969D02*
X147219295Y-94586588D01*
X147219295Y-94586588D02*
X147457390Y-94586588D01*
X147457390Y-94586588D02*
X147552628Y-94538969D01*
X147552628Y-94538969D02*
X147600247Y-94491350D01*
X147600247Y-94491350D02*
X147647866Y-94396112D01*
X147647866Y-94396112D02*
X147647866Y-94205636D01*
X147647866Y-94205636D02*
X147600247Y-94110398D01*
X147600247Y-94110398D02*
X147552628Y-94062779D01*
X147552628Y-94062779D02*
X147457390Y-94015160D01*
X160633580Y-94919922D02*
X160681200Y-94967541D01*
X160681200Y-94967541D02*
X160728819Y-95110398D01*
X160728819Y-95110398D02*
X160728819Y-95205636D01*
X160728819Y-95205636D02*
X160681200Y-95348493D01*
X160681200Y-95348493D02*
X160585961Y-95443731D01*
X160585961Y-95443731D02*
X160490723Y-95491350D01*
X160490723Y-95491350D02*
X160300247Y-95538969D01*
X160300247Y-95538969D02*
X160157390Y-95538969D01*
X160157390Y-95538969D02*
X159966914Y-95491350D01*
X159966914Y-95491350D02*
X159871676Y-95443731D01*
X159871676Y-95443731D02*
X159776438Y-95348493D01*
X159776438Y-95348493D02*
X159728819Y-95205636D01*
X159728819Y-95205636D02*
X159728819Y-95110398D01*
X159728819Y-95110398D02*
X159776438Y-94967541D01*
X159776438Y-94967541D02*
X159824057Y-94919922D01*
X160205009Y-94491350D02*
X160205009Y-94158017D01*
X160728819Y-94015160D02*
X160728819Y-94491350D01*
X160728819Y-94491350D02*
X159728819Y-94491350D01*
X159728819Y-94491350D02*
X159728819Y-94015160D01*
X152823104Y-87340839D02*
X152823104Y-86864649D01*
X153108819Y-87436077D02*
X152108819Y-87102744D01*
X152108819Y-87102744D02*
X153108819Y-86769411D01*
X152108819Y-86007506D02*
X152108819Y-86197982D01*
X152108819Y-86197982D02*
X152156438Y-86293220D01*
X152156438Y-86293220D02*
X152204057Y-86340839D01*
X152204057Y-86340839D02*
X152346914Y-86436077D01*
X152346914Y-86436077D02*
X152537390Y-86483696D01*
X152537390Y-86483696D02*
X152918342Y-86483696D01*
X152918342Y-86483696D02*
X153013580Y-86436077D01*
X153013580Y-86436077D02*
X153061200Y-86388458D01*
X153061200Y-86388458D02*
X153108819Y-86293220D01*
X153108819Y-86293220D02*
X153108819Y-86102744D01*
X153108819Y-86102744D02*
X153061200Y-86007506D01*
X153061200Y-86007506D02*
X153013580Y-85959887D01*
X153013580Y-85959887D02*
X152918342Y-85912268D01*
X152918342Y-85912268D02*
X152680247Y-85912268D01*
X152680247Y-85912268D02*
X152585009Y-85959887D01*
X152585009Y-85959887D02*
X152537390Y-86007506D01*
X152537390Y-86007506D02*
X152489771Y-86102744D01*
X152489771Y-86102744D02*
X152489771Y-86293220D01*
X152489771Y-86293220D02*
X152537390Y-86388458D01*
X152537390Y-86388458D02*
X152585009Y-86436077D01*
X152585009Y-86436077D02*
X152680247Y-86483696D01*
X125168819Y-95538969D02*
X124168819Y-95538969D01*
X124168819Y-95538969D02*
X124168819Y-95300874D01*
X124168819Y-95300874D02*
X124216438Y-95158017D01*
X124216438Y-95158017D02*
X124311676Y-95062779D01*
X124311676Y-95062779D02*
X124406914Y-95015160D01*
X124406914Y-95015160D02*
X124597390Y-94967541D01*
X124597390Y-94967541D02*
X124740247Y-94967541D01*
X124740247Y-94967541D02*
X124930723Y-95015160D01*
X124930723Y-95015160D02*
X125025961Y-95062779D01*
X125025961Y-95062779D02*
X125121200Y-95158017D01*
X125121200Y-95158017D02*
X125168819Y-95300874D01*
X125168819Y-95300874D02*
X125168819Y-95538969D01*
X124168819Y-94634207D02*
X124168819Y-94015160D01*
X124168819Y-94015160D02*
X124549771Y-94348493D01*
X124549771Y-94348493D02*
X124549771Y-94205636D01*
X124549771Y-94205636D02*
X124597390Y-94110398D01*
X124597390Y-94110398D02*
X124645009Y-94062779D01*
X124645009Y-94062779D02*
X124740247Y-94015160D01*
X124740247Y-94015160D02*
X124978342Y-94015160D01*
X124978342Y-94015160D02*
X125073580Y-94062779D01*
X125073580Y-94062779D02*
X125121200Y-94110398D01*
X125121200Y-94110398D02*
X125168819Y-94205636D01*
X125168819Y-94205636D02*
X125168819Y-94491350D01*
X125168819Y-94491350D02*
X125121200Y-94586588D01*
X125121200Y-94586588D02*
X125073580Y-94634207D01*
X140123104Y-101691839D02*
X140123104Y-101215649D01*
X140408819Y-101787077D02*
X139408819Y-101453744D01*
X139408819Y-101453744D02*
X140408819Y-101120411D01*
X140408819Y-100263268D02*
X140408819Y-100834696D01*
X140408819Y-100548982D02*
X139408819Y-100548982D01*
X139408819Y-100548982D02*
X139551676Y-100644220D01*
X139551676Y-100644220D02*
X139646914Y-100739458D01*
X139646914Y-100739458D02*
X139694533Y-100834696D01*
X137583104Y-101691839D02*
X137583104Y-101215649D01*
X137868819Y-101787077D02*
X136868819Y-101453744D01*
X136868819Y-101453744D02*
X137868819Y-101120411D01*
X136868819Y-100596601D02*
X136868819Y-100501363D01*
X136868819Y-100501363D02*
X136916438Y-100406125D01*
X136916438Y-100406125D02*
X136964057Y-100358506D01*
X136964057Y-100358506D02*
X137059295Y-100310887D01*
X137059295Y-100310887D02*
X137249771Y-100263268D01*
X137249771Y-100263268D02*
X137487866Y-100263268D01*
X137487866Y-100263268D02*
X137678342Y-100310887D01*
X137678342Y-100310887D02*
X137773580Y-100358506D01*
X137773580Y-100358506D02*
X137821200Y-100406125D01*
X137821200Y-100406125D02*
X137868819Y-100501363D01*
X137868819Y-100501363D02*
X137868819Y-100596601D01*
X137868819Y-100596601D02*
X137821200Y-100691839D01*
X137821200Y-100691839D02*
X137773580Y-100739458D01*
X137773580Y-100739458D02*
X137678342Y-100787077D01*
X137678342Y-100787077D02*
X137487866Y-100834696D01*
X137487866Y-100834696D02*
X137249771Y-100834696D01*
X137249771Y-100834696D02*
X137059295Y-100787077D01*
X137059295Y-100787077D02*
X136964057Y-100739458D01*
X136964057Y-100739458D02*
X136916438Y-100691839D01*
X136916438Y-100691839D02*
X136868819Y-100596601D01*
X150283104Y-95443731D02*
X150283104Y-94967541D01*
X150568819Y-95538969D02*
X149568819Y-95205636D01*
X149568819Y-95205636D02*
X150568819Y-94872303D01*
X149997390Y-94396112D02*
X149949771Y-94491350D01*
X149949771Y-94491350D02*
X149902152Y-94538969D01*
X149902152Y-94538969D02*
X149806914Y-94586588D01*
X149806914Y-94586588D02*
X149759295Y-94586588D01*
X149759295Y-94586588D02*
X149664057Y-94538969D01*
X149664057Y-94538969D02*
X149616438Y-94491350D01*
X149616438Y-94491350D02*
X149568819Y-94396112D01*
X149568819Y-94396112D02*
X149568819Y-94205636D01*
X149568819Y-94205636D02*
X149616438Y-94110398D01*
X149616438Y-94110398D02*
X149664057Y-94062779D01*
X149664057Y-94062779D02*
X149759295Y-94015160D01*
X149759295Y-94015160D02*
X149806914Y-94015160D01*
X149806914Y-94015160D02*
X149902152Y-94062779D01*
X149902152Y-94062779D02*
X149949771Y-94110398D01*
X149949771Y-94110398D02*
X149997390Y-94205636D01*
X149997390Y-94205636D02*
X149997390Y-94396112D01*
X149997390Y-94396112D02*
X150045009Y-94491350D01*
X150045009Y-94491350D02*
X150092628Y-94538969D01*
X150092628Y-94538969D02*
X150187866Y-94586588D01*
X150187866Y-94586588D02*
X150378342Y-94586588D01*
X150378342Y-94586588D02*
X150473580Y-94538969D01*
X150473580Y-94538969D02*
X150521200Y-94491350D01*
X150521200Y-94491350D02*
X150568819Y-94396112D01*
X150568819Y-94396112D02*
X150568819Y-94205636D01*
X150568819Y-94205636D02*
X150521200Y-94110398D01*
X150521200Y-94110398D02*
X150473580Y-94062779D01*
X150473580Y-94062779D02*
X150378342Y-94015160D01*
X150378342Y-94015160D02*
X150187866Y-94015160D01*
X150187866Y-94015160D02*
X150092628Y-94062779D01*
X150092628Y-94062779D02*
X150045009Y-94110398D01*
X150045009Y-94110398D02*
X149997390Y-94205636D01*
X162316438Y-101120411D02*
X162268819Y-101215649D01*
X162268819Y-101215649D02*
X162268819Y-101358506D01*
X162268819Y-101358506D02*
X162316438Y-101501363D01*
X162316438Y-101501363D02*
X162411676Y-101596601D01*
X162411676Y-101596601D02*
X162506914Y-101644220D01*
X162506914Y-101644220D02*
X162697390Y-101691839D01*
X162697390Y-101691839D02*
X162840247Y-101691839D01*
X162840247Y-101691839D02*
X163030723Y-101644220D01*
X163030723Y-101644220D02*
X163125961Y-101596601D01*
X163125961Y-101596601D02*
X163221200Y-101501363D01*
X163221200Y-101501363D02*
X163268819Y-101358506D01*
X163268819Y-101358506D02*
X163268819Y-101263268D01*
X163268819Y-101263268D02*
X163221200Y-101120411D01*
X163221200Y-101120411D02*
X163173580Y-101072792D01*
X163173580Y-101072792D02*
X162840247Y-101072792D01*
X162840247Y-101072792D02*
X162840247Y-101263268D01*
X163268819Y-100644220D02*
X162268819Y-100644220D01*
X162268819Y-100644220D02*
X163268819Y-100072792D01*
X163268819Y-100072792D02*
X162268819Y-100072792D01*
X163268819Y-99596601D02*
X162268819Y-99596601D01*
X162268819Y-99596601D02*
X162268819Y-99358506D01*
X162268819Y-99358506D02*
X162316438Y-99215649D01*
X162316438Y-99215649D02*
X162411676Y-99120411D01*
X162411676Y-99120411D02*
X162506914Y-99072792D01*
X162506914Y-99072792D02*
X162697390Y-99025173D01*
X162697390Y-99025173D02*
X162840247Y-99025173D01*
X162840247Y-99025173D02*
X163030723Y-99072792D01*
X163030723Y-99072792D02*
X163125961Y-99120411D01*
X163125961Y-99120411D02*
X163221200Y-99215649D01*
X163221200Y-99215649D02*
X163268819Y-99358506D01*
X163268819Y-99358506D02*
X163268819Y-99596601D01*
X145203104Y-87340839D02*
X145203104Y-86864649D01*
X145488819Y-87436077D02*
X144488819Y-87102744D01*
X144488819Y-87102744D02*
X145488819Y-86769411D01*
X144488819Y-86531315D02*
X144488819Y-85912268D01*
X144488819Y-85912268D02*
X144869771Y-86245601D01*
X144869771Y-86245601D02*
X144869771Y-86102744D01*
X144869771Y-86102744D02*
X144917390Y-86007506D01*
X144917390Y-86007506D02*
X144965009Y-85959887D01*
X144965009Y-85959887D02*
X145060247Y-85912268D01*
X145060247Y-85912268D02*
X145298342Y-85912268D01*
X145298342Y-85912268D02*
X145393580Y-85959887D01*
X145393580Y-85959887D02*
X145441200Y-86007506D01*
X145441200Y-86007506D02*
X145488819Y-86102744D01*
X145488819Y-86102744D02*
X145488819Y-86388458D01*
X145488819Y-86388458D02*
X145441200Y-86483696D01*
X145441200Y-86483696D02*
X145393580Y-86531315D01*
X135328819Y-87293220D02*
X134328819Y-87293220D01*
X134328819Y-87293220D02*
X134328819Y-87055125D01*
X134328819Y-87055125D02*
X134376438Y-86912268D01*
X134376438Y-86912268D02*
X134471676Y-86817030D01*
X134471676Y-86817030D02*
X134566914Y-86769411D01*
X134566914Y-86769411D02*
X134757390Y-86721792D01*
X134757390Y-86721792D02*
X134900247Y-86721792D01*
X134900247Y-86721792D02*
X135090723Y-86769411D01*
X135090723Y-86769411D02*
X135185961Y-86817030D01*
X135185961Y-86817030D02*
X135281200Y-86912268D01*
X135281200Y-86912268D02*
X135328819Y-87055125D01*
X135328819Y-87055125D02*
X135328819Y-87293220D01*
X134328819Y-86102744D02*
X134328819Y-86007506D01*
X134328819Y-86007506D02*
X134376438Y-85912268D01*
X134376438Y-85912268D02*
X134424057Y-85864649D01*
X134424057Y-85864649D02*
X134519295Y-85817030D01*
X134519295Y-85817030D02*
X134709771Y-85769411D01*
X134709771Y-85769411D02*
X134947866Y-85769411D01*
X134947866Y-85769411D02*
X135138342Y-85817030D01*
X135138342Y-85817030D02*
X135233580Y-85864649D01*
X135233580Y-85864649D02*
X135281200Y-85912268D01*
X135281200Y-85912268D02*
X135328819Y-86007506D01*
X135328819Y-86007506D02*
X135328819Y-86102744D01*
X135328819Y-86102744D02*
X135281200Y-86197982D01*
X135281200Y-86197982D02*
X135233580Y-86245601D01*
X135233580Y-86245601D02*
X135138342Y-86293220D01*
X135138342Y-86293220D02*
X134947866Y-86340839D01*
X134947866Y-86340839D02*
X134709771Y-86340839D01*
X134709771Y-86340839D02*
X134519295Y-86293220D01*
X134519295Y-86293220D02*
X134424057Y-86245601D01*
X134424057Y-86245601D02*
X134376438Y-86197982D01*
X134376438Y-86197982D02*
X134328819Y-86102744D01*
X140123104Y-96396112D02*
X140123104Y-95919922D01*
X140408819Y-96491350D02*
X139408819Y-96158017D01*
X139408819Y-96158017D02*
X140408819Y-95824684D01*
X140408819Y-94967541D02*
X140408819Y-95538969D01*
X140408819Y-95253255D02*
X139408819Y-95253255D01*
X139408819Y-95253255D02*
X139551676Y-95348493D01*
X139551676Y-95348493D02*
X139646914Y-95443731D01*
X139646914Y-95443731D02*
X139694533Y-95538969D01*
X139408819Y-94348493D02*
X139408819Y-94253255D01*
X139408819Y-94253255D02*
X139456438Y-94158017D01*
X139456438Y-94158017D02*
X139504057Y-94110398D01*
X139504057Y-94110398D02*
X139599295Y-94062779D01*
X139599295Y-94062779D02*
X139789771Y-94015160D01*
X139789771Y-94015160D02*
X140027866Y-94015160D01*
X140027866Y-94015160D02*
X140218342Y-94062779D01*
X140218342Y-94062779D02*
X140313580Y-94110398D01*
X140313580Y-94110398D02*
X140361200Y-94158017D01*
X140361200Y-94158017D02*
X140408819Y-94253255D01*
X140408819Y-94253255D02*
X140408819Y-94348493D01*
X140408819Y-94348493D02*
X140361200Y-94443731D01*
X140361200Y-94443731D02*
X140313580Y-94491350D01*
X140313580Y-94491350D02*
X140218342Y-94538969D01*
X140218342Y-94538969D02*
X140027866Y-94586588D01*
X140027866Y-94586588D02*
X139789771Y-94586588D01*
X139789771Y-94586588D02*
X139599295Y-94538969D01*
X139599295Y-94538969D02*
X139504057Y-94491350D01*
X139504057Y-94491350D02*
X139456438Y-94443731D01*
X139456438Y-94443731D02*
X139408819Y-94348493D01*
X132788819Y-95538969D02*
X131788819Y-95538969D01*
X131788819Y-95538969D02*
X131788819Y-95300874D01*
X131788819Y-95300874D02*
X131836438Y-95158017D01*
X131836438Y-95158017D02*
X131931676Y-95062779D01*
X131931676Y-95062779D02*
X132026914Y-95015160D01*
X132026914Y-95015160D02*
X132217390Y-94967541D01*
X132217390Y-94967541D02*
X132360247Y-94967541D01*
X132360247Y-94967541D02*
X132550723Y-95015160D01*
X132550723Y-95015160D02*
X132645961Y-95062779D01*
X132645961Y-95062779D02*
X132741200Y-95158017D01*
X132741200Y-95158017D02*
X132788819Y-95300874D01*
X132788819Y-95300874D02*
X132788819Y-95538969D01*
X131788819Y-94062779D02*
X131788819Y-94538969D01*
X131788819Y-94538969D02*
X132265009Y-94586588D01*
X132265009Y-94586588D02*
X132217390Y-94538969D01*
X132217390Y-94538969D02*
X132169771Y-94443731D01*
X132169771Y-94443731D02*
X132169771Y-94205636D01*
X132169771Y-94205636D02*
X132217390Y-94110398D01*
X132217390Y-94110398D02*
X132265009Y-94062779D01*
X132265009Y-94062779D02*
X132360247Y-94015160D01*
X132360247Y-94015160D02*
X132598342Y-94015160D01*
X132598342Y-94015160D02*
X132693580Y-94062779D01*
X132693580Y-94062779D02*
X132741200Y-94110398D01*
X132741200Y-94110398D02*
X132788819Y-94205636D01*
X132788819Y-94205636D02*
X132788819Y-94443731D01*
X132788819Y-94443731D02*
X132741200Y-94538969D01*
X132741200Y-94538969D02*
X132693580Y-94586588D01*
X150283104Y-109794731D02*
X150283104Y-109318541D01*
X150568819Y-109889969D02*
X149568819Y-109556636D01*
X149568819Y-109556636D02*
X150568819Y-109223303D01*
X149997390Y-108747112D02*
X149949771Y-108842350D01*
X149949771Y-108842350D02*
X149902152Y-108889969D01*
X149902152Y-108889969D02*
X149806914Y-108937588D01*
X149806914Y-108937588D02*
X149759295Y-108937588D01*
X149759295Y-108937588D02*
X149664057Y-108889969D01*
X149664057Y-108889969D02*
X149616438Y-108842350D01*
X149616438Y-108842350D02*
X149568819Y-108747112D01*
X149568819Y-108747112D02*
X149568819Y-108556636D01*
X149568819Y-108556636D02*
X149616438Y-108461398D01*
X149616438Y-108461398D02*
X149664057Y-108413779D01*
X149664057Y-108413779D02*
X149759295Y-108366160D01*
X149759295Y-108366160D02*
X149806914Y-108366160D01*
X149806914Y-108366160D02*
X149902152Y-108413779D01*
X149902152Y-108413779D02*
X149949771Y-108461398D01*
X149949771Y-108461398D02*
X149997390Y-108556636D01*
X149997390Y-108556636D02*
X149997390Y-108747112D01*
X149997390Y-108747112D02*
X150045009Y-108842350D01*
X150045009Y-108842350D02*
X150092628Y-108889969D01*
X150092628Y-108889969D02*
X150187866Y-108937588D01*
X150187866Y-108937588D02*
X150378342Y-108937588D01*
X150378342Y-108937588D02*
X150473580Y-108889969D01*
X150473580Y-108889969D02*
X150521200Y-108842350D01*
X150521200Y-108842350D02*
X150568819Y-108747112D01*
X150568819Y-108747112D02*
X150568819Y-108556636D01*
X150568819Y-108556636D02*
X150521200Y-108461398D01*
X150521200Y-108461398D02*
X150473580Y-108413779D01*
X150473580Y-108413779D02*
X150378342Y-108366160D01*
X150378342Y-108366160D02*
X150187866Y-108366160D01*
X150187866Y-108366160D02*
X150092628Y-108413779D01*
X150092628Y-108413779D02*
X150045009Y-108461398D01*
X150045009Y-108461398D02*
X149997390Y-108556636D01*
X137868819Y-95538969D02*
X136868819Y-95538969D01*
X136868819Y-95538969D02*
X136868819Y-95300874D01*
X136868819Y-95300874D02*
X136916438Y-95158017D01*
X136916438Y-95158017D02*
X137011676Y-95062779D01*
X137011676Y-95062779D02*
X137106914Y-95015160D01*
X137106914Y-95015160D02*
X137297390Y-94967541D01*
X137297390Y-94967541D02*
X137440247Y-94967541D01*
X137440247Y-94967541D02*
X137630723Y-95015160D01*
X137630723Y-95015160D02*
X137725961Y-95062779D01*
X137725961Y-95062779D02*
X137821200Y-95158017D01*
X137821200Y-95158017D02*
X137868819Y-95300874D01*
X137868819Y-95300874D02*
X137868819Y-95538969D01*
X136868819Y-94634207D02*
X136868819Y-93967541D01*
X136868819Y-93967541D02*
X137868819Y-94396112D01*
X157903104Y-110747112D02*
X157903104Y-110270922D01*
X158188819Y-110842350D02*
X157188819Y-110509017D01*
X157188819Y-110509017D02*
X158188819Y-110175684D01*
X158188819Y-109318541D02*
X158188819Y-109889969D01*
X158188819Y-109604255D02*
X157188819Y-109604255D01*
X157188819Y-109604255D02*
X157331676Y-109699493D01*
X157331676Y-109699493D02*
X157426914Y-109794731D01*
X157426914Y-109794731D02*
X157474533Y-109889969D01*
X157188819Y-108413779D02*
X157188819Y-108889969D01*
X157188819Y-108889969D02*
X157665009Y-108937588D01*
X157665009Y-108937588D02*
X157617390Y-108889969D01*
X157617390Y-108889969D02*
X157569771Y-108794731D01*
X157569771Y-108794731D02*
X157569771Y-108556636D01*
X157569771Y-108556636D02*
X157617390Y-108461398D01*
X157617390Y-108461398D02*
X157665009Y-108413779D01*
X157665009Y-108413779D02*
X157760247Y-108366160D01*
X157760247Y-108366160D02*
X157998342Y-108366160D01*
X157998342Y-108366160D02*
X158093580Y-108413779D01*
X158093580Y-108413779D02*
X158141200Y-108461398D01*
X158141200Y-108461398D02*
X158188819Y-108556636D01*
X158188819Y-108556636D02*
X158188819Y-108794731D01*
X158188819Y-108794731D02*
X158141200Y-108889969D01*
X158141200Y-108889969D02*
X158093580Y-108937588D01*
X137583104Y-87340839D02*
X137583104Y-86864649D01*
X137868819Y-87436077D02*
X136868819Y-87102744D01*
X136868819Y-87102744D02*
X137868819Y-86769411D01*
X136868819Y-86245601D02*
X136868819Y-86150363D01*
X136868819Y-86150363D02*
X136916438Y-86055125D01*
X136916438Y-86055125D02*
X136964057Y-86007506D01*
X136964057Y-86007506D02*
X137059295Y-85959887D01*
X137059295Y-85959887D02*
X137249771Y-85912268D01*
X137249771Y-85912268D02*
X137487866Y-85912268D01*
X137487866Y-85912268D02*
X137678342Y-85959887D01*
X137678342Y-85959887D02*
X137773580Y-86007506D01*
X137773580Y-86007506D02*
X137821200Y-86055125D01*
X137821200Y-86055125D02*
X137868819Y-86150363D01*
X137868819Y-86150363D02*
X137868819Y-86245601D01*
X137868819Y-86245601D02*
X137821200Y-86340839D01*
X137821200Y-86340839D02*
X137773580Y-86388458D01*
X137773580Y-86388458D02*
X137678342Y-86436077D01*
X137678342Y-86436077D02*
X137487866Y-86483696D01*
X137487866Y-86483696D02*
X137249771Y-86483696D01*
X137249771Y-86483696D02*
X137059295Y-86436077D01*
X137059295Y-86436077D02*
X136964057Y-86388458D01*
X136964057Y-86388458D02*
X136916438Y-86340839D01*
X136916438Y-86340839D02*
X136868819Y-86245601D01*
X160443104Y-87340839D02*
X160443104Y-86864649D01*
X160728819Y-87436077D02*
X159728819Y-87102744D01*
X159728819Y-87102744D02*
X160728819Y-86769411D01*
X160728819Y-85912268D02*
X160728819Y-86483696D01*
X160728819Y-86197982D02*
X159728819Y-86197982D01*
X159728819Y-86197982D02*
X159871676Y-86293220D01*
X159871676Y-86293220D02*
X159966914Y-86388458D01*
X159966914Y-86388458D02*
X160014533Y-86483696D01*
X160062152Y-85055125D02*
X160728819Y-85055125D01*
X159681200Y-85293220D02*
X160395485Y-85531315D01*
X160395485Y-85531315D02*
X160395485Y-84912268D01*
X130248819Y-95538969D02*
X129248819Y-95538969D01*
X129248819Y-95538969D02*
X129248819Y-95300874D01*
X129248819Y-95300874D02*
X129296438Y-95158017D01*
X129296438Y-95158017D02*
X129391676Y-95062779D01*
X129391676Y-95062779D02*
X129486914Y-95015160D01*
X129486914Y-95015160D02*
X129677390Y-94967541D01*
X129677390Y-94967541D02*
X129820247Y-94967541D01*
X129820247Y-94967541D02*
X130010723Y-95015160D01*
X130010723Y-95015160D02*
X130105961Y-95062779D01*
X130105961Y-95062779D02*
X130201200Y-95158017D01*
X130201200Y-95158017D02*
X130248819Y-95300874D01*
X130248819Y-95300874D02*
X130248819Y-95538969D01*
X129582152Y-94110398D02*
X130248819Y-94110398D01*
X129201200Y-94348493D02*
X129915485Y-94586588D01*
X129915485Y-94586588D02*
X129915485Y-93967541D01*
X125168819Y-109889969D02*
X124168819Y-109889969D01*
X124168819Y-109889969D02*
X124168819Y-109651874D01*
X124168819Y-109651874D02*
X124216438Y-109509017D01*
X124216438Y-109509017D02*
X124311676Y-109413779D01*
X124311676Y-109413779D02*
X124406914Y-109366160D01*
X124406914Y-109366160D02*
X124597390Y-109318541D01*
X124597390Y-109318541D02*
X124740247Y-109318541D01*
X124740247Y-109318541D02*
X124930723Y-109366160D01*
X124930723Y-109366160D02*
X125025961Y-109413779D01*
X125025961Y-109413779D02*
X125121200Y-109509017D01*
X125121200Y-109509017D02*
X125168819Y-109651874D01*
X125168819Y-109651874D02*
X125168819Y-109889969D01*
X124168819Y-108985207D02*
X124168819Y-108366160D01*
X124168819Y-108366160D02*
X124549771Y-108699493D01*
X124549771Y-108699493D02*
X124549771Y-108556636D01*
X124549771Y-108556636D02*
X124597390Y-108461398D01*
X124597390Y-108461398D02*
X124645009Y-108413779D01*
X124645009Y-108413779D02*
X124740247Y-108366160D01*
X124740247Y-108366160D02*
X124978342Y-108366160D01*
X124978342Y-108366160D02*
X125073580Y-108413779D01*
X125073580Y-108413779D02*
X125121200Y-108461398D01*
X125121200Y-108461398D02*
X125168819Y-108556636D01*
X125168819Y-108556636D02*
X125168819Y-108842350D01*
X125168819Y-108842350D02*
X125121200Y-108937588D01*
X125121200Y-108937588D02*
X125073580Y-108985207D01*
X147743104Y-101691839D02*
X147743104Y-101215649D01*
X148028819Y-101787077D02*
X147028819Y-101453744D01*
X147028819Y-101453744D02*
X148028819Y-101120411D01*
X147362152Y-100358506D02*
X148028819Y-100358506D01*
X146981200Y-100596601D02*
X147695485Y-100834696D01*
X147695485Y-100834696D02*
X147695485Y-100215649D01*
X160443104Y-101691839D02*
X160443104Y-101215649D01*
X160728819Y-101787077D02*
X159728819Y-101453744D01*
X159728819Y-101453744D02*
X160728819Y-101120411D01*
X160728819Y-100263268D02*
X160728819Y-100834696D01*
X160728819Y-100548982D02*
X159728819Y-100548982D01*
X159728819Y-100548982D02*
X159871676Y-100644220D01*
X159871676Y-100644220D02*
X159966914Y-100739458D01*
X159966914Y-100739458D02*
X160014533Y-100834696D01*
X160062152Y-99406125D02*
X160728819Y-99406125D01*
X159681200Y-99644220D02*
X160395485Y-99882315D01*
X160395485Y-99882315D02*
X160395485Y-99263268D01*
D10*
X134858070Y-128000999D02*
X133358070Y-128000999D01*
X133358070Y-128000999D02*
X133358070Y-127467666D01*
X133358070Y-127467666D02*
X133429499Y-127334333D01*
X133429499Y-127334333D02*
X133500927Y-127267666D01*
X133500927Y-127267666D02*
X133643784Y-127200999D01*
X133643784Y-127200999D02*
X133858070Y-127200999D01*
X133858070Y-127200999D02*
X134000927Y-127267666D01*
X134000927Y-127267666D02*
X134072356Y-127334333D01*
X134072356Y-127334333D02*
X134143784Y-127467666D01*
X134143784Y-127467666D02*
X134143784Y-128000999D01*
X134858070Y-126600999D02*
X133858070Y-126600999D01*
X134143784Y-126600999D02*
X134000927Y-126534333D01*
X134000927Y-126534333D02*
X133929499Y-126467666D01*
X133929499Y-126467666D02*
X133858070Y-126334333D01*
X133858070Y-126334333D02*
X133858070Y-126200999D01*
X134858070Y-125534332D02*
X134786642Y-125667666D01*
X134786642Y-125667666D02*
X134715213Y-125734332D01*
X134715213Y-125734332D02*
X134572356Y-125800999D01*
X134572356Y-125800999D02*
X134143784Y-125800999D01*
X134143784Y-125800999D02*
X134000927Y-125734332D01*
X134000927Y-125734332D02*
X133929499Y-125667666D01*
X133929499Y-125667666D02*
X133858070Y-125534332D01*
X133858070Y-125534332D02*
X133858070Y-125334332D01*
X133858070Y-125334332D02*
X133929499Y-125200999D01*
X133929499Y-125200999D02*
X134000927Y-125134332D01*
X134000927Y-125134332D02*
X134143784Y-125067666D01*
X134143784Y-125067666D02*
X134572356Y-125067666D01*
X134572356Y-125067666D02*
X134715213Y-125134332D01*
X134715213Y-125134332D02*
X134786642Y-125200999D01*
X134786642Y-125200999D02*
X134858070Y-125334332D01*
X134858070Y-125334332D02*
X134858070Y-125534332D01*
X133858070Y-124667665D02*
X133858070Y-124134332D01*
X133358070Y-124467665D02*
X134643784Y-124467665D01*
X134643784Y-124467665D02*
X134786642Y-124400999D01*
X134786642Y-124400999D02*
X134858070Y-124267665D01*
X134858070Y-124267665D02*
X134858070Y-124134332D01*
X134858070Y-123467665D02*
X134786642Y-123600999D01*
X134786642Y-123600999D02*
X134715213Y-123667665D01*
X134715213Y-123667665D02*
X134572356Y-123734332D01*
X134572356Y-123734332D02*
X134143784Y-123734332D01*
X134143784Y-123734332D02*
X134000927Y-123667665D01*
X134000927Y-123667665D02*
X133929499Y-123600999D01*
X133929499Y-123600999D02*
X133858070Y-123467665D01*
X133858070Y-123467665D02*
X133858070Y-123267665D01*
X133858070Y-123267665D02*
X133929499Y-123134332D01*
X133929499Y-123134332D02*
X134000927Y-123067665D01*
X134000927Y-123067665D02*
X134143784Y-123000999D01*
X134143784Y-123000999D02*
X134572356Y-123000999D01*
X134572356Y-123000999D02*
X134715213Y-123067665D01*
X134715213Y-123067665D02*
X134786642Y-123134332D01*
X134786642Y-123134332D02*
X134858070Y-123267665D01*
X134858070Y-123267665D02*
X134858070Y-123467665D01*
X134858070Y-122400998D02*
X133358070Y-122400998D01*
X133358070Y-122400998D02*
X133358070Y-121867665D01*
X133358070Y-121867665D02*
X133429499Y-121734332D01*
X133429499Y-121734332D02*
X133500927Y-121667665D01*
X133500927Y-121667665D02*
X133643784Y-121600998D01*
X133643784Y-121600998D02*
X133858070Y-121600998D01*
X133858070Y-121600998D02*
X134000927Y-121667665D01*
X134000927Y-121667665D02*
X134072356Y-121734332D01*
X134072356Y-121734332D02*
X134143784Y-121867665D01*
X134143784Y-121867665D02*
X134143784Y-122400998D01*
X134858070Y-120400998D02*
X134072356Y-120400998D01*
X134072356Y-120400998D02*
X133929499Y-120467665D01*
X133929499Y-120467665D02*
X133858070Y-120600998D01*
X133858070Y-120600998D02*
X133858070Y-120867665D01*
X133858070Y-120867665D02*
X133929499Y-121000998D01*
X134786642Y-120400998D02*
X134858070Y-120534332D01*
X134858070Y-120534332D02*
X134858070Y-120867665D01*
X134858070Y-120867665D02*
X134786642Y-121000998D01*
X134786642Y-121000998D02*
X134643784Y-121067665D01*
X134643784Y-121067665D02*
X134500927Y-121067665D01*
X134500927Y-121067665D02*
X134358070Y-121000998D01*
X134358070Y-121000998D02*
X134286642Y-120867665D01*
X134286642Y-120867665D02*
X134286642Y-120534332D01*
X134286642Y-120534332D02*
X134215213Y-120400998D01*
X134858070Y-119734331D02*
X133358070Y-119734331D01*
X134286642Y-119600998D02*
X134858070Y-119200998D01*
X133858070Y-119200998D02*
X134429499Y-119734331D01*
X133358070Y-118000998D02*
X133358070Y-118267665D01*
X133358070Y-118267665D02*
X133429499Y-118400998D01*
X133429499Y-118400998D02*
X133500927Y-118467665D01*
X133500927Y-118467665D02*
X133715213Y-118600998D01*
X133715213Y-118600998D02*
X134000927Y-118667665D01*
X134000927Y-118667665D02*
X134572356Y-118667665D01*
X134572356Y-118667665D02*
X134715213Y-118600998D01*
X134715213Y-118600998D02*
X134786642Y-118534332D01*
X134786642Y-118534332D02*
X134858070Y-118400998D01*
X134858070Y-118400998D02*
X134858070Y-118134332D01*
X134858070Y-118134332D02*
X134786642Y-118000998D01*
X134786642Y-118000998D02*
X134715213Y-117934332D01*
X134715213Y-117934332D02*
X134572356Y-117867665D01*
X134572356Y-117867665D02*
X134215213Y-117867665D01*
X134215213Y-117867665D02*
X134072356Y-117934332D01*
X134072356Y-117934332D02*
X134000927Y-118000998D01*
X134000927Y-118000998D02*
X133929499Y-118134332D01*
X133929499Y-118134332D02*
X133929499Y-118400998D01*
X133929499Y-118400998D02*
X134000927Y-118534332D01*
X134000927Y-118534332D02*
X134072356Y-118600998D01*
X134072356Y-118600998D02*
X134215213Y-118667665D01*
X133858070Y-116667665D02*
X134858070Y-116667665D01*
X133286642Y-117000999D02*
X134358070Y-117334332D01*
X134358070Y-117334332D02*
X134358070Y-116467665D01*
X137272986Y-127734333D02*
X135772986Y-127734333D01*
X136344415Y-127734333D02*
X136272986Y-127601000D01*
X136272986Y-127601000D02*
X136272986Y-127334333D01*
X136272986Y-127334333D02*
X136344415Y-127201000D01*
X136344415Y-127201000D02*
X136415843Y-127134333D01*
X136415843Y-127134333D02*
X136558700Y-127067667D01*
X136558700Y-127067667D02*
X136987272Y-127067667D01*
X136987272Y-127067667D02*
X137130129Y-127134333D01*
X137130129Y-127134333D02*
X137201558Y-127201000D01*
X137201558Y-127201000D02*
X137272986Y-127334333D01*
X137272986Y-127334333D02*
X137272986Y-127601000D01*
X137272986Y-127601000D02*
X137201558Y-127734333D01*
X136272986Y-126601000D02*
X137272986Y-126267666D01*
X136272986Y-125934333D02*
X137272986Y-126267666D01*
X137272986Y-126267666D02*
X137630129Y-126401000D01*
X137630129Y-126401000D02*
X137701558Y-126467666D01*
X137701558Y-126467666D02*
X137772986Y-126601000D01*
X136487272Y-123867666D02*
X136558700Y-123667666D01*
X136558700Y-123667666D02*
X136630129Y-123600999D01*
X136630129Y-123600999D02*
X136772986Y-123534332D01*
X136772986Y-123534332D02*
X136987272Y-123534332D01*
X136987272Y-123534332D02*
X137130129Y-123600999D01*
X137130129Y-123600999D02*
X137201558Y-123667666D01*
X137201558Y-123667666D02*
X137272986Y-123800999D01*
X137272986Y-123800999D02*
X137272986Y-124334332D01*
X137272986Y-124334332D02*
X135772986Y-124334332D01*
X135772986Y-124334332D02*
X135772986Y-123867666D01*
X135772986Y-123867666D02*
X135844415Y-123734332D01*
X135844415Y-123734332D02*
X135915843Y-123667666D01*
X135915843Y-123667666D02*
X136058700Y-123600999D01*
X136058700Y-123600999D02*
X136201558Y-123600999D01*
X136201558Y-123600999D02*
X136344415Y-123667666D01*
X136344415Y-123667666D02*
X136415843Y-123734332D01*
X136415843Y-123734332D02*
X136487272Y-123867666D01*
X136487272Y-123867666D02*
X136487272Y-124334332D01*
X137272986Y-122934332D02*
X136272986Y-122934332D01*
X135772986Y-122934332D02*
X135844415Y-123000999D01*
X135844415Y-123000999D02*
X135915843Y-122934332D01*
X135915843Y-122934332D02*
X135844415Y-122867666D01*
X135844415Y-122867666D02*
X135772986Y-122934332D01*
X135772986Y-122934332D02*
X135915843Y-122934332D01*
X136272986Y-121667665D02*
X137487272Y-121667665D01*
X137487272Y-121667665D02*
X137630129Y-121734332D01*
X137630129Y-121734332D02*
X137701558Y-121800999D01*
X137701558Y-121800999D02*
X137772986Y-121934332D01*
X137772986Y-121934332D02*
X137772986Y-122134332D01*
X137772986Y-122134332D02*
X137701558Y-122267665D01*
X137201558Y-121667665D02*
X137272986Y-121800999D01*
X137272986Y-121800999D02*
X137272986Y-122067665D01*
X137272986Y-122067665D02*
X137201558Y-122200999D01*
X137201558Y-122200999D02*
X137130129Y-122267665D01*
X137130129Y-122267665D02*
X136987272Y-122334332D01*
X136987272Y-122334332D02*
X136558700Y-122334332D01*
X136558700Y-122334332D02*
X136415843Y-122267665D01*
X136415843Y-122267665D02*
X136344415Y-122200999D01*
X136344415Y-122200999D02*
X136272986Y-122067665D01*
X136272986Y-122067665D02*
X136272986Y-121800999D01*
X136272986Y-121800999D02*
X136344415Y-121667665D01*
X137272986Y-121000998D02*
X135772986Y-121000998D01*
X136344415Y-121000998D02*
X136272986Y-120867665D01*
X136272986Y-120867665D02*
X136272986Y-120600998D01*
X136272986Y-120600998D02*
X136344415Y-120467665D01*
X136344415Y-120467665D02*
X136415843Y-120400998D01*
X136415843Y-120400998D02*
X136558700Y-120334332D01*
X136558700Y-120334332D02*
X136987272Y-120334332D01*
X136987272Y-120334332D02*
X137130129Y-120400998D01*
X137130129Y-120400998D02*
X137201558Y-120467665D01*
X137201558Y-120467665D02*
X137272986Y-120600998D01*
X137272986Y-120600998D02*
X137272986Y-120867665D01*
X137272986Y-120867665D02*
X137201558Y-121000998D01*
X137272986Y-119134331D02*
X136487272Y-119134331D01*
X136487272Y-119134331D02*
X136344415Y-119200998D01*
X136344415Y-119200998D02*
X136272986Y-119334331D01*
X136272986Y-119334331D02*
X136272986Y-119600998D01*
X136272986Y-119600998D02*
X136344415Y-119734331D01*
X137201558Y-119134331D02*
X137272986Y-119267665D01*
X137272986Y-119267665D02*
X137272986Y-119600998D01*
X137272986Y-119600998D02*
X137201558Y-119734331D01*
X137201558Y-119734331D02*
X137058700Y-119800998D01*
X137058700Y-119800998D02*
X136915843Y-119800998D01*
X136915843Y-119800998D02*
X136772986Y-119734331D01*
X136772986Y-119734331D02*
X136701558Y-119600998D01*
X136701558Y-119600998D02*
X136701558Y-119267665D01*
X136701558Y-119267665D02*
X136630129Y-119134331D01*
X137201558Y-118534331D02*
X137272986Y-118400998D01*
X137272986Y-118400998D02*
X137272986Y-118134331D01*
X137272986Y-118134331D02*
X137201558Y-118000998D01*
X137201558Y-118000998D02*
X137058700Y-117934331D01*
X137058700Y-117934331D02*
X136987272Y-117934331D01*
X136987272Y-117934331D02*
X136844415Y-118000998D01*
X136844415Y-118000998D02*
X136772986Y-118134331D01*
X136772986Y-118134331D02*
X136772986Y-118334331D01*
X136772986Y-118334331D02*
X136701558Y-118467664D01*
X136701558Y-118467664D02*
X136558700Y-118534331D01*
X136558700Y-118534331D02*
X136487272Y-118534331D01*
X136487272Y-118534331D02*
X136344415Y-118467664D01*
X136344415Y-118467664D02*
X136272986Y-118334331D01*
X136272986Y-118334331D02*
X136272986Y-118134331D01*
X136272986Y-118134331D02*
X136344415Y-118000998D01*
X137201558Y-117400998D02*
X137272986Y-117267665D01*
X137272986Y-117267665D02*
X137272986Y-117000998D01*
X137272986Y-117000998D02*
X137201558Y-116867665D01*
X137201558Y-116867665D02*
X137058700Y-116800998D01*
X137058700Y-116800998D02*
X136987272Y-116800998D01*
X136987272Y-116800998D02*
X136844415Y-116867665D01*
X136844415Y-116867665D02*
X136772986Y-117000998D01*
X136772986Y-117000998D02*
X136772986Y-117200998D01*
X136772986Y-117200998D02*
X136701558Y-117334331D01*
X136701558Y-117334331D02*
X136558700Y-117400998D01*
X136558700Y-117400998D02*
X136487272Y-117400998D01*
X136487272Y-117400998D02*
X136344415Y-117334331D01*
X136344415Y-117334331D02*
X136272986Y-117200998D01*
X136272986Y-117200998D02*
X136272986Y-117000998D01*
X136272986Y-117000998D02*
X136344415Y-116867665D01*
D11*
X130248819Y-101644220D02*
X129248819Y-101644220D01*
X129248819Y-101644220D02*
X129248819Y-101406125D01*
X129248819Y-101406125D02*
X129296438Y-101263268D01*
X129296438Y-101263268D02*
X129391676Y-101168030D01*
X129391676Y-101168030D02*
X129486914Y-101120411D01*
X129486914Y-101120411D02*
X129677390Y-101072792D01*
X129677390Y-101072792D02*
X129820247Y-101072792D01*
X129820247Y-101072792D02*
X130010723Y-101120411D01*
X130010723Y-101120411D02*
X130105961Y-101168030D01*
X130105961Y-101168030D02*
X130201200Y-101263268D01*
X130201200Y-101263268D02*
X130248819Y-101406125D01*
X130248819Y-101406125D02*
X130248819Y-101644220D01*
X129725009Y-100644220D02*
X129725009Y-100310887D01*
X130248819Y-100168030D02*
X130248819Y-100644220D01*
X130248819Y-100644220D02*
X129248819Y-100644220D01*
X129248819Y-100644220D02*
X129248819Y-100168030D01*
X129248819Y-99882315D02*
X129248819Y-99310887D01*
X130248819Y-99596601D02*
X129248819Y-99596601D01*
X129725009Y-98977553D02*
X129725009Y-98644220D01*
X130248819Y-98501363D02*
X130248819Y-98977553D01*
X130248819Y-98977553D02*
X129248819Y-98977553D01*
X129248819Y-98977553D02*
X129248819Y-98501363D01*
X130153580Y-97501363D02*
X130201200Y-97548982D01*
X130201200Y-97548982D02*
X130248819Y-97691839D01*
X130248819Y-97691839D02*
X130248819Y-97787077D01*
X130248819Y-97787077D02*
X130201200Y-97929934D01*
X130201200Y-97929934D02*
X130105961Y-98025172D01*
X130105961Y-98025172D02*
X130010723Y-98072791D01*
X130010723Y-98072791D02*
X129820247Y-98120410D01*
X129820247Y-98120410D02*
X129677390Y-98120410D01*
X129677390Y-98120410D02*
X129486914Y-98072791D01*
X129486914Y-98072791D02*
X129391676Y-98025172D01*
X129391676Y-98025172D02*
X129296438Y-97929934D01*
X129296438Y-97929934D02*
X129248819Y-97787077D01*
X129248819Y-97787077D02*
X129248819Y-97691839D01*
X129248819Y-97691839D02*
X129296438Y-97548982D01*
X129296438Y-97548982D02*
X129344057Y-97501363D01*
X129248819Y-97215648D02*
X129248819Y-96644220D01*
X130248819Y-96929934D02*
X129248819Y-96929934D01*
X125168819Y-101644220D02*
X124168819Y-101644220D01*
X124168819Y-101644220D02*
X124168819Y-101406125D01*
X124168819Y-101406125D02*
X124216438Y-101263268D01*
X124216438Y-101263268D02*
X124311676Y-101168030D01*
X124311676Y-101168030D02*
X124406914Y-101120411D01*
X124406914Y-101120411D02*
X124597390Y-101072792D01*
X124597390Y-101072792D02*
X124740247Y-101072792D01*
X124740247Y-101072792D02*
X124930723Y-101120411D01*
X124930723Y-101120411D02*
X125025961Y-101168030D01*
X125025961Y-101168030D02*
X125121200Y-101263268D01*
X125121200Y-101263268D02*
X125168819Y-101406125D01*
X125168819Y-101406125D02*
X125168819Y-101644220D01*
X124264057Y-100691839D02*
X124216438Y-100644220D01*
X124216438Y-100644220D02*
X124168819Y-100548982D01*
X124168819Y-100548982D02*
X124168819Y-100310887D01*
X124168819Y-100310887D02*
X124216438Y-100215649D01*
X124216438Y-100215649D02*
X124264057Y-100168030D01*
X124264057Y-100168030D02*
X124359295Y-100120411D01*
X124359295Y-100120411D02*
X124454533Y-100120411D01*
X124454533Y-100120411D02*
X124597390Y-100168030D01*
X124597390Y-100168030D02*
X125168819Y-100739458D01*
X125168819Y-100739458D02*
X125168819Y-100120411D01*
X140123104Y-110747112D02*
X140123104Y-110270922D01*
X140408819Y-110842350D02*
X139408819Y-110509017D01*
X139408819Y-110509017D02*
X140408819Y-110175684D01*
X140408819Y-109318541D02*
X140408819Y-109889969D01*
X140408819Y-109604255D02*
X139408819Y-109604255D01*
X139408819Y-109604255D02*
X139551676Y-109699493D01*
X139551676Y-109699493D02*
X139646914Y-109794731D01*
X139646914Y-109794731D02*
X139694533Y-109889969D01*
X139408819Y-108699493D02*
X139408819Y-108604255D01*
X139408819Y-108604255D02*
X139456438Y-108509017D01*
X139456438Y-108509017D02*
X139504057Y-108461398D01*
X139504057Y-108461398D02*
X139599295Y-108413779D01*
X139599295Y-108413779D02*
X139789771Y-108366160D01*
X139789771Y-108366160D02*
X140027866Y-108366160D01*
X140027866Y-108366160D02*
X140218342Y-108413779D01*
X140218342Y-108413779D02*
X140313580Y-108461398D01*
X140313580Y-108461398D02*
X140361200Y-108509017D01*
X140361200Y-108509017D02*
X140408819Y-108604255D01*
X140408819Y-108604255D02*
X140408819Y-108699493D01*
X140408819Y-108699493D02*
X140361200Y-108794731D01*
X140361200Y-108794731D02*
X140313580Y-108842350D01*
X140313580Y-108842350D02*
X140218342Y-108889969D01*
X140218342Y-108889969D02*
X140027866Y-108937588D01*
X140027866Y-108937588D02*
X139789771Y-108937588D01*
X139789771Y-108937588D02*
X139599295Y-108889969D01*
X139599295Y-108889969D02*
X139504057Y-108842350D01*
X139504057Y-108842350D02*
X139456438Y-108794731D01*
X139456438Y-108794731D02*
X139408819Y-108699493D01*
X157903104Y-101691839D02*
X157903104Y-101215649D01*
X158188819Y-101787077D02*
X157188819Y-101453744D01*
X157188819Y-101453744D02*
X158188819Y-101120411D01*
X158188819Y-100263268D02*
X158188819Y-100834696D01*
X158188819Y-100548982D02*
X157188819Y-100548982D01*
X157188819Y-100548982D02*
X157331676Y-100644220D01*
X157331676Y-100644220D02*
X157426914Y-100739458D01*
X157426914Y-100739458D02*
X157474533Y-100834696D01*
X157284057Y-99882315D02*
X157236438Y-99834696D01*
X157236438Y-99834696D02*
X157188819Y-99739458D01*
X157188819Y-99739458D02*
X157188819Y-99501363D01*
X157188819Y-99501363D02*
X157236438Y-99406125D01*
X157236438Y-99406125D02*
X157284057Y-99358506D01*
X157284057Y-99358506D02*
X157379295Y-99310887D01*
X157379295Y-99310887D02*
X157474533Y-99310887D01*
X157474533Y-99310887D02*
X157617390Y-99358506D01*
X157617390Y-99358506D02*
X158188819Y-99929934D01*
X158188819Y-99929934D02*
X158188819Y-99310887D01*
X137868819Y-109889969D02*
X136868819Y-109889969D01*
X136868819Y-109889969D02*
X136868819Y-109651874D01*
X136868819Y-109651874D02*
X136916438Y-109509017D01*
X136916438Y-109509017D02*
X137011676Y-109413779D01*
X137011676Y-109413779D02*
X137106914Y-109366160D01*
X137106914Y-109366160D02*
X137297390Y-109318541D01*
X137297390Y-109318541D02*
X137440247Y-109318541D01*
X137440247Y-109318541D02*
X137630723Y-109366160D01*
X137630723Y-109366160D02*
X137725961Y-109413779D01*
X137725961Y-109413779D02*
X137821200Y-109509017D01*
X137821200Y-109509017D02*
X137868819Y-109651874D01*
X137868819Y-109651874D02*
X137868819Y-109889969D01*
X136868819Y-108985207D02*
X136868819Y-108318541D01*
X136868819Y-108318541D02*
X137868819Y-108747112D01*
X155363104Y-101691839D02*
X155363104Y-101215649D01*
X155648819Y-101787077D02*
X154648819Y-101453744D01*
X154648819Y-101453744D02*
X155648819Y-101120411D01*
X154648819Y-100882315D02*
X154648819Y-100215649D01*
X154648819Y-100215649D02*
X155648819Y-100644220D01*
X132788819Y-101644220D02*
X131788819Y-101644220D01*
X131788819Y-101644220D02*
X131788819Y-101406125D01*
X131788819Y-101406125D02*
X131836438Y-101263268D01*
X131836438Y-101263268D02*
X131931676Y-101168030D01*
X131931676Y-101168030D02*
X132026914Y-101120411D01*
X132026914Y-101120411D02*
X132217390Y-101072792D01*
X132217390Y-101072792D02*
X132360247Y-101072792D01*
X132360247Y-101072792D02*
X132550723Y-101120411D01*
X132550723Y-101120411D02*
X132645961Y-101168030D01*
X132645961Y-101168030D02*
X132741200Y-101263268D01*
X132741200Y-101263268D02*
X132788819Y-101406125D01*
X132788819Y-101406125D02*
X132788819Y-101644220D01*
X132788819Y-100120411D02*
X132788819Y-100691839D01*
X132788819Y-100406125D02*
X131788819Y-100406125D01*
X131788819Y-100406125D02*
X131931676Y-100501363D01*
X131931676Y-100501363D02*
X132026914Y-100596601D01*
X132026914Y-100596601D02*
X132074533Y-100691839D01*
X152823104Y-96396112D02*
X152823104Y-95919922D01*
X153108819Y-96491350D02*
X152108819Y-96158017D01*
X152108819Y-96158017D02*
X153108819Y-95824684D01*
X153108819Y-94967541D02*
X153108819Y-95538969D01*
X153108819Y-95253255D02*
X152108819Y-95253255D01*
X152108819Y-95253255D02*
X152251676Y-95348493D01*
X152251676Y-95348493D02*
X152346914Y-95443731D01*
X152346914Y-95443731D02*
X152394533Y-95538969D01*
X152108819Y-94634207D02*
X152108819Y-94015160D01*
X152108819Y-94015160D02*
X152489771Y-94348493D01*
X152489771Y-94348493D02*
X152489771Y-94205636D01*
X152489771Y-94205636D02*
X152537390Y-94110398D01*
X152537390Y-94110398D02*
X152585009Y-94062779D01*
X152585009Y-94062779D02*
X152680247Y-94015160D01*
X152680247Y-94015160D02*
X152918342Y-94015160D01*
X152918342Y-94015160D02*
X153013580Y-94062779D01*
X153013580Y-94062779D02*
X153061200Y-94110398D01*
X153061200Y-94110398D02*
X153108819Y-94205636D01*
X153108819Y-94205636D02*
X153108819Y-94491350D01*
X153108819Y-94491350D02*
X153061200Y-94586588D01*
X153061200Y-94586588D02*
X153013580Y-94634207D01*
X126708819Y-96919921D02*
X126708819Y-96300874D01*
X126708819Y-96300874D02*
X127089771Y-96634207D01*
X127089771Y-96634207D02*
X127089771Y-96491350D01*
X127089771Y-96491350D02*
X127137390Y-96396112D01*
X127137390Y-96396112D02*
X127185009Y-96348493D01*
X127185009Y-96348493D02*
X127280247Y-96300874D01*
X127280247Y-96300874D02*
X127518342Y-96300874D01*
X127518342Y-96300874D02*
X127613580Y-96348493D01*
X127613580Y-96348493D02*
X127661200Y-96396112D01*
X127661200Y-96396112D02*
X127708819Y-96491350D01*
X127708819Y-96491350D02*
X127708819Y-96777064D01*
X127708819Y-96777064D02*
X127661200Y-96872302D01*
X127661200Y-96872302D02*
X127613580Y-96919921D01*
X127613580Y-95872302D02*
X127661200Y-95824683D01*
X127661200Y-95824683D02*
X127708819Y-95872302D01*
X127708819Y-95872302D02*
X127661200Y-95919921D01*
X127661200Y-95919921D02*
X127613580Y-95872302D01*
X127613580Y-95872302D02*
X127708819Y-95872302D01*
X126708819Y-95491350D02*
X126708819Y-94872303D01*
X126708819Y-94872303D02*
X127089771Y-95205636D01*
X127089771Y-95205636D02*
X127089771Y-95062779D01*
X127089771Y-95062779D02*
X127137390Y-94967541D01*
X127137390Y-94967541D02*
X127185009Y-94919922D01*
X127185009Y-94919922D02*
X127280247Y-94872303D01*
X127280247Y-94872303D02*
X127518342Y-94872303D01*
X127518342Y-94872303D02*
X127613580Y-94919922D01*
X127613580Y-94919922D02*
X127661200Y-94967541D01*
X127661200Y-94967541D02*
X127708819Y-95062779D01*
X127708819Y-95062779D02*
X127708819Y-95348493D01*
X127708819Y-95348493D02*
X127661200Y-95443731D01*
X127661200Y-95443731D02*
X127613580Y-95491350D01*
X126708819Y-94586588D02*
X127708819Y-94253255D01*
X127708819Y-94253255D02*
X126708819Y-93919922D01*
X126708819Y-101739458D02*
X126708819Y-101120411D01*
X126708819Y-101120411D02*
X127089771Y-101453744D01*
X127089771Y-101453744D02*
X127089771Y-101310887D01*
X127089771Y-101310887D02*
X127137390Y-101215649D01*
X127137390Y-101215649D02*
X127185009Y-101168030D01*
X127185009Y-101168030D02*
X127280247Y-101120411D01*
X127280247Y-101120411D02*
X127518342Y-101120411D01*
X127518342Y-101120411D02*
X127613580Y-101168030D01*
X127613580Y-101168030D02*
X127661200Y-101215649D01*
X127661200Y-101215649D02*
X127708819Y-101310887D01*
X127708819Y-101310887D02*
X127708819Y-101596601D01*
X127708819Y-101596601D02*
X127661200Y-101691839D01*
X127661200Y-101691839D02*
X127613580Y-101739458D01*
X127613580Y-100691839D02*
X127661200Y-100644220D01*
X127661200Y-100644220D02*
X127708819Y-100691839D01*
X127708819Y-100691839D02*
X127661200Y-100739458D01*
X127661200Y-100739458D02*
X127613580Y-100691839D01*
X127613580Y-100691839D02*
X127708819Y-100691839D01*
X126708819Y-100310887D02*
X126708819Y-99691840D01*
X126708819Y-99691840D02*
X127089771Y-100025173D01*
X127089771Y-100025173D02*
X127089771Y-99882316D01*
X127089771Y-99882316D02*
X127137390Y-99787078D01*
X127137390Y-99787078D02*
X127185009Y-99739459D01*
X127185009Y-99739459D02*
X127280247Y-99691840D01*
X127280247Y-99691840D02*
X127518342Y-99691840D01*
X127518342Y-99691840D02*
X127613580Y-99739459D01*
X127613580Y-99739459D02*
X127661200Y-99787078D01*
X127661200Y-99787078D02*
X127708819Y-99882316D01*
X127708819Y-99882316D02*
X127708819Y-100168030D01*
X127708819Y-100168030D02*
X127661200Y-100263268D01*
X127661200Y-100263268D02*
X127613580Y-100310887D01*
X126708819Y-99406125D02*
X127708819Y-99072792D01*
X127708819Y-99072792D02*
X126708819Y-98739459D01*
X162316438Y-86769411D02*
X162268819Y-86864649D01*
X162268819Y-86864649D02*
X162268819Y-87007506D01*
X162268819Y-87007506D02*
X162316438Y-87150363D01*
X162316438Y-87150363D02*
X162411676Y-87245601D01*
X162411676Y-87245601D02*
X162506914Y-87293220D01*
X162506914Y-87293220D02*
X162697390Y-87340839D01*
X162697390Y-87340839D02*
X162840247Y-87340839D01*
X162840247Y-87340839D02*
X163030723Y-87293220D01*
X163030723Y-87293220D02*
X163125961Y-87245601D01*
X163125961Y-87245601D02*
X163221200Y-87150363D01*
X163221200Y-87150363D02*
X163268819Y-87007506D01*
X163268819Y-87007506D02*
X163268819Y-86912268D01*
X163268819Y-86912268D02*
X163221200Y-86769411D01*
X163221200Y-86769411D02*
X163173580Y-86721792D01*
X163173580Y-86721792D02*
X162840247Y-86721792D01*
X162840247Y-86721792D02*
X162840247Y-86912268D01*
X163268819Y-86293220D02*
X162268819Y-86293220D01*
X162268819Y-86293220D02*
X163268819Y-85721792D01*
X163268819Y-85721792D02*
X162268819Y-85721792D01*
X163268819Y-85245601D02*
X162268819Y-85245601D01*
X162268819Y-85245601D02*
X162268819Y-85007506D01*
X162268819Y-85007506D02*
X162316438Y-84864649D01*
X162316438Y-84864649D02*
X162411676Y-84769411D01*
X162411676Y-84769411D02*
X162506914Y-84721792D01*
X162506914Y-84721792D02*
X162697390Y-84674173D01*
X162697390Y-84674173D02*
X162840247Y-84674173D01*
X162840247Y-84674173D02*
X163030723Y-84721792D01*
X163030723Y-84721792D02*
X163125961Y-84769411D01*
X163125961Y-84769411D02*
X163221200Y-84864649D01*
X163221200Y-84864649D02*
X163268819Y-85007506D01*
X163268819Y-85007506D02*
X163268819Y-85245601D01*
X135328819Y-101644220D02*
X134328819Y-101644220D01*
X134328819Y-101644220D02*
X134328819Y-101406125D01*
X134328819Y-101406125D02*
X134376438Y-101263268D01*
X134376438Y-101263268D02*
X134471676Y-101168030D01*
X134471676Y-101168030D02*
X134566914Y-101120411D01*
X134566914Y-101120411D02*
X134757390Y-101072792D01*
X134757390Y-101072792D02*
X134900247Y-101072792D01*
X134900247Y-101072792D02*
X135090723Y-101120411D01*
X135090723Y-101120411D02*
X135185961Y-101168030D01*
X135185961Y-101168030D02*
X135281200Y-101263268D01*
X135281200Y-101263268D02*
X135328819Y-101406125D01*
X135328819Y-101406125D02*
X135328819Y-101644220D01*
X134328819Y-100453744D02*
X134328819Y-100358506D01*
X134328819Y-100358506D02*
X134376438Y-100263268D01*
X134376438Y-100263268D02*
X134424057Y-100215649D01*
X134424057Y-100215649D02*
X134519295Y-100168030D01*
X134519295Y-100168030D02*
X134709771Y-100120411D01*
X134709771Y-100120411D02*
X134947866Y-100120411D01*
X134947866Y-100120411D02*
X135138342Y-100168030D01*
X135138342Y-100168030D02*
X135233580Y-100215649D01*
X135233580Y-100215649D02*
X135281200Y-100263268D01*
X135281200Y-100263268D02*
X135328819Y-100358506D01*
X135328819Y-100358506D02*
X135328819Y-100453744D01*
X135328819Y-100453744D02*
X135281200Y-100548982D01*
X135281200Y-100548982D02*
X135233580Y-100596601D01*
X135233580Y-100596601D02*
X135138342Y-100644220D01*
X135138342Y-100644220D02*
X134947866Y-100691839D01*
X134947866Y-100691839D02*
X134709771Y-100691839D01*
X134709771Y-100691839D02*
X134519295Y-100644220D01*
X134519295Y-100644220D02*
X134424057Y-100596601D01*
X134424057Y-100596601D02*
X134376438Y-100548982D01*
X134376438Y-100548982D02*
X134328819Y-100453744D01*
X125168819Y-87293220D02*
X124168819Y-87293220D01*
X124168819Y-87293220D02*
X124168819Y-87055125D01*
X124168819Y-87055125D02*
X124216438Y-86912268D01*
X124216438Y-86912268D02*
X124311676Y-86817030D01*
X124311676Y-86817030D02*
X124406914Y-86769411D01*
X124406914Y-86769411D02*
X124597390Y-86721792D01*
X124597390Y-86721792D02*
X124740247Y-86721792D01*
X124740247Y-86721792D02*
X124930723Y-86769411D01*
X124930723Y-86769411D02*
X125025961Y-86817030D01*
X125025961Y-86817030D02*
X125121200Y-86912268D01*
X125121200Y-86912268D02*
X125168819Y-87055125D01*
X125168819Y-87055125D02*
X125168819Y-87293220D01*
X124264057Y-86340839D02*
X124216438Y-86293220D01*
X124216438Y-86293220D02*
X124168819Y-86197982D01*
X124168819Y-86197982D02*
X124168819Y-85959887D01*
X124168819Y-85959887D02*
X124216438Y-85864649D01*
X124216438Y-85864649D02*
X124264057Y-85817030D01*
X124264057Y-85817030D02*
X124359295Y-85769411D01*
X124359295Y-85769411D02*
X124454533Y-85769411D01*
X124454533Y-85769411D02*
X124597390Y-85817030D01*
X124597390Y-85817030D02*
X125168819Y-86388458D01*
X125168819Y-86388458D02*
X125168819Y-85769411D01*
X157903104Y-96396112D02*
X157903104Y-95919922D01*
X158188819Y-96491350D02*
X157188819Y-96158017D01*
X157188819Y-96158017D02*
X158188819Y-95824684D01*
X158188819Y-94967541D02*
X158188819Y-95538969D01*
X158188819Y-95253255D02*
X157188819Y-95253255D01*
X157188819Y-95253255D02*
X157331676Y-95348493D01*
X157331676Y-95348493D02*
X157426914Y-95443731D01*
X157426914Y-95443731D02*
X157474533Y-95538969D01*
X157188819Y-94062779D02*
X157188819Y-94538969D01*
X157188819Y-94538969D02*
X157665009Y-94586588D01*
X157665009Y-94586588D02*
X157617390Y-94538969D01*
X157617390Y-94538969D02*
X157569771Y-94443731D01*
X157569771Y-94443731D02*
X157569771Y-94205636D01*
X157569771Y-94205636D02*
X157617390Y-94110398D01*
X157617390Y-94110398D02*
X157665009Y-94062779D01*
X157665009Y-94062779D02*
X157760247Y-94015160D01*
X157760247Y-94015160D02*
X157998342Y-94015160D01*
X157998342Y-94015160D02*
X158093580Y-94062779D01*
X158093580Y-94062779D02*
X158141200Y-94110398D01*
X158141200Y-94110398D02*
X158188819Y-94205636D01*
X158188819Y-94205636D02*
X158188819Y-94443731D01*
X158188819Y-94443731D02*
X158141200Y-94538969D01*
X158141200Y-94538969D02*
X158093580Y-94586588D01*
D10*
X151225213Y-131034332D02*
X151296642Y-131100999D01*
X151296642Y-131100999D02*
X151368070Y-131300999D01*
X151368070Y-131300999D02*
X151368070Y-131434332D01*
X151368070Y-131434332D02*
X151296642Y-131634332D01*
X151296642Y-131634332D02*
X151153784Y-131767666D01*
X151153784Y-131767666D02*
X151010927Y-131834332D01*
X151010927Y-131834332D02*
X150725213Y-131900999D01*
X150725213Y-131900999D02*
X150510927Y-131900999D01*
X150510927Y-131900999D02*
X150225213Y-131834332D01*
X150225213Y-131834332D02*
X150082356Y-131767666D01*
X150082356Y-131767666D02*
X149939499Y-131634332D01*
X149939499Y-131634332D02*
X149868070Y-131434332D01*
X149868070Y-131434332D02*
X149868070Y-131300999D01*
X149868070Y-131300999D02*
X149939499Y-131100999D01*
X149939499Y-131100999D02*
X150010927Y-131034332D01*
X150582356Y-130434332D02*
X150582356Y-129967666D01*
X151368070Y-129767666D02*
X151368070Y-130434332D01*
X151368070Y-130434332D02*
X149868070Y-130434332D01*
X149868070Y-130434332D02*
X149868070Y-129767666D01*
X151368070Y-128367665D02*
X150653784Y-128834332D01*
X151368070Y-129167665D02*
X149868070Y-129167665D01*
X149868070Y-129167665D02*
X149868070Y-128634332D01*
X149868070Y-128634332D02*
X149939499Y-128500999D01*
X149939499Y-128500999D02*
X150010927Y-128434332D01*
X150010927Y-128434332D02*
X150153784Y-128367665D01*
X150153784Y-128367665D02*
X150368070Y-128367665D01*
X150368070Y-128367665D02*
X150510927Y-128434332D01*
X150510927Y-128434332D02*
X150582356Y-128500999D01*
X150582356Y-128500999D02*
X150653784Y-128634332D01*
X150653784Y-128634332D02*
X150653784Y-129167665D01*
X151368070Y-127767665D02*
X149868070Y-127767665D01*
X149868070Y-127767665D02*
X151368070Y-126967665D01*
X151368070Y-126967665D02*
X149868070Y-126967665D01*
X150796642Y-126300998D02*
X150796642Y-125234332D01*
X149868070Y-124300999D02*
X149868070Y-124034332D01*
X149868070Y-124034332D02*
X149939499Y-123900999D01*
X149939499Y-123900999D02*
X150082356Y-123767665D01*
X150082356Y-123767665D02*
X150368070Y-123700999D01*
X150368070Y-123700999D02*
X150868070Y-123700999D01*
X150868070Y-123700999D02*
X151153784Y-123767665D01*
X151153784Y-123767665D02*
X151296642Y-123900999D01*
X151296642Y-123900999D02*
X151368070Y-124034332D01*
X151368070Y-124034332D02*
X151368070Y-124300999D01*
X151368070Y-124300999D02*
X151296642Y-124434332D01*
X151296642Y-124434332D02*
X151153784Y-124567665D01*
X151153784Y-124567665D02*
X150868070Y-124634332D01*
X150868070Y-124634332D02*
X150368070Y-124634332D01*
X150368070Y-124634332D02*
X150082356Y-124567665D01*
X150082356Y-124567665D02*
X149939499Y-124434332D01*
X149939499Y-124434332D02*
X149868070Y-124300999D01*
X151368070Y-123100998D02*
X149868070Y-123100998D01*
X150582356Y-123100998D02*
X150582356Y-122300998D01*
X151368070Y-122300998D02*
X149868070Y-122300998D01*
X151368070Y-120967665D02*
X151368070Y-121634331D01*
X151368070Y-121634331D02*
X149868070Y-121634331D01*
X150796642Y-120500998D02*
X150796642Y-119434332D01*
X149868070Y-118900999D02*
X151368070Y-118567665D01*
X151368070Y-118567665D02*
X150296642Y-118300999D01*
X150296642Y-118300999D02*
X151368070Y-118034332D01*
X151368070Y-118034332D02*
X149868070Y-117700999D01*
X150796642Y-117167665D02*
X150796642Y-116100999D01*
X150010927Y-115500999D02*
X149939499Y-115434332D01*
X149939499Y-115434332D02*
X149868070Y-115300999D01*
X149868070Y-115300999D02*
X149868070Y-114967666D01*
X149868070Y-114967666D02*
X149939499Y-114834332D01*
X149939499Y-114834332D02*
X150010927Y-114767666D01*
X150010927Y-114767666D02*
X150153784Y-114700999D01*
X150153784Y-114700999D02*
X150296642Y-114700999D01*
X150296642Y-114700999D02*
X150510927Y-114767666D01*
X150510927Y-114767666D02*
X151368070Y-115567666D01*
X151368070Y-115567666D02*
X151368070Y-114700999D01*
X151225213Y-114100999D02*
X151296642Y-114034333D01*
X151296642Y-114034333D02*
X151368070Y-114100999D01*
X151368070Y-114100999D02*
X151296642Y-114167666D01*
X151296642Y-114167666D02*
X151225213Y-114100999D01*
X151225213Y-114100999D02*
X151368070Y-114100999D01*
X149868070Y-113167666D02*
X149868070Y-113034332D01*
X149868070Y-113034332D02*
X149939499Y-112900999D01*
X149939499Y-112900999D02*
X150010927Y-112834332D01*
X150010927Y-112834332D02*
X150153784Y-112767666D01*
X150153784Y-112767666D02*
X150439499Y-112700999D01*
X150439499Y-112700999D02*
X150796642Y-112700999D01*
X150796642Y-112700999D02*
X151082356Y-112767666D01*
X151082356Y-112767666D02*
X151225213Y-112834332D01*
X151225213Y-112834332D02*
X151296642Y-112900999D01*
X151296642Y-112900999D02*
X151368070Y-113034332D01*
X151368070Y-113034332D02*
X151368070Y-113167666D01*
X151368070Y-113167666D02*
X151296642Y-113300999D01*
X151296642Y-113300999D02*
X151225213Y-113367666D01*
X151225213Y-113367666D02*
X151082356Y-113434332D01*
X151082356Y-113434332D02*
X150796642Y-113500999D01*
X150796642Y-113500999D02*
X150439499Y-113500999D01*
X150439499Y-113500999D02*
X150153784Y-113434332D01*
X150153784Y-113434332D02*
X150010927Y-113367666D01*
X150010927Y-113367666D02*
X149939499Y-113300999D01*
X149939499Y-113300999D02*
X149868070Y-113167666D01*
X152425843Y-129100998D02*
X152354415Y-129034331D01*
X152354415Y-129034331D02*
X152282986Y-128900998D01*
X152282986Y-128900998D02*
X152282986Y-128567665D01*
X152282986Y-128567665D02*
X152354415Y-128434331D01*
X152354415Y-128434331D02*
X152425843Y-128367665D01*
X152425843Y-128367665D02*
X152568700Y-128300998D01*
X152568700Y-128300998D02*
X152711558Y-128300998D01*
X152711558Y-128300998D02*
X152925843Y-128367665D01*
X152925843Y-128367665D02*
X153782986Y-129167665D01*
X153782986Y-129167665D02*
X153782986Y-128300998D01*
X152282986Y-127434332D02*
X152282986Y-127300998D01*
X152282986Y-127300998D02*
X152354415Y-127167665D01*
X152354415Y-127167665D02*
X152425843Y-127100998D01*
X152425843Y-127100998D02*
X152568700Y-127034332D01*
X152568700Y-127034332D02*
X152854415Y-126967665D01*
X152854415Y-126967665D02*
X153211558Y-126967665D01*
X153211558Y-126967665D02*
X153497272Y-127034332D01*
X153497272Y-127034332D02*
X153640129Y-127100998D01*
X153640129Y-127100998D02*
X153711558Y-127167665D01*
X153711558Y-127167665D02*
X153782986Y-127300998D01*
X153782986Y-127300998D02*
X153782986Y-127434332D01*
X153782986Y-127434332D02*
X153711558Y-127567665D01*
X153711558Y-127567665D02*
X153640129Y-127634332D01*
X153640129Y-127634332D02*
X153497272Y-127700998D01*
X153497272Y-127700998D02*
X153211558Y-127767665D01*
X153211558Y-127767665D02*
X152854415Y-127767665D01*
X152854415Y-127767665D02*
X152568700Y-127700998D01*
X152568700Y-127700998D02*
X152425843Y-127634332D01*
X152425843Y-127634332D02*
X152354415Y-127567665D01*
X152354415Y-127567665D02*
X152282986Y-127434332D01*
X152425843Y-126434332D02*
X152354415Y-126367665D01*
X152354415Y-126367665D02*
X152282986Y-126234332D01*
X152282986Y-126234332D02*
X152282986Y-125900999D01*
X152282986Y-125900999D02*
X152354415Y-125767665D01*
X152354415Y-125767665D02*
X152425843Y-125700999D01*
X152425843Y-125700999D02*
X152568700Y-125634332D01*
X152568700Y-125634332D02*
X152711558Y-125634332D01*
X152711558Y-125634332D02*
X152925843Y-125700999D01*
X152925843Y-125700999D02*
X153782986Y-126500999D01*
X153782986Y-126500999D02*
X153782986Y-125634332D01*
X152782986Y-124434332D02*
X153782986Y-124434332D01*
X152211558Y-124767666D02*
X153282986Y-125100999D01*
X153282986Y-125100999D02*
X153282986Y-124234332D01*
X153211558Y-123700999D02*
X153211558Y-122634333D01*
X152282986Y-121701000D02*
X152282986Y-121567666D01*
X152282986Y-121567666D02*
X152354415Y-121434333D01*
X152354415Y-121434333D02*
X152425843Y-121367666D01*
X152425843Y-121367666D02*
X152568700Y-121301000D01*
X152568700Y-121301000D02*
X152854415Y-121234333D01*
X152854415Y-121234333D02*
X153211558Y-121234333D01*
X153211558Y-121234333D02*
X153497272Y-121301000D01*
X153497272Y-121301000D02*
X153640129Y-121367666D01*
X153640129Y-121367666D02*
X153711558Y-121434333D01*
X153711558Y-121434333D02*
X153782986Y-121567666D01*
X153782986Y-121567666D02*
X153782986Y-121701000D01*
X153782986Y-121701000D02*
X153711558Y-121834333D01*
X153711558Y-121834333D02*
X153640129Y-121901000D01*
X153640129Y-121901000D02*
X153497272Y-121967666D01*
X153497272Y-121967666D02*
X153211558Y-122034333D01*
X153211558Y-122034333D02*
X152854415Y-122034333D01*
X152854415Y-122034333D02*
X152568700Y-121967666D01*
X152568700Y-121967666D02*
X152425843Y-121901000D01*
X152425843Y-121901000D02*
X152354415Y-121834333D01*
X152354415Y-121834333D02*
X152282986Y-121701000D01*
X152282986Y-120034333D02*
X152282986Y-120301000D01*
X152282986Y-120301000D02*
X152354415Y-120434333D01*
X152354415Y-120434333D02*
X152425843Y-120501000D01*
X152425843Y-120501000D02*
X152640129Y-120634333D01*
X152640129Y-120634333D02*
X152925843Y-120701000D01*
X152925843Y-120701000D02*
X153497272Y-120701000D01*
X153497272Y-120701000D02*
X153640129Y-120634333D01*
X153640129Y-120634333D02*
X153711558Y-120567667D01*
X153711558Y-120567667D02*
X153782986Y-120434333D01*
X153782986Y-120434333D02*
X153782986Y-120167667D01*
X153782986Y-120167667D02*
X153711558Y-120034333D01*
X153711558Y-120034333D02*
X153640129Y-119967667D01*
X153640129Y-119967667D02*
X153497272Y-119901000D01*
X153497272Y-119901000D02*
X153140129Y-119901000D01*
X153140129Y-119901000D02*
X152997272Y-119967667D01*
X152997272Y-119967667D02*
X152925843Y-120034333D01*
X152925843Y-120034333D02*
X152854415Y-120167667D01*
X152854415Y-120167667D02*
X152854415Y-120434333D01*
X152854415Y-120434333D02*
X152925843Y-120567667D01*
X152925843Y-120567667D02*
X152997272Y-120634333D01*
X152997272Y-120634333D02*
X153140129Y-120701000D01*
X153211558Y-119301000D02*
X153211558Y-118234334D01*
X153782986Y-116834334D02*
X153782986Y-117634334D01*
X153782986Y-117234334D02*
X152282986Y-117234334D01*
X152282986Y-117234334D02*
X152497272Y-117367667D01*
X152497272Y-117367667D02*
X152640129Y-117501001D01*
X152640129Y-117501001D02*
X152711558Y-117634334D01*
X153782986Y-116167668D02*
X153782986Y-115901001D01*
X153782986Y-115901001D02*
X153711558Y-115767668D01*
X153711558Y-115767668D02*
X153640129Y-115701001D01*
X153640129Y-115701001D02*
X153425843Y-115567668D01*
X153425843Y-115567668D02*
X153140129Y-115501001D01*
X153140129Y-115501001D02*
X152568700Y-115501001D01*
X152568700Y-115501001D02*
X152425843Y-115567668D01*
X152425843Y-115567668D02*
X152354415Y-115634334D01*
X152354415Y-115634334D02*
X152282986Y-115767668D01*
X152282986Y-115767668D02*
X152282986Y-116034334D01*
X152282986Y-116034334D02*
X152354415Y-116167668D01*
X152354415Y-116167668D02*
X152425843Y-116234334D01*
X152425843Y-116234334D02*
X152568700Y-116301001D01*
X152568700Y-116301001D02*
X152925843Y-116301001D01*
X152925843Y-116301001D02*
X153068700Y-116234334D01*
X153068700Y-116234334D02*
X153140129Y-116167668D01*
X153140129Y-116167668D02*
X153211558Y-116034334D01*
X153211558Y-116034334D02*
X153211558Y-115767668D01*
X153211558Y-115767668D02*
X153140129Y-115634334D01*
X153140129Y-115634334D02*
X153068700Y-115567668D01*
X153068700Y-115567668D02*
X152925843Y-115501001D01*
D11*
X152823104Y-101691839D02*
X152823104Y-101215649D01*
X153108819Y-101787077D02*
X152108819Y-101453744D01*
X152108819Y-101453744D02*
X153108819Y-101120411D01*
X152108819Y-100358506D02*
X152108819Y-100548982D01*
X152108819Y-100548982D02*
X152156438Y-100644220D01*
X152156438Y-100644220D02*
X152204057Y-100691839D01*
X152204057Y-100691839D02*
X152346914Y-100787077D01*
X152346914Y-100787077D02*
X152537390Y-100834696D01*
X152537390Y-100834696D02*
X152918342Y-100834696D01*
X152918342Y-100834696D02*
X153013580Y-100787077D01*
X153013580Y-100787077D02*
X153061200Y-100739458D01*
X153061200Y-100739458D02*
X153108819Y-100644220D01*
X153108819Y-100644220D02*
X153108819Y-100453744D01*
X153108819Y-100453744D02*
X153061200Y-100358506D01*
X153061200Y-100358506D02*
X153013580Y-100310887D01*
X153013580Y-100310887D02*
X152918342Y-100263268D01*
X152918342Y-100263268D02*
X152680247Y-100263268D01*
X152680247Y-100263268D02*
X152585009Y-100310887D01*
X152585009Y-100310887D02*
X152537390Y-100358506D01*
X152537390Y-100358506D02*
X152489771Y-100453744D01*
X152489771Y-100453744D02*
X152489771Y-100644220D01*
X152489771Y-100644220D02*
X152537390Y-100739458D01*
X152537390Y-100739458D02*
X152585009Y-100787077D01*
X152585009Y-100787077D02*
X152680247Y-100834696D01*
X132788819Y-87293220D02*
X131788819Y-87293220D01*
X131788819Y-87293220D02*
X131788819Y-87055125D01*
X131788819Y-87055125D02*
X131836438Y-86912268D01*
X131836438Y-86912268D02*
X131931676Y-86817030D01*
X131931676Y-86817030D02*
X132026914Y-86769411D01*
X132026914Y-86769411D02*
X132217390Y-86721792D01*
X132217390Y-86721792D02*
X132360247Y-86721792D01*
X132360247Y-86721792D02*
X132550723Y-86769411D01*
X132550723Y-86769411D02*
X132645961Y-86817030D01*
X132645961Y-86817030D02*
X132741200Y-86912268D01*
X132741200Y-86912268D02*
X132788819Y-87055125D01*
X132788819Y-87055125D02*
X132788819Y-87293220D01*
X132788819Y-85769411D02*
X132788819Y-86340839D01*
X132788819Y-86055125D02*
X131788819Y-86055125D01*
X131788819Y-86055125D02*
X131931676Y-86150363D01*
X131931676Y-86150363D02*
X132026914Y-86245601D01*
X132026914Y-86245601D02*
X132074533Y-86340839D01*
X150283104Y-87340839D02*
X150283104Y-86864649D01*
X150568819Y-87436077D02*
X149568819Y-87102744D01*
X149568819Y-87102744D02*
X150568819Y-86769411D01*
X149568819Y-85959887D02*
X149568819Y-86436077D01*
X149568819Y-86436077D02*
X150045009Y-86483696D01*
X150045009Y-86483696D02*
X149997390Y-86436077D01*
X149997390Y-86436077D02*
X149949771Y-86340839D01*
X149949771Y-86340839D02*
X149949771Y-86102744D01*
X149949771Y-86102744D02*
X149997390Y-86007506D01*
X149997390Y-86007506D02*
X150045009Y-85959887D01*
X150045009Y-85959887D02*
X150140247Y-85912268D01*
X150140247Y-85912268D02*
X150378342Y-85912268D01*
X150378342Y-85912268D02*
X150473580Y-85959887D01*
X150473580Y-85959887D02*
X150521200Y-86007506D01*
X150521200Y-86007506D02*
X150568819Y-86102744D01*
X150568819Y-86102744D02*
X150568819Y-86340839D01*
X150568819Y-86340839D02*
X150521200Y-86436077D01*
X150521200Y-86436077D02*
X150473580Y-86483696D01*
X145203104Y-101691839D02*
X145203104Y-101215649D01*
X145488819Y-101787077D02*
X144488819Y-101453744D01*
X144488819Y-101453744D02*
X145488819Y-101120411D01*
X144488819Y-100882315D02*
X144488819Y-100263268D01*
X144488819Y-100263268D02*
X144869771Y-100596601D01*
X144869771Y-100596601D02*
X144869771Y-100453744D01*
X144869771Y-100453744D02*
X144917390Y-100358506D01*
X144917390Y-100358506D02*
X144965009Y-100310887D01*
X144965009Y-100310887D02*
X145060247Y-100263268D01*
X145060247Y-100263268D02*
X145298342Y-100263268D01*
X145298342Y-100263268D02*
X145393580Y-100310887D01*
X145393580Y-100310887D02*
X145441200Y-100358506D01*
X145441200Y-100358506D02*
X145488819Y-100453744D01*
X145488819Y-100453744D02*
X145488819Y-100739458D01*
X145488819Y-100739458D02*
X145441200Y-100834696D01*
X145441200Y-100834696D02*
X145393580Y-100882315D01*
X145203104Y-110747112D02*
X145203104Y-110270922D01*
X145488819Y-110842350D02*
X144488819Y-110509017D01*
X144488819Y-110509017D02*
X145488819Y-110175684D01*
X145488819Y-109318541D02*
X145488819Y-109889969D01*
X145488819Y-109604255D02*
X144488819Y-109604255D01*
X144488819Y-109604255D02*
X144631676Y-109699493D01*
X144631676Y-109699493D02*
X144726914Y-109794731D01*
X144726914Y-109794731D02*
X144774533Y-109889969D01*
X145488819Y-108366160D02*
X145488819Y-108937588D01*
X145488819Y-108651874D02*
X144488819Y-108651874D01*
X144488819Y-108651874D02*
X144631676Y-108747112D01*
X144631676Y-108747112D02*
X144726914Y-108842350D01*
X144726914Y-108842350D02*
X144774533Y-108937588D01*
X130248819Y-87293220D02*
X129248819Y-87293220D01*
X129248819Y-87293220D02*
X129248819Y-87055125D01*
X129248819Y-87055125D02*
X129296438Y-86912268D01*
X129296438Y-86912268D02*
X129391676Y-86817030D01*
X129391676Y-86817030D02*
X129486914Y-86769411D01*
X129486914Y-86769411D02*
X129677390Y-86721792D01*
X129677390Y-86721792D02*
X129820247Y-86721792D01*
X129820247Y-86721792D02*
X130010723Y-86769411D01*
X130010723Y-86769411D02*
X130105961Y-86817030D01*
X130105961Y-86817030D02*
X130201200Y-86912268D01*
X130201200Y-86912268D02*
X130248819Y-87055125D01*
X130248819Y-87055125D02*
X130248819Y-87293220D01*
X129725009Y-86293220D02*
X129725009Y-85959887D01*
X130248819Y-85817030D02*
X130248819Y-86293220D01*
X130248819Y-86293220D02*
X129248819Y-86293220D01*
X129248819Y-86293220D02*
X129248819Y-85817030D01*
X129248819Y-85531315D02*
X129248819Y-84959887D01*
X130248819Y-85245601D02*
X129248819Y-85245601D01*
X129725009Y-84626553D02*
X129725009Y-84293220D01*
X130248819Y-84150363D02*
X130248819Y-84626553D01*
X130248819Y-84626553D02*
X129248819Y-84626553D01*
X129248819Y-84626553D02*
X129248819Y-84150363D01*
X130153580Y-83150363D02*
X130201200Y-83197982D01*
X130201200Y-83197982D02*
X130248819Y-83340839D01*
X130248819Y-83340839D02*
X130248819Y-83436077D01*
X130248819Y-83436077D02*
X130201200Y-83578934D01*
X130201200Y-83578934D02*
X130105961Y-83674172D01*
X130105961Y-83674172D02*
X130010723Y-83721791D01*
X130010723Y-83721791D02*
X129820247Y-83769410D01*
X129820247Y-83769410D02*
X129677390Y-83769410D01*
X129677390Y-83769410D02*
X129486914Y-83721791D01*
X129486914Y-83721791D02*
X129391676Y-83674172D01*
X129391676Y-83674172D02*
X129296438Y-83578934D01*
X129296438Y-83578934D02*
X129248819Y-83436077D01*
X129248819Y-83436077D02*
X129248819Y-83340839D01*
X129248819Y-83340839D02*
X129296438Y-83197982D01*
X129296438Y-83197982D02*
X129344057Y-83150363D01*
X129248819Y-82864648D02*
X129248819Y-82293220D01*
X130248819Y-82578934D02*
X129248819Y-82578934D01*
X141948819Y-95348493D02*
X141948819Y-95158017D01*
X141948819Y-95158017D02*
X141996438Y-95062779D01*
X141996438Y-95062779D02*
X142091676Y-94967541D01*
X142091676Y-94967541D02*
X142282152Y-94919922D01*
X142282152Y-94919922D02*
X142615485Y-94919922D01*
X142615485Y-94919922D02*
X142805961Y-94967541D01*
X142805961Y-94967541D02*
X142901200Y-95062779D01*
X142901200Y-95062779D02*
X142948819Y-95158017D01*
X142948819Y-95158017D02*
X142948819Y-95348493D01*
X142948819Y-95348493D02*
X142901200Y-95443731D01*
X142901200Y-95443731D02*
X142805961Y-95538969D01*
X142805961Y-95538969D02*
X142615485Y-95586588D01*
X142615485Y-95586588D02*
X142282152Y-95586588D01*
X142282152Y-95586588D02*
X142091676Y-95538969D01*
X142091676Y-95538969D02*
X141996438Y-95443731D01*
X141996438Y-95443731D02*
X141948819Y-95348493D01*
X142425009Y-94491350D02*
X142425009Y-94158017D01*
X142948819Y-94015160D02*
X142948819Y-94491350D01*
X142948819Y-94491350D02*
X141948819Y-94491350D01*
X141948819Y-94491350D02*
X141948819Y-94015160D01*
X141671200Y-95677065D02*
X141671200Y-93924684D01*
X154648819Y-110080445D02*
X155648819Y-109842350D01*
X155648819Y-109842350D02*
X154934533Y-109651874D01*
X154934533Y-109651874D02*
X155648819Y-109461398D01*
X155648819Y-109461398D02*
X154648819Y-109223303D01*
X155125009Y-108842350D02*
X155125009Y-108509017D01*
X155648819Y-108366160D02*
X155648819Y-108842350D01*
X155648819Y-108842350D02*
X154648819Y-108842350D01*
X154648819Y-108842350D02*
X154648819Y-108366160D01*
X154371200Y-110123303D02*
X154371200Y-108275684D01*
X150283104Y-101691839D02*
X150283104Y-101215649D01*
X150568819Y-101787077D02*
X149568819Y-101453744D01*
X149568819Y-101453744D02*
X150568819Y-101120411D01*
X149568819Y-100310887D02*
X149568819Y-100787077D01*
X149568819Y-100787077D02*
X150045009Y-100834696D01*
X150045009Y-100834696D02*
X149997390Y-100787077D01*
X149997390Y-100787077D02*
X149949771Y-100691839D01*
X149949771Y-100691839D02*
X149949771Y-100453744D01*
X149949771Y-100453744D02*
X149997390Y-100358506D01*
X149997390Y-100358506D02*
X150045009Y-100310887D01*
X150045009Y-100310887D02*
X150140247Y-100263268D01*
X150140247Y-100263268D02*
X150378342Y-100263268D01*
X150378342Y-100263268D02*
X150473580Y-100310887D01*
X150473580Y-100310887D02*
X150521200Y-100358506D01*
X150521200Y-100358506D02*
X150568819Y-100453744D01*
X150568819Y-100453744D02*
X150568819Y-100691839D01*
X150568819Y-100691839D02*
X150521200Y-100787077D01*
X150521200Y-100787077D02*
X150473580Y-100834696D01*
X142663104Y-87340839D02*
X142663104Y-86864649D01*
X142948819Y-87436077D02*
X141948819Y-87102744D01*
X141948819Y-87102744D02*
X142948819Y-86769411D01*
X142044057Y-86483696D02*
X141996438Y-86436077D01*
X141996438Y-86436077D02*
X141948819Y-86340839D01*
X141948819Y-86340839D02*
X141948819Y-86102744D01*
X141948819Y-86102744D02*
X141996438Y-86007506D01*
X141996438Y-86007506D02*
X142044057Y-85959887D01*
X142044057Y-85959887D02*
X142139295Y-85912268D01*
X142139295Y-85912268D02*
X142234533Y-85912268D01*
X142234533Y-85912268D02*
X142377390Y-85959887D01*
X142377390Y-85959887D02*
X142948819Y-86531315D01*
X142948819Y-86531315D02*
X142948819Y-85912268D01*
X162316438Y-96110398D02*
X162268819Y-96205636D01*
X162268819Y-96205636D02*
X162268819Y-96348493D01*
X162268819Y-96348493D02*
X162316438Y-96491350D01*
X162316438Y-96491350D02*
X162411676Y-96586588D01*
X162411676Y-96586588D02*
X162506914Y-96634207D01*
X162506914Y-96634207D02*
X162697390Y-96681826D01*
X162697390Y-96681826D02*
X162840247Y-96681826D01*
X162840247Y-96681826D02*
X163030723Y-96634207D01*
X163030723Y-96634207D02*
X163125961Y-96586588D01*
X163125961Y-96586588D02*
X163221200Y-96491350D01*
X163221200Y-96491350D02*
X163268819Y-96348493D01*
X163268819Y-96348493D02*
X163268819Y-96253255D01*
X163268819Y-96253255D02*
X163221200Y-96110398D01*
X163221200Y-96110398D02*
X163173580Y-96062779D01*
X163173580Y-96062779D02*
X162840247Y-96062779D01*
X162840247Y-96062779D02*
X162840247Y-96253255D01*
X163268819Y-95634207D02*
X162268819Y-95634207D01*
X162268819Y-95634207D02*
X163268819Y-95062779D01*
X163268819Y-95062779D02*
X162268819Y-95062779D01*
X163268819Y-94586588D02*
X162268819Y-94586588D01*
X162268819Y-94586588D02*
X162268819Y-94348493D01*
X162268819Y-94348493D02*
X162316438Y-94205636D01*
X162316438Y-94205636D02*
X162411676Y-94110398D01*
X162411676Y-94110398D02*
X162506914Y-94062779D01*
X162506914Y-94062779D02*
X162697390Y-94015160D01*
X162697390Y-94015160D02*
X162840247Y-94015160D01*
X162840247Y-94015160D02*
X163030723Y-94062779D01*
X163030723Y-94062779D02*
X163125961Y-94110398D01*
X163125961Y-94110398D02*
X163221200Y-94205636D01*
X163221200Y-94205636D02*
X163268819Y-94348493D01*
X163268819Y-94348493D02*
X163268819Y-94586588D01*
X135328819Y-95538969D02*
X134328819Y-95538969D01*
X134328819Y-95538969D02*
X134328819Y-95300874D01*
X134328819Y-95300874D02*
X134376438Y-95158017D01*
X134376438Y-95158017D02*
X134471676Y-95062779D01*
X134471676Y-95062779D02*
X134566914Y-95015160D01*
X134566914Y-95015160D02*
X134757390Y-94967541D01*
X134757390Y-94967541D02*
X134900247Y-94967541D01*
X134900247Y-94967541D02*
X135090723Y-95015160D01*
X135090723Y-95015160D02*
X135185961Y-95062779D01*
X135185961Y-95062779D02*
X135281200Y-95158017D01*
X135281200Y-95158017D02*
X135328819Y-95300874D01*
X135328819Y-95300874D02*
X135328819Y-95538969D01*
X134328819Y-94110398D02*
X134328819Y-94300874D01*
X134328819Y-94300874D02*
X134376438Y-94396112D01*
X134376438Y-94396112D02*
X134424057Y-94443731D01*
X134424057Y-94443731D02*
X134566914Y-94538969D01*
X134566914Y-94538969D02*
X134757390Y-94586588D01*
X134757390Y-94586588D02*
X135138342Y-94586588D01*
X135138342Y-94586588D02*
X135233580Y-94538969D01*
X135233580Y-94538969D02*
X135281200Y-94491350D01*
X135281200Y-94491350D02*
X135328819Y-94396112D01*
X135328819Y-94396112D02*
X135328819Y-94205636D01*
X135328819Y-94205636D02*
X135281200Y-94110398D01*
X135281200Y-94110398D02*
X135233580Y-94062779D01*
X135233580Y-94062779D02*
X135138342Y-94015160D01*
X135138342Y-94015160D02*
X134900247Y-94015160D01*
X134900247Y-94015160D02*
X134805009Y-94062779D01*
X134805009Y-94062779D02*
X134757390Y-94110398D01*
X134757390Y-94110398D02*
X134709771Y-94205636D01*
X134709771Y-94205636D02*
X134709771Y-94396112D01*
X134709771Y-94396112D02*
X134757390Y-94491350D01*
X134757390Y-94491350D02*
X134805009Y-94538969D01*
X134805009Y-94538969D02*
X134900247Y-94586588D01*
X126708819Y-111270921D02*
X126708819Y-110651874D01*
X126708819Y-110651874D02*
X127089771Y-110985207D01*
X127089771Y-110985207D02*
X127089771Y-110842350D01*
X127089771Y-110842350D02*
X127137390Y-110747112D01*
X127137390Y-110747112D02*
X127185009Y-110699493D01*
X127185009Y-110699493D02*
X127280247Y-110651874D01*
X127280247Y-110651874D02*
X127518342Y-110651874D01*
X127518342Y-110651874D02*
X127613580Y-110699493D01*
X127613580Y-110699493D02*
X127661200Y-110747112D01*
X127661200Y-110747112D02*
X127708819Y-110842350D01*
X127708819Y-110842350D02*
X127708819Y-111128064D01*
X127708819Y-111128064D02*
X127661200Y-111223302D01*
X127661200Y-111223302D02*
X127613580Y-111270921D01*
X127613580Y-110223302D02*
X127661200Y-110175683D01*
X127661200Y-110175683D02*
X127708819Y-110223302D01*
X127708819Y-110223302D02*
X127661200Y-110270921D01*
X127661200Y-110270921D02*
X127613580Y-110223302D01*
X127613580Y-110223302D02*
X127708819Y-110223302D01*
X126708819Y-109842350D02*
X126708819Y-109223303D01*
X126708819Y-109223303D02*
X127089771Y-109556636D01*
X127089771Y-109556636D02*
X127089771Y-109413779D01*
X127089771Y-109413779D02*
X127137390Y-109318541D01*
X127137390Y-109318541D02*
X127185009Y-109270922D01*
X127185009Y-109270922D02*
X127280247Y-109223303D01*
X127280247Y-109223303D02*
X127518342Y-109223303D01*
X127518342Y-109223303D02*
X127613580Y-109270922D01*
X127613580Y-109270922D02*
X127661200Y-109318541D01*
X127661200Y-109318541D02*
X127708819Y-109413779D01*
X127708819Y-109413779D02*
X127708819Y-109699493D01*
X127708819Y-109699493D02*
X127661200Y-109794731D01*
X127661200Y-109794731D02*
X127613580Y-109842350D01*
X126708819Y-108937588D02*
X127708819Y-108604255D01*
X127708819Y-108604255D02*
X126708819Y-108270922D01*
X140123104Y-87340839D02*
X140123104Y-86864649D01*
X140408819Y-87436077D02*
X139408819Y-87102744D01*
X139408819Y-87102744D02*
X140408819Y-86769411D01*
X140408819Y-85912268D02*
X140408819Y-86483696D01*
X140408819Y-86197982D02*
X139408819Y-86197982D01*
X139408819Y-86197982D02*
X139551676Y-86293220D01*
X139551676Y-86293220D02*
X139646914Y-86388458D01*
X139646914Y-86388458D02*
X139694533Y-86483696D01*
X132788819Y-109889969D02*
X131788819Y-109889969D01*
X131788819Y-109889969D02*
X131788819Y-109651874D01*
X131788819Y-109651874D02*
X131836438Y-109509017D01*
X131836438Y-109509017D02*
X131931676Y-109413779D01*
X131931676Y-109413779D02*
X132026914Y-109366160D01*
X132026914Y-109366160D02*
X132217390Y-109318541D01*
X132217390Y-109318541D02*
X132360247Y-109318541D01*
X132360247Y-109318541D02*
X132550723Y-109366160D01*
X132550723Y-109366160D02*
X132645961Y-109413779D01*
X132645961Y-109413779D02*
X132741200Y-109509017D01*
X132741200Y-109509017D02*
X132788819Y-109651874D01*
X132788819Y-109651874D02*
X132788819Y-109889969D01*
X131788819Y-108413779D02*
X131788819Y-108889969D01*
X131788819Y-108889969D02*
X132265009Y-108937588D01*
X132265009Y-108937588D02*
X132217390Y-108889969D01*
X132217390Y-108889969D02*
X132169771Y-108794731D01*
X132169771Y-108794731D02*
X132169771Y-108556636D01*
X132169771Y-108556636D02*
X132217390Y-108461398D01*
X132217390Y-108461398D02*
X132265009Y-108413779D01*
X132265009Y-108413779D02*
X132360247Y-108366160D01*
X132360247Y-108366160D02*
X132598342Y-108366160D01*
X132598342Y-108366160D02*
X132693580Y-108413779D01*
X132693580Y-108413779D02*
X132741200Y-108461398D01*
X132741200Y-108461398D02*
X132788819Y-108556636D01*
X132788819Y-108556636D02*
X132788819Y-108794731D01*
X132788819Y-108794731D02*
X132741200Y-108889969D01*
X132741200Y-108889969D02*
X132693580Y-108937588D01*
X157903104Y-87340839D02*
X157903104Y-86864649D01*
X158188819Y-87436077D02*
X157188819Y-87102744D01*
X157188819Y-87102744D02*
X158188819Y-86769411D01*
X158188819Y-85912268D02*
X158188819Y-86483696D01*
X158188819Y-86197982D02*
X157188819Y-86197982D01*
X157188819Y-86197982D02*
X157331676Y-86293220D01*
X157331676Y-86293220D02*
X157426914Y-86388458D01*
X157426914Y-86388458D02*
X157474533Y-86483696D01*
X157284057Y-85531315D02*
X157236438Y-85483696D01*
X157236438Y-85483696D02*
X157188819Y-85388458D01*
X157188819Y-85388458D02*
X157188819Y-85150363D01*
X157188819Y-85150363D02*
X157236438Y-85055125D01*
X157236438Y-85055125D02*
X157284057Y-85007506D01*
X157284057Y-85007506D02*
X157379295Y-84959887D01*
X157379295Y-84959887D02*
X157474533Y-84959887D01*
X157474533Y-84959887D02*
X157617390Y-85007506D01*
X157617390Y-85007506D02*
X158188819Y-85578934D01*
X158188819Y-85578934D02*
X158188819Y-84959887D01*
X152823104Y-110747112D02*
X152823104Y-110270922D01*
X153108819Y-110842350D02*
X152108819Y-110509017D01*
X152108819Y-110509017D02*
X153108819Y-110175684D01*
X153108819Y-109318541D02*
X153108819Y-109889969D01*
X153108819Y-109604255D02*
X152108819Y-109604255D01*
X152108819Y-109604255D02*
X152251676Y-109699493D01*
X152251676Y-109699493D02*
X152346914Y-109794731D01*
X152346914Y-109794731D02*
X152394533Y-109889969D01*
X152108819Y-108985207D02*
X152108819Y-108366160D01*
X152108819Y-108366160D02*
X152489771Y-108699493D01*
X152489771Y-108699493D02*
X152489771Y-108556636D01*
X152489771Y-108556636D02*
X152537390Y-108461398D01*
X152537390Y-108461398D02*
X152585009Y-108413779D01*
X152585009Y-108413779D02*
X152680247Y-108366160D01*
X152680247Y-108366160D02*
X152918342Y-108366160D01*
X152918342Y-108366160D02*
X153013580Y-108413779D01*
X153013580Y-108413779D02*
X153061200Y-108461398D01*
X153061200Y-108461398D02*
X153108819Y-108556636D01*
X153108819Y-108556636D02*
X153108819Y-108842350D01*
X153108819Y-108842350D02*
X153061200Y-108937588D01*
X153061200Y-108937588D02*
X153013580Y-108985207D01*
X141948819Y-109699493D02*
X141948819Y-109509017D01*
X141948819Y-109509017D02*
X141996438Y-109413779D01*
X141996438Y-109413779D02*
X142091676Y-109318541D01*
X142091676Y-109318541D02*
X142282152Y-109270922D01*
X142282152Y-109270922D02*
X142615485Y-109270922D01*
X142615485Y-109270922D02*
X142805961Y-109318541D01*
X142805961Y-109318541D02*
X142901200Y-109413779D01*
X142901200Y-109413779D02*
X142948819Y-109509017D01*
X142948819Y-109509017D02*
X142948819Y-109699493D01*
X142948819Y-109699493D02*
X142901200Y-109794731D01*
X142901200Y-109794731D02*
X142805961Y-109889969D01*
X142805961Y-109889969D02*
X142615485Y-109937588D01*
X142615485Y-109937588D02*
X142282152Y-109937588D01*
X142282152Y-109937588D02*
X142091676Y-109889969D01*
X142091676Y-109889969D02*
X141996438Y-109794731D01*
X141996438Y-109794731D02*
X141948819Y-109699493D01*
X142425009Y-108842350D02*
X142425009Y-108509017D01*
X142948819Y-108366160D02*
X142948819Y-108842350D01*
X142948819Y-108842350D02*
X141948819Y-108842350D01*
X141948819Y-108842350D02*
X141948819Y-108366160D01*
X141671200Y-110028065D02*
X141671200Y-108275684D01*
X147743104Y-87340839D02*
X147743104Y-86864649D01*
X148028819Y-87436077D02*
X147028819Y-87102744D01*
X147028819Y-87102744D02*
X148028819Y-86769411D01*
X147362152Y-86007506D02*
X148028819Y-86007506D01*
X146981200Y-86245601D02*
X147695485Y-86483696D01*
X147695485Y-86483696D02*
X147695485Y-85864649D01*
X142663104Y-101691839D02*
X142663104Y-101215649D01*
X142948819Y-101787077D02*
X141948819Y-101453744D01*
X141948819Y-101453744D02*
X142948819Y-101120411D01*
X142044057Y-100834696D02*
X141996438Y-100787077D01*
X141996438Y-100787077D02*
X141948819Y-100691839D01*
X141948819Y-100691839D02*
X141948819Y-100453744D01*
X141948819Y-100453744D02*
X141996438Y-100358506D01*
X141996438Y-100358506D02*
X142044057Y-100310887D01*
X142044057Y-100310887D02*
X142139295Y-100263268D01*
X142139295Y-100263268D02*
X142234533Y-100263268D01*
X142234533Y-100263268D02*
X142377390Y-100310887D01*
X142377390Y-100310887D02*
X142948819Y-100882315D01*
X142948819Y-100882315D02*
X142948819Y-100263268D01*
X160633580Y-109270922D02*
X160681200Y-109318541D01*
X160681200Y-109318541D02*
X160728819Y-109461398D01*
X160728819Y-109461398D02*
X160728819Y-109556636D01*
X160728819Y-109556636D02*
X160681200Y-109699493D01*
X160681200Y-109699493D02*
X160585961Y-109794731D01*
X160585961Y-109794731D02*
X160490723Y-109842350D01*
X160490723Y-109842350D02*
X160300247Y-109889969D01*
X160300247Y-109889969D02*
X160157390Y-109889969D01*
X160157390Y-109889969D02*
X159966914Y-109842350D01*
X159966914Y-109842350D02*
X159871676Y-109794731D01*
X159871676Y-109794731D02*
X159776438Y-109699493D01*
X159776438Y-109699493D02*
X159728819Y-109556636D01*
X159728819Y-109556636D02*
X159728819Y-109461398D01*
X159728819Y-109461398D02*
X159776438Y-109318541D01*
X159776438Y-109318541D02*
X159824057Y-109270922D01*
X160205009Y-108842350D02*
X160205009Y-108509017D01*
X160728819Y-108366160D02*
X160728819Y-108842350D01*
X160728819Y-108842350D02*
X159728819Y-108842350D01*
X159728819Y-108842350D02*
X159728819Y-108366160D01*
X135328819Y-109889969D02*
X134328819Y-109889969D01*
X134328819Y-109889969D02*
X134328819Y-109651874D01*
X134328819Y-109651874D02*
X134376438Y-109509017D01*
X134376438Y-109509017D02*
X134471676Y-109413779D01*
X134471676Y-109413779D02*
X134566914Y-109366160D01*
X134566914Y-109366160D02*
X134757390Y-109318541D01*
X134757390Y-109318541D02*
X134900247Y-109318541D01*
X134900247Y-109318541D02*
X135090723Y-109366160D01*
X135090723Y-109366160D02*
X135185961Y-109413779D01*
X135185961Y-109413779D02*
X135281200Y-109509017D01*
X135281200Y-109509017D02*
X135328819Y-109651874D01*
X135328819Y-109651874D02*
X135328819Y-109889969D01*
X134328819Y-108461398D02*
X134328819Y-108651874D01*
X134328819Y-108651874D02*
X134376438Y-108747112D01*
X134376438Y-108747112D02*
X134424057Y-108794731D01*
X134424057Y-108794731D02*
X134566914Y-108889969D01*
X134566914Y-108889969D02*
X134757390Y-108937588D01*
X134757390Y-108937588D02*
X135138342Y-108937588D01*
X135138342Y-108937588D02*
X135233580Y-108889969D01*
X135233580Y-108889969D02*
X135281200Y-108842350D01*
X135281200Y-108842350D02*
X135328819Y-108747112D01*
X135328819Y-108747112D02*
X135328819Y-108556636D01*
X135328819Y-108556636D02*
X135281200Y-108461398D01*
X135281200Y-108461398D02*
X135233580Y-108413779D01*
X135233580Y-108413779D02*
X135138342Y-108366160D01*
X135138342Y-108366160D02*
X134900247Y-108366160D01*
X134900247Y-108366160D02*
X134805009Y-108413779D01*
X134805009Y-108413779D02*
X134757390Y-108461398D01*
X134757390Y-108461398D02*
X134709771Y-108556636D01*
X134709771Y-108556636D02*
X134709771Y-108747112D01*
X134709771Y-108747112D02*
X134757390Y-108842350D01*
X134757390Y-108842350D02*
X134805009Y-108889969D01*
X134805009Y-108889969D02*
X134900247Y-108937588D01*
X135525904Y-139349847D02*
X135525904Y-138349847D01*
X136002094Y-138683180D02*
X136002094Y-139349847D01*
X136002094Y-138778418D02*
X136049713Y-138730799D01*
X136049713Y-138730799D02*
X136144951Y-138683180D01*
X136144951Y-138683180D02*
X136287808Y-138683180D01*
X136287808Y-138683180D02*
X136383046Y-138730799D01*
X136383046Y-138730799D02*
X136430665Y-138826037D01*
X136430665Y-138826037D02*
X136430665Y-139349847D01*
X136859237Y-139302228D02*
X136954475Y-139349847D01*
X136954475Y-139349847D02*
X137144951Y-139349847D01*
X137144951Y-139349847D02*
X137240189Y-139302228D01*
X137240189Y-139302228D02*
X137287808Y-139206989D01*
X137287808Y-139206989D02*
X137287808Y-139159370D01*
X137287808Y-139159370D02*
X137240189Y-139064132D01*
X137240189Y-139064132D02*
X137144951Y-139016513D01*
X137144951Y-139016513D02*
X137002094Y-139016513D01*
X137002094Y-139016513D02*
X136906856Y-138968894D01*
X136906856Y-138968894D02*
X136859237Y-138873656D01*
X136859237Y-138873656D02*
X136859237Y-138826037D01*
X136859237Y-138826037D02*
X136906856Y-138730799D01*
X136906856Y-138730799D02*
X137002094Y-138683180D01*
X137002094Y-138683180D02*
X137144951Y-138683180D01*
X137144951Y-138683180D02*
X137240189Y-138730799D01*
X138097332Y-139302228D02*
X138002094Y-139349847D01*
X138002094Y-139349847D02*
X137811618Y-139349847D01*
X137811618Y-139349847D02*
X137716380Y-139302228D01*
X137716380Y-139302228D02*
X137668761Y-139206989D01*
X137668761Y-139206989D02*
X137668761Y-138826037D01*
X137668761Y-138826037D02*
X137716380Y-138730799D01*
X137716380Y-138730799D02*
X137811618Y-138683180D01*
X137811618Y-138683180D02*
X138002094Y-138683180D01*
X138002094Y-138683180D02*
X138097332Y-138730799D01*
X138097332Y-138730799D02*
X138144951Y-138826037D01*
X138144951Y-138826037D02*
X138144951Y-138921275D01*
X138144951Y-138921275D02*
X137668761Y-139016513D01*
X138573523Y-139349847D02*
X138573523Y-138683180D01*
X138573523Y-138873656D02*
X138621142Y-138778418D01*
X138621142Y-138778418D02*
X138668761Y-138730799D01*
X138668761Y-138730799D02*
X138763999Y-138683180D01*
X138763999Y-138683180D02*
X138859237Y-138683180D01*
X139049714Y-138683180D02*
X139430666Y-138683180D01*
X139192571Y-138349847D02*
X139192571Y-139206989D01*
X139192571Y-139206989D02*
X139240190Y-139302228D01*
X139240190Y-139302228D02*
X139335428Y-139349847D01*
X139335428Y-139349847D02*
X139430666Y-139349847D01*
X140383048Y-138683180D02*
X140764000Y-138683180D01*
X140525905Y-138349847D02*
X140525905Y-139206989D01*
X140525905Y-139206989D02*
X140573524Y-139302228D01*
X140573524Y-139302228D02*
X140668762Y-139349847D01*
X140668762Y-139349847D02*
X140764000Y-139349847D01*
X141097334Y-139349847D02*
X141097334Y-138349847D01*
X141525905Y-139349847D02*
X141525905Y-138826037D01*
X141525905Y-138826037D02*
X141478286Y-138730799D01*
X141478286Y-138730799D02*
X141383048Y-138683180D01*
X141383048Y-138683180D02*
X141240191Y-138683180D01*
X141240191Y-138683180D02*
X141144953Y-138730799D01*
X141144953Y-138730799D02*
X141097334Y-138778418D01*
X142002096Y-139349847D02*
X142002096Y-138683180D01*
X142002096Y-138349847D02*
X141954477Y-138397466D01*
X141954477Y-138397466D02*
X142002096Y-138445085D01*
X142002096Y-138445085D02*
X142049715Y-138397466D01*
X142049715Y-138397466D02*
X142002096Y-138349847D01*
X142002096Y-138349847D02*
X142002096Y-138445085D01*
X142430667Y-139302228D02*
X142525905Y-139349847D01*
X142525905Y-139349847D02*
X142716381Y-139349847D01*
X142716381Y-139349847D02*
X142811619Y-139302228D01*
X142811619Y-139302228D02*
X142859238Y-139206989D01*
X142859238Y-139206989D02*
X142859238Y-139159370D01*
X142859238Y-139159370D02*
X142811619Y-139064132D01*
X142811619Y-139064132D02*
X142716381Y-139016513D01*
X142716381Y-139016513D02*
X142573524Y-139016513D01*
X142573524Y-139016513D02*
X142478286Y-138968894D01*
X142478286Y-138968894D02*
X142430667Y-138873656D01*
X142430667Y-138873656D02*
X142430667Y-138826037D01*
X142430667Y-138826037D02*
X142478286Y-138730799D01*
X142478286Y-138730799D02*
X142573524Y-138683180D01*
X142573524Y-138683180D02*
X142716381Y-138683180D01*
X142716381Y-138683180D02*
X142811619Y-138730799D01*
X144002096Y-139302228D02*
X144097334Y-139349847D01*
X144097334Y-139349847D02*
X144287810Y-139349847D01*
X144287810Y-139349847D02*
X144383048Y-139302228D01*
X144383048Y-139302228D02*
X144430667Y-139206989D01*
X144430667Y-139206989D02*
X144430667Y-139159370D01*
X144430667Y-139159370D02*
X144383048Y-139064132D01*
X144383048Y-139064132D02*
X144287810Y-139016513D01*
X144287810Y-139016513D02*
X144144953Y-139016513D01*
X144144953Y-139016513D02*
X144049715Y-138968894D01*
X144049715Y-138968894D02*
X144002096Y-138873656D01*
X144002096Y-138873656D02*
X144002096Y-138826037D01*
X144002096Y-138826037D02*
X144049715Y-138730799D01*
X144049715Y-138730799D02*
X144144953Y-138683180D01*
X144144953Y-138683180D02*
X144287810Y-138683180D01*
X144287810Y-138683180D02*
X144383048Y-138730799D01*
X144859239Y-139349847D02*
X144859239Y-138683180D01*
X144859239Y-138349847D02*
X144811620Y-138397466D01*
X144811620Y-138397466D02*
X144859239Y-138445085D01*
X144859239Y-138445085D02*
X144906858Y-138397466D01*
X144906858Y-138397466D02*
X144859239Y-138349847D01*
X144859239Y-138349847D02*
X144859239Y-138445085D01*
X145764000Y-139349847D02*
X145764000Y-138349847D01*
X145764000Y-139302228D02*
X145668762Y-139349847D01*
X145668762Y-139349847D02*
X145478286Y-139349847D01*
X145478286Y-139349847D02*
X145383048Y-139302228D01*
X145383048Y-139302228D02*
X145335429Y-139254608D01*
X145335429Y-139254608D02*
X145287810Y-139159370D01*
X145287810Y-139159370D02*
X145287810Y-138873656D01*
X145287810Y-138873656D02*
X145335429Y-138778418D01*
X145335429Y-138778418D02*
X145383048Y-138730799D01*
X145383048Y-138730799D02*
X145478286Y-138683180D01*
X145478286Y-138683180D02*
X145668762Y-138683180D01*
X145668762Y-138683180D02*
X145764000Y-138730799D01*
X146621143Y-139302228D02*
X146525905Y-139349847D01*
X146525905Y-139349847D02*
X146335429Y-139349847D01*
X146335429Y-139349847D02*
X146240191Y-139302228D01*
X146240191Y-139302228D02*
X146192572Y-139206989D01*
X146192572Y-139206989D02*
X146192572Y-138826037D01*
X146192572Y-138826037D02*
X146240191Y-138730799D01*
X146240191Y-138730799D02*
X146335429Y-138683180D01*
X146335429Y-138683180D02*
X146525905Y-138683180D01*
X146525905Y-138683180D02*
X146621143Y-138730799D01*
X146621143Y-138730799D02*
X146668762Y-138826037D01*
X146668762Y-138826037D02*
X146668762Y-138921275D01*
X146668762Y-138921275D02*
X146192572Y-139016513D01*
X147716382Y-138683180D02*
X148097334Y-138683180D01*
X147859239Y-139349847D02*
X147859239Y-138492704D01*
X147859239Y-138492704D02*
X147906858Y-138397466D01*
X147906858Y-138397466D02*
X148002096Y-138349847D01*
X148002096Y-138349847D02*
X148097334Y-138349847D01*
X148859239Y-139349847D02*
X148859239Y-138826037D01*
X148859239Y-138826037D02*
X148811620Y-138730799D01*
X148811620Y-138730799D02*
X148716382Y-138683180D01*
X148716382Y-138683180D02*
X148525906Y-138683180D01*
X148525906Y-138683180D02*
X148430668Y-138730799D01*
X148859239Y-139302228D02*
X148764001Y-139349847D01*
X148764001Y-139349847D02*
X148525906Y-139349847D01*
X148525906Y-139349847D02*
X148430668Y-139302228D01*
X148430668Y-139302228D02*
X148383049Y-139206989D01*
X148383049Y-139206989D02*
X148383049Y-139111751D01*
X148383049Y-139111751D02*
X148430668Y-139016513D01*
X148430668Y-139016513D02*
X148525906Y-138968894D01*
X148525906Y-138968894D02*
X148764001Y-138968894D01*
X148764001Y-138968894D02*
X148859239Y-138921275D01*
X149764001Y-139302228D02*
X149668763Y-139349847D01*
X149668763Y-139349847D02*
X149478287Y-139349847D01*
X149478287Y-139349847D02*
X149383049Y-139302228D01*
X149383049Y-139302228D02*
X149335430Y-139254608D01*
X149335430Y-139254608D02*
X149287811Y-139159370D01*
X149287811Y-139159370D02*
X149287811Y-138873656D01*
X149287811Y-138873656D02*
X149335430Y-138778418D01*
X149335430Y-138778418D02*
X149383049Y-138730799D01*
X149383049Y-138730799D02*
X149478287Y-138683180D01*
X149478287Y-138683180D02*
X149668763Y-138683180D01*
X149668763Y-138683180D02*
X149764001Y-138730799D01*
X150192573Y-139349847D02*
X150192573Y-138683180D01*
X150192573Y-138349847D02*
X150144954Y-138397466D01*
X150144954Y-138397466D02*
X150192573Y-138445085D01*
X150192573Y-138445085D02*
X150240192Y-138397466D01*
X150240192Y-138397466D02*
X150192573Y-138349847D01*
X150192573Y-138349847D02*
X150192573Y-138445085D01*
X150668763Y-138683180D02*
X150668763Y-139349847D01*
X150668763Y-138778418D02*
X150716382Y-138730799D01*
X150716382Y-138730799D02*
X150811620Y-138683180D01*
X150811620Y-138683180D02*
X150954477Y-138683180D01*
X150954477Y-138683180D02*
X151049715Y-138730799D01*
X151049715Y-138730799D02*
X151097334Y-138826037D01*
X151097334Y-138826037D02*
X151097334Y-139349847D01*
X152002096Y-138683180D02*
X152002096Y-139492704D01*
X152002096Y-139492704D02*
X151954477Y-139587942D01*
X151954477Y-139587942D02*
X151906858Y-139635561D01*
X151906858Y-139635561D02*
X151811620Y-139683180D01*
X151811620Y-139683180D02*
X151668763Y-139683180D01*
X151668763Y-139683180D02*
X151573525Y-139635561D01*
X152002096Y-139302228D02*
X151906858Y-139349847D01*
X151906858Y-139349847D02*
X151716382Y-139349847D01*
X151716382Y-139349847D02*
X151621144Y-139302228D01*
X151621144Y-139302228D02*
X151573525Y-139254608D01*
X151573525Y-139254608D02*
X151525906Y-139159370D01*
X151525906Y-139159370D02*
X151525906Y-138873656D01*
X151525906Y-138873656D02*
X151573525Y-138778418D01*
X151573525Y-138778418D02*
X151621144Y-138730799D01*
X151621144Y-138730799D02*
X151716382Y-138683180D01*
X151716382Y-138683180D02*
X151906858Y-138683180D01*
X151906858Y-138683180D02*
X152002096Y-138730799D01*
X133692568Y-140959791D02*
X133692568Y-140435981D01*
X133692568Y-140435981D02*
X133644949Y-140340743D01*
X133644949Y-140340743D02*
X133549711Y-140293124D01*
X133549711Y-140293124D02*
X133359235Y-140293124D01*
X133359235Y-140293124D02*
X133263997Y-140340743D01*
X133692568Y-140912172D02*
X133597330Y-140959791D01*
X133597330Y-140959791D02*
X133359235Y-140959791D01*
X133359235Y-140959791D02*
X133263997Y-140912172D01*
X133263997Y-140912172D02*
X133216378Y-140816933D01*
X133216378Y-140816933D02*
X133216378Y-140721695D01*
X133216378Y-140721695D02*
X133263997Y-140626457D01*
X133263997Y-140626457D02*
X133359235Y-140578838D01*
X133359235Y-140578838D02*
X133597330Y-140578838D01*
X133597330Y-140578838D02*
X133692568Y-140531219D01*
X134073521Y-140293124D02*
X134263997Y-140959791D01*
X134263997Y-140959791D02*
X134454473Y-140483600D01*
X134454473Y-140483600D02*
X134644949Y-140959791D01*
X134644949Y-140959791D02*
X134835425Y-140293124D01*
X135644949Y-140959791D02*
X135644949Y-140435981D01*
X135644949Y-140435981D02*
X135597330Y-140340743D01*
X135597330Y-140340743D02*
X135502092Y-140293124D01*
X135502092Y-140293124D02*
X135311616Y-140293124D01*
X135311616Y-140293124D02*
X135216378Y-140340743D01*
X135644949Y-140912172D02*
X135549711Y-140959791D01*
X135549711Y-140959791D02*
X135311616Y-140959791D01*
X135311616Y-140959791D02*
X135216378Y-140912172D01*
X135216378Y-140912172D02*
X135168759Y-140816933D01*
X135168759Y-140816933D02*
X135168759Y-140721695D01*
X135168759Y-140721695D02*
X135216378Y-140626457D01*
X135216378Y-140626457D02*
X135311616Y-140578838D01*
X135311616Y-140578838D02*
X135549711Y-140578838D01*
X135549711Y-140578838D02*
X135644949Y-140531219D01*
X136025902Y-140293124D02*
X136263997Y-140959791D01*
X136502092Y-140293124D02*
X136263997Y-140959791D01*
X136263997Y-140959791D02*
X136168759Y-141197886D01*
X136168759Y-141197886D02*
X136121140Y-141245505D01*
X136121140Y-141245505D02*
X136025902Y-141293124D01*
X137502093Y-140293124D02*
X137883045Y-140293124D01*
X137644950Y-140959791D02*
X137644950Y-140102648D01*
X137644950Y-140102648D02*
X137692569Y-140007410D01*
X137692569Y-140007410D02*
X137787807Y-139959791D01*
X137787807Y-139959791D02*
X137883045Y-139959791D01*
X138216379Y-140959791D02*
X138216379Y-140293124D01*
X138216379Y-140483600D02*
X138263998Y-140388362D01*
X138263998Y-140388362D02*
X138311617Y-140340743D01*
X138311617Y-140340743D02*
X138406855Y-140293124D01*
X138406855Y-140293124D02*
X138502093Y-140293124D01*
X138978284Y-140959791D02*
X138883046Y-140912172D01*
X138883046Y-140912172D02*
X138835427Y-140864552D01*
X138835427Y-140864552D02*
X138787808Y-140769314D01*
X138787808Y-140769314D02*
X138787808Y-140483600D01*
X138787808Y-140483600D02*
X138835427Y-140388362D01*
X138835427Y-140388362D02*
X138883046Y-140340743D01*
X138883046Y-140340743D02*
X138978284Y-140293124D01*
X138978284Y-140293124D02*
X139121141Y-140293124D01*
X139121141Y-140293124D02*
X139216379Y-140340743D01*
X139216379Y-140340743D02*
X139263998Y-140388362D01*
X139263998Y-140388362D02*
X139311617Y-140483600D01*
X139311617Y-140483600D02*
X139311617Y-140769314D01*
X139311617Y-140769314D02*
X139263998Y-140864552D01*
X139263998Y-140864552D02*
X139216379Y-140912172D01*
X139216379Y-140912172D02*
X139121141Y-140959791D01*
X139121141Y-140959791D02*
X138978284Y-140959791D01*
X139740189Y-140959791D02*
X139740189Y-140293124D01*
X139740189Y-140388362D02*
X139787808Y-140340743D01*
X139787808Y-140340743D02*
X139883046Y-140293124D01*
X139883046Y-140293124D02*
X140025903Y-140293124D01*
X140025903Y-140293124D02*
X140121141Y-140340743D01*
X140121141Y-140340743D02*
X140168760Y-140435981D01*
X140168760Y-140435981D02*
X140168760Y-140959791D01*
X140168760Y-140435981D02*
X140216379Y-140340743D01*
X140216379Y-140340743D02*
X140311617Y-140293124D01*
X140311617Y-140293124D02*
X140454474Y-140293124D01*
X140454474Y-140293124D02*
X140549713Y-140340743D01*
X140549713Y-140340743D02*
X140597332Y-140435981D01*
X140597332Y-140435981D02*
X140597332Y-140959791D01*
X141835427Y-140293124D02*
X141835427Y-141293124D01*
X141835427Y-140340743D02*
X141930665Y-140293124D01*
X141930665Y-140293124D02*
X142121141Y-140293124D01*
X142121141Y-140293124D02*
X142216379Y-140340743D01*
X142216379Y-140340743D02*
X142263998Y-140388362D01*
X142263998Y-140388362D02*
X142311617Y-140483600D01*
X142311617Y-140483600D02*
X142311617Y-140769314D01*
X142311617Y-140769314D02*
X142263998Y-140864552D01*
X142263998Y-140864552D02*
X142216379Y-140912172D01*
X142216379Y-140912172D02*
X142121141Y-140959791D01*
X142121141Y-140959791D02*
X141930665Y-140959791D01*
X141930665Y-140959791D02*
X141835427Y-140912172D01*
X142883046Y-140959791D02*
X142787808Y-140912172D01*
X142787808Y-140912172D02*
X142740189Y-140816933D01*
X142740189Y-140816933D02*
X142740189Y-139959791D01*
X143692570Y-140959791D02*
X143692570Y-140435981D01*
X143692570Y-140435981D02*
X143644951Y-140340743D01*
X143644951Y-140340743D02*
X143549713Y-140293124D01*
X143549713Y-140293124D02*
X143359237Y-140293124D01*
X143359237Y-140293124D02*
X143263999Y-140340743D01*
X143692570Y-140912172D02*
X143597332Y-140959791D01*
X143597332Y-140959791D02*
X143359237Y-140959791D01*
X143359237Y-140959791D02*
X143263999Y-140912172D01*
X143263999Y-140912172D02*
X143216380Y-140816933D01*
X143216380Y-140816933D02*
X143216380Y-140721695D01*
X143216380Y-140721695D02*
X143263999Y-140626457D01*
X143263999Y-140626457D02*
X143359237Y-140578838D01*
X143359237Y-140578838D02*
X143597332Y-140578838D01*
X143597332Y-140578838D02*
X143692570Y-140531219D01*
X144073523Y-140293124D02*
X144311618Y-140959791D01*
X144549713Y-140293124D02*
X144311618Y-140959791D01*
X144311618Y-140959791D02*
X144216380Y-141197886D01*
X144216380Y-141197886D02*
X144168761Y-141245505D01*
X144168761Y-141245505D02*
X144073523Y-141293124D01*
X145311618Y-140912172D02*
X145216380Y-140959791D01*
X145216380Y-140959791D02*
X145025904Y-140959791D01*
X145025904Y-140959791D02*
X144930666Y-140912172D01*
X144930666Y-140912172D02*
X144883047Y-140816933D01*
X144883047Y-140816933D02*
X144883047Y-140435981D01*
X144883047Y-140435981D02*
X144930666Y-140340743D01*
X144930666Y-140340743D02*
X145025904Y-140293124D01*
X145025904Y-140293124D02*
X145216380Y-140293124D01*
X145216380Y-140293124D02*
X145311618Y-140340743D01*
X145311618Y-140340743D02*
X145359237Y-140435981D01*
X145359237Y-140435981D02*
X145359237Y-140531219D01*
X145359237Y-140531219D02*
X144883047Y-140626457D01*
X145787809Y-140959791D02*
X145787809Y-140293124D01*
X145787809Y-140483600D02*
X145835428Y-140388362D01*
X145835428Y-140388362D02*
X145883047Y-140340743D01*
X145883047Y-140340743D02*
X145978285Y-140293124D01*
X145978285Y-140293124D02*
X146073523Y-140293124D01*
X147121142Y-139912172D02*
X146264000Y-141197886D01*
X147883047Y-140912172D02*
X147787809Y-140959791D01*
X147787809Y-140959791D02*
X147597333Y-140959791D01*
X147597333Y-140959791D02*
X147502095Y-140912172D01*
X147502095Y-140912172D02*
X147454476Y-140864552D01*
X147454476Y-140864552D02*
X147406857Y-140769314D01*
X147406857Y-140769314D02*
X147406857Y-140483600D01*
X147406857Y-140483600D02*
X147454476Y-140388362D01*
X147454476Y-140388362D02*
X147502095Y-140340743D01*
X147502095Y-140340743D02*
X147597333Y-140293124D01*
X147597333Y-140293124D02*
X147787809Y-140293124D01*
X147787809Y-140293124D02*
X147883047Y-140340743D01*
X148454476Y-140959791D02*
X148359238Y-140912172D01*
X148359238Y-140912172D02*
X148311619Y-140864552D01*
X148311619Y-140864552D02*
X148264000Y-140769314D01*
X148264000Y-140769314D02*
X148264000Y-140483600D01*
X148264000Y-140483600D02*
X148311619Y-140388362D01*
X148311619Y-140388362D02*
X148359238Y-140340743D01*
X148359238Y-140340743D02*
X148454476Y-140293124D01*
X148454476Y-140293124D02*
X148597333Y-140293124D01*
X148597333Y-140293124D02*
X148692571Y-140340743D01*
X148692571Y-140340743D02*
X148740190Y-140388362D01*
X148740190Y-140388362D02*
X148787809Y-140483600D01*
X148787809Y-140483600D02*
X148787809Y-140769314D01*
X148787809Y-140769314D02*
X148740190Y-140864552D01*
X148740190Y-140864552D02*
X148692571Y-140912172D01*
X148692571Y-140912172D02*
X148597333Y-140959791D01*
X148597333Y-140959791D02*
X148454476Y-140959791D01*
X149216381Y-140293124D02*
X149216381Y-140959791D01*
X149216381Y-140388362D02*
X149264000Y-140340743D01*
X149264000Y-140340743D02*
X149359238Y-140293124D01*
X149359238Y-140293124D02*
X149502095Y-140293124D01*
X149502095Y-140293124D02*
X149597333Y-140340743D01*
X149597333Y-140340743D02*
X149644952Y-140435981D01*
X149644952Y-140435981D02*
X149644952Y-140959791D01*
X149978286Y-140293124D02*
X150359238Y-140293124D01*
X150121143Y-139959791D02*
X150121143Y-140816933D01*
X150121143Y-140816933D02*
X150168762Y-140912172D01*
X150168762Y-140912172D02*
X150264000Y-140959791D01*
X150264000Y-140959791D02*
X150359238Y-140959791D01*
X150692572Y-140959791D02*
X150692572Y-140293124D01*
X150692572Y-140483600D02*
X150740191Y-140388362D01*
X150740191Y-140388362D02*
X150787810Y-140340743D01*
X150787810Y-140340743D02*
X150883048Y-140293124D01*
X150883048Y-140293124D02*
X150978286Y-140293124D01*
X151454477Y-140959791D02*
X151359239Y-140912172D01*
X151359239Y-140912172D02*
X151311620Y-140864552D01*
X151311620Y-140864552D02*
X151264001Y-140769314D01*
X151264001Y-140769314D02*
X151264001Y-140483600D01*
X151264001Y-140483600D02*
X151311620Y-140388362D01*
X151311620Y-140388362D02*
X151359239Y-140340743D01*
X151359239Y-140340743D02*
X151454477Y-140293124D01*
X151454477Y-140293124D02*
X151597334Y-140293124D01*
X151597334Y-140293124D02*
X151692572Y-140340743D01*
X151692572Y-140340743D02*
X151740191Y-140388362D01*
X151740191Y-140388362D02*
X151787810Y-140483600D01*
X151787810Y-140483600D02*
X151787810Y-140769314D01*
X151787810Y-140769314D02*
X151740191Y-140864552D01*
X151740191Y-140864552D02*
X151692572Y-140912172D01*
X151692572Y-140912172D02*
X151597334Y-140959791D01*
X151597334Y-140959791D02*
X151454477Y-140959791D01*
X152359239Y-140959791D02*
X152264001Y-140912172D01*
X152264001Y-140912172D02*
X152216382Y-140816933D01*
X152216382Y-140816933D02*
X152216382Y-139959791D01*
X152883049Y-140959791D02*
X152787811Y-140912172D01*
X152787811Y-140912172D02*
X152740192Y-140816933D01*
X152740192Y-140816933D02*
X152740192Y-139959791D01*
X153644954Y-140912172D02*
X153549716Y-140959791D01*
X153549716Y-140959791D02*
X153359240Y-140959791D01*
X153359240Y-140959791D02*
X153264002Y-140912172D01*
X153264002Y-140912172D02*
X153216383Y-140816933D01*
X153216383Y-140816933D02*
X153216383Y-140435981D01*
X153216383Y-140435981D02*
X153264002Y-140340743D01*
X153264002Y-140340743D02*
X153359240Y-140293124D01*
X153359240Y-140293124D02*
X153549716Y-140293124D01*
X153549716Y-140293124D02*
X153644954Y-140340743D01*
X153644954Y-140340743D02*
X153692573Y-140435981D01*
X153692573Y-140435981D02*
X153692573Y-140531219D01*
X153692573Y-140531219D02*
X153216383Y-140626457D01*
X154121145Y-140959791D02*
X154121145Y-140293124D01*
X154121145Y-140483600D02*
X154168764Y-140388362D01*
X154168764Y-140388362D02*
X154216383Y-140340743D01*
X154216383Y-140340743D02*
X154311621Y-140293124D01*
X154311621Y-140293124D02*
X154406859Y-140293124D01*
X147743104Y-109794731D02*
X147743104Y-109318541D01*
X148028819Y-109889969D02*
X147028819Y-109556636D01*
X147028819Y-109556636D02*
X148028819Y-109223303D01*
X148028819Y-108842350D02*
X148028819Y-108651874D01*
X148028819Y-108651874D02*
X147981200Y-108556636D01*
X147981200Y-108556636D02*
X147933580Y-108509017D01*
X147933580Y-108509017D02*
X147790723Y-108413779D01*
X147790723Y-108413779D02*
X147600247Y-108366160D01*
X147600247Y-108366160D02*
X147219295Y-108366160D01*
X147219295Y-108366160D02*
X147124057Y-108413779D01*
X147124057Y-108413779D02*
X147076438Y-108461398D01*
X147076438Y-108461398D02*
X147028819Y-108556636D01*
X147028819Y-108556636D02*
X147028819Y-108747112D01*
X147028819Y-108747112D02*
X147076438Y-108842350D01*
X147076438Y-108842350D02*
X147124057Y-108889969D01*
X147124057Y-108889969D02*
X147219295Y-108937588D01*
X147219295Y-108937588D02*
X147457390Y-108937588D01*
X147457390Y-108937588D02*
X147552628Y-108889969D01*
X147552628Y-108889969D02*
X147600247Y-108842350D01*
X147600247Y-108842350D02*
X147647866Y-108747112D01*
X147647866Y-108747112D02*
X147647866Y-108556636D01*
X147647866Y-108556636D02*
X147600247Y-108461398D01*
X147600247Y-108461398D02*
X147552628Y-108413779D01*
X147552628Y-108413779D02*
X147457390Y-108366160D01*
X162316438Y-110461398D02*
X162268819Y-110556636D01*
X162268819Y-110556636D02*
X162268819Y-110699493D01*
X162268819Y-110699493D02*
X162316438Y-110842350D01*
X162316438Y-110842350D02*
X162411676Y-110937588D01*
X162411676Y-110937588D02*
X162506914Y-110985207D01*
X162506914Y-110985207D02*
X162697390Y-111032826D01*
X162697390Y-111032826D02*
X162840247Y-111032826D01*
X162840247Y-111032826D02*
X163030723Y-110985207D01*
X163030723Y-110985207D02*
X163125961Y-110937588D01*
X163125961Y-110937588D02*
X163221200Y-110842350D01*
X163221200Y-110842350D02*
X163268819Y-110699493D01*
X163268819Y-110699493D02*
X163268819Y-110604255D01*
X163268819Y-110604255D02*
X163221200Y-110461398D01*
X163221200Y-110461398D02*
X163173580Y-110413779D01*
X163173580Y-110413779D02*
X162840247Y-110413779D01*
X162840247Y-110413779D02*
X162840247Y-110604255D01*
X163268819Y-109985207D02*
X162268819Y-109985207D01*
X162268819Y-109985207D02*
X163268819Y-109413779D01*
X163268819Y-109413779D02*
X162268819Y-109413779D01*
X163268819Y-108937588D02*
X162268819Y-108937588D01*
X162268819Y-108937588D02*
X162268819Y-108699493D01*
X162268819Y-108699493D02*
X162316438Y-108556636D01*
X162316438Y-108556636D02*
X162411676Y-108461398D01*
X162411676Y-108461398D02*
X162506914Y-108413779D01*
X162506914Y-108413779D02*
X162697390Y-108366160D01*
X162697390Y-108366160D02*
X162840247Y-108366160D01*
X162840247Y-108366160D02*
X163030723Y-108413779D01*
X163030723Y-108413779D02*
X163125961Y-108461398D01*
X163125961Y-108461398D02*
X163221200Y-108556636D01*
X163221200Y-108556636D02*
X163268819Y-108699493D01*
X163268819Y-108699493D02*
X163268819Y-108937588D01*
X130248819Y-109889969D02*
X129248819Y-109889969D01*
X129248819Y-109889969D02*
X129248819Y-109651874D01*
X129248819Y-109651874D02*
X129296438Y-109509017D01*
X129296438Y-109509017D02*
X129391676Y-109413779D01*
X129391676Y-109413779D02*
X129486914Y-109366160D01*
X129486914Y-109366160D02*
X129677390Y-109318541D01*
X129677390Y-109318541D02*
X129820247Y-109318541D01*
X129820247Y-109318541D02*
X130010723Y-109366160D01*
X130010723Y-109366160D02*
X130105961Y-109413779D01*
X130105961Y-109413779D02*
X130201200Y-109509017D01*
X130201200Y-109509017D02*
X130248819Y-109651874D01*
X130248819Y-109651874D02*
X130248819Y-109889969D01*
X129582152Y-108461398D02*
X130248819Y-108461398D01*
X129201200Y-108699493D02*
X129915485Y-108937588D01*
X129915485Y-108937588D02*
X129915485Y-108318541D01*
X155363104Y-87340839D02*
X155363104Y-86864649D01*
X155648819Y-87436077D02*
X154648819Y-87102744D01*
X154648819Y-87102744D02*
X155648819Y-86769411D01*
X154648819Y-86531315D02*
X154648819Y-85864649D01*
X154648819Y-85864649D02*
X155648819Y-86293220D01*
X154648819Y-95729445D02*
X155648819Y-95491350D01*
X155648819Y-95491350D02*
X154934533Y-95300874D01*
X154934533Y-95300874D02*
X155648819Y-95110398D01*
X155648819Y-95110398D02*
X154648819Y-94872303D01*
X155125009Y-94491350D02*
X155125009Y-94158017D01*
X155648819Y-94015160D02*
X155648819Y-94491350D01*
X155648819Y-94491350D02*
X154648819Y-94491350D01*
X154648819Y-94491350D02*
X154648819Y-94015160D01*
X154371200Y-95772303D02*
X154371200Y-93924684D01*
X145203104Y-96396112D02*
X145203104Y-95919922D01*
X145488819Y-96491350D02*
X144488819Y-96158017D01*
X144488819Y-96158017D02*
X145488819Y-95824684D01*
X145488819Y-94967541D02*
X145488819Y-95538969D01*
X145488819Y-95253255D02*
X144488819Y-95253255D01*
X144488819Y-95253255D02*
X144631676Y-95348493D01*
X144631676Y-95348493D02*
X144726914Y-95443731D01*
X144726914Y-95443731D02*
X144774533Y-95538969D01*
X145488819Y-94015160D02*
X145488819Y-94586588D01*
X145488819Y-94300874D02*
X144488819Y-94300874D01*
X144488819Y-94300874D02*
X144631676Y-94396112D01*
X144631676Y-94396112D02*
X144726914Y-94491350D01*
X144726914Y-94491350D02*
X144774533Y-94586588D01*
X126708819Y-87388458D02*
X126708819Y-86769411D01*
X126708819Y-86769411D02*
X127089771Y-87102744D01*
X127089771Y-87102744D02*
X127089771Y-86959887D01*
X127089771Y-86959887D02*
X127137390Y-86864649D01*
X127137390Y-86864649D02*
X127185009Y-86817030D01*
X127185009Y-86817030D02*
X127280247Y-86769411D01*
X127280247Y-86769411D02*
X127518342Y-86769411D01*
X127518342Y-86769411D02*
X127613580Y-86817030D01*
X127613580Y-86817030D02*
X127661200Y-86864649D01*
X127661200Y-86864649D02*
X127708819Y-86959887D01*
X127708819Y-86959887D02*
X127708819Y-87245601D01*
X127708819Y-87245601D02*
X127661200Y-87340839D01*
X127661200Y-87340839D02*
X127613580Y-87388458D01*
X127613580Y-86340839D02*
X127661200Y-86293220D01*
X127661200Y-86293220D02*
X127708819Y-86340839D01*
X127708819Y-86340839D02*
X127661200Y-86388458D01*
X127661200Y-86388458D02*
X127613580Y-86340839D01*
X127613580Y-86340839D02*
X127708819Y-86340839D01*
X126708819Y-85959887D02*
X126708819Y-85340840D01*
X126708819Y-85340840D02*
X127089771Y-85674173D01*
X127089771Y-85674173D02*
X127089771Y-85531316D01*
X127089771Y-85531316D02*
X127137390Y-85436078D01*
X127137390Y-85436078D02*
X127185009Y-85388459D01*
X127185009Y-85388459D02*
X127280247Y-85340840D01*
X127280247Y-85340840D02*
X127518342Y-85340840D01*
X127518342Y-85340840D02*
X127613580Y-85388459D01*
X127613580Y-85388459D02*
X127661200Y-85436078D01*
X127661200Y-85436078D02*
X127708819Y-85531316D01*
X127708819Y-85531316D02*
X127708819Y-85817030D01*
X127708819Y-85817030D02*
X127661200Y-85912268D01*
X127661200Y-85912268D02*
X127613580Y-85959887D01*
X126708819Y-85055125D02*
X127708819Y-84721792D01*
X127708819Y-84721792D02*
X126708819Y-84388459D01*
X164598819Y-91011333D02*
X165313104Y-91011333D01*
X165313104Y-91011333D02*
X165455961Y-91058952D01*
X165455961Y-91058952D02*
X165551200Y-91154190D01*
X165551200Y-91154190D02*
X165598819Y-91297047D01*
X165598819Y-91297047D02*
X165598819Y-91392285D01*
X164598819Y-90630380D02*
X164598819Y-90011333D01*
X164598819Y-90011333D02*
X164979771Y-90344666D01*
X164979771Y-90344666D02*
X164979771Y-90201809D01*
X164979771Y-90201809D02*
X165027390Y-90106571D01*
X165027390Y-90106571D02*
X165075009Y-90058952D01*
X165075009Y-90058952D02*
X165170247Y-90011333D01*
X165170247Y-90011333D02*
X165408342Y-90011333D01*
X165408342Y-90011333D02*
X165503580Y-90058952D01*
X165503580Y-90058952D02*
X165551200Y-90106571D01*
X165551200Y-90106571D02*
X165598819Y-90201809D01*
X165598819Y-90201809D02*
X165598819Y-90487523D01*
X165598819Y-90487523D02*
X165551200Y-90582761D01*
X165551200Y-90582761D02*
X165503580Y-90630380D01*
X124168819Y-82629189D02*
X124168819Y-82010142D01*
X124168819Y-82010142D02*
X124549771Y-82343475D01*
X124549771Y-82343475D02*
X124549771Y-82200618D01*
X124549771Y-82200618D02*
X124597390Y-82105380D01*
X124597390Y-82105380D02*
X124645009Y-82057761D01*
X124645009Y-82057761D02*
X124740247Y-82010142D01*
X124740247Y-82010142D02*
X124978342Y-82010142D01*
X124978342Y-82010142D02*
X125073580Y-82057761D01*
X125073580Y-82057761D02*
X125121200Y-82105380D01*
X125121200Y-82105380D02*
X125168819Y-82200618D01*
X125168819Y-82200618D02*
X125168819Y-82486332D01*
X125168819Y-82486332D02*
X125121200Y-82581570D01*
X125121200Y-82581570D02*
X125073580Y-82629189D01*
X125073580Y-81581570D02*
X125121200Y-81533951D01*
X125121200Y-81533951D02*
X125168819Y-81581570D01*
X125168819Y-81581570D02*
X125121200Y-81629189D01*
X125121200Y-81629189D02*
X125073580Y-81581570D01*
X125073580Y-81581570D02*
X125168819Y-81581570D01*
X124168819Y-81200618D02*
X124168819Y-80581571D01*
X124168819Y-80581571D02*
X124549771Y-80914904D01*
X124549771Y-80914904D02*
X124549771Y-80772047D01*
X124549771Y-80772047D02*
X124597390Y-80676809D01*
X124597390Y-80676809D02*
X124645009Y-80629190D01*
X124645009Y-80629190D02*
X124740247Y-80581571D01*
X124740247Y-80581571D02*
X124978342Y-80581571D01*
X124978342Y-80581571D02*
X125073580Y-80629190D01*
X125073580Y-80629190D02*
X125121200Y-80676809D01*
X125121200Y-80676809D02*
X125168819Y-80772047D01*
X125168819Y-80772047D02*
X125168819Y-81057761D01*
X125168819Y-81057761D02*
X125121200Y-81152999D01*
X125121200Y-81152999D02*
X125073580Y-81200618D01*
X124168819Y-80295856D02*
X125168819Y-79962523D01*
X125168819Y-79962523D02*
X124168819Y-79629190D01*
X164856438Y-81914904D02*
X164808819Y-82010142D01*
X164808819Y-82010142D02*
X164808819Y-82152999D01*
X164808819Y-82152999D02*
X164856438Y-82295856D01*
X164856438Y-82295856D02*
X164951676Y-82391094D01*
X164951676Y-82391094D02*
X165046914Y-82438713D01*
X165046914Y-82438713D02*
X165237390Y-82486332D01*
X165237390Y-82486332D02*
X165380247Y-82486332D01*
X165380247Y-82486332D02*
X165570723Y-82438713D01*
X165570723Y-82438713D02*
X165665961Y-82391094D01*
X165665961Y-82391094D02*
X165761200Y-82295856D01*
X165761200Y-82295856D02*
X165808819Y-82152999D01*
X165808819Y-82152999D02*
X165808819Y-82057761D01*
X165808819Y-82057761D02*
X165761200Y-81914904D01*
X165761200Y-81914904D02*
X165713580Y-81867285D01*
X165713580Y-81867285D02*
X165380247Y-81867285D01*
X165380247Y-81867285D02*
X165380247Y-82057761D01*
X165808819Y-81438713D02*
X164808819Y-81438713D01*
X164808819Y-81438713D02*
X165808819Y-80867285D01*
X165808819Y-80867285D02*
X164808819Y-80867285D01*
X165808819Y-80391094D02*
X164808819Y-80391094D01*
X164808819Y-80391094D02*
X164808819Y-80152999D01*
X164808819Y-80152999D02*
X164856438Y-80010142D01*
X164856438Y-80010142D02*
X164951676Y-79914904D01*
X164951676Y-79914904D02*
X165046914Y-79867285D01*
X165046914Y-79867285D02*
X165237390Y-79819666D01*
X165237390Y-79819666D02*
X165380247Y-79819666D01*
X165380247Y-79819666D02*
X165570723Y-79867285D01*
X165570723Y-79867285D02*
X165665961Y-79914904D01*
X165665961Y-79914904D02*
X165761200Y-80010142D01*
X165761200Y-80010142D02*
X165808819Y-80152999D01*
X165808819Y-80152999D02*
X165808819Y-80391094D01*
X162268819Y-82629189D02*
X162268819Y-82010142D01*
X162268819Y-82010142D02*
X162649771Y-82343475D01*
X162649771Y-82343475D02*
X162649771Y-82200618D01*
X162649771Y-82200618D02*
X162697390Y-82105380D01*
X162697390Y-82105380D02*
X162745009Y-82057761D01*
X162745009Y-82057761D02*
X162840247Y-82010142D01*
X162840247Y-82010142D02*
X163078342Y-82010142D01*
X163078342Y-82010142D02*
X163173580Y-82057761D01*
X163173580Y-82057761D02*
X163221200Y-82105380D01*
X163221200Y-82105380D02*
X163268819Y-82200618D01*
X163268819Y-82200618D02*
X163268819Y-82486332D01*
X163268819Y-82486332D02*
X163221200Y-82581570D01*
X163221200Y-82581570D02*
X163173580Y-82629189D01*
X163173580Y-81581570D02*
X163221200Y-81533951D01*
X163221200Y-81533951D02*
X163268819Y-81581570D01*
X163268819Y-81581570D02*
X163221200Y-81629189D01*
X163221200Y-81629189D02*
X163173580Y-81581570D01*
X163173580Y-81581570D02*
X163268819Y-81581570D01*
X162268819Y-81200618D02*
X162268819Y-80581571D01*
X162268819Y-80581571D02*
X162649771Y-80914904D01*
X162649771Y-80914904D02*
X162649771Y-80772047D01*
X162649771Y-80772047D02*
X162697390Y-80676809D01*
X162697390Y-80676809D02*
X162745009Y-80629190D01*
X162745009Y-80629190D02*
X162840247Y-80581571D01*
X162840247Y-80581571D02*
X163078342Y-80581571D01*
X163078342Y-80581571D02*
X163173580Y-80629190D01*
X163173580Y-80629190D02*
X163221200Y-80676809D01*
X163221200Y-80676809D02*
X163268819Y-80772047D01*
X163268819Y-80772047D02*
X163268819Y-81057761D01*
X163268819Y-81057761D02*
X163221200Y-81152999D01*
X163221200Y-81152999D02*
X163173580Y-81200618D01*
X162268819Y-80295856D02*
X163268819Y-79962523D01*
X163268819Y-79962523D02*
X162268819Y-79629190D01*
X121676438Y-81914904D02*
X121628819Y-82010142D01*
X121628819Y-82010142D02*
X121628819Y-82152999D01*
X121628819Y-82152999D02*
X121676438Y-82295856D01*
X121676438Y-82295856D02*
X121771676Y-82391094D01*
X121771676Y-82391094D02*
X121866914Y-82438713D01*
X121866914Y-82438713D02*
X122057390Y-82486332D01*
X122057390Y-82486332D02*
X122200247Y-82486332D01*
X122200247Y-82486332D02*
X122390723Y-82438713D01*
X122390723Y-82438713D02*
X122485961Y-82391094D01*
X122485961Y-82391094D02*
X122581200Y-82295856D01*
X122581200Y-82295856D02*
X122628819Y-82152999D01*
X122628819Y-82152999D02*
X122628819Y-82057761D01*
X122628819Y-82057761D02*
X122581200Y-81914904D01*
X122581200Y-81914904D02*
X122533580Y-81867285D01*
X122533580Y-81867285D02*
X122200247Y-81867285D01*
X122200247Y-81867285D02*
X122200247Y-82057761D01*
X122628819Y-81438713D02*
X121628819Y-81438713D01*
X121628819Y-81438713D02*
X122628819Y-80867285D01*
X122628819Y-80867285D02*
X121628819Y-80867285D01*
X122628819Y-80391094D02*
X121628819Y-80391094D01*
X121628819Y-80391094D02*
X121628819Y-80152999D01*
X121628819Y-80152999D02*
X121676438Y-80010142D01*
X121676438Y-80010142D02*
X121771676Y-79914904D01*
X121771676Y-79914904D02*
X121866914Y-79867285D01*
X121866914Y-79867285D02*
X122057390Y-79819666D01*
X122057390Y-79819666D02*
X122200247Y-79819666D01*
X122200247Y-79819666D02*
X122390723Y-79867285D01*
X122390723Y-79867285D02*
X122485961Y-79914904D01*
X122485961Y-79914904D02*
X122581200Y-80010142D01*
X122581200Y-80010142D02*
X122628819Y-80152999D01*
X122628819Y-80152999D02*
X122628819Y-80391094D01*
D12*
X123384000Y-88078000D02*
X123384000Y-93278000D01*
X161544000Y-88078000D02*
X123384000Y-88078000D01*
X161544000Y-88078000D02*
X161544000Y-90678000D01*
X161544000Y-90678000D02*
X164144000Y-90678000D01*
X162814000Y-88078000D02*
X164144000Y-88078000D01*
X164144000Y-88078000D02*
X164144000Y-89408000D01*
X164144000Y-90678000D02*
X164144000Y-93278000D01*
X164144000Y-93278000D02*
X123384000Y-93278000D01*
X123384000Y-102424000D02*
X123384000Y-107624000D01*
X161544000Y-102424000D02*
X123384000Y-102424000D01*
X161544000Y-102424000D02*
X161544000Y-105024000D01*
X161544000Y-105024000D02*
X164144000Y-105024000D01*
X162814000Y-102424000D02*
X164144000Y-102424000D01*
X164144000Y-102424000D02*
X164144000Y-103754000D01*
X164144000Y-105024000D02*
X164144000Y-107624000D01*
X164144000Y-107624000D02*
X123384000Y-107624000D01*
X120904000Y-17018000D02*
X166624000Y-17018000D01*
X120904000Y-77978000D02*
X120904000Y-17018000D01*
X122174000Y-77978000D02*
X122174000Y-79248000D01*
X123444000Y-19558000D02*
X164084000Y-19558000D01*
X123444000Y-77978000D02*
X123444000Y-19558000D01*
X124714000Y-77978000D02*
X124714000Y-79248000D01*
X125984000Y-22098000D02*
X125984000Y-77978000D01*
X125984000Y-77978000D02*
X120904000Y-77978000D01*
X161544000Y-22098000D02*
X125984000Y-22098000D01*
X161544000Y-77978000D02*
X161544000Y-22098000D01*
X162814000Y-77978000D02*
X162814000Y-79248000D01*
X164084000Y-19558000D02*
X164084000Y-77978000D01*
X165354000Y-77978000D02*
X165354000Y-79248000D01*
X166624000Y-17018000D02*
X166624000Y-77978000D01*
X166624000Y-77978000D02*
X161544000Y-77978000D01*
%LPC*%
X131064000Y-155219000D02*
X156464000Y-155219000D01*
X156464000Y-149319000D01*
X131064000Y-149319000D01*
X131064000Y-155219000D01*
G36*
X131064000Y-155219000D02*
G01*
X156464000Y-155219000D01*
X156464000Y-149319000D01*
X131064000Y-149319000D01*
X131064000Y-155219000D01*
G37*
D13*
G36*
X163814000Y-77708000D02*
G01*
X161814000Y-77708000D01*
X161814000Y-21828000D01*
X125714000Y-21828000D01*
X125714000Y-77708000D01*
X123714000Y-77708000D01*
X123714000Y-19828000D01*
X163814000Y-19828000D01*
X163814000Y-77708000D01*
G37*
G36*
X166354000Y-77708000D02*
G01*
X164354000Y-77708000D01*
X164354000Y-19288000D01*
X123174000Y-19288000D01*
X123174000Y-77708000D01*
X121174000Y-77708000D01*
X121174000Y-17288000D01*
X166354000Y-17288000D01*
X166354000Y-77708000D01*
G37*
D14*
X162814000Y-89408000D03*
D15*
X162814000Y-91948000D03*
X160274000Y-89408000D03*
X160274000Y-91948000D03*
X157734000Y-89408000D03*
X157734000Y-91948000D03*
X155194000Y-89408000D03*
X155194000Y-91948000D03*
X152654000Y-89408000D03*
X152654000Y-91948000D03*
X150114000Y-89408000D03*
X150114000Y-91948000D03*
X147574000Y-89408000D03*
X147574000Y-91948000D03*
X145034000Y-89408000D03*
X145034000Y-91948000D03*
X142494000Y-89408000D03*
X142494000Y-91948000D03*
X139954000Y-89408000D03*
X139954000Y-91948000D03*
X137414000Y-89408000D03*
X137414000Y-91948000D03*
X134874000Y-89408000D03*
X134874000Y-91948000D03*
X132334000Y-89408000D03*
X132334000Y-91948000D03*
X129794000Y-89408000D03*
X129794000Y-91948000D03*
X127254000Y-89408000D03*
X127254000Y-91948000D03*
X124714000Y-89408000D03*
X124714000Y-91948000D03*
D14*
X162814000Y-103754000D03*
D15*
X162814000Y-106294000D03*
X160274000Y-103754000D03*
X160274000Y-106294000D03*
X157734000Y-103754000D03*
X157734000Y-106294000D03*
X155194000Y-103754000D03*
X155194000Y-106294000D03*
X152654000Y-103754000D03*
X152654000Y-106294000D03*
X150114000Y-103754000D03*
X150114000Y-106294000D03*
X147574000Y-103754000D03*
X147574000Y-106294000D03*
X145034000Y-103754000D03*
X145034000Y-106294000D03*
X142494000Y-103754000D03*
X142494000Y-106294000D03*
X139954000Y-103754000D03*
X139954000Y-106294000D03*
X137414000Y-103754000D03*
X137414000Y-106294000D03*
X134874000Y-103754000D03*
X134874000Y-106294000D03*
X132334000Y-103754000D03*
X132334000Y-106294000D03*
X129794000Y-103754000D03*
X129794000Y-106294000D03*
X127254000Y-103754000D03*
X127254000Y-106294000D03*
X124714000Y-103754000D03*
X124714000Y-106294000D03*
D16*
X155014000Y-152019000D03*
X153514000Y-152019000D03*
X152014000Y-152019000D03*
X150514000Y-152019000D03*
X149014000Y-152019000D03*
X147514000Y-152019000D03*
X146014000Y-152019000D03*
X144514000Y-152019000D03*
X143014000Y-152019000D03*
X141514000Y-152019000D03*
X140014000Y-152019000D03*
X138514000Y-152019000D03*
X137014000Y-152019000D03*
X135514000Y-152019000D03*
X134014000Y-152019000D03*
X132514000Y-152019000D03*
D17*
X122174000Y-18288000D03*
X124714000Y-18288000D03*
X127254000Y-18288000D03*
X129794000Y-18288000D03*
X132334000Y-18288000D03*
X134874000Y-18288000D03*
X137414000Y-18288000D03*
X139954000Y-18288000D03*
X142494000Y-18288000D03*
X145034000Y-18288000D03*
X147574000Y-18288000D03*
X150114000Y-18288000D03*
X152654000Y-18288000D03*
X155194000Y-18288000D03*
X157734000Y-18288000D03*
X160274000Y-18288000D03*
X162814000Y-18288000D03*
X165354000Y-18288000D03*
X122174000Y-20828000D03*
X124714000Y-20828000D03*
X127254000Y-20828000D03*
X129794000Y-20828000D03*
X132334000Y-20828000D03*
X134874000Y-20828000D03*
X137414000Y-20828000D03*
X139954000Y-20828000D03*
X142494000Y-20828000D03*
X145034000Y-20828000D03*
X147574000Y-20828000D03*
X150114000Y-20828000D03*
X152654000Y-20828000D03*
X155194000Y-20828000D03*
X157734000Y-20828000D03*
X160274000Y-20828000D03*
X162814000Y-20828000D03*
X165354000Y-20828000D03*
X122174000Y-23368000D03*
X124714000Y-23368000D03*
D18*
X127254000Y-23368000D03*
X129794000Y-23368000D03*
X132334000Y-23368000D03*
X134874000Y-23368000D03*
X137414000Y-23368000D03*
X139954000Y-23368000D03*
X142494000Y-23368000D03*
X145034000Y-23368000D03*
X147574000Y-23368000D03*
X150114000Y-23368000D03*
X152654000Y-23368000D03*
X155194000Y-23368000D03*
X157734000Y-23368000D03*
X160274000Y-23368000D03*
D17*
X162814000Y-23368000D03*
X165354000Y-23368000D03*
X122174000Y-25908000D03*
X124714000Y-25908000D03*
D18*
X127254000Y-25908000D03*
X129794000Y-25908000D03*
X132334000Y-25908000D03*
X134874000Y-25908000D03*
X137414000Y-25908000D03*
X139954000Y-25908000D03*
X142494000Y-25908000D03*
X145034000Y-25908000D03*
X147574000Y-25908000D03*
X150114000Y-25908000D03*
X152654000Y-25908000D03*
X155194000Y-25908000D03*
X157734000Y-25908000D03*
X160274000Y-25908000D03*
D17*
X162814000Y-25908000D03*
X165354000Y-25908000D03*
X122174000Y-28448000D03*
X124714000Y-28448000D03*
D18*
X127254000Y-28448000D03*
X129794000Y-28448000D03*
X132334000Y-28448000D03*
X134874000Y-28448000D03*
X137414000Y-28448000D03*
X139954000Y-28448000D03*
X142494000Y-28448000D03*
X145034000Y-28448000D03*
X147574000Y-28448000D03*
X150114000Y-28448000D03*
X152654000Y-28448000D03*
X155194000Y-28448000D03*
X157734000Y-28448000D03*
X160274000Y-28448000D03*
D17*
X162814000Y-28448000D03*
X165354000Y-28448000D03*
X122174000Y-30988000D03*
X124714000Y-30988000D03*
D18*
X127254000Y-30988000D03*
X129794000Y-30988000D03*
X132334000Y-30988000D03*
X134874000Y-30988000D03*
X137414000Y-30988000D03*
X139954000Y-30988000D03*
X142494000Y-30988000D03*
X145034000Y-30988000D03*
X147574000Y-30988000D03*
X150114000Y-30988000D03*
X152654000Y-30988000D03*
X155194000Y-30988000D03*
X157734000Y-30988000D03*
X160274000Y-30988000D03*
D17*
X162814000Y-30988000D03*
X165354000Y-30988000D03*
X122174000Y-33528000D03*
X124714000Y-33528000D03*
D18*
X127254000Y-33528000D03*
X129794000Y-33528000D03*
X132334000Y-33528000D03*
X134874000Y-33528000D03*
X137414000Y-33528000D03*
X139954000Y-33528000D03*
X142494000Y-33528000D03*
X145034000Y-33528000D03*
X147574000Y-33528000D03*
X150114000Y-33528000D03*
X152654000Y-33528000D03*
X155194000Y-33528000D03*
X157734000Y-33528000D03*
X160274000Y-33528000D03*
D17*
X162814000Y-33528000D03*
X165354000Y-33528000D03*
X122174000Y-36068000D03*
X124714000Y-36068000D03*
D18*
X127254000Y-36068000D03*
X129794000Y-36068000D03*
X132334000Y-36068000D03*
X134874000Y-36068000D03*
X137414000Y-36068000D03*
X139954000Y-36068000D03*
X142494000Y-36068000D03*
X145034000Y-36068000D03*
X147574000Y-36068000D03*
X150114000Y-36068000D03*
X152654000Y-36068000D03*
X155194000Y-36068000D03*
X157734000Y-36068000D03*
X160274000Y-36068000D03*
D17*
X162814000Y-36068000D03*
X165354000Y-36068000D03*
X122174000Y-38608000D03*
X124714000Y-38608000D03*
D18*
X127254000Y-38608000D03*
X129794000Y-38608000D03*
X132334000Y-38608000D03*
X134874000Y-38608000D03*
X137414000Y-38608000D03*
X139954000Y-38608000D03*
X142494000Y-38608000D03*
X145034000Y-38608000D03*
X147574000Y-38608000D03*
X150114000Y-38608000D03*
X152654000Y-38608000D03*
X155194000Y-38608000D03*
X157734000Y-38608000D03*
X160274000Y-38608000D03*
D17*
X162814000Y-38608000D03*
X165354000Y-38608000D03*
X122174000Y-41148000D03*
X124714000Y-41148000D03*
D18*
X127254000Y-41148000D03*
X129794000Y-41148000D03*
X132334000Y-41148000D03*
X134874000Y-41148000D03*
X137414000Y-41148000D03*
X139954000Y-41148000D03*
X142494000Y-41148000D03*
X145034000Y-41148000D03*
X147574000Y-41148000D03*
X150114000Y-41148000D03*
X152654000Y-41148000D03*
X155194000Y-41148000D03*
X157734000Y-41148000D03*
X160274000Y-41148000D03*
D17*
X162814000Y-41148000D03*
X165354000Y-41148000D03*
X122174000Y-43688000D03*
X124714000Y-43688000D03*
D18*
X127254000Y-43688000D03*
X129794000Y-43688000D03*
X132334000Y-43688000D03*
X134874000Y-43688000D03*
X137414000Y-43688000D03*
X139954000Y-43688000D03*
X142494000Y-43688000D03*
X145034000Y-43688000D03*
X147574000Y-43688000D03*
X150114000Y-43688000D03*
X152654000Y-43688000D03*
X155194000Y-43688000D03*
X157734000Y-43688000D03*
X160274000Y-43688000D03*
D17*
X162814000Y-43688000D03*
X165354000Y-43688000D03*
X122174000Y-46228000D03*
X124714000Y-46228000D03*
D18*
X127254000Y-46228000D03*
X129794000Y-46228000D03*
X132334000Y-46228000D03*
X134874000Y-46228000D03*
X137414000Y-46228000D03*
X139954000Y-46228000D03*
X142494000Y-46228000D03*
X145034000Y-46228000D03*
X147574000Y-46228000D03*
X150114000Y-46228000D03*
X152654000Y-46228000D03*
X155194000Y-46228000D03*
X157734000Y-46228000D03*
X160274000Y-46228000D03*
D17*
X162814000Y-46228000D03*
X165354000Y-46228000D03*
X122174000Y-48768000D03*
X124714000Y-48768000D03*
D18*
X127254000Y-48768000D03*
X129794000Y-48768000D03*
X132334000Y-48768000D03*
X134874000Y-48768000D03*
X137414000Y-48768000D03*
X139954000Y-48768000D03*
X142494000Y-48768000D03*
X145034000Y-48768000D03*
X147574000Y-48768000D03*
X150114000Y-48768000D03*
X152654000Y-48768000D03*
X155194000Y-48768000D03*
X157734000Y-48768000D03*
X160274000Y-48768000D03*
D17*
X162814000Y-48768000D03*
X165354000Y-48768000D03*
X122174000Y-51308000D03*
X124714000Y-51308000D03*
D18*
X127254000Y-51308000D03*
X129794000Y-51308000D03*
X132334000Y-51308000D03*
X134874000Y-51308000D03*
X137414000Y-51308000D03*
X139954000Y-51308000D03*
X142494000Y-51308000D03*
X145034000Y-51308000D03*
X147574000Y-51308000D03*
X150114000Y-51308000D03*
X152654000Y-51308000D03*
X155194000Y-51308000D03*
X157734000Y-51308000D03*
X160274000Y-51308000D03*
D17*
X162814000Y-51308000D03*
X165354000Y-51308000D03*
X122174000Y-53848000D03*
X124714000Y-53848000D03*
D18*
X127254000Y-53848000D03*
X129794000Y-53848000D03*
X132334000Y-53848000D03*
X134874000Y-53848000D03*
X137414000Y-53848000D03*
X139954000Y-53848000D03*
X142494000Y-53848000D03*
X145034000Y-53848000D03*
X147574000Y-53848000D03*
X150114000Y-53848000D03*
X152654000Y-53848000D03*
X155194000Y-53848000D03*
X157734000Y-53848000D03*
X160274000Y-53848000D03*
D17*
X162814000Y-53848000D03*
X165354000Y-53848000D03*
X122174000Y-56388000D03*
X124714000Y-56388000D03*
D18*
X127254000Y-56388000D03*
X129794000Y-56388000D03*
X132334000Y-56388000D03*
X134874000Y-56388000D03*
X137414000Y-56388000D03*
X139954000Y-56388000D03*
X142494000Y-56388000D03*
X145034000Y-56388000D03*
X147574000Y-56388000D03*
X150114000Y-56388000D03*
X152654000Y-56388000D03*
X155194000Y-56388000D03*
X157734000Y-56388000D03*
X160274000Y-56388000D03*
D17*
X162814000Y-56388000D03*
X165354000Y-56388000D03*
X122174000Y-58928000D03*
X124714000Y-58928000D03*
D18*
X127254000Y-58928000D03*
X129794000Y-58928000D03*
X132334000Y-58928000D03*
X134874000Y-58928000D03*
X137414000Y-58928000D03*
X139954000Y-58928000D03*
X142494000Y-58928000D03*
X145034000Y-58928000D03*
X147574000Y-58928000D03*
X150114000Y-58928000D03*
X152654000Y-58928000D03*
X155194000Y-58928000D03*
X157734000Y-58928000D03*
X160274000Y-58928000D03*
D17*
X162814000Y-58928000D03*
X165354000Y-58928000D03*
X122174000Y-61468000D03*
X124714000Y-61468000D03*
D18*
X127254000Y-61468000D03*
X129794000Y-61468000D03*
X132334000Y-61468000D03*
X134874000Y-61468000D03*
X137414000Y-61468000D03*
X139954000Y-61468000D03*
X142494000Y-61468000D03*
X145034000Y-61468000D03*
X147574000Y-61468000D03*
X150114000Y-61468000D03*
X152654000Y-61468000D03*
X155194000Y-61468000D03*
X157734000Y-61468000D03*
X160274000Y-61468000D03*
D17*
X162814000Y-61468000D03*
X165354000Y-61468000D03*
X122174000Y-64008000D03*
X124714000Y-64008000D03*
D18*
X127254000Y-64008000D03*
X129794000Y-64008000D03*
X132334000Y-64008000D03*
X134874000Y-64008000D03*
X137414000Y-64008000D03*
X139954000Y-64008000D03*
X142494000Y-64008000D03*
X145034000Y-64008000D03*
X147574000Y-64008000D03*
X150114000Y-64008000D03*
X152654000Y-64008000D03*
X155194000Y-64008000D03*
X157734000Y-64008000D03*
X160274000Y-64008000D03*
D17*
X162814000Y-64008000D03*
X165354000Y-64008000D03*
X122174000Y-66548000D03*
X124714000Y-66548000D03*
D18*
X127254000Y-66548000D03*
X129794000Y-66548000D03*
X132334000Y-66548000D03*
X134874000Y-66548000D03*
X137414000Y-66548000D03*
X139954000Y-66548000D03*
X142494000Y-66548000D03*
X145034000Y-66548000D03*
X147574000Y-66548000D03*
X150114000Y-66548000D03*
X152654000Y-66548000D03*
X155194000Y-66548000D03*
X157734000Y-66548000D03*
X160274000Y-66548000D03*
D17*
X162814000Y-66548000D03*
X165354000Y-66548000D03*
X122174000Y-69088000D03*
X124714000Y-69088000D03*
D18*
X127254000Y-69088000D03*
X129794000Y-69088000D03*
X132334000Y-69088000D03*
X134874000Y-69088000D03*
X137414000Y-69088000D03*
X139954000Y-69088000D03*
X142494000Y-69088000D03*
X145034000Y-69088000D03*
X147574000Y-69088000D03*
X150114000Y-69088000D03*
X152654000Y-69088000D03*
X155194000Y-69088000D03*
X157734000Y-69088000D03*
X160274000Y-69088000D03*
D17*
X162814000Y-69088000D03*
X165354000Y-69088000D03*
X122174000Y-71628000D03*
X124714000Y-71628000D03*
D18*
X127254000Y-71628000D03*
X129794000Y-71628000D03*
X132334000Y-71628000D03*
X134874000Y-71628000D03*
X137414000Y-71628000D03*
X139954000Y-71628000D03*
X142494000Y-71628000D03*
X145034000Y-71628000D03*
X147574000Y-71628000D03*
X150114000Y-71628000D03*
X152654000Y-71628000D03*
X155194000Y-71628000D03*
X157734000Y-71628000D03*
X160274000Y-71628000D03*
D17*
X162814000Y-71628000D03*
X165354000Y-71628000D03*
X122174000Y-74168000D03*
X124714000Y-74168000D03*
D18*
X127254000Y-74168000D03*
X129794000Y-74168000D03*
X132334000Y-74168000D03*
X134874000Y-74168000D03*
X137414000Y-74168000D03*
X139954000Y-74168000D03*
X142494000Y-74168000D03*
X145034000Y-74168000D03*
X147574000Y-74168000D03*
X150114000Y-74168000D03*
X152654000Y-74168000D03*
X155194000Y-74168000D03*
X157734000Y-74168000D03*
X160274000Y-74168000D03*
D17*
X162814000Y-74168000D03*
X165354000Y-74168000D03*
X122174000Y-76708000D03*
X124714000Y-76708000D03*
D18*
X127254000Y-76708000D03*
X129794000Y-76708000D03*
X132334000Y-76708000D03*
X134874000Y-76708000D03*
X137414000Y-76708000D03*
X139954000Y-76708000D03*
X142494000Y-76708000D03*
X145034000Y-76708000D03*
X147574000Y-76708000D03*
X150114000Y-76708000D03*
X152654000Y-76708000D03*
X155194000Y-76708000D03*
X157734000Y-76708000D03*
X160274000Y-76708000D03*
D17*
X162814000Y-76708000D03*
X165354000Y-76708000D03*
%LPD*%
M02*
