%TF.GenerationSoftware,KiCad,Pcbnew,8.0.3-8.0.3-0~ubuntu24.04.1*%
%TF.CreationDate,2024-06-19T14:37:18-05:00*%
%TF.ProjectId,protopak64,70726f74-6f70-4616-9b36-342e6b696361,rev?*%
%TF.SameCoordinates,Original*%
%TF.FileFunction,Drillmap*%
%TF.FilePolarity,Positive*%
%FSLAX45Y45*%
G04 Gerber Fmt 4.5, Leading zero omitted, Abs format (unit mm)*
G04 Created by KiCad (PCBNEW 8.0.3-8.0.3-0~ubuntu24.04.1) date 2024-06-19 14:37:18*
%MOMM*%
%LPD*%
G01*
G04 APERTURE LIST*
%ADD10C,0.100000*%
%ADD11C,0.200000*%
G04 APERTURE END LIST*
D10*
X12065000Y-1600200D02*
X16687800Y-1600200D01*
X13106400Y-15468600D02*
X13106400Y-11607800D01*
X12395200Y-11430000D02*
X12217400Y-11252200D01*
X12928600Y-11430000D02*
X12395200Y-11430000D01*
X16535400Y-11252200D02*
X16535400Y-10134600D01*
X12217400Y-11252200D02*
X12217400Y-10134600D01*
X15646400Y-11607800D02*
X15824200Y-11430000D01*
X11988800Y-9906000D02*
X11988800Y-1676400D01*
X16687800Y-1600200D02*
X16764000Y-1676400D01*
X13106400Y-15468600D02*
X13157200Y-15519400D01*
X13157200Y-15519400D02*
X15595600Y-15519400D01*
X16357600Y-11430000D02*
X16535400Y-11252200D01*
X16357600Y-11430000D02*
X15824200Y-11430000D01*
X12065000Y-1600200D02*
X11988800Y-1676400D01*
X15595600Y-15519400D02*
X15646400Y-15468600D01*
X16764000Y-9906000D02*
X16535400Y-10134600D01*
X16764000Y-1676400D02*
X16764000Y-9906000D01*
X12217400Y-10134600D02*
X11988800Y-9906000D01*
X13106400Y-11607800D02*
X12928600Y-11430000D01*
X15646400Y-15468600D02*
X15646400Y-11607800D01*
D11*
X12244577Y-15835884D02*
X12244577Y-15635884D01*
X12244577Y-15635884D02*
X12292196Y-15635884D01*
X12292196Y-15635884D02*
X12320767Y-15645408D01*
X12320767Y-15645408D02*
X12339815Y-15664455D01*
X12339815Y-15664455D02*
X12349339Y-15683503D01*
X12349339Y-15683503D02*
X12358862Y-15721598D01*
X12358862Y-15721598D02*
X12358862Y-15750169D01*
X12358862Y-15750169D02*
X12349339Y-15788265D01*
X12349339Y-15788265D02*
X12339815Y-15807312D01*
X12339815Y-15807312D02*
X12320767Y-15826360D01*
X12320767Y-15826360D02*
X12292196Y-15835884D01*
X12292196Y-15835884D02*
X12244577Y-15835884D01*
X12444577Y-15835884D02*
X12444577Y-15702550D01*
X12444577Y-15740646D02*
X12454101Y-15721598D01*
X12454101Y-15721598D02*
X12463624Y-15712074D01*
X12463624Y-15712074D02*
X12482672Y-15702550D01*
X12482672Y-15702550D02*
X12501720Y-15702550D01*
X12568386Y-15835884D02*
X12568386Y-15702550D01*
X12568386Y-15635884D02*
X12558862Y-15645408D01*
X12558862Y-15645408D02*
X12568386Y-15654931D01*
X12568386Y-15654931D02*
X12577910Y-15645408D01*
X12577910Y-15645408D02*
X12568386Y-15635884D01*
X12568386Y-15635884D02*
X12568386Y-15654931D01*
X12692196Y-15835884D02*
X12673148Y-15826360D01*
X12673148Y-15826360D02*
X12663624Y-15807312D01*
X12663624Y-15807312D02*
X12663624Y-15635884D01*
X12796958Y-15835884D02*
X12777910Y-15826360D01*
X12777910Y-15826360D02*
X12768386Y-15807312D01*
X12768386Y-15807312D02*
X12768386Y-15635884D01*
X13025529Y-15835884D02*
X13025529Y-15635884D01*
X13025529Y-15635884D02*
X13092196Y-15778741D01*
X13092196Y-15778741D02*
X13158862Y-15635884D01*
X13158862Y-15635884D02*
X13158862Y-15835884D01*
X13339815Y-15835884D02*
X13339815Y-15731122D01*
X13339815Y-15731122D02*
X13330291Y-15712074D01*
X13330291Y-15712074D02*
X13311243Y-15702550D01*
X13311243Y-15702550D02*
X13273148Y-15702550D01*
X13273148Y-15702550D02*
X13254101Y-15712074D01*
X13339815Y-15826360D02*
X13320767Y-15835884D01*
X13320767Y-15835884D02*
X13273148Y-15835884D01*
X13273148Y-15835884D02*
X13254101Y-15826360D01*
X13254101Y-15826360D02*
X13244577Y-15807312D01*
X13244577Y-15807312D02*
X13244577Y-15788265D01*
X13244577Y-15788265D02*
X13254101Y-15769217D01*
X13254101Y-15769217D02*
X13273148Y-15759693D01*
X13273148Y-15759693D02*
X13320767Y-15759693D01*
X13320767Y-15759693D02*
X13339815Y-15750169D01*
X13435053Y-15702550D02*
X13435053Y-15902550D01*
X13435053Y-15712074D02*
X13454101Y-15702550D01*
X13454101Y-15702550D02*
X13492196Y-15702550D01*
X13492196Y-15702550D02*
X13511243Y-15712074D01*
X13511243Y-15712074D02*
X13520767Y-15721598D01*
X13520767Y-15721598D02*
X13530291Y-15740646D01*
X13530291Y-15740646D02*
X13530291Y-15797788D01*
X13530291Y-15797788D02*
X13520767Y-15816836D01*
X13520767Y-15816836D02*
X13511243Y-15826360D01*
X13511243Y-15826360D02*
X13492196Y-15835884D01*
X13492196Y-15835884D02*
X13454101Y-15835884D01*
X13454101Y-15835884D02*
X13435053Y-15826360D01*
X13616005Y-15816836D02*
X13625529Y-15826360D01*
X13625529Y-15826360D02*
X13616005Y-15835884D01*
X13616005Y-15835884D02*
X13606482Y-15826360D01*
X13606482Y-15826360D02*
X13616005Y-15816836D01*
X13616005Y-15816836D02*
X13616005Y-15835884D01*
X13616005Y-15712074D02*
X13625529Y-15721598D01*
X13625529Y-15721598D02*
X13616005Y-15731122D01*
X13616005Y-15731122D02*
X13606482Y-15721598D01*
X13606482Y-15721598D02*
X13616005Y-15712074D01*
X13616005Y-15712074D02*
X13616005Y-15731122D01*
M02*
